<svg xmlns="http://www.w3.org/2000/svg" xmlns:xlink="http://www.w3.org/1999/xlink" width="76.345" height="76.345" viewBox="0 0 76.345 76.345">
  <defs>
    <clipPath id="clip-path">
      <rect id="Rectangle_429725" data-name="Rectangle 429725" width="46" height="51" transform="translate(-9177 -11198)" fill="#fff" stroke="#707070" stroke-width="1" opacity="0"/>
    </clipPath>
  </defs>
  <g id="Group_1240853" data-name="Group 1240853" transform="translate(9192.208 11211)">
    <g id="Group_1240854" data-name="Group 1240854" transform="translate(-10213.899 -14319)">
      <g id="Group_1200255" data-name="Group 1200255" transform="translate(-0.275 15.345)">
        <g id="Group_1187152" data-name="Group 1187152">
          <g id="Group_1185946" data-name="Group 1185946" transform="translate(-3.07)">
            <g id="Group_1184280" data-name="Group 1184280">
              <g id="Group_1182168" data-name="Group 1182168">
                <g id="Group_1178877" data-name="Group 1178877">
                  <g id="Group_1111311" data-name="Group 1111311">
                    <g id="Group_1098742" data-name="Group 1098742" transform="translate(1025.482 3093.101)">
                      <g id="Rectangle_400898" data-name="Rectangle 400898" transform="translate(-0.445 -0.445)" fill="#e8de49" stroke="#a19a32" stroke-width="1" opacity="0.859">
                        <rect width="76.345" height="76.345" rx="38.172" stroke="none"/>
                        <rect x="0.5" y="0.5" width="75.345" height="75.345" rx="37.672" fill="none"/>
                      </g>
                      <g id="Rectangle_400907" data-name="Rectangle 400907" transform="translate(-0.446 -0.445)" fill="none" stroke="#a19a32" stroke-width="1">
                        <rect width="76.345" height="76.345" rx="38.172" stroke="none"/>
                        <rect x="0.5" y="0.5" width="75.345" height="75.345" rx="37.672" fill="none"/>
                      </g>
                    </g>
                  </g>
                </g>
              </g>
            </g>
          </g>
        </g>
      </g>
    </g>
    <g id="Mask_Group_1099529" data-name="Mask Group 1099529" clip-path="url(#clip-path)">
      <g id="public-service" transform="translate(-9179.274 -11197.774)">
        <g id="Group_1252783" data-name="Group 1252783">
          <path id="Path_1245302" data-name="Path 1245302" d="M25.276,29.607A14.458,14.458,0,1,0,10.818,15.149,14.487,14.487,0,0,0,25.276,29.607Z" fill="#ddebfd" fill-rule="evenodd"/>
          <path id="Path_1245303" data-name="Path 1245303" d="M25.276.691c.33,0,.655.011.98.034A14.465,14.465,0,0,0,13.5,19.652a2.663,2.663,0,0,0-.851,1.917v.621A14.462,14.462,0,0,1,25.276.691Z" fill="#c7d4e4" fill-rule="evenodd"/>
          <path id="Path_1245304" data-name="Path 1245304" d="M21.067,11.223A2.667,2.667,0,1,0,18.4,8.555a2.667,2.667,0,0,0,2.667,2.667Z" fill="#fbbd80" fill-rule="evenodd"/>
          <path id="Path_1245305" data-name="Path 1245305" d="M17.028,21.709H25.1a.171.171,0,0,0,.173-.165V14.06a3.048,3.048,0,0,0-3.2-2.838H20.059a3.047,3.047,0,0,0-3.2,2.838v7.484a.169.169,0,0,0,.171.165Z" fill="#45bf64" fill-rule="evenodd"/>
          <path id="Path_1245306" data-name="Path 1245306" d="M29.485,11.223a2.667,2.667,0,1,0-2.667-2.667,2.667,2.667,0,0,0,2.667,2.667Z" fill="#fbbd80" fill-rule="evenodd"/>
          <path id="Path_1245307" data-name="Path 1245307" d="M25.447,21.709h8.077a.17.17,0,0,0,.171-.165V14.06a3.048,3.048,0,0,0-3.2-2.838H28.48a3.048,3.048,0,0,0-3.2,2.838v7.484A.169.169,0,0,0,25.447,21.709Z" fill="#0091ca" fill-rule="evenodd"/>
          <path id="Path_1245308" data-name="Path 1245308" d="M16.857,18.734a2.667,2.667,0,1,0-2.67-2.667,2.667,2.667,0,0,0,2.67,2.667Z" fill="#fbbd80" fill-rule="evenodd"/>
          <path id="Path_1245309" data-name="Path 1245309" d="M25.276,18.734a2.667,2.667,0,1,0-2.667-2.667,2.667,2.667,0,0,0,2.667,2.667Z" fill="#fbbd80" fill-rule="evenodd"/>
          <path id="Path_1245310" data-name="Path 1245310" d="M33.694,18.734a2.667,2.667,0,1,0-2.667-2.667,2.667,2.667,0,0,0,2.667,2.667Z" fill="#fbbd80" fill-rule="evenodd"/>
          <path id="Path_1245311" data-name="Path 1245311" d="M21.067,28.983a14.5,14.5,0,0,1-8.422-6.793v-.621a3.047,3.047,0,0,1,3.2-2.835h2.012a3.047,3.047,0,0,1,3.2,2.835Z" fill="#0083b6" fill-rule="evenodd"/>
          <path id="Path_1245312" data-name="Path 1245312" d="M29.485,28.983a14.507,14.507,0,0,1-8.418,0V21.569a3.045,3.045,0,0,1,3.2-2.835h2.012a3.046,3.046,0,0,1,3.2,2.835Z" fill="#f54756" fill-rule="evenodd"/>
          <path id="Path_1245313" data-name="Path 1245313" d="M37.9,22.191v-.621a3.046,3.046,0,0,0-3.2-2.835H32.69a3.046,3.046,0,0,0-3.2,2.835v7.414A14.5,14.5,0,0,0,37.9,22.191Z" fill="#e5c53b" fill-rule="evenodd"/>
        </g>
        <path id="Path_1245314" data-name="Path 1245314" d="M38.144,35.871a.691.691,0,0,1-.817-1.114l4.386-3.235.039-.025a2.278,2.278,0,0,0,1.125-2.217,1.852,1.852,0,0,0-.341-.742,2.1,2.1,0,0,0-.649-.563,2.191,2.191,0,0,0-2.426.2l0,0-7.313,5.4a3.332,3.332,0,0,0-1.092,1.338,5.054,5.054,0,0,0-.4,1.772l-.683,10.6,9.359,1.483,1.119-7.058a4.1,4.1,0,0,1,.526-1.469,4,4,0,0,1,1.055-1.153l2.888-2.174a4.509,4.509,0,0,0,1.3-1.458,3.819,3.819,0,0,0,.445-1.78L46.9,17.271c-.006-.126-.011-.291-.017-.462-.028-.873-.056-1.822-1.167-2.024a.518.518,0,0,1-.1-.017,1.5,1.5,0,0,0-1,.207,1.013,1.013,0,0,0-.481.666L42.955,27.035a3.5,3.5,0,0,1,.677.671,3.189,3.189,0,0,1,.593,1.3A3.568,3.568,0,0,1,42.575,32.6a.32.32,0,0,1-.048.039Z" fill="#fbbd80"/>
        <path id="Path_1245315" data-name="Path 1245315" d="M26.476,46.578l.6-3.787a.843.843,0,0,1,.963-.7L42.594,44.4a.845.845,0,0,1,.7.963l-.6,3.787a.843.843,0,0,1-.963.7L27.176,47.541a.843.843,0,0,1-.7-.963Z" fill="#685e68" fill-rule="evenodd"/>
        <path id="Path_1245316" data-name="Path 1245316" d="M13.222,34.757a.69.69,0,1,1-.814,1.114L8.022,32.635a.573.573,0,0,1-.047-.039,3.566,3.566,0,0,1-1.649-3.588,3.19,3.19,0,0,1,.593-1.3,3.422,3.422,0,0,1,.677-.671L6.41,15.642a1.018,1.018,0,0,0-.479-.666,1.507,1.507,0,0,0-1-.207.616.616,0,0,1-.1.017c-1.111.2-1.142,1.15-1.167,2.024-.006.171-.011.336-.02.462l.23,16.405a3.783,3.783,0,0,0,.442,1.78,4.519,4.519,0,0,0,1.307,1.458L8.52,39.089A3.94,3.94,0,0,1,10.1,41.712l1.119,7.058,9.359-1.483-.683-10.6a5.115,5.115,0,0,0-.395-1.772A3.339,3.339,0,0,0,18.4,33.576l-7.312-5.4,0,0a2.186,2.186,0,0,0-2.424-.2,2.109,2.109,0,0,0-.652.563,1.846,1.846,0,0,0-.339.742A2.269,2.269,0,0,0,8.8,31.5l.042.025Z" fill="#fbbd80"/>
        <path id="Path_1245317" data-name="Path 1245317" d="M24.075,46.578l-.6-3.787a.843.843,0,0,0-.963-.7L7.958,44.4a.843.843,0,0,0-.7.963l.6,3.787a.844.844,0,0,0,.966.7l14.553-2.306a.845.845,0,0,0,.7-.963Z" fill="#685e68" fill-rule="evenodd"/>
        <path id="Path_1245318" data-name="Path 1245318" d="M9.407,48.9l-.6-3.789a.845.845,0,0,1,.7-.963L7.958,44.4a.843.843,0,0,0-.7.963l.6,3.787a.844.844,0,0,0,.966.7l1.542-.243a.844.844,0,0,1-.957-.7Z" fill="#5e555e" fill-rule="evenodd"/>
        <path id="Path_1245319" data-name="Path 1245319" d="M28.027,46.825l.6-3.789a.845.845,0,0,1,.963-.7l-1.55-.243a.843.843,0,0,0-.963.7l-.6,3.787a.843.843,0,0,0,.7.963l1.545.246a.845.845,0,0,1-.694-.963Z" fill="#5e555e" fill-rule="evenodd"/>
        <path id="Path_1245320" data-name="Path 1245320" d="M10.057,38.185,7.168,36.013a4.539,4.539,0,0,1-1.3-1.458,3.84,3.84,0,0,1-.445-1.783L5.192,16.366c.008-.123.011-.291.017-.459a4.309,4.309,0,0,1,.134-1.139,1.664,1.664,0,0,0-.409,0,.616.616,0,0,1-.1.017c-1.111.2-1.142,1.15-1.167,2.024-.006.171-.011.336-.02.462l.23,16.406a3.783,3.783,0,0,0,.442,1.78,4.519,4.519,0,0,0,1.307,1.458L8.52,39.089A3.94,3.94,0,0,1,10.1,41.712L10.463,44l1.64-.26-.465-2.933a3.975,3.975,0,0,0-1.581-2.622Z" fill="#e2aa73" fill-rule="evenodd"/>
        <path id="Path_1245321" data-name="Path 1245321" d="M40.492,38.185l2.888-2.172a4.55,4.55,0,0,0,1.307-1.458,3.8,3.8,0,0,0,.442-1.783l.227-16.406c-.006-.123-.011-.291-.017-.459a4.31,4.31,0,0,0-.132-1.139,1.664,1.664,0,0,1,.409,0,.518.518,0,0,0,.1.017c1.111.2,1.139,1.15,1.167,2.024.006.171.011.336.017.462l-.227,16.406a3.819,3.819,0,0,1-.445,1.78,4.509,4.509,0,0,1-1.3,1.458l-2.888,2.175a4,4,0,0,0-1.055,1.153,4.1,4.1,0,0,0-.526,1.469L40.089,44l-1.64-.26.465-2.933a4.006,4.006,0,0,1,.523-1.467,4.087,4.087,0,0,1,1.055-1.156Z" fill="#e2aa73" fill-rule="evenodd"/>
        <path id="Path_1245322" data-name="Path 1245322" d="M21.067,28.616A14.5,14.5,0,0,1,13.7,22.191v-.621a3.047,3.047,0,0,1,3.2-2.835h.957a3.047,3.047,0,0,1,3.2,2.835Z" fill="#0091ca" fill-rule="evenodd"/>
        <path id="Path_1245323" data-name="Path 1245323" d="M22.362,21.709v-.14a3.007,3.007,0,0,1,2.913-2.824c.1-.008.19-.011.288-.011h-1.3a3.045,3.045,0,0,0-3.2,2.835v7.414a14.424,14.424,0,0,0,4.209.624c.216,0,.434-.006.646-.014a14.493,14.493,0,0,1-3.56-.61Z" fill="#dd404d" fill-rule="evenodd"/>
        <path id="Path_1245324" data-name="Path 1245324" d="M34.7,18.734h-.918a3.046,3.046,0,0,0-3.2,2.835V28.6A14.521,14.521,0,0,0,37.9,22.191v-.621a3.046,3.046,0,0,0-3.2-2.835Z" fill="#fedb41" fill-rule="evenodd"/>
        <path id="Path_1245325" data-name="Path 1245325" d="M16.944,13.4a2.683,2.683,0,0,1,1.038.249,3.116,3.116,0,0,1,3.171-2.426H20.059A3.165,3.165,0,0,0,16.944,13.4Z" fill="#3eac5a" fill-rule="evenodd"/>
        <path id="Path_1245326" data-name="Path 1245326" d="M26.384,13.641a3.12,3.12,0,0,1,3.168-2.418H28.48A3.166,3.166,0,0,0,25.363,13.4a2.708,2.708,0,0,1,1.022.241Z" fill="#0083b6" fill-rule="evenodd"/>
        <path id="Path_1245327" data-name="Path 1245327" d="M26.818,8.555a2.667,2.667,0,0,0,2.668,2.667,2.606,2.606,0,0,0,.444-.036,2.666,2.666,0,0,1,0-5.259,2.606,2.606,0,0,0-.445-.039,2.668,2.668,0,0,0-2.667,2.667Zm-7.531,0a2.666,2.666,0,0,1,2.222-2.628,2.55,2.55,0,0,0-.442-.04,2.667,2.667,0,1,0,0,5.334,2.551,2.551,0,0,0,.442-.036,2.667,2.667,0,0,1-2.222-2.631ZM16.857,18.583a2.669,2.669,0,0,1,.056-5.052,2.517,2.517,0,0,1,.386-.1,2.933,2.933,0,0,0-.355-.036h-.087a2.667,2.667,0,1,0,0,5.334A2.854,2.854,0,0,0,17.3,18.7,2.632,2.632,0,0,1,16.857,18.583Zm5.751-2.516a2.667,2.667,0,0,0,2.668,2.667,2.919,2.919,0,0,0,.444-.036,2.6,2.6,0,0,1-.445-.115,2.669,2.669,0,0,1-.05-5.015c.036-.011.07-.025.106-.036a2.554,2.554,0,0,1,.389-.1,3.037,3.037,0,0,0-.358-.036h-.176a2.669,2.669,0,0,0-2.578,2.667Zm8.418,0a2.668,2.668,0,0,0,2.667,2.667,2.919,2.919,0,0,0,.445-.036,2.6,2.6,0,0,1-.445-.115,2.669,2.669,0,0,1-.048-5.015,2.611,2.611,0,0,1,.493-.132,2.605,2.605,0,0,0-.445-.036h-.087a2.67,2.67,0,0,0-2.58,2.667Z" fill="#e2aa73" fill-rule="evenodd"/>
        <path id="Path_1245328" data-name="Path 1245328" d="M29.718,29.632A15.219,15.219,0,0,0,38.459,22.6a.691.691,0,0,0,.085-.152,15.147,15.147,0,1,0-26.54,0,.687.687,0,0,0,.087.156,15.222,15.222,0,0,0,8.73,7.028.7.7,0,0,0,.1.029,15.157,15.157,0,0,0,8.725,0,.706.706,0,0,0,.074-.022ZM21.064,19.566a3.865,3.865,0,0,0-1.714-1.254A3.355,3.355,0,0,0,17.958,12.9a2.663,2.663,0,0,1,2.1-.981h2.012a2.663,2.663,0,0,1,2.1.981,3.355,3.355,0,0,0-1.393,5.416,3.869,3.869,0,0,0-1.717,1.255Zm-6.185-3.5a1.976,1.976,0,1,1,1.976,1.976A1.976,1.976,0,0,1,14.879,16.066Zm6.185-5.536A1.976,1.976,0,1,1,23.04,8.555a1.976,1.976,0,0,1-1.976,1.976ZM23.3,16.066a1.976,1.976,0,1,1,1.976,1.976A1.976,1.976,0,0,1,23.3,16.066Zm3.076-3.173a2.663,2.663,0,0,1,2.1-.981h2.012a2.663,2.663,0,0,1,2.1.981A3.355,3.355,0,0,0,31.2,18.311a3.865,3.865,0,0,0-1.714,1.254,3.868,3.868,0,0,0-1.714-1.254,3.355,3.355,0,0,0-1.394-5.418Zm3.109-2.363a1.976,1.976,0,1,1,1.976-1.976,1.976,1.976,0,0,1-1.976,1.976Zm4.209,7.511a1.976,1.976,0,1,1,1.976-1.976,1.976,1.976,0,0,1-1.976,1.976Zm-3.518,9.97V21.571a2.353,2.353,0,0,1,2.51-2.146H34.7a2.354,2.354,0,0,1,2.513,2.146V22A13.844,13.844,0,0,1,30.176,28.012Zm-4.9-26.63A13.766,13.766,0,0,1,38.167,19.968a3.8,3.8,0,0,0-1.978-1.657A3.356,3.356,0,0,0,34.1,12.733,3.722,3.722,0,0,0,31.98,10.8a3.358,3.358,0,1,0-4.992,0,3.841,3.841,0,0,0-1.714,1.254A3.841,3.841,0,0,0,23.56,10.8a3.358,3.358,0,1,0-4.992,0,3.722,3.722,0,0,0-2.117,1.934,3.356,3.356,0,0,0-2.092,5.578,3.8,3.8,0,0,0-1.978,1.657A13.766,13.766,0,0,1,25.276,1.382ZM13.337,22v-.426a2.354,2.354,0,0,1,2.513-2.146h2.012a2.353,2.353,0,0,1,2.51,2.146v6.44A13.847,13.847,0,0,1,13.337,22Zm8.418,6.461V21.571a2.354,2.354,0,0,1,2.513-2.146h2.012a2.354,2.354,0,0,1,2.513,2.146v6.887a13.788,13.788,0,0,1-7.038,0ZM48.273,17.2c-.008-.141-.013-.286-.017-.433-.035-1.119-.093-2.992-2.377-3.353a2.884,2.884,0,0,0-2.14.489,2.36,2.36,0,0,0-.967,1.544c0,.012,0,.024,0,.036L41.631,26.411a3.581,3.581,0,0,0-2.994.655l-7.313,5.4a5.151,5.151,0,0,0-2.047,4.133l-.318,4.942-.812-.128a1.534,1.534,0,0,0-1.754,1.274l-.6,3.786v0a1.539,1.539,0,0,0,1.275,1.75l14.559,2.309a1.536,1.536,0,0,0,1.75-1.275l.6-3.788A1.534,1.534,0,0,0,42.7,43.713l-1.14-.181.253-1.609a2.588,2.588,0,0,1,1.045-1.735l2.888-2.171a5.307,5.307,0,0,0,2.3-4.324l.229-16.444c0-.016,0-.033,0-.049ZM42.58,45.139a.147.147,0,0,1,.027.111l-.6,3.788a.155.155,0,0,1-.172.126L27.282,46.856a.157.157,0,0,1-.125-.174l.6-3.784a.152.152,0,0,1,.172-.125l12.721,2.016.01,0h.006l1.815.288a.148.148,0,0,1,.1.061Zm4.082-11.465a3.893,3.893,0,0,1-1.747,3.237l-2.889,2.172a3.964,3.964,0,0,0-1.579,2.624l-.253,1.608L30.33,41.753l.326-5.071a3.82,3.82,0,0,1,1.489-3.109l7.312-5.4a2.155,2.155,0,0,1,3.09.383c.54.733.6,1.895-.841,2.96l-4.383,3.235a.691.691,0,0,0,.821,1.112l4.382-3.235c2.121-1.564,2.1-3.584,1.133-4.892a3.454,3.454,0,0,0-.7-.708l1.184-11.386a.987.987,0,0,1,.411-.624,1.493,1.493,0,0,1,1.111-.243c1.056.167,1.171.689,1.212,2.03,0,.15.009.3.017.444ZM30.09,45.251a.691.691,0,0,1-.674.542.7.7,0,0,1-.15-.016l-.025-.006a.691.691,0,0,1,.3-1.35l.025.006A.691.691,0,0,1,30.09,45.251Zm-5.934-2.569A1.534,1.534,0,0,0,22.4,41.407l-.812.128-.318-4.942a5.14,5.14,0,0,0-2.048-4.13l-7.313-5.4A3.581,3.581,0,0,0,8.92,26.41L7.781,15.483c0-.012,0-.024,0-.036A2.36,2.36,0,0,0,6.81,13.9a2.882,2.882,0,0,0-2.138-.49c-2.286.361-2.344,2.234-2.379,3.353,0,.147-.009.292-.017.433,0,.016,0,.033,0,.049L2.5,33.692a5.307,5.307,0,0,0,2.3,4.324L7.69,40.187a2.589,2.589,0,0,1,1.047,1.737l.255,1.608-1.142.181a1.534,1.534,0,0,0-1.274,1.753l.6,3.79A1.539,1.539,0,0,0,8.929,50.53l14.555-2.309a1.535,1.535,0,0,0,1.274-1.754ZM10.1,41.708a3.964,3.964,0,0,0-1.58-2.625L5.634,36.911a3.9,3.9,0,0,1-1.747-3.238l-.229-16.42c.008-.145.013-.294.017-.444.041-1.341.157-1.864,1.214-2.031A1.5,1.5,0,0,1,6,15.022a.988.988,0,0,1,.411.624L7.595,27.031a3.453,3.453,0,0,0-.706.71c-.965,1.308-.989,3.328,1.132,4.892L12.4,35.868a.691.691,0,0,0,.821-1.112L8.842,31.521C7.4,30.456,7.461,29.294,8,28.561a2.154,2.154,0,0,1,3.09-.383l7.313,5.4a3.811,3.811,0,0,1,1.489,3.106l.326,5.071-9.862,1.563Zm13.165,5.148L8.716,49.165a.157.157,0,0,1-.175-.124l-.6-3.79a.147.147,0,0,1,.027-.11.148.148,0,0,1,.1-.061l1.812-.287h.013l.019,0L22.62,42.773l.023,0a.153.153,0,0,1,.148.127l.6,3.786a.154.154,0,0,1-.125.172Zm-1.433-1.91a.691.691,0,0,1-.525.824l-.025.006a.7.7,0,0,1-.15.016.691.691,0,0,1-.149-1.366l.025-.006a.691.691,0,0,1,.825.525Z"/>
      </g>
    </g>
  </g>
</svg>
