<svg xmlns="http://www.w3.org/2000/svg" xmlns:xlink="http://www.w3.org/1999/xlink" width="108" height="108" viewBox="0 0 108 108">
  <defs>
    <filter id="Rectangle_411831" x="0" y="0" width="108" height="108" filterUnits="userSpaceOnUse">
      <feOffset dy="3" input="SourceAlpha"/>
      <feGaussianBlur stdDeviation="3" result="blur"/>
      <feFlood flood-opacity="0.161"/>
      <feComposite operator="in" in2="blur"/>
      <feComposite in="SourceGraphic"/>
    </filter>
    <clipPath id="clip-path">
      <rect id="Rectangle_430334" data-name="Rectangle 430334" width="53" height="60" transform="translate(-3315 -10265)" fill="#fff" stroke="#707070" stroke-width="1" opacity="0"/>
    </clipPath>
  </defs>
  <g id="Group_1248633" data-name="Group 1248633" transform="translate(3342.27 10286)">
    <g id="Group_1242625" data-name="Group 1242625" transform="translate(-3333.27 -10280)">
      <g id="Group_1230590" data-name="Group 1230590">
        <g transform="matrix(1, 0, 0, 1, -9, -6)" filter="url(#Rectangle_411831)">
          <g id="Rectangle_411831-2" data-name="Rectangle 411831" transform="translate(9 6)" fill="#a4e0d4" stroke="#fff" stroke-width="2">
            <path d="M5,0H58A32,32,0,0,1,90,32V85a5,5,0,0,1-5,5H32A32,32,0,0,1,0,58V5A5,5,0,0,1,5,0Z" stroke="none"/>
            <path d="M5,1H58A31,31,0,0,1,89,32V85a4,4,0,0,1-4,4H32A31,31,0,0,1,1,58V5A4,4,0,0,1,5,1Z" fill="none"/>
          </g>
        </g>
      </g>
    </g>
    <g id="Mask_Group_1099575" data-name="Mask Group 1099575" clip-path="url(#clip-path)">
      <g id="grupo_1_" data-name="grupo (1)" transform="translate(-3315 -10261.5)">
        <path id="Path_1246069" data-name="Path 1246069" d="M12.416,17.4H2.184a.805.805,0,0,1-.805-.805V14.341A5.921,5.921,0,0,1,7.3,8.42h0a5.921,5.921,0,0,1,5.921,5.921V16.6A.805.805,0,0,1,12.416,17.4Z" fill="#c3da40"/>
        <path id="Path_1246070" data-name="Path 1246070" d="M18.421,37.453a5.076,5.076,0,0,1-2.19-2.58,5.275,5.275,0,0,1-3.177-4.894,5.216,5.216,0,0,1,5.125-5.291H24.7a5.294,5.294,0,0,1,0,10.582H19.645a5.079,5.079,0,0,0,.052,1.352L19.931,38a.221.221,0,0,1-.339.221Z" fill="#ff62a7"/>
        <path id="Path_1246071" data-name="Path 1246071" d="M29.828,29.978A5.216,5.216,0,0,0,24.7,24.687H18.18a4.958,4.958,0,0,0-2.068.452,8.41,8.41,0,0,0,8.428,7.8h4.408A5.381,5.381,0,0,0,29.828,29.978Z" fill="#fc5479"/>
        <path id="Path_1246072" data-name="Path 1246072" d="M31.87,33.682a6.2,6.2,0,0,0,.142-2.051H25.679a6.49,6.49,0,1,1-.1-12.98h8.187a6.549,6.549,0,0,1,6.58,6.412,6.466,6.466,0,0,1-4.028,6.083,6.89,6.89,0,0,1-3.226,3.442l-1.215.7a.221.221,0,0,1-.326-.241Z" fill="#31d2f7"/>
        <path id="Path_1246073" data-name="Path 1246073" d="M24.4,27.005a6.5,6.5,0,0,1,6.489-6.591h7.382a6.618,6.618,0,0,0-4.5-1.763H25.58a6.49,6.49,0,1,0,.1,12.98h.8A6.414,6.414,0,0,1,24.4,27.005Z" fill="#13ace8"/>
        <path id="Path_1246074" data-name="Path 1246074" d="M50.767,17.4H40.535a.805.805,0,0,1-.805-.805V14.341A5.921,5.921,0,0,1,45.651,8.42h0a5.921,5.921,0,0,1,5.921,5.921V16.6A.805.805,0,0,1,50.767,17.4Z" fill="#ffcf59"/>
        <path id="Path_1246075" data-name="Path 1246075" d="M12.416,49.032H2.184a.805.805,0,0,1-.805-.805V45.968A5.921,5.921,0,0,1,7.3,40.047h0a5.921,5.921,0,0,1,5.921,5.921v2.259A.805.805,0,0,1,12.416,49.032Z" fill="#ff62a7"/>
        <path id="Path_1246076" data-name="Path 1246076" d="M50.767,49.032H40.535a.805.805,0,0,1-.805-.805V45.968a5.921,5.921,0,0,1,5.921-5.921h0a5.921,5.921,0,0,1,5.921,5.921v2.259A.805.805,0,0,1,50.767,49.032Z" fill="#31d2f7"/>
        <path id="Path_1246077" data-name="Path 1246077" d="M5.929,16.6V14.341A5.922,5.922,0,0,1,9.575,8.874,5.9,5.9,0,0,0,7.3,8.42h0a5.921,5.921,0,0,0-5.921,5.921V16.6a.805.805,0,0,0,.805.805h4.55A.8.8,0,0,1,5.929,16.6Z" fill="#adbc15"/>
        <path id="Path_1246078" data-name="Path 1246078" d="M44.28,16.6V14.341a5.922,5.922,0,0,1,3.646-5.467,5.9,5.9,0,0,0-2.275-.454h0a5.921,5.921,0,0,0-5.921,5.921V16.6a.805.805,0,0,0,.805.805h4.55A.8.8,0,0,1,44.28,16.6Z" fill="#ffb55c"/>
        <path id="Path_1246079" data-name="Path 1246079" d="M5.929,48.226V45.968A5.922,5.922,0,0,1,9.575,40.5,5.9,5.9,0,0,0,7.3,40.047h0a5.921,5.921,0,0,0-5.921,5.921v2.259a.805.805,0,0,0,.805.805h4.55A.805.805,0,0,1,5.929,48.226Z" fill="#fc5479"/>
        <path id="Path_1246080" data-name="Path 1246080" d="M44.28,48.226V45.968A5.922,5.922,0,0,1,47.926,40.5a5.9,5.9,0,0,0-2.275-.454h0a5.921,5.921,0,0,0-5.921,5.921v2.259a.805.805,0,0,0,.805.805h4.55A.805.805,0,0,1,44.28,48.226Z" fill="#13ace8"/>
        <g id="Group_1253018" data-name="Group 1253018">
          <path id="Path_1246081" data-name="Path 1246081" d="M7.249,11.791a3.837,3.837,0,1,1,3.837-3.837A3.841,3.841,0,0,1,7.249,11.791Z" fill="#fad393"/>
          <path id="Path_1246082" data-name="Path 1246082" d="M45.6,11.791a3.837,3.837,0,1,1,3.837-3.837A3.841,3.841,0,0,1,45.6,11.791Z" fill="#fad393"/>
          <path id="Path_1246083" data-name="Path 1246083" d="M7.249,43.418a3.837,3.837,0,1,1,3.837-3.837A3.841,3.841,0,0,1,7.249,43.418Z" fill="#fad393"/>
          <path id="Path_1246084" data-name="Path 1246084" d="M45.6,43.418a3.837,3.837,0,1,1,3.837-3.837A3.841,3.841,0,0,1,45.6,43.418Z" fill="#fad393"/>
        </g>
        <g id="Group_1253019" data-name="Group 1253019">
          <path id="Path_1246085" data-name="Path 1246085" d="M7.036,7.954A3.84,3.84,0,0,1,9.061,4.573a3.837,3.837,0,1,0,0,6.762A3.84,3.84,0,0,1,7.036,7.954Z" fill="#edb769"/>
          <path id="Path_1246086" data-name="Path 1246086" d="M45.387,7.954a3.84,3.84,0,0,1,2.025-3.381,3.837,3.837,0,1,0,0,6.762A3.84,3.84,0,0,1,45.387,7.954Z" fill="#edb769"/>
          <path id="Path_1246087" data-name="Path 1246087" d="M7.036,39.581A3.84,3.84,0,0,1,9.061,36.2a3.837,3.837,0,1,0,0,6.762A3.84,3.84,0,0,1,7.036,39.581Z" fill="#edb769"/>
          <path id="Path_1246088" data-name="Path 1246088" d="M45.387,39.581A3.84,3.84,0,0,1,47.412,36.2a3.837,3.837,0,1,0,0,6.762A3.84,3.84,0,0,1,45.387,39.581Z" fill="#edb769"/>
        </g>
        <path id="Path_1246089" data-name="Path 1246089" d="M13.651,5.194a.859.859,0,0,0,.432-.117,24.767,24.767,0,0,1,2.57-1.3A.862.862,0,0,0,15.966,2.2a26.505,26.505,0,0,0-2.749,1.388.862.862,0,0,0,.434,1.608Z"/>
        <path id="Path_1246090" data-name="Path 1246090" d="M30.763,2.111a24.712,24.712,0,0,1,2.8.657.862.862,0,1,0,.491-1.653,26.446,26.446,0,0,0-3-.7.862.862,0,0,0-.295,1.7Z"/>
        <path id="Path_1246091" data-name="Path 1246091" d="M24.968,1.791l.052,0c.489-.029.987-.043,1.478-.043h0c.467,0,.938.013,1.4.039A.862.862,0,0,0,28,.063c-.5-.028-1-.042-1.5-.042h0c-.525,0-1.056.016-1.579.046a.862.862,0,0,0,.05,1.723Z"/>
        <path id="Path_1246092" data-name="Path 1246092" d="M51.24,19.718a.862.862,0,0,0-.639,1.039,24.8,24.8,0,0,1,.5,2.836.862.862,0,1,0,1.713-.2,26.508,26.508,0,0,0-.538-3.034A.862.862,0,0,0,51.24,19.718Z"/>
        <path id="Path_1246093" data-name="Path 1246093" d="M49.788,34.995a.862.862,0,1,0,1.621.59,26.417,26.417,0,0,0,.883-2.954.862.862,0,0,0-1.679-.4A24.708,24.708,0,0,1,49.788,34.995Z"/>
        <path id="Path_1246094" data-name="Path 1246094" d="M36.276,3.749a24.79,24.79,0,0,1,2.576,1.291.862.862,0,1,0,.861-1.494,26.49,26.49,0,0,0-2.756-1.381.862.862,0,1,0-.681,1.584Z"/>
        <path id="Path_1246095" data-name="Path 1246095" d="M1.354,31.62a.862.862,0,0,0-.64,1.038A26.4,26.4,0,0,0,1.6,35.61a.862.862,0,0,0,1.62-.591,24.689,24.689,0,0,1-.827-2.758A.862.862,0,0,0,1.354,31.62Z"/>
        <path id="Path_1246096" data-name="Path 1246096" d="M19.108,2.827a.861.861,0,0,0,.249-.037,24.708,24.708,0,0,1,2.8-.666.862.862,0,1,0-.3-1.7,26.429,26.429,0,0,0-3,.713.862.862,0,0,0,.248,1.688Z"/>
        <path id="Path_1246097" data-name="Path 1246097" d="M52.138,25.6a.862.862,0,0,0-.862.862v.055A25.168,25.168,0,0,1,51.11,29.4a.862.862,0,1,0,1.713.2A26.88,26.88,0,0,0,53,26.521v-.055A.863.863,0,0,0,52.138,25.6Z"/>
        <path id="Path_1246098" data-name="Path 1246098" d="M30.815,50.922a24.94,24.94,0,0,1-2.861.332A.862.862,0,0,0,28,52.977h.051a26.627,26.627,0,0,0,3.06-.356.862.862,0,1,0-.3-1.7Z"/>
        <path id="Path_1246099" data-name="Path 1246099" d="M25.072,51.256a24.951,24.951,0,0,1-2.861-.329.862.862,0,1,0-.3,1.7,26.665,26.665,0,0,0,3.06.352h.05a.862.862,0,0,0,.048-1.723Z"/>
        <path id="Path_1246100" data-name="Path 1246100" d="M19.407,50.267a24.653,24.653,0,0,1-2.708-.984.862.862,0,0,0-.683,1.583,26.424,26.424,0,0,0,2.9,1.053.862.862,0,1,0,.493-1.652Z"/>
        <path id="Path_1246101" data-name="Path 1246101" d="M.932,24.429a.861.861,0,0,0,.955-.758,24.782,24.782,0,0,1,.494-2.837A.862.862,0,0,0,.7,20.439a26.538,26.538,0,0,0-.528,3.035A.862.862,0,0,0,.932,24.429Z"/>
        <path id="Path_1246102" data-name="Path 1246102" d="M36.323,49.273a24.712,24.712,0,0,1-2.706.986.862.862,0,1,0,.495,1.652,26.422,26.422,0,0,0,2.9-1.055.862.862,0,0,0-.685-1.583Z"/>
        <path id="Path_1246103" data-name="Path 1246103" d="M1.136,30.38a.862.862,0,0,0,.756-.956,25.141,25.141,0,0,1-.168-2.876.862.862,0,0,0-.862-.861h0A.862.862,0,0,0,0,26.549a26.877,26.877,0,0,0,.18,3.074.862.862,0,0,0,.855.762A.877.877,0,0,0,1.136,30.38Z"/>
        <path id="Path_1246104" data-name="Path 1246104" d="M2.319,18.092h9.962a1.835,1.835,0,0,0,1.833-1.833V14.182a6.226,6.226,0,0,0-.333-2.016.778.778,0,1,0-1.472.5,4.675,4.675,0,0,1,.25,1.513V16.26a.277.277,0,0,1-.277.277H2.319a.277.277,0,0,1-.277-.277V14.182A4.691,4.691,0,0,1,3.6,10.693,4.553,4.553,0,1,0,2.881,9.27,6.248,6.248,0,0,0,.487,14.182V16.26A1.835,1.835,0,0,0,2.319,18.092ZM7.249,4.947A3.007,3.007,0,1,1,4.242,7.954,3.011,3.011,0,0,1,7.249,4.947Z"/>
        <path id="Path_1246105" data-name="Path 1246105" d="M38.886,14.182V16.26a1.835,1.835,0,0,0,1.833,1.833h9.962a1.835,1.835,0,0,0,1.833-1.833V14.182a6.226,6.226,0,0,0-.333-2.016.778.778,0,1,0-1.472.5,4.677,4.677,0,0,1,.25,1.513V16.26a.277.277,0,0,1-.277.277H40.718a.277.277,0,0,1-.277-.277V14.182A4.691,4.691,0,0,1,42,10.693a4.553,4.553,0,1,0-.722-1.423A6.247,6.247,0,0,0,38.886,14.182Zm6.762-9.236a3.007,3.007,0,1,1-3.007,3.007A3.011,3.011,0,0,1,45.648,4.947Z"/>
        <path id="Path_1246106" data-name="Path 1246106" d="M51.193,43.24a.778.778,0,0,0-.485.988,4.677,4.677,0,0,1,.25,1.513v2.078a.277.277,0,0,1-.277.277H40.718a.277.277,0,0,1-.277-.277V45.741A4.691,4.691,0,0,1,42,42.252a4.553,4.553,0,1,0-.722-1.423,6.248,6.248,0,0,0-2.394,4.912v2.078a1.835,1.835,0,0,0,1.833,1.833h9.962a1.835,1.835,0,0,0,1.833-1.833V45.741a6.226,6.226,0,0,0-.333-2.016A.778.778,0,0,0,51.193,43.24Zm-5.544-6.735a3.007,3.007,0,1,1-3.007,3.007A3.011,3.011,0,0,1,45.648,36.505Z"/>
        <path id="Path_1246107" data-name="Path 1246107" d="M12.793,43.24a.778.778,0,0,0-.485.988,4.674,4.674,0,0,1,.25,1.513v2.078a.277.277,0,0,1-.277.277H2.319a.277.277,0,0,1-.277-.277V45.741A4.691,4.691,0,0,1,3.6,42.252a4.553,4.553,0,1,0-.722-1.423A6.248,6.248,0,0,0,.487,45.741v2.078a1.835,1.835,0,0,0,1.833,1.833h9.962a1.835,1.835,0,0,0,1.833-1.833V45.741a6.226,6.226,0,0,0-.333-2.016A.778.778,0,0,0,12.793,43.24ZM7.249,36.505a3.007,3.007,0,1,1-3.007,3.007A3.011,3.011,0,0,1,7.249,36.505Z"/>
        <path id="Path_1246108" data-name="Path 1246108" d="M33.858,17.925H25.58a7.226,7.226,0,0,0-7.118,6.036H18.18a5.943,5.943,0,0,0-5.851,6.017,6.009,6.009,0,0,0,3.326,5.428c1,2.419,4.114,3.579,4.252,3.629a.778.778,0,0,0,.975-1.052A5.63,5.63,0,0,1,20.355,36H24.7a5.858,5.858,0,0,0,5.373-3.638h1.239a6.761,6.761,0,0,1-.691,2.686.778.778,0,0,0,.963,1.064c.173-.061,4.1-1.477,5.3-4.418a7.216,7.216,0,0,0-3.034-13.763Zm2.127,12.462a.765.765,0,0,0-.445.473,6.045,6.045,0,0,1-2.862,3.011,6.987,6.987,0,0,0,.154-2.372.78.78,0,0,0-.774-.7H25.58a5.62,5.62,0,0,1-2.108-.409.774.774,0,0,0-.838.167l-.011.011a.772.772,0,0,0,.258,1.261,7.168,7.168,0,0,0,2.7.525h2.754A4.261,4.261,0,0,1,24.7,34.44H19.6a.776.776,0,0,0-.773.687,5.869,5.869,0,0,0,.053,1.633,4.407,4.407,0,0,1-1.857-2.141.8.8,0,0,0-.447-.5,4.447,4.447,0,0,1-2.69-4.138,4.386,4.386,0,0,1,4.3-4.462h.194a7.156,7.156,0,0,0,.51,2.311.772.772,0,0,0,1.262.261l.011-.011a.772.772,0,0,0,.168-.835,5.625,5.625,0,0,1-.4-2.228,5.713,5.713,0,0,1,5.739-5.534h8.1a5.755,5.755,0,0,1,5.755,5.679A5.639,5.639,0,0,1,35.985,30.387Z"/>
      </g>
    </g>
  </g>
</svg>
