<svg xmlns="http://www.w3.org/2000/svg" xmlns:xlink="http://www.w3.org/1999/xlink" width="108" height="108" viewBox="0 0 108 108">
  <defs>
    <filter id="Rectangle_411831" x="0" y="0" width="108" height="108" filterUnits="userSpaceOnUse">
      <feOffset dy="3" input="SourceAlpha"/>
      <feGaussianBlur stdDeviation="3" result="blur"/>
      <feFlood flood-opacity="0.161"/>
      <feComposite operator="in" in2="blur"/>
      <feComposite in="SourceGraphic"/>
    </filter>
    <clipPath id="clip-path">
      <rect id="Rectangle_430320" data-name="Rectangle 430320" width="54" height="60" transform="translate(288.051 3705)" fill="#fff" stroke="#707070" stroke-width="1" opacity="0"/>
    </clipPath>
    <clipPath id="clip-path-2">
      <path id="path7851" d="M0-54H54V0H0Z"/>
    </clipPath>
  </defs>
  <g id="Group_1242608" data-name="Group 1242608" transform="translate(-261 -3684)">
    <g id="Group_1242608-2" data-name="Group 1242608" transform="translate(270 3690)">
      <g transform="matrix(1, 0, 0, 1, -9, -6)" filter="url(#Rectangle_411831)">
        <g id="Rectangle_411831-2" data-name="Rectangle 411831" transform="translate(9 6)" fill="#e8de49" stroke="#fff" stroke-width="2">
          <path d="M5,0H58A32,32,0,0,1,90,32V85a5,5,0,0,1-5,5H32A32,32,0,0,1,0,58V5A5,5,0,0,1,5,0Z" stroke="none"/>
          <path d="M5,1H58A31,31,0,0,1,89,32V85a4,4,0,0,1-4,4H32A31,31,0,0,1,1,58V5A4,4,0,0,1,5,1Z" fill="none"/>
        </g>
      </g>
    </g>
    <g id="Mask_Group_1099535" data-name="Mask Group 1099535" clip-path="url(#clip-path)">
      <g id="g7845" transform="translate(288.051 3762)">
        <g id="g7847">
          <g id="g7849" clip-path="url(#clip-path-2)">
            <g id="g7855" transform="translate(40.604 -47.738)">
              <path id="path7857" d="M0,0,4.972-4.972a1.7,1.7,0,0,1,2.411,0L12.355,0a.852.852,0,0,1,0,1.205L11.15,2.411a.852.852,0,0,1-1.205,0L7.882.349V28.924a.852.852,0,0,1-.852.852h-1.7a.852.852,0,0,1-.852-.852V.349L2.411,2.411a.852.852,0,0,1-1.205,0L0,1.205A.852.852,0,0,1,0,0" fill="#bbec6c"/>
            </g>
            <g id="g7859" transform="translate(45.077 -30.474)">
              <path id="path7861" d="M0,0V11.66a.852.852,0,0,0,.852.852h1.7a.852.852,0,0,0,.852-.852V1.7A16.786,16.786,0,0,0,0,0" fill="#a2e62e"/>
            </g>
            <g id="g7863" transform="translate(22.738 -12.084)">
              <path id="path7865" d="M0,0A10.654,10.654,0,0,1-10.654-10.654,10.654,10.654,0,0,1,0-21.308,10.654,10.654,0,0,1,10.654-10.654,10.654,10.654,0,0,1,0,0M21.257-13.491l-4.046-.941a.894.894,0,0,1-.66-.642,17.025,17.025,0,0,0-1.725-4.151.9.9,0,0,1,.012-.923l2.2-3.532a.892.892,0,0,0-.126-1.1l-2.783-2.783a.892.892,0,0,0-1.1-.126l-3.532,2.2a.9.9,0,0,1-.923.012A17.029,17.029,0,0,0,4.42-27.205a.894.894,0,0,1-.642-.66l-.941-4.046a.892.892,0,0,0-.869-.69H-1.968a.892.892,0,0,0-.869.69l-.941,4.046a.894.894,0,0,1-.642.66A17.029,17.029,0,0,0-8.57-25.48a.9.9,0,0,1-.923-.012l-3.532-2.2a.892.892,0,0,0-1.1.126l-2.783,2.783a.892.892,0,0,0-.126,1.1l2.2,3.532a.9.9,0,0,1,.012.923,17.025,17.025,0,0,0-1.725,4.151.894.894,0,0,1-.66.642l-4.046.941a.892.892,0,0,0-.69.869v3.936a.892.892,0,0,0,.69.869l4.046.941a.894.894,0,0,1,.66.642,17.023,17.023,0,0,0,1.725,4.151.9.9,0,0,1-.012.923l-2.2,3.532a.892.892,0,0,0,.126,1.1l2.783,2.783a.892.892,0,0,0,1.1.127l3.532-2.2a.9.9,0,0,1,.923-.012A17.029,17.029,0,0,0-4.42,5.9a.894.894,0,0,1,.642.66l.941,4.046a.892.892,0,0,0,.869.69H1.968a.892.892,0,0,0,.869-.69l.941-4.046A.894.894,0,0,1,4.42,5.9,17.029,17.029,0,0,0,8.57,4.172a.9.9,0,0,1,.923.012l3.532,2.2a.892.892,0,0,0,1.1-.127l2.783-2.783a.892.892,0,0,0,.126-1.1l-2.2-3.532a.9.9,0,0,1-.012-.923,17.023,17.023,0,0,0,1.725-4.151.9.9,0,0,1,.66-.642l4.046-.941a.892.892,0,0,0,.69-.869v-3.936a.892.892,0,0,0-.69-.869" fill="#528fd8"/>
            </g>
            <g id="g7867" transform="translate(39.776 -9.713)">
              <path id="path7869" d="M0,0-2.2-3.532a.893.893,0,0,1-.013-.92A17.026,17.026,0,0,0-.485-8.608a.893.893,0,0,1,.659-.64l4.046-.941a.892.892,0,0,0,.69-.869v-3.936a.892.892,0,0,0-.69-.869L.174-16.8a.892.892,0,0,1-.659-.639A17.027,17.027,0,0,0-2.212-21.6a.893.893,0,0,1,.013-.92L0-26.05a.892.892,0,0,0-.126-1.1L-2.91-29.936a.892.892,0,0,0-1.1-.126l-2.8,1.745a18.624,18.624,0,0,1,.859,1.729A5.357,5.357,0,0,1-8.38-19.755q-.139.075-.276.152a10.609,10.609,0,0,1,2.272,6.578A10.654,10.654,0,0,1-17.037-2.371c0,.005-.013,0-.019,0A12.561,12.561,0,0,1-23.148-.4a18.649,18.649,0,0,1-9.181-2.4h0L-34.074,0a.892.892,0,0,0,.127,1.1l2.783,2.783a.892.892,0,0,0,1.1.127l3.532-2.2a.892.892,0,0,1,.92-.013,17.026,17.026,0,0,0,4.155,1.727.892.892,0,0,1,.639.659l.941,4.046a.892.892,0,0,0,.869.69h3.936a.892.892,0,0,0,.869-.69l.941-4.046a.892.892,0,0,1,.639-.659A17.027,17.027,0,0,0-8.465,1.8a.892.892,0,0,1,.92.013l3.532,2.2a.892.892,0,0,0,1.1-.127L-.126,1.1A.892.892,0,0,0,0,0" fill="#0573ce"/>
            </g>
            <g id="g7871" transform="translate(53.209 -14.641)">
              <path id="path7873" d="M0,0A13.85,13.85,0,0,1-13.85,13.85,13.85,13.85,0,0,1-27.7,0,13.85,13.85,0,0,1-13.85-13.85,13.85,13.85,0,0,1,0,0" fill="#99e6fc"/>
            </g>
            <g id="g7875" transform="translate(47.577 -25.79)">
              <path id="path7877" d="M0,0A13.788,13.788,0,0,1,2.7,8.219a13.85,13.85,0,0,1-13.85,13.85,13.788,13.788,0,0,1-8.219-2.7A13.83,13.83,0,0,0-8.219,25a13.85,13.85,0,0,0,13.85-13.85A13.83,13.83,0,0,0,0,0" fill="#62dbfb"/>
            </g>
            <g id="g7879" transform="translate(39.359 -4.2)">
              <path id="path7881" d="M0,0A10.453,10.453,0,0,1-10.441-10.441,10.453,10.453,0,0,1,0-20.882,10.453,10.453,0,0,1,10.441-10.441,10.453,10.453,0,0,1,0,0" fill="#f2fbff"/>
            </g>
            <g id="g7883" transform="translate(32.096 -40.849)">
              <path id="path7885" d="M0,0-1.826,1.826a1.292,1.292,0,0,1-1.826,0l-2.96-2.961L-6.775-1.3V28.449a10.639,10.639,0,0,1-2.583.315,10.639,10.639,0,0,1-2.583-.315V-1.3l-.163.163-2.96,2.961a1.292,1.292,0,0,1-1.826,0L-18.715,0a1.292,1.292,0,0,1,0-1.826l7.531-7.531a2.582,2.582,0,0,1,3.652,0L0-1.826A1.292,1.292,0,0,1,0,0" fill="#ffe177"/>
            </g>
            <g id="g7887" transform="translate(40.85 -14.641)">
              <path id="path7889" d="M0,0A1.492,1.492,0,0,1-1.492,1.492,1.491,1.491,0,0,1-2.983,0,1.491,1.491,0,0,1-1.492-1.492,1.492,1.492,0,0,1,0,0"/>
            </g>
            <g id="g7891" transform="translate(45.076 -27.259)">
              <path id="path7893" d="M0,0V-20.13l-2.061,2.062a.852.852,0,0,1-1.206,0l-1.206-1.2a.854.854,0,0,1,0-1.206L.5-25.45a1.7,1.7,0,0,1,2.411,0l4.972,4.972a.852.852,0,0,1,0,1.206l-1.206,1.2a.85.85,0,0,1-1.2,0L3.41-20.13v9.705" fill="none" stroke="#000" stroke-linecap="round" stroke-linejoin="round" stroke-miterlimit="10" stroke-width="1.582"/>
            </g>
            <g id="g7895" transform="translate(48.486 -25.058)">
              <path id="path7897" d="M0,0V-8.934" fill="none" stroke="#000" stroke-linecap="round" stroke-linejoin="round" stroke-miterlimit="10" stroke-width="1.582"/>
            </g>
            <g id="g7899" transform="translate(18.96 -39.95)">
              <path id="path7901" d="M0,0A.893.893,0,0,1-.642.661a17.032,17.032,0,0,0-4.15,1.725.9.9,0,0,1-.923-.012L-9.247.175a.893.893,0,0,0-1.1.126l-2.784,2.784a.893.893,0,0,0-.126,1.1l2.2,3.532a.9.9,0,0,1,.012.923,17.032,17.032,0,0,0-1.725,4.15.893.893,0,0,1-.661.643l-4.045.941a.891.891,0,0,0-.69.869v3.936a.891.891,0,0,0,.69.869l4.045.941a.893.893,0,0,1,.661.642,17.031,17.031,0,0,0,1.725,4.15.9.9,0,0,1-.012.923l-2.2,3.532a.893.893,0,0,0,.126,1.1l2.784,2.784a.893.893,0,0,0,1.1.126l3.532-2.2a.9.9,0,0,1,.923-.012,17.033,17.033,0,0,0,4.15,1.725A.893.893,0,0,1,0,34.423l.941,4.045a.891.891,0,0,0,.869.69H5.746a.891.891,0,0,0,.869-.69l.941-4.045a.893.893,0,0,1,.643-.661q.508-.136,1-.3M7.556,0A.893.893,0,0,0,8.2.661a17.03,17.03,0,0,1,4.15,1.725.9.9,0,0,0,.923-.012L16.8.175a.893.893,0,0,1,1.1.126l2.784,2.784a.893.893,0,0,1,.126,1.1l-2.2,3.532a.9.9,0,0,0-.012.923,17,17,0,0,1,1.312,2.825" fill="none" stroke="#000" stroke-linecap="round" stroke-linejoin="round" stroke-miterlimit="10" stroke-width="1.582"/>
            </g>
            <g id="g7903" transform="translate(53.209 -14.641)">
              <path id="path7905" d="M0,0A13.85,13.85,0,0,1-13.85,13.85,13.85,13.85,0,0,1-27.7,0,13.85,13.85,0,0,1-13.85-13.85,13.85,13.85,0,0,1,0,0Z" fill="none" stroke="#000" stroke-linecap="round" stroke-linejoin="round" stroke-miterlimit="10" stroke-width="1.582"/>
            </g>
            <g id="g7907" transform="translate(49.62 -16.571)">
              <path id="path7909" d="M0,0A10.4,10.4,0,0,1,.179,1.93a10.453,10.453,0,0,1-10.44,10.44A10.453,10.453,0,0,1-20.7,1.93,10.453,10.453,0,0,1-10.261-8.511,10.446,10.446,0,0,1-1.307-3.435" fill="none" stroke="#000" stroke-linecap="round" stroke-linejoin="round" stroke-miterlimit="10" stroke-width="1.582"/>
            </g>
            <g id="g7911" transform="translate(20.156 -26.902)">
              <path id="path7913" d="M0,0V-15.244l-.163.163L-3.123-12.12a1.291,1.291,0,0,1-1.826,0l-1.827-1.826a1.292,1.292,0,0,1,0-1.827L.756-23.3a2.583,2.583,0,0,1,3.652,0l7.532,7.532a1.294,1.294,0,0,1,0,1.827L10.113-12.12a1.291,1.291,0,0,1-1.826,0L5.328-15.081l-.163-.163V14.5" fill="none" stroke="#000" stroke-linecap="round" stroke-linejoin="round" stroke-miterlimit="10" stroke-width="1.582"/>
            </g>
            <g id="g7915" transform="translate(20.156 -12.4)">
              <path id="path7917" d="M0,0V-10.811" fill="none" stroke="#000" stroke-linecap="round" stroke-linejoin="round" stroke-miterlimit="10" stroke-width="1.582"/>
            </g>
            <g id="g7919" transform="translate(20.156 -33.077)">
              <path id="path7921" d="M0,0A10.656,10.656,0,0,0,5.165,20.677c.118-.03.236-.061.353-.095" fill="none" stroke="#000" stroke-linecap="round" stroke-linejoin="round" stroke-miterlimit="10" stroke-width="1.582"/>
            </g>
            <g id="g7923" transform="translate(25.321 -33.077)">
              <path id="path7925" d="M0,0A10.676,10.676,0,0,1,7.294,6.336" fill="none" stroke="#000" stroke-linecap="round" stroke-linejoin="round" stroke-miterlimit="10" stroke-width="1.582"/>
            </g>
            <g id="g7927" transform="translate(35.649 -10.931)">
              <path id="path7929" d="M0,0,3.71-3.71v-7.032" fill="none" stroke="#000" stroke-linecap="round" stroke-linejoin="round" stroke-miterlimit="10" stroke-width="1.582"/>
            </g>
          </g>
        </g>
      </g>
    </g>
  </g>
</svg>
