<svg xmlns="http://www.w3.org/2000/svg" xmlns:xlink="http://www.w3.org/1999/xlink" width="108" height="108" viewBox="0 0 108 108">
  <defs>
    <filter id="Rectangle_411831" x="0" y="0" width="108" height="108" filterUnits="userSpaceOnUse">
      <feOffset dy="3" input="SourceAlpha"/>
      <feGaussianBlur stdDeviation="3" result="blur"/>
      <feFlood flood-opacity="0.161"/>
      <feComposite operator="in" in2="blur"/>
      <feComposite in="SourceGraphic"/>
    </filter>
    <clipPath id="clip-path">
      <rect id="Rectangle_430334" data-name="Rectangle 430334" width="53" height="60" transform="translate(-3315 -10265)" fill="#fff" stroke="#707070" stroke-width="1" opacity="0"/>
    </clipPath>
  </defs>
  <g id="Group_1248632" data-name="Group 1248632" transform="translate(3342.27 10286)">
    <g id="Group_1242625" data-name="Group 1242625" transform="translate(-3333.27 -10280)">
      <g id="Group_1230590" data-name="Group 1230590">
        <g transform="matrix(1, 0, 0, 1, -9, -6)" filter="url(#Rectangle_411831)">
          <g id="Rectangle_411831-2" data-name="Rectangle 411831" transform="translate(9 6)" fill="#a4e0d4" stroke="#fff" stroke-width="2">
            <path d="M5,0H58A32,32,0,0,1,90,32V85a5,5,0,0,1-5,5H32A32,32,0,0,1,0,58V5A5,5,0,0,1,5,0Z" stroke="none"/>
            <path d="M5,1H58A31,31,0,0,1,89,32V85a4,4,0,0,1-4,4H32A31,31,0,0,1,1,58V5A4,4,0,0,1,5,1Z" fill="none"/>
          </g>
        </g>
      </g>
    </g>
    <g id="Mask_Group_1099573" data-name="Mask Group 1099573" clip-path="url(#clip-path)">
      <g id="liderazgo" transform="translate(-3315.855 -10262.354)">
        <g id="Group_1253016" data-name="Group 1253016">
          <g id="Group_1253000" data-name="Group 1253000">
            <path id="Path_1246044" data-name="Path 1246044" d="M51.1,37.091a3.7,3.7,0,0,1,.188,1.145,3.537,3.537,0,0,1-.6,1.983l-2.821,4.231H42.742l-3.778-4.4a5.64,5.64,0,0,1-1.351-3.659,4.757,4.757,0,0,1,4.761-4.761H47.35A10.209,10.209,0,0,0,53,29.919v2.9A5.759,5.759,0,0,1,51.1,37.091Z" fill="#656d78"/>
          </g>
          <g id="Group_1253001" data-name="Group 1253001">
            <path id="Path_1246045" data-name="Path 1246045" d="M15.31,39.639l-.034.111a7.972,7.972,0,0,1-3.308,4.7H6.839a7.972,7.972,0,0,1-3.308-4.7l-.017-.068a3.625,3.625,0,0,1,.35-6.445l4.873-2.171a3.57,3.57,0,0,1,1.393-.291h.128a3.418,3.418,0,0,1,3.419,3.419h.6a2.822,2.822,0,0,1,1.034,5.445Z" fill="#656d78"/>
          </g>
          <g id="Group_1253002" data-name="Group 1253002">
            <path id="Path_1246046" data-name="Path 1246046" d="M48.948,47.375A5.923,5.923,0,0,1,53,53H38.468l-.624-1.658a5.947,5.947,0,0,1,3.821-3.966l1.077-.359a8.1,8.1,0,0,0,5.129,0Z" fill="#b4dd7f"/>
          </g>
          <g id="Group_1253003" data-name="Group 1253003">
            <path id="Path_1246047" data-name="Path 1246047" d="M47.871,44.452v2.565a8.1,8.1,0,0,1-5.129,0V44.452Z" fill="#a0d468"/>
          </g>
          <g id="Group_1253004" data-name="Group 1253004">
            <path id="Path_1246048" data-name="Path 1246048" d="M13.045,47.375A5.923,5.923,0,0,1,17.1,53H1.71a5.924,5.924,0,0,1,4.052-5.625l1.077-.359a8.1,8.1,0,0,0,5.129,0Z" fill="#b4dd7f"/>
          </g>
          <g id="Group_1253005" data-name="Group 1253005">
            <path id="Path_1246049" data-name="Path 1246049" d="M11.968,44.452v2.565a8.1,8.1,0,0,1-5.129,0V44.452Z" fill="#a0d468"/>
          </g>
          <g id="Group_1253006" data-name="Group 1253006">
            <path id="Path_1246050" data-name="Path 1246050" d="M34.467,23.739a7.48,7.48,0,0,0-2.659-1.257l-.12-.026a1.219,1.219,0,0,1-.231-.077l-.18,1.077a4.32,4.32,0,0,1-.1.479A7.095,7.095,0,0,1,28.21,28.21a7.1,7.1,0,0,1-2.966-4.274,4.321,4.321,0,0,1-.1-.479l-.18-1.077a1.219,1.219,0,0,1-.231.077,7.619,7.619,0,0,0-2.744,1.308l-1.522,1.47a7.812,7.812,0,0,0-1.658,4.813v1.581H37.613v-1.71a7.631,7.631,0,0,0-3.146-6.18Z" fill="#ff826e"/>
          </g>
          <g id="Group_1253007" data-name="Group 1253007">
            <path id="Path_1246051" data-name="Path 1246051" d="M32.484,53H18.806l.445-1.8a7.95,7.95,0,0,1,6.394-5.9,8.1,8.1,0,0,0,5.129,0l.615.1a7.915,7.915,0,0,1,6.121,5.035l.333.9L38.468,53Z" fill="#75b1f2"/>
          </g>
          <g id="Group_1253008" data-name="Group 1253008">
            <path id="Path_1246052" data-name="Path 1246052" d="M30.774,42.742v2.565a8.1,8.1,0,0,1-5.129,0V42.742Z" fill="#5d9cec"/>
          </g>
          <g id="Group_1253009" data-name="Group 1253009">
            <path id="Path_1246053" data-name="Path 1246053" d="M28.21,29.065h5.129a2.563,2.563,0,0,1,1.812,4.377,2.507,2.507,0,0,1-.975.607v.009a14.145,14.145,0,0,1-2.351,7.112l-1.051,1.573H25.645l-3.778-4.4a5.64,5.64,0,0,1-1.351-3.659c0-.248.017-.5.889-3.035a5.341,5.341,0,0,1,.752-.94.428.428,0,0,1,.068-.06,5.622,5.622,0,0,1,3.907-1.581Z" fill="#b27946"/>
          </g>
          <g id="Group_1253010" data-name="Group 1253010">
            <path id="Path_1246054" data-name="Path 1246054" d="M25.243,23.935h5.933A7.095,7.095,0,0,1,28.21,28.21a7.1,7.1,0,0,1-2.966-4.274Z" fill="#ffeaa7"/>
          </g>
          <g id="Group_1253011" data-name="Group 1253011">
            <path id="Path_1246055" data-name="Path 1246055" d="M39.323,15.173a3.588,3.588,0,0,1-1.607,2.992l-.957.641A3.755,3.755,0,0,1,35.45,23l-.983.744a7.48,7.48,0,0,0-2.659-1.257l-.12-.026a1.219,1.219,0,0,1-.231-.077,1.72,1.72,0,0,1-.983-1.043L30.1,20.208a5.965,5.965,0,0,0,4.095-5.676V11.224a1.707,1.707,0,0,0-.829-1.462L29.919,7.694H25.645L22.91,9.745a1.721,1.721,0,0,0-.684,1.368v3.419a5.948,5.948,0,0,0,1.752,4.231,5.875,5.875,0,0,0,2.342,1.445l-.376,1.128a1.72,1.72,0,0,1-.983,1.043,1.219,1.219,0,0,1-.231.077,7.619,7.619,0,0,0-2.744,1.308l-.009-.009L20.969,23a3.757,3.757,0,0,1-1.5-3,3.8,3.8,0,0,1,.2-1.188l-.957-.641a3.6,3.6,0,0,1-.556-5.539,2.914,2.914,0,0,0,.812-1.573L19.251,9.3a9.082,9.082,0,0,1,17.917,0l.291,1.752a2.914,2.914,0,0,0,.812,1.573,3.6,3.6,0,0,1,1.051,2.547Z" fill="#656d78"/>
          </g>
          <g id="Group_1253012" data-name="Group 1253012">
            <path id="Path_1246056" data-name="Path 1246056" d="M46.161,26.5a3.419,3.419,0,1,0-3.419-3.419A3.418,3.418,0,0,0,46.161,26.5Zm5.591-6.591a.855.855,0,0,0,.6,1.462H53V24.79h-.65a.855.855,0,0,0-.6,1.462l.453.453-2.419,2.419-.453-.453a.855.855,0,0,0-1.462.6v.65H44.452v-.65a.855.855,0,0,0-1.462-.6l-.453.453-2.419-2.419.453-.453a.855.855,0,0,0-.6-1.462h-.65V21.371h.65a.855.855,0,0,0,.6-1.462l-.453-.453,2.419-2.419.453.453a.855.855,0,0,0,1.462-.6v-.65h3.419v.65a.855.855,0,0,0,1.462.6l.453-.453,2.419,2.419Z" fill="#fcd770"/>
          </g>
          <g id="Group_1253013" data-name="Group 1253013">
            <path id="Path_1246057" data-name="Path 1246057" d="M8.548,11.968A3.419,3.419,0,1,0,5.129,8.548,3.418,3.418,0,0,0,8.548,11.968Zm5.591-6.591a.855.855,0,0,0,.6,1.462h.65v3.419h-.65a.855.855,0,0,0-.6,1.462l.453.453-2.419,2.419-.453-.453a.855.855,0,0,0-1.462.6v.65H6.839v-.65a.855.855,0,0,0-1.462-.6l-.453.453L2.5,12.173l.453-.453a.855.855,0,0,0-.6-1.462H1.71V6.839h.65a.855.855,0,0,0,.6-1.462L2.5,4.924,4.924,2.5l.453.453a.855.855,0,0,0,1.462-.6V1.71h3.419v.65a.855.855,0,0,0,1.462.6l.453-.453,2.419,2.419Z" fill="#fcd770"/>
          </g>
          <g id="Group_1253014" data-name="Group 1253014">
            <path id="Path_1246058" data-name="Path 1246058" d="M30.475,21.337a1.72,1.72,0,0,0,.983,1.043l-.18,1.077a4.32,4.32,0,0,1-.1.479H25.243a4.321,4.321,0,0,1-.1-.479l-.18-1.077a1.72,1.72,0,0,0,.983-1.043l.376-1.128a5.953,5.953,0,0,0,3.778,0Z" fill="#f0d0b4"/>
          </g>
          <g id="Group_1253015" data-name="Group 1253015">
            <path id="Path_1246059" data-name="Path 1246059" d="M34.194,11.224v3.308A5.965,5.965,0,0,1,30.1,20.208a5.953,5.953,0,0,1-3.778,0,5.875,5.875,0,0,1-2.342-1.445,5.948,5.948,0,0,1-1.752-4.231V11.113a1.721,1.721,0,0,1,.684-1.368l2.735-2.052h4.274l3.445,2.069A1.707,1.707,0,0,1,34.194,11.224Z" fill="#f0d0b4"/>
          </g>
        </g>
        <g id="Group_1253017" data-name="Group 1253017">
          <circle id="Ellipse_14235" data-name="Ellipse 14235" cx="0.855" cy="0.855" r="0.855" transform="translate(24.79 11.113)"/>
          <circle id="Ellipse_14236" data-name="Ellipse 14236" cx="0.855" cy="0.855" r="0.855" transform="translate(29.919 11.113)"/>
          <path id="Path_1246060" data-name="Path 1246060" d="M28.682,15.95a.547.547,0,0,1-.945,0L27.265,15l-1.529.765.473.945a2.238,2.238,0,0,0,4,0l.473-.945L29.155,15Z"/>
          <path id="Path_1246061" data-name="Path 1246061" d="M1.294,12.175,4.922,15.8,5.984,14.74v1.5h5.129v-1.5L12.175,15.8,15.8,12.175l-1.063-1.062h1.5V5.984h-1.5L15.8,4.921,12.175,1.293,11.113,2.357V.855H5.984v1.5L4.922,1.294,1.294,4.922,2.358,5.984H.855v5.129h1.5Zm1.27-4.494A1.71,1.71,0,0,0,3.7,4.93L4.931,3.7a1.71,1.71,0,0,0,2.75-1.139H9.415A1.71,1.71,0,0,0,12.166,3.7l1.227,1.227a1.709,1.709,0,0,0,1.139,2.75V9.415a1.71,1.71,0,0,0-1.139,2.751l-1.227,1.227a1.71,1.71,0,0,0-2.751,1.139H7.681A1.71,1.71,0,0,0,4.93,13.393L3.7,12.166a1.71,1.71,0,0,0-1.139-2.75Z"/>
          <path id="Path_1246062" data-name="Path 1246062" d="M8.548,12.823A4.274,4.274,0,1,0,4.274,8.548,4.279,4.279,0,0,0,8.548,12.823Zm0-6.839A2.565,2.565,0,1,1,5.984,8.548,2.568,2.568,0,0,1,8.548,5.984Z"/>
          <path id="Path_1246063" data-name="Path 1246063" d="M11.113,19.661H9.4v-1.71H7.694v1.71H5.984v1.71h1.71v1.71H9.4v-1.71h1.71Z"/>
          <path id="Path_1246064" data-name="Path 1246064" d="M9.4,29.919V28.21h1.71V26.5H9.4V24.79H7.694V26.5H5.984v1.71h1.71v1.71Z"/>
          <path id="Path_1246065" data-name="Path 1246065" d="M53.855,20.516h-1.5l1.063-1.063-3.628-3.628-1.062,1.063v-1.5H43.6v1.5l-1.062-1.063-3.628,3.628,1.063,1.062h-1.5v5.129h1.5l-1.063,1.063,3.629,3.628L43.6,29.272v1.5H42.374a5.594,5.594,0,0,0-3.906,1.589V29.919a8.5,8.5,0,0,0-2.627-6.151l.122-.091a4.6,4.6,0,0,0,1.771-4.494l.459-.306a4.457,4.457,0,0,0,.679-6.859,2.026,2.026,0,0,1-.568-1.1l-.293-1.756a9.937,9.937,0,0,0-19.6,0l-.293,1.757a2.029,2.029,0,0,1-.568,1.1,4.457,4.457,0,0,0,.679,6.859l.459.306a4.6,4.6,0,0,0,1.77,4.493l.157.118a8.663,8.663,0,0,0-2.661,6.251v2.438h2.1a6.429,6.429,0,0,0,1.165,6.407l3.572,4.167v1.554A8.784,8.784,0,0,0,18.426,51l-.286,1.146h-.256a6.763,6.763,0,0,0-4.571-5.581l-.491-.164V44.882a8.785,8.785,0,0,0,3.2-4.654,3.664,3.664,0,0,0-1.581-6.886,4.281,4.281,0,0,0-4.189-3.424h-.129a4.248,4.248,0,0,0-1.735.368L3.517,32.455a4.473,4.473,0,0,0-.741,7.764,8.792,8.792,0,0,0,3.208,4.664V46.4l-.49.163A6.777,6.777,0,0,0,.855,53v.855h53V53a6.775,6.775,0,0,0-4.639-6.436l-.49-.164V44.71L51.4,40.7a4.408,4.408,0,0,0,.745-2.459,4.475,4.475,0,0,0-.091-.892,6.621,6.621,0,0,0,1.8-4.526v-4.5l-1.329.886a9.31,9.31,0,0,1-3.8,1.465v-1.4l1.062,1.064,3.629-3.628-1.063-1.062h1.5ZM38.316,40.6l3.572,4.167V46.4l-.49.163A6.772,6.772,0,0,0,37.9,49.247a8.8,8.8,0,0,0-6.275-4.664V43l.905-1.357a14.973,14.973,0,0,0,2.452-7.036,3.412,3.412,0,0,0,1.651-2.123h1.711a5.593,5.593,0,0,0-1.59,3.906A6.469,6.469,0,0,0,38.316,40.6Zm8.7,5.748a7.293,7.293,0,0,1-3.419,0V45.306h3.419Zm-17.1-1.71a7.293,7.293,0,0,1-3.419,0V43.6h3.419Zm6.839-13.865h-.121a3.42,3.42,0,0,0-1.469-2.024,2.06,2.06,0,0,1,.485-.791L34.444,26.75a3.763,3.763,0,0,0-.9,1.481c-.07,0-.137-.021-.208-.021H29.583a8,8,0,0,0,2.541-4.61l.021-.126a6.8,6.8,0,0,1,4.614,6.445Zm-8.548-9.4a6.865,6.865,0,0,0,1.334-.132l.122.368a2.539,2.539,0,0,0,.858,1.193l-.047.281H25.942l-.047-.282a2.538,2.538,0,0,0,.858-1.193l.122-.368a6.8,6.8,0,0,0,1.334.133ZM30,24.79a6.286,6.286,0,0,1-1.786,2.359,6.3,6.3,0,0,1-1.786-2.359Zm-9.524-5.714.207-.62-1.5-1a2.747,2.747,0,0,1-.418-4.227A3.724,3.724,0,0,0,19.8,11.2l.293-1.756a8.227,8.227,0,0,1,16.23,0l.293,1.755a3.715,3.715,0,0,0,1.045,2.033,2.747,2.747,0,0,1-.419,4.228l-1.5,1,.207.62a2.891,2.891,0,0,1-1.01,3.232l-.5.374a8.51,8.51,0,0,0-2.422-1.028l-.125-.032a.852.852,0,0,1-.6-.558l-.125-.374a6.84,6.84,0,0,0,3.887-6.159V11.226a2.576,2.576,0,0,0-1.245-2.2L30.36,6.961l-.88,1.466,3.444,2.066a.858.858,0,0,1,.415.733v3.307a5.129,5.129,0,0,1-10.258,0V11.113a.86.86,0,0,1,.341-.684l2.223-1.667,2.906,2.18,1.025-1.368L25.645,6.625,22.4,9.062a2.577,2.577,0,0,0-1.025,2.051v3.419a6.839,6.839,0,0,0,3.885,6.158l-.125.374a.85.85,0,0,1-.6.559,8.683,8.683,0,0,0-2.52,1.079l-.526-.394a2.89,2.89,0,0,1-1.01-3.231Zm-.81,11.7v-.728a6.958,6.958,0,0,1,4.615-6.558l.019.112a8,8,0,0,0,2.541,4.61h-.705A6.435,6.435,0,0,0,23.04,29a3.73,3.73,0,0,0-1.064-2.248l-1.209,1.21a2.05,2.05,0,0,1,.6,1.459v.9c-.136.148-.264.3-.386.461Zm1.71,3.906a4.766,4.766,0,0,1,4.761-4.761h7.207a1.71,1.71,0,1,1,0,3.419h-1.71a1.711,1.711,0,0,1-1.71-1.71H28.21a3.423,3.423,0,0,0,3.419,3.419h1.594a13.264,13.264,0,0,1-2.112,5.646l-.794,1.192H26.038l-3.521-4.109a4.762,4.762,0,0,1-1.146-3.1ZM20.084,51.413a7.069,7.069,0,0,1,5.54-5.224,8.872,8.872,0,0,0,5.2-.008l.426.071a7.093,7.093,0,0,1,5.462,4.5l.524,1.4h-3.9V48.726h-1.71v3.419H24.79V48.726h-1.71v3.419H19.9ZM7.694,45.306h3.419v1.042a7.293,7.293,0,0,1-3.419,0ZM4.9,40.988a4.4,4.4,0,0,0,.441.044h1.5a2.565,2.565,0,1,0,0-5.129H5.984v1.71h.855a.855.855,0,0,1,0,1.71h-1.5a2.772,2.772,0,0,1-1.126-5.305L9.089,31.85a2.543,2.543,0,0,1,1.04-.221h.129a2.568,2.568,0,0,1,2.565,2.565v.855h1.456a1.964,1.964,0,0,1,.385,3.89l-2.009.4.336,1.676,1.009-.2A7.091,7.091,0,0,1,11.7,43.6H7.106A7.086,7.086,0,0,1,4.9,40.988Zm1.14,7.2.823-.274a8.855,8.855,0,0,0,5.09,0l.823.274a5.067,5.067,0,0,1,3.395,3.96H14.532v-1.71h-1.71v1.71H5.984v-1.71H4.274v1.71H2.636a5.069,5.069,0,0,1,3.4-3.96Zm46.038,3.96H50.435v-1.71h-1.71v1.71H41.887v-1.71h-1.71v1.71H39.06l-.3-.809a5.07,5.07,0,0,1,3.181-3.152l.823-.274a8.855,8.855,0,0,0,5.09,0l.823.274a5.069,5.069,0,0,1,3.4,3.96Zm.072-19.324a4.9,4.9,0,0,1-.88,2.794,4.48,4.48,0,0,0-.419-.509l-.662-.662-1.209,1.209.662.662a2.72,2.72,0,0,1,.34,3.434L47.414,43.6H43.135l-3.521-4.109a4.762,4.762,0,0,1-1.146-3.1,3.911,3.911,0,0,1,3.906-3.906h4.979a11,11,0,0,0,4.791-1.093v1.431Zm0-8.873A1.71,1.71,0,0,0,51.006,26.7l-1.227,1.227a1.71,1.71,0,0,0-2.751,1.14H45.294a1.71,1.71,0,0,0-2.751-1.14L41.316,26.7a1.71,1.71,0,0,0-1.139-2.751V22.214a1.71,1.71,0,0,0,1.139-2.751l1.227-1.227A1.71,1.71,0,0,0,45.294,17.1h1.734a1.71,1.71,0,0,0,2.751,1.139l1.227,1.227a1.71,1.71,0,0,0,1.139,2.751v1.734Z"/>
          <path id="Path_1246066" data-name="Path 1246066" d="M46.161,18.806a4.274,4.274,0,1,0,4.274,4.274A4.279,4.279,0,0,0,46.161,18.806Zm0,6.839a2.565,2.565,0,1,1,2.565-2.565A2.568,2.568,0,0,1,46.161,25.645Z"/>
          <path id="Path_1246067" data-name="Path 1246067" d="M45.306,13.677h1.71v-1.71h1.71v-1.71h-1.71V8.548h-1.71v1.71H43.6v1.71h1.71Z"/>
          <path id="Path_1246068" data-name="Path 1246068" d="M45.306,6.839h1.71V5.129h1.71V3.419h-1.71V1.71h-1.71v1.71H43.6v1.71h1.71Z"/>
        </g>
      </g>
    </g>
  </g>
</svg>
