<svg xmlns="http://www.w3.org/2000/svg" xmlns:xlink="http://www.w3.org/1999/xlink" width="108" height="108" viewBox="0 0 108 108">
  <defs>
    <filter id="Rectangle_411831" x="0" y="0" width="108" height="108" filterUnits="userSpaceOnUse">
      <feOffset dy="3" input="SourceAlpha"/>
      <feGaussianBlur stdDeviation="3" result="blur"/>
      <feFlood flood-opacity="0.161"/>
      <feComposite operator="in" in2="blur"/>
      <feComposite in="SourceGraphic"/>
    </filter>
    <clipPath id="clip-path">
      <rect id="Rectangle_430334" data-name="Rectangle 430334" width="53" height="60" transform="translate(-3315 -10265)" fill="#fff" stroke="#707070" stroke-width="1" opacity="0"/>
    </clipPath>
  </defs>
  <g id="Group_1260396" data-name="Group 1260396" transform="translate(3342.27 10286)">
    <g id="Group_1242625" data-name="Group 1242625" transform="translate(-3333.27 -10280)">
      <g id="Group_1230590" data-name="Group 1230590">
        <g transform="matrix(1, 0, 0, 1, -9, -6)" filter="url(#Rectangle_411831)">
          <g id="Rectangle_411831-2" data-name="Rectangle 411831" transform="translate(9 6)" fill="#a4e0d4" stroke="#fff" stroke-width="2">
            <path d="M5,0H58A32,32,0,0,1,90,32V85a5,5,0,0,1-5,5H32A32,32,0,0,1,0,58V5A5,5,0,0,1,5,0Z" stroke="none"/>
            <path d="M5,1H58A31,31,0,0,1,89,32V85a4,4,0,0,1-4,4H32A31,31,0,0,1,1,58V5A4,4,0,0,1,5,1Z" fill="none"/>
          </g>
        </g>
      </g>
    </g>
    <g id="Mask_Group_1099571" data-name="Mask Group 1099571" clip-path="url(#clip-path)">
      <g id="Page-1" transform="translate(-3315 -10261.5)">
        <g id="_046---Legal-Policy" data-name="046---Legal-Policy">
          <path id="Path" d="M34.45,23.488a.883.883,0,0,0,0,1.245l-5.3,5.3h-.009a.869.869,0,0,0-1.237,0l-2.915,2.906a.89.89,0,0,0,0,1.254l3.8,3.789H19.433a.883.883,0,0,0-.883.883V43.1a4.546,4.546,0,0,1-3.984,4.584,3.4,3.4,0,0,1-.424.018h-.009a4.417,4.417,0,0,1-4.417-4.417V5.485A4.546,4.546,0,0,0,5.733.9,3.4,3.4,0,0,0,5.309.883H30.033A4.417,4.417,0,0,1,34.45,5.3Z" fill="#ffdb00" fill-rule="evenodd"/>
          <path id="Path-2" data-name="Path" d="M34.45,5.3A4.417,4.417,0,0,0,30.033.883h-2.65A4.417,4.417,0,0,1,31.8,5.3V23.488a.883.883,0,0,0,0,1.245l-5.3,5.3h-.009a.869.869,0,0,0-1.237,0l-2.915,2.906a.89.89,0,0,0,0,1.254l3.8,3.789h2.65l-3.8-3.789a.89.89,0,0,1,0-1.254L27.9,30.033a.869.869,0,0,1,1.237,0h.009l5.3-5.3a.883.883,0,0,1,0-1.245Z" fill="#fdc008" fill-rule="evenodd"/>
          <path id="Path-3" data-name="Path" d="M9.717,5.485V24.733H1.767a.883.883,0,0,1-.883-.883V5.3A4.417,4.417,0,0,1,5.3.883h.009A3.4,3.4,0,0,1,5.733.9,4.546,4.546,0,0,1,9.717,5.485Z" fill="#ff9701" fill-rule="evenodd"/>
          <path id="Path-4" data-name="Path" d="M5.733.9A3.4,3.4,0,0,0,5.309.883H5.3A4.395,4.395,0,0,0,4,1.1,4.614,4.614,0,0,1,7.067,5.485V24.733h2.65V5.485A4.546,4.546,0,0,0,5.733.9Z" fill="#f47c00" fill-rule="evenodd"/>
          <path id="Path-5" data-name="Path" d="M43.283,41.384v1.9A4.417,4.417,0,0,1,38.866,47.7h-2.65a1.772,1.772,0,0,0-1.767-1.767H23.85A1.772,1.772,0,0,0,22.083,47.7H14.142a3.4,3.4,0,0,0,.424-.018A4.546,4.546,0,0,0,18.55,43.1V38.866a.883.883,0,0,1,.883-.883h9.354L32.409,41.6a.883.883,0,0,0,1.245,0L36.561,38.7a.883.883,0,0,0,0-1.245h.009l1.4-1.387Z" fill="#ffea3a" fill-rule="evenodd"/>
          <path id="Path-6" data-name="Path" d="M37.965,36.066,36.64,37.391l3.993,3.993v1.9A4.417,4.417,0,0,1,36.216,47.7h2.65a4.417,4.417,0,0,0,4.417-4.417v-1.9Z" fill="#fcd734" fill-rule="evenodd"/>
          <path id="Path-7" data-name="Path" d="M46.021,29.238l-2.906,2.915a.883.883,0,0,1-1.245,0l-7.42-7.42a.883.883,0,0,1,0-1.245l2.906-2.915a.89.89,0,0,1,1.254,0l7.411,7.42A.883.883,0,0,1,46.021,29.238Z" fill="#9f522d" fill-rule="evenodd"/>
          <path id="Path-8" data-name="Path" d="M46.021,27.993l-7.411-7.42a.89.89,0,0,0-1.254,0l-.7.7,6.713,6.72a.883.883,0,0,1,0,1.245l-2.208,2.208.707.707a.883.883,0,0,0,1.245,0l2.906-2.915a.883.883,0,0,0,0-1.245Z" fill="#783e22" fill-rule="evenodd"/>
          <path id="Path-9" data-name="Path" d="M36.561,38.7,33.655,41.6a.883.883,0,0,1-1.245,0l-3.622-3.622-3.8-3.789a.89.89,0,0,1,0-1.254L27.9,30.033a.869.869,0,0,1,1.237,0h.009l7.411,7.42A.883.883,0,0,1,36.561,38.7Z" fill="#9f522d" fill-rule="evenodd"/>
          <path id="Path-10" data-name="Path" d="M41.87,32.153l-1.4,1.4-2.509,2.517-1.4,1.387h-.009l-7.411-7.42,5.3-5.3Z" fill="#783e22" fill-rule="evenodd"/>
          <path id="Path-11" data-name="Path" d="M51.586,47.169a1.749,1.749,0,0,1-1.245.53,1.778,1.778,0,0,1-1.272-.53l-11.1-11.1,2.509-2.517,11.112,11.1a1.76,1.76,0,0,1,0,2.517Z" fill="#9f522d" fill-rule="evenodd"/>
          <path id="Path-12" data-name="Path" d="M36.216,47.7v3.533a.883.883,0,0,1-.883.883H22.966a.883.883,0,0,1-.883-.883V47.7a1.772,1.772,0,0,1,1.767-1.767h10.6A1.772,1.772,0,0,1,36.216,47.7Z" fill="#9f522d" fill-rule="evenodd"/>
          <path id="Path-13" data-name="Path" d="M34.45,45.933H31.8A1.772,1.772,0,0,1,33.566,47.7v3.533a.883.883,0,0,1-.883.883h2.65a.883.883,0,0,0,.883-.883V47.7A1.772,1.772,0,0,0,34.45,45.933Z" fill="#783e22" fill-rule="evenodd"/>
          <g id="Group_1252992" data-name="Group 1252992">
            <path id="Path-14" data-name="Path" d="M14.133,7.067h15.9a.883.883,0,1,0,0-1.767h-15.9a.883.883,0,0,0,0,1.767Z" fill-rule="evenodd"/>
            <path id="Path-15" data-name="Path" d="M14.133,12.367h15.9a.883.883,0,1,0,0-1.767h-15.9a.883.883,0,0,0,0,1.767Z" fill-rule="evenodd"/>
            <path id="Path-16" data-name="Path" d="M14.133,17.666h15.9a.883.883,0,1,0,0-1.767h-15.9a.883.883,0,1,0,0,1.767Z" fill-rule="evenodd"/>
            <path id="Path-17" data-name="Path" d="M14.133,22.966h15.9a.883.883,0,1,0,0-1.767h-15.9a.883.883,0,1,0,0,1.767Z" fill-rule="evenodd"/>
            <path id="Path-18" data-name="Path" d="M14.133,28.266h10.6a.883.883,0,1,0,0-1.767h-10.6a.883.883,0,1,0,0,1.767Z" fill-rule="evenodd"/>
            <path id="Path-19" data-name="Path" d="M21.2,32.683a.883.883,0,0,0-.883-.883H14.133a.883.883,0,1,0,0,1.767h6.183A.883.883,0,0,0,21.2,32.683Z" fill-rule="evenodd"/>
            <path id="Shape" d="M41.724,33.549l.322-.322a1.8,1.8,0,0,0,.442.064,1.767,1.767,0,0,0,1.249-.517l2.911-2.909a1.767,1.767,0,0,0,0-2.5l-7.42-7.414a1.767,1.767,0,0,0-2.5,0l-1.4,1.4V5.3a5.305,5.305,0,0,0-5.3-5.3H5.32A5.3,5.3,0,0,0,0,5.3V23.85a1.767,1.767,0,0,0,1.767,1.767H8.833V43.283a5.32,5.32,0,0,0,5.309,5.3H21.2v2.65A1.767,1.767,0,0,0,22.966,53H35.333A1.767,1.767,0,0,0,37.1,51.233v-2.65h1.767a5.3,5.3,0,0,0,5.288-5.077l4.282,4.282a2.663,2.663,0,1,0,3.774-3.759ZM29.415,37.365,29.4,37.35l-3.783-3.783,2.908-2.907h.006l7.409,7.412-2.9,2.915ZM36.57,36.2,30.4,30.033l4.051-4.049,6.171,6.169Zm1.413-15,7.42,7.42-2.915,2.905-7.4-7.4a.1.1,0,0,0-.011-.015l.006-.009ZM8.833,23.85H1.767V5.3A3.546,3.546,0,0,1,2.924,2.689a3.506,3.506,0,0,1,2.366-.922h.087a1.908,1.908,0,0,1,.273.013A3.667,3.667,0,0,1,8.833,5.488ZM10.6,43.283V5.488A5.6,5.6,0,0,0,9.187,1.767H30.033A3.533,3.533,0,0,1,33.566,5.3V23.2a1.767,1.767,0,0,0-.193,1.361l-4.4,4.4a1.76,1.76,0,0,0-1.7.45l-2.909,2.908a1.767,1.767,0,0,0,0,2.5L26.653,37.1H19.433a1.767,1.767,0,0,0-1.767,1.767V43.1a3.672,3.672,0,0,1-3.207,3.71,2.57,2.57,0,0,1-.326.009A3.547,3.547,0,0,1,10.6,43.283Zm12.367,7.95V47.7a.883.883,0,0,1,.883-.883h10.6a.883.883,0,0,1,.883.883v3.533ZM42.4,43.283a3.533,3.533,0,0,1-3.533,3.533H36.937a2.65,2.65,0,0,0-2.487-1.767H23.85a2.65,2.65,0,0,0-2.487,1.767H18.02A5.6,5.6,0,0,0,19.433,43.1V38.866h8.986l3.363,3.364a1.771,1.771,0,0,0,2.5,0l2.908-2.907a1.728,1.728,0,0,0,.454-1.694l.317-.317L42.4,41.75Zm8.556,3.268a.9.9,0,0,1-1.262-.007L43.908,40.76l-4.7-4.7L40.474,34.8,50.968,45.282a.876.876,0,0,1-.01,1.27Z"/>
          </g>
        </g>
      </g>
    </g>
  </g>
</svg>
