<svg xmlns="http://www.w3.org/2000/svg" xmlns:xlink="http://www.w3.org/1999/xlink" width="108" height="108" viewBox="0 0 108 108">
  <defs>
    <filter id="Rectangle_411831" x="0" y="0" width="108" height="108" filterUnits="userSpaceOnUse">
      <feOffset dy="3" input="SourceAlpha"/>
      <feGaussianBlur stdDeviation="3" result="blur"/>
      <feFlood flood-opacity="0.161"/>
      <feComposite operator="in" in2="blur"/>
      <feComposite in="SourceGraphic"/>
    </filter>
    <clipPath id="clip-path">
      <rect id="Rectangle_430334" data-name="Rectangle 430334" width="53" height="60" transform="translate(18.27 15)" fill="#fff" stroke="#707070" stroke-width="1" opacity="0"/>
    </clipPath>
  </defs>
  <g id="Group_1246297" data-name="Group 1246297" transform="translate(9 6)">
    <g id="Group_1242625" data-name="Group 1242625" transform="translate(0 0)">
      <g id="Group_1230590" data-name="Group 1230590">
        <g transform="matrix(1, 0, 0, 1, -9, -6)" filter="url(#Rectangle_411831)">
          <g id="Rectangle_411831-2" data-name="Rectangle 411831" transform="translate(9 6)" fill="#a4e0d4" stroke="#fff" stroke-width="2">
            <path d="M5,0H58A32,32,0,0,1,90,32V85a5,5,0,0,1-5,5H32A32,32,0,0,1,0,58V5A5,5,0,0,1,5,0Z" stroke="none"/>
            <path d="M5,1H58A31,31,0,0,1,89,32V85a4,4,0,0,1-4,4H32A31,31,0,0,1,1,58V5A4,4,0,0,1,5,1Z" fill="none"/>
          </g>
        </g>
      </g>
    </g>
    <g id="Mask_Group_1099568" data-name="Mask Group 1099568" clip-path="url(#clip-path)">
      <g id="Layer_23" data-name="Layer 23" transform="translate(17.415 17.646)">
        <path id="Path_1245995" data-name="Path 1245995" d="M16.976,5.236a3.419,3.419,0,0,1,2.845,1.523l2.4,3.606h28.21A2.565,2.565,0,0,1,53,12.929V41.994a2.565,2.565,0,0,1-2.565,2.565H4.274A2.565,2.565,0,0,1,1.71,41.994V7.8A2.565,2.565,0,0,1,4.274,5.236Z" fill="#f4b357"/>
        <path id="Path_1245996" data-name="Path 1245996" d="M22.226,10.365H34.194L32.655,8.313a3.419,3.419,0,0,0-2.735-1.368H19.946Z" fill="#fae16f"/>
        <path id="Path_1245997" data-name="Path 1245997" d="M53,41.994V12.929a2.565,2.565,0,0,0-2.565-2.565H22.226l-2.4-3.606a3.419,3.419,0,0,0-2.845-1.523H6.839A2.565,2.565,0,0,0,4.274,7.8V41.994a2.565,2.565,0,0,0,2.565,2.565h43.6A2.565,2.565,0,0,0,53,41.994Z" fill="#f6c866"/>
        <circle id="Ellipse_14229" data-name="Ellipse 14229" cx="15.387" cy="15.387" r="15.387" transform="translate(11.968 18.913)" fill="#cfe0fc"/>
        <path id="Path_1245998" data-name="Path 1245998" d="M28.659,18.968a15.383,15.383,0,0,0,.025,30.662,15.386,15.386,0,0,0-.025-30.662Z" fill="#e5f0ff"/>
        <path id="Path_1245999" data-name="Path 1245999" d="M21.371,32.591h2.565V29.171a3.419,3.419,0,0,1,6.839,0v3.419h2.565a2.54,2.54,0,0,1,.855.157V29.171a6.839,6.839,0,0,0-13.677,0v3.576A2.54,2.54,0,0,1,21.371,32.591Z" fill="#fff"/>
        <rect id="Rectangle_433883" data-name="Rectangle 433883" width="17.097" height="11.968" rx="2.565" transform="translate(18.806 32.591)" fill="#f4b357"/>
        <rect id="Rectangle_433884" data-name="Rectangle 433884" width="15.387" height="11.968" rx="2.565" transform="translate(20.516 32.591)" fill="#f6c866"/>
        <circle id="Ellipse_14230" data-name="Ellipse 14230" cx="1.71" cy="1.71" r="1.71" transform="translate(25.645 36.865)" fill="#fae16f"/>
        <path id="Path_1246000" data-name="Path 1246000" d="M50.435,9.4H34.621L33.339,7.693a4.3,4.3,0,0,0-3.419-1.709H20.386a4.257,4.257,0,0,0-3.409-1.71H10.258a.855.855,0,1,0,0,1.71h6.718A2.558,2.558,0,0,1,19.11,7.126l2.4,3.606a.855.855,0,0,0,.711.381h28.21a1.712,1.712,0,0,1,1.71,1.71V41.887a1.712,1.712,0,0,1-1.71,1.71H40.573a16.191,16.191,0,0,0,.289-18.427.855.855,0,1,0-1.421.952A14.542,14.542,0,1,1,37.406,23.7a.855.855,0,1,0,1.183-1.234A16.229,16.229,0,0,0,14.136,43.6H11.968a.855.855,0,1,0,0,1.71h3.575a16.167,16.167,0,0,0,23.625,0H50.435a3.423,3.423,0,0,0,3.419-3.419V12.823A3.423,3.423,0,0,0,50.435,9.4ZM21.544,7.694h8.376a2.576,2.576,0,0,1,2.052,1.025l.513.685h-9.8Z"/>
        <path id="Path_1246001" data-name="Path 1246001" d="M8.548,43.6H4.274a1.712,1.712,0,0,1-1.71-1.71V7.694a1.712,1.712,0,0,1,1.71-1.71H6.839a.855.855,0,1,0,0-1.71H4.274A3.423,3.423,0,0,0,.855,7.694V41.887a3.423,3.423,0,0,0,3.419,3.419H8.548a.855.855,0,0,0,0-1.71Z"/>
        <path id="Path_1246002" data-name="Path 1246002" d="M27.355,21.371a7.7,7.7,0,0,0-7.694,7.694V32.1a3.408,3.408,0,0,0-1.71,2.944v6.839a3.423,3.423,0,0,0,3.419,3.419H33.339a3.423,3.423,0,0,0,3.419-3.419V35.048a3.408,3.408,0,0,0-1.71-2.944v-3.04A7.7,7.7,0,0,0,27.355,21.371Zm-5.984,7.694a5.984,5.984,0,0,1,11.968,0v2.565h-1.71V29.065a4.274,4.274,0,0,0-8.548,0v2.565h-1.71Zm8.548,2.565H24.79V29.065a2.565,2.565,0,0,1,5.129,0Zm5.129,10.258a1.712,1.712,0,0,1-1.71,1.71H21.371a1.712,1.712,0,0,1-1.71-1.71V35.048a1.712,1.712,0,0,1,1.71-1.71H33.339a1.712,1.712,0,0,1,1.71,1.71Z"/>
        <path id="Path_1246003" data-name="Path 1246003" d="M27.355,35.9a.855.855,0,1,0,0,1.71.855.855,0,1,1-.855.855.855.855,0,1,0-1.71,0A2.565,2.565,0,1,0,27.355,35.9Z"/>
      </g>
    </g>
  </g>
</svg>
