<svg xmlns="http://www.w3.org/2000/svg" xmlns:xlink="http://www.w3.org/1999/xlink" width="108" height="108" viewBox="0 0 108 108">
  <defs>
    <filter id="Rectangle_411831" x="0" y="0" width="108" height="108" filterUnits="userSpaceOnUse">
      <feOffset dy="3" input="SourceAlpha"/>
      <feGaussianBlur stdDeviation="3" result="blur"/>
      <feFlood flood-opacity="0.161"/>
      <feComposite operator="in" in2="blur"/>
      <feComposite in="SourceGraphic"/>
    </filter>
    <clipPath id="clip-path">
      <rect id="Rectangle_430334" data-name="Rectangle 430334" width="53" height="60" transform="translate(-3315 -10265)" fill="#fff" stroke="#707070" stroke-width="1" opacity="0"/>
    </clipPath>
  </defs>
  <g id="Group_1252730" data-name="Group 1252730" transform="translate(3342.27 10286)">
    <g id="Group_1242625" data-name="Group 1242625" transform="translate(-3333.27 -10280)">
      <g id="Group_1230590" data-name="Group 1230590">
        <g transform="matrix(1, 0, 0, 1, -9, -6)" filter="url(#Rectangle_411831)">
          <g id="Rectangle_411831-2" data-name="Rectangle 411831" transform="translate(9 6)" fill="#a4e0d4" stroke="#fff" stroke-width="2">
            <path d="M5,0H58A32,32,0,0,1,90,32V85a5,5,0,0,1-5,5H32A32,32,0,0,1,0,58V5A5,5,0,0,1,5,0Z" stroke="none"/>
            <path d="M5,1H58A31,31,0,0,1,89,32V85a4,4,0,0,1-4,4H32A31,31,0,0,1,1,58V5A4,4,0,0,1,5,1Z" fill="none"/>
          </g>
        </g>
      </g>
    </g>
    <g id="Mask_Group_1099531" data-name="Mask Group 1099531" clip-path="url(#clip-path)">
      <g id="cultural" transform="translate(-3318.473 -10264.973)">
        <path id="Path_1245363" data-name="Path 1245363" d="M34.518,17.79Q33,27.453,49.289,37.358l-3.03,2.525q-9.993-4.359-13.635-11.677V40.2h-5.3V28.205q-3.642,7.318-13.635,11.677l-3.03-2.525q16.291-9.9,14.771-19.568V17.4H21.355L29.973,5.1l8.618,12.3H34.518v.394Z" fill="#19cfba" fill-rule="evenodd"/>
        <path id="Path_1245364" data-name="Path 1245364" d="M29.973,41.8a7.361,7.361,0,0,1,7.339,7.339v5.708H22.633V49.136A7.361,7.361,0,0,1,29.973,41.8Z" fill="#60b7fe" fill-rule="evenodd"/>
        <circle id="Ellipse_14174" data-name="Ellipse 14174" cx="3.807" cy="3.807" r="3.807" transform="translate(24.754 39.228) rotate(-58.28)" fill="#f0b16e"/>
        <path id="Path_1245365" data-name="Path 1245365" d="M11.615,33.359A7.361,7.361,0,0,1,18.954,40.7v5.708H4.276V40.7A7.361,7.361,0,0,1,11.615,33.359Z" fill="#60b7fe" fill-rule="evenodd"/>
        <circle id="Ellipse_14175" data-name="Ellipse 14175" cx="3.805" cy="3.805" r="3.805" transform="translate(6.299 30.425) rotate(-54.196)" fill="#f0b16e"/>
        <circle id="Ellipse_14176" data-name="Ellipse 14176" cx="3.503" cy="3.503" r="3.503" transform="translate(8.112 36.379)" fill="#19cfba"/>
        <path id="Path_1245366" data-name="Path 1245366" d="M29.973,45.307l3.48,6.027h-6.96Z" fill="#fa6e85" fill-rule="evenodd"/>
        <path id="Path_1245367" data-name="Path 1245367" d="M48.33,33.359A7.361,7.361,0,0,1,55.669,40.7v5.708H40.991V40.7A7.361,7.361,0,0,1,48.33,33.359Z" fill="#60b7fe" fill-rule="evenodd"/>
        <circle id="Ellipse_14177" data-name="Ellipse 14177" cx="3.805" cy="3.805" r="3.805" transform="translate(43.024 30.434) rotate(-54.196)" fill="#f0b16e"/>
        <path id="Path_1245368" data-name="Path 1245368" d="M45.514,37.067h5.631V42.7H45.514Z" fill="#ffbf31" fill-rule="evenodd"/>
        <path id="Path_1245369" data-name="Path 1245369" d="M50.343,41.9H46.317V37.871h4.026Zm.8-5.632H45.514a.8.8,0,0,0-.8.8V42.7a.8.8,0,0,0,.8.8h5.632a.8.8,0,0,0,.8-.8V37.068A.8.8,0,0,0,51.146,36.265Zm3.721,9.34V40.7a6.534,6.534,0,0,0-9.71-5.712.717.717,0,0,1-.1.059,6.585,6.585,0,0,0-2.6,2.8,6.465,6.465,0,0,0-.658,2.856V45.6ZM33.342,27.848a.8.8,0,0,0-1.522.359v5.565a4.593,4.593,0,0,0-3.7,0V28.207a.8.8,0,0,0-1.521-.359,21.938,21.938,0,0,1-8.067,8.568,8.2,8.2,0,0,0-1.908-2.126,30.429,30.429,0,0,0,7.58-7.855,12.71,12.71,0,0,0,2.024-8.7V17.4a.8.8,0,0,0-.8-.8H22.9L29.972,6.5l7.074,10.094H34.517a.8.8,0,0,0-.8.8v.333a12.7,12.7,0,0,0,2.024,8.7,30.406,30.406,0,0,0,7.58,7.855,8.232,8.232,0,0,0-1.909,2.126,21.938,21.938,0,0,1-8.066-8.568Zm-3.37,13.146a3,3,0,1,0-3-3A3.006,3.006,0,0,0,29.972,40.994Zm6.536,8.143v4.905H23.436V49.137a6.536,6.536,0,1,1,13.072,0ZM18.151,45.6V40.7a6.536,6.536,0,0,0-13.072,0V45.6H18.151ZM8.612,29.554a3,3,0,1,1,3,3A3.006,3.006,0,0,1,8.612,29.554Zm36.715,0a3,3,0,1,1,3,3A3.006,3.006,0,0,1,45.327,29.554Zm5.936,3.552a4.608,4.608,0,1,0-5.867,0c-.211.081-.419.17-.621.269-6.934-5.15-10.131-10.252-9.5-15.175h3.32a.8.8,0,0,0,.658-1.264L30.63,4.641a.8.8,0,0,0-1.315,0L20.7,16.936a.8.8,0,0,0,.658,1.264h3.32c.625,4.923-2.572,10.025-9.506,15.175-.2-.1-.409-.187-.621-.269a4.609,4.609,0,1,0-5.867,0A8.153,8.153,0,0,0,3.473,40.7v5.708a.8.8,0,0,0,.8.8H18.954a.8.8,0,0,0,.8-.8V40.7a8.128,8.128,0,0,0-.509-2.832,25.148,25.148,0,0,0,7.269-6.745v3.823a4.6,4.6,0,0,0,.522,6.6,8.154,8.154,0,0,0-5.209,7.593v5.708a.8.8,0,0,0,.8.8H37.311a.8.8,0,0,0,.8-.8V49.137a8.155,8.155,0,0,0-5.208-7.593,4.6,4.6,0,0,0,.521-6.6V31.122a25.145,25.145,0,0,0,7.27,6.745,8.094,8.094,0,0,0-.509,2.832v5.708a.8.8,0,0,0,.8.8H55.67a.8.8,0,0,0,.8-.8V40.7a8.153,8.153,0,0,0-5.209-7.593Zm-19.2,17.425-2.089-3.618-2.089,3.618Zm-2.785-5.625L25.8,50.934a.8.8,0,0,0,.7,1.2h6.959a.8.8,0,0,0,.7-1.2l-3.48-6.027a.8.8,0,0,0-1.39,0ZM11.615,42.584a2.7,2.7,0,1,1,2.7-2.7A2.7,2.7,0,0,1,11.615,42.584Zm0-7.007a4.306,4.306,0,1,1-4.306,4.306,4.31,4.31,0,0,1,4.306-4.306Z" fill="#1e2f3f" fill-rule="evenodd"/>
      </g>
    </g>
  </g>
</svg>
