<svg xmlns="http://www.w3.org/2000/svg" xmlns:xlink="http://www.w3.org/1999/xlink" width="108" height="108" viewBox="0 0 108 108">
  <defs>
    <filter id="Rectangle_411831" x="0" y="0" width="108" height="108" filterUnits="userSpaceOnUse">
      <feOffset dy="3" input="SourceAlpha"/>
      <feGaussianBlur stdDeviation="3" result="blur"/>
      <feFlood flood-opacity="0.161"/>
      <feComposite operator="in" in2="blur"/>
      <feComposite in="SourceGraphic"/>
    </filter>
    <clipPath id="clip-path">
      <rect id="Rectangle_430334" data-name="Rectangle 430334" width="53" height="60" transform="translate(-3315 -10265)" fill="#fff" stroke="#707070" stroke-width="1" opacity="0"/>
    </clipPath>
  </defs>
  <g id="Group_1255121" data-name="Group 1255121" transform="translate(3342.27 10286)">
    <g id="Group_1242625" data-name="Group 1242625" transform="translate(-3333.27 -10280)">
      <g id="Group_1230590" data-name="Group 1230590">
        <g transform="matrix(1, 0, 0, 1, -9, -6)" filter="url(#Rectangle_411831)">
          <g id="Rectangle_411831-2" data-name="Rectangle 411831" transform="translate(9 6)" fill="#a4e0d4" stroke="#fff" stroke-width="2">
            <path d="M5,0H58A32,32,0,0,1,90,32V85a5,5,0,0,1-5,5H32A32,32,0,0,1,0,58V5A5,5,0,0,1,5,0Z" stroke="none"/>
            <path d="M5,1H58A31,31,0,0,1,89,32V85a4,4,0,0,1-4,4H32A31,31,0,0,1,1,58V5A4,4,0,0,1,5,1Z" fill="none"/>
          </g>
        </g>
      </g>
    </g>
    <g id="Mask_Group_1099539" data-name="Mask Group 1099539" clip-path="url(#clip-path)">
      <g id="produccion" transform="translate(-3315.855 -10262.354)">
        <g id="Group_1252831" data-name="Group 1252831">
          <g id="Group_1252816" data-name="Group 1252816">
            <path id="Path_1245495" data-name="Path 1245495" d="M21.063,41.032H17.952L17.678,39.1a14.53,14.53,0,0,0-2.744-6.616h-.265a17.1,17.1,0,0,1-2.881-.248l-.017.009a3.4,3.4,0,0,0-3.223-2.325,3.016,3.016,0,0,0-.41.026,2.554,2.554,0,0,0-.445.085A3.421,3.421,0,0,0,5.6,31.586a3.5,3.5,0,0,0-.47,1.752V53H17.952V47.871h4.274a.857.857,0,0,0,.855-.855V41.032Z" fill="#ff826e"/>
          </g>
          <g id="Group_1252817" data-name="Group 1252817">
            <path id="Path_1245496" data-name="Path 1245496" d="M28.21,33.886v-1.4h3.419v1.4a1.886,1.886,0,0,0,1.214,1.735c.009.009.017.009.034.017a1.909,1.909,0,0,0,2.1-.368l.983-.992L38.382,36.7l-.992.983a1.909,1.909,0,0,0-.368,2.1c.009.017.009.026.017.034a1.886,1.886,0,0,0,1.735,1.214h1.4v3.419h-1.4a1.886,1.886,0,0,0-1.735,1.214c-.009.009-.009.017-.017.034a1.909,1.909,0,0,0,.368,2.1l.992.983L35.963,51.2l-.983-.992a1.909,1.909,0,0,0-2.1-.368c-.017.009-.026.009-.034.017A1.886,1.886,0,0,0,31.629,51.6V53H28.21V51.6A1.886,1.886,0,0,0,27,49.863c-.009-.009-.017-.009-.034-.017a1.909,1.909,0,0,0-2.1.368l-.983.992-3.334-3.334h1.684a.857.857,0,0,0,.855-.855v-.855H26.1a5.132,5.132,0,1,0-.077-6.745,1.672,1.672,0,0,0-.547-.094,1.635,1.635,0,0,0-1.171.487l-1.222,1.222H21.063A1.886,1.886,0,0,0,22.8,39.818c.009-.009.009-.017.017-.034a1.909,1.909,0,0,0-.368-2.1l-.992-.983,2.419-2.419.983.992a1.909,1.909,0,0,0,2.1.368c.017-.009.026-.009.034-.017A1.886,1.886,0,0,0,28.21,33.886Z" fill="#fcd770"/>
          </g>
          <g id="Group_1252818" data-name="Group 1252818">
            <path id="Path_1245497" data-name="Path 1245497" d="M37.613,1.71H51.29V13.677H37.613V1.71Z" fill="#b4dd7f"/>
          </g>
          <g id="Group_1252819" data-name="Group 1252819">
            <path id="Path_1245498" data-name="Path 1245498" d="M53,19.661v9.4H42.742V18.806H53Z" fill="#b4dd7f"/>
          </g>
          <g id="Group_1252820" data-name="Group 1252820">
            <path id="Path_1245499" data-name="Path 1245499" d="M23.935,25.645V17.1h8.548v8.548H23.935Z" fill="#b4dd7f"/>
          </g>
          <g id="Group_1252821" data-name="Group 1252821">
            <circle id="Ellipse_14180" data-name="Ellipse 14180" cx="1.71" cy="1.71" r="1.71" transform="translate(25.645 6.839)" fill="#ff826e"/>
          </g>
          <g id="Group_1252822" data-name="Group 1252822">
            <circle id="Ellipse_14181" data-name="Ellipse 14181" cx="1.71" cy="1.71" r="1.71" transform="translate(47.871 41.032)" fill="#ff826e"/>
          </g>
          <g id="Group_1252823" data-name="Group 1252823">
            <path id="Path_1245500" data-name="Path 1245500" d="M20.516,11.113v1.71a.857.857,0,0,1-.855.855H2.565a.733.733,0,0,1-.308-.06.858.858,0,0,1-.547-.8V10.258H19.661A.857.857,0,0,1,20.516,11.113Z" fill="#fcd770"/>
          </g>
          <g id="Group_1252824" data-name="Group 1252824">
            <path id="Path_1245501" data-name="Path 1245501" d="M17.935,6.839H16.242a.857.857,0,0,0-.855.855v2.565H11.968V5.984a.857.857,0,0,0-.855-.855H9.4a.857.857,0,0,0-.855.855v4.274H5.129V7.694a.857.857,0,0,0-.855-.855H2.565a.647.647,0,0,0-.128.009,8.416,8.416,0,0,1,15.5-.009Z" fill="#ffeaa7"/>
          </g>
          <g id="Group_1252825" data-name="Group 1252825">
            <path id="Path_1245502" data-name="Path 1245502" d="M18.447,8.48l.359,1.778H15.387V7.694a.857.857,0,0,1,.855-.855h1.693A7.633,7.633,0,0,1,18.447,8.48Z" fill="#fcd770"/>
          </g>
          <g id="Group_1252826" data-name="Group 1252826">
            <path id="Path_1245503" data-name="Path 1245503" d="M11.968,5.984v4.274H8.548V5.984A.857.857,0,0,1,9.4,5.129h1.71A.857.857,0,0,1,11.968,5.984Z" fill="#fcd770"/>
          </g>
          <g id="Group_1252827" data-name="Group 1252827">
            <path id="Path_1245504" data-name="Path 1245504" d="M4.274,6.839a.857.857,0,0,1,.855.855v2.565H1.71L1.8,9.3a8.361,8.361,0,0,1,.633-2.453.647.647,0,0,1,.128-.009Z" fill="#fcd770"/>
          </g>
          <g id="Group_1252828" data-name="Group 1252828">
            <path id="Path_1245505" data-name="Path 1245505" d="M7.694,16.242V17.1a1.722,1.722,0,0,0-1.71,1.71,2.057,2.057,0,0,0,.607,1.462l.855.855a.862.862,0,0,1,.248.6V24.79L5.018,22.875A7.885,7.885,0,0,1,1.71,16.447V16.1a5.862,5.862,0,0,1,.547-2.479.733.733,0,0,0,.308.06h7.694A2.561,2.561,0,0,0,7.694,16.242Z" fill="#656d78"/>
          </g>
          <g id="Group_1252829" data-name="Group 1252829">
            <path id="Path_1245506" data-name="Path 1245506" d="M16.242,23.935v.5a2.919,2.919,0,0,1-2.915,2.915h-.5A7.169,7.169,0,0,0,14.481,31.9c.154.188.308.385.453.581h-.265a17.1,17.1,0,0,1-2.881-.248l-.017.009a3.4,3.4,0,0,0-3.223-2.325,3.016,3.016,0,0,0-.41.026,2.554,2.554,0,0,0-.445.085V21.721a.862.862,0,0,0-.248-.6l-.855-.855a2.057,2.057,0,0,1-.607-1.462,1.722,1.722,0,0,1,1.71-1.71v-.855a2.561,2.561,0,0,1,2.565-2.565h5.984a14.273,14.273,0,0,1,2.565,7.694l-2.565.855Z" fill="#f0d0b4"/>
          </g>
          <g id="Group_1252830" data-name="Group 1252830">
            <path id="Path_1245507" data-name="Path 1245507" d="M29.919,41.032a1.715,1.715,0,0,1,1.71,1.71,3.415,3.415,0,0,1-3.419,3.419H23.081V41.032L24.3,39.81a1.635,1.635,0,0,1,1.171-.487,1.672,1.672,0,0,1,.547.094,1.628,1.628,0,0,1,.932.821l.4.8Z" fill="#f0d0b4"/>
          </g>
        </g>
        <g id="Group_1252832" data-name="Group 1252832">
          <path id="Path_1245508" data-name="Path 1245508" d="M53.855,29.919V17.952H48.726V14.532h3.419V.855H36.758V7.694h-7A2.558,2.558,0,1,0,26.5,10.956v5.286H23.081V26.5h5.984v5.129h-1.71v2.257a1.058,1.058,0,0,1-.721.963,1.047,1.047,0,0,1-1.169-.184l-1.588-1.6L20.246,36.7l1.6,1.59a1.076,1.076,0,0,1,.168,1.2,1.052,1.052,0,0,1-.949.684h-2.37l-.172-1.2a15.269,15.269,0,0,0-3.386-7.617,6.289,6.289,0,0,1-1.384-3.192A3.793,3.793,0,0,0,15.991,27.1,3.746,3.746,0,0,0,17.1,24.436V22.843l2.565-.855v-.616a14.536,14.536,0,0,0-1.881-6.84h1.881a1.711,1.711,0,0,0,1.71-1.71v-1.71a1.711,1.711,0,0,0-1.71-1.71h-.154l-.218-1.088a9.28,9.28,0,0,0-18.335.9l-.1,1.046v2.565a1.7,1.7,0,0,0,.38,1.061,6.734,6.734,0,0,0-.38,2.211v.356a8.772,8.772,0,0,0,3.666,7.124L6.839,25.23v4.195a4.19,4.19,0,0,0-2.554,3.914h-.01V53.855H18.806V48.727h1.381l3.689,3.689,1.588-1.6a1.062,1.062,0,0,1,1.205-.168,1.038,1.038,0,0,1,.684.948v2.256h5.129V51.6a1.058,1.058,0,0,1,.721-.963,1.046,1.046,0,0,1,1.169.184l1.588,1.6,3.631-3.631L38,47.2a1.065,1.065,0,0,1-.169-1.205,1.052,1.052,0,0,1,.949-.684h2.256V43.6h6.141a2.558,2.558,0,1,0,3.262-3.262V29.919ZM43.6,28.21V19.661h8.277l-4.052,4.726-1.057-1.057L45.557,24.54,47.92,26.9l4.225-4.931V28.21ZM38.468,2.565H50.435V12.823H38.468ZM27.355,7.694a.855.855,0,1,1-.855.855A.856.856,0,0,1,27.355,7.694ZM24.79,17.952h6.074L28.173,20.98,27.1,19.912,25.9,21.12l2.351,2.351,3.383-3.806V24.79H24.79ZM16.829,39.219l.128.9a4.255,4.255,0,0,1-3.539-3.508l-.566-3.376c.544.057,1.09.091,1.636.1a13.563,13.563,0,0,1,2.341,5.888Zm1.1-18.458-2.546.849v1.47H13.879a2.226,2.226,0,0,1-2-1.237l-1.529.765a3.928,3.928,0,0,0,3.53,2.182h1.474a2.047,2.047,0,0,1-.57,1.106,2.081,2.081,0,0,1-1.459.6l-3.065,0v1.71h1.764a8.012,8.012,0,0,0,1.159,3.344c-.274-.026-.545-.068-.816-.107a4.264,4.264,0,0,0-3.817-2.383v-7.34a1.719,1.719,0,0,0-.5-1.209l-.855-.855a1.2,1.2,0,0,1-.354-.855.856.856,0,0,1,.855-.855h.855v-1.71a1.711,1.711,0,0,1,1.71-1.71h5.533a13.574,13.574,0,0,1,2.142,6.229Zm1.728-9.649v1.71H2.565l0-1.71ZM4.274,9.4H2.654l0-.021a7.623,7.623,0,0,1,.373-1.689H4.274Zm6.839,0H9.4V5.984h1.71Zm6.5-.753.15.753H16.242V7.694h1.106A7.516,7.516,0,0,1,17.613,8.65ZM10.19,2.565a7.586,7.586,0,0,1,6.319,3.419h-.267a1.711,1.711,0,0,0-1.71,1.71V9.4h-1.71V5.984a1.711,1.711,0,0,0-1.71-1.71H9.4a1.711,1.711,0,0,0-1.71,1.71V9.4H5.984V7.694a1.711,1.711,0,0,0-1.71-1.71H3.855A7.542,7.542,0,0,1,10.19,2.565ZM5.515,22.184a7.06,7.06,0,0,1-2.951-5.733v-.356a5.015,5.015,0,0,1,.255-1.563h4.5a3.376,3.376,0,0,0-.476,1.71v.146a2.569,2.569,0,0,0-1.71,2.418,2.9,2.9,0,0,0,.855,2.064l.855.855v1.4Zm.817,9.846a2.573,2.573,0,0,1,1.92-1.238,2.31,2.31,0,0,1,.294-.018,2.575,2.575,0,0,1,2.547,2.308l.638,3.809a5.968,5.968,0,0,0,5.9,5h4.586v5.129H16.079a9.459,9.459,0,0,1-9.309-8.041l-.762-5.2a2.76,2.76,0,0,1,.325-1.744ZM17.1,52.145H5.984v-9.9a11.19,11.19,0,0,0,10.095,6.484H17.1ZM39.323,43.6h-.546a2.859,2.859,0,0,0-1.987,4.809l.382.38-1.208,1.208-.38-.381A2.859,2.859,0,0,0,30.774,51.6v.547h-1.71V51.6a2.86,2.86,0,0,0-4.81-1.986l-.38.381-1.3-1.3a1.712,1.712,0,0,0,1.363-1.674h1.814a5.982,5.982,0,1,0-.021-8.531,2.433,2.433,0,0,0-.25-.017,2.488,2.488,0,0,0-1.65.632,2.68,2.68,0,0,0-.775-2.022l-.382-.38,1.208-1.208.38.381a2.857,2.857,0,0,0,4.808-1.984v-.547h1.71v.547a2.86,2.86,0,0,0,4.81,1.986l.38-.381L37.172,36.7l-.381.38a2.858,2.858,0,0,0,1.986,4.809h.546Zm-9.4-3.419H27.881l-.161-.321a2.546,2.546,0,0,0-.362-.533,4.278,4.278,0,1,1,1.712,7.605,4.281,4.281,0,0,0,3.413-4.186A2.568,2.568,0,0,0,29.918,40.177Zm-3.727.444.633,1.266h3.094a.856.856,0,0,1,.856.855,2.568,2.568,0,0,1-2.565,2.565H23.932v-3.92l.975-.974A.831.831,0,0,1,26.191,40.621ZM49.581,43.6a.855.855,0,1,1,.855-.855A.856.856,0,0,1,49.581,43.6Zm-.855-3.262a2.562,2.562,0,0,0-1.552,1.552H41.032v-1.71H38.776a1.07,1.07,0,0,1-.964-.72A1.059,1.059,0,0,1,38,38.288l1.6-1.589-3.631-3.631-1.588,1.6a1.062,1.062,0,0,1-1.205.168,1.038,1.038,0,0,1-.684-.948V31.629h-1.71V26.5h2.565V17.742L35.688,15.1,34.41,13.965l-2.025,2.277H28.21V10.956A2.562,2.562,0,0,0,29.762,9.4h7v5.129H47.016v3.419H41.887V29.919h6.839Z"/>
          <path id="Path_1245509" data-name="Path 1245509" d="M42.693,9,41.637,7.944,40.428,9.153l2.363,2.363L48.52,4.83l-1.3-1.111Z"/>
        </g>
      </g>
    </g>
  </g>
</svg>
