<svg xmlns="http://www.w3.org/2000/svg" xmlns:xlink="http://www.w3.org/1999/xlink" width="108" height="108" viewBox="0 0 108 108">
  <defs>
    <filter id="Rectangle_411831" x="0" y="0" width="108" height="108" filterUnits="userSpaceOnUse">
      <feOffset dy="3" input="SourceAlpha"/>
      <feGaussianBlur stdDeviation="3" result="blur"/>
      <feFlood flood-opacity="0.161"/>
      <feComposite operator="in" in2="blur"/>
      <feComposite in="SourceGraphic"/>
    </filter>
    <clipPath id="clip-path">
      <rect id="Rectangle_430334" data-name="Rectangle 430334" width="53" height="60" transform="translate(-3315 -10265)" fill="#fff" stroke="#707070" stroke-width="1" opacity="0"/>
    </clipPath>
  </defs>
  <g id="Group_1255122" data-name="Group 1255122" transform="translate(3342.27 10286)">
    <g id="Group_1242625" data-name="Group 1242625" transform="translate(-3333.27 -10280)">
      <g id="Group_1230590" data-name="Group 1230590">
        <g transform="matrix(1, 0, 0, 1, -9, -6)" filter="url(#Rectangle_411831)">
          <g id="Rectangle_411831-2" data-name="Rectangle 411831" transform="translate(9 6)" fill="#a4e0d4" stroke="#fff" stroke-width="2">
            <path d="M5,0H58A32,32,0,0,1,90,32V85a5,5,0,0,1-5,5H32A32,32,0,0,1,0,58V5A5,5,0,0,1,5,0Z" stroke="none"/>
            <path d="M5,1H58A31,31,0,0,1,89,32V85a4,4,0,0,1-4,4H32A31,31,0,0,1,1,58V5A4,4,0,0,1,5,1Z" fill="none"/>
          </g>
        </g>
      </g>
    </g>
    <g id="Mask_Group_1099540" data-name="Mask Group 1099540" clip-path="url(#clip-path)">
      <g id="servicio-de-calidad_1_" data-name="servicio-de-calidad (1)" transform="translate(-3319.061 -10265.561)">
        <g id="Group_1252835" data-name="Group 1252835">
          <g id="Group_1252833" data-name="Group 1252833">
            <path id="Path_1245510" data-name="Path 1245510" d="M29.1,21.832l6.917,2.806-5.448,11.7a.263.263,0,0,1-.465.021l-2.03-3.493-3.98.7a.262.262,0,0,1-.283-.369Z" fill="#fe646f" fill-rule="evenodd"/>
            <path id="Path_1245511" data-name="Path 1245511" d="M35.283,24.341l.731.3-5.448,11.7a.263.263,0,0,1-.465.021l-.483-.831a.263.263,0,0,0,.465-.021Zm-7.212,8.527-3.98.7a.263.263,0,0,1-.283-.37l.252-.54,3.529-.617Z" fill="#fd4755" fill-rule="evenodd"/>
            <path id="Path_1245512" data-name="Path 1245512" d="M43.133,21.832l-6.917,2.806,5.448,11.7a.263.263,0,0,0,.465.021l2.03-3.493,3.98.7a.262.262,0,0,0,.283-.369Z" fill="#fe646f" fill-rule="evenodd"/>
            <path id="Path_1245513" data-name="Path 1245513" d="M36.948,24.341l-.731.3,5.448,11.7a.263.263,0,0,0,.465.021l.483-.831a.263.263,0,0,1-.465-.021Zm7.212,8.527,3.98.7a.263.263,0,0,0,.283-.37l-.251-.54-3.529-.617Z" fill="#fd4755" fill-rule="evenodd"/>
            <path id="Path_1245514" data-name="Path 1245514" d="M37.882,2.507l1.777,1.33a2.828,2.828,0,0,0,1.6.584l2.216.123a2.913,2.913,0,0,1,2.707,2.272l.506,2.161a2.829,2.829,0,0,0,.853,1.478l1.618,1.519a2.913,2.913,0,0,1,.614,3.481l-1,1.98a2.829,2.829,0,0,0-.3,1.68l.263,2.2a2.913,2.913,0,0,1-1.767,3.061l-2.04.874a2.829,2.829,0,0,0-1.307,1.1l-1.215,1.857a2.913,2.913,0,0,1-3.321,1.209l-2.124-.642a2.829,2.829,0,0,0-1.706,0l-2.124.642a2.913,2.913,0,0,1-3.321-1.209L28.6,26.349a2.829,2.829,0,0,0-1.307-1.1l-2.04-.874a2.913,2.913,0,0,1-1.767-3.061l.263-2.2a2.829,2.829,0,0,0-.3-1.68l-1-1.98a2.913,2.913,0,0,1,.614-3.481l1.618-1.519a2.829,2.829,0,0,0,.853-1.478l.506-2.161a2.913,2.913,0,0,1,2.707-2.272l2.216-.123a2.829,2.829,0,0,0,1.6-.584l1.777-1.33a2.914,2.914,0,0,1,3.535,0Z" fill="#ffe177" fill-rule="evenodd"/>
            <path id="Path_1245515" data-name="Path 1245515" d="M37.882,2.507l1.777,1.33a2.828,2.828,0,0,0,1.6.584l2.216.123a2.913,2.913,0,0,1,2.707,2.272l.506,2.161a2.83,2.83,0,0,0,.853,1.478l1.618,1.519a2.913,2.913,0,0,1,.614,3.481l-1,1.98a2.829,2.829,0,0,0-.3,1.68l.263,2.2a2.913,2.913,0,0,1-1.767,3.061l-2.04.874a2.829,2.829,0,0,0-1.307,1.1l-1.215,1.857a2.912,2.912,0,0,1-3.258,1.227A2.931,2.931,0,0,0,40.8,28.206l1.215-1.857a2.829,2.829,0,0,1,1.307-1.1l2.04-.874a2.913,2.913,0,0,0,1.767-3.061l-.263-2.2a2.829,2.829,0,0,1,.3-1.68l1-1.98a2.913,2.913,0,0,0-.614-3.481l-1.618-1.519a2.828,2.828,0,0,1-.853-1.478l-.506-2.161a2.913,2.913,0,0,0-2.707-2.272L39.65,4.421a2.828,2.828,0,0,1-1.6-.584L36.27,2.507a3,3,0,0,0-.961-.482,2.912,2.912,0,0,1,2.573.482ZM35.309,28.759a2.824,2.824,0,0,0-1.659.014l-2.124.642-.063.018a2.953,2.953,0,0,0,1.675-.018l2.124-.642Z" fill="#ffd064" fill-rule="evenodd"/>
            <circle id="Ellipse_14182" data-name="Ellipse 14182" cx="8.498" cy="8.498" r="8.498" transform="translate(24.092 15.73) rotate(-45)" fill="#eceff1"/>
            <path id="Path_1245516" data-name="Path 1245516" d="M36.115,7.229q.238,0,.472.013a8.5,8.5,0,0,0,0,16.972q-.235.013-.472.013a8.5,8.5,0,1,1,0-17Z" fill="#d1d1d6" fill-rule="evenodd"/>
            <path id="Path_1245517" data-name="Path 1245517" d="M35,16.477,39.131,12.3a1.258,1.258,0,1,1,1.785,1.773c-1.676,1.691-3.34,3.394-5.024,5.077a1.261,1.261,0,0,1-1.783,0l-2.793-2.793A1.261,1.261,0,0,1,33.1,14.579Z" fill="#8ac9fe" fill-rule="evenodd"/>
          </g>
          <g id="Group_1252834" data-name="Group 1252834">
            <path id="Path_1245518" data-name="Path 1245518" d="M9.2,44.424l10.012-5.8c1.879-1.089,3.79-1.86,5.855-1.191a70.4,70.4,0,0,0,9.9,3.042,2.781,2.781,0,0,1,1.924,3.332,2.692,2.692,0,0,1-3.332,1.924l1.34.215A6.241,6.241,0,0,0,39.19,45.2l9.626-5.607c7.482-4.358,8.581,2.346,6.094,3.878L37.441,54.226a6.406,6.406,0,0,1-5.187.731l-12.671-3.4-4.692,2.709a1.9,1.9,0,0,1-2.584-.692L8.513,47.007a1.9,1.9,0,0,1,.69-2.582Z" fill="#f6dccd" fill-rule="evenodd"/>
            <path id="Path_1245519" data-name="Path 1245519" d="M36.662,44.406a2.747,2.747,0,0,1-3.1,1.324c-2.075-.549-4.149-1.112-6.222-1.667a1.041,1.041,0,0,1,.539-2.012Z" fill="#f1cbbc" fill-rule="evenodd"/>
            <path id="Path_1245520" data-name="Path 1245520" d="M9.2,44.424l10.012-5.8c1.879-1.089,3.79-1.861,5.855-1.191,1.232.4,2.881,1.044,4.736,1.663l-19.395,11.2-1.9-3.287a1.9,1.9,0,0,1,.69-2.582Z" fill="#f1cbbc" fill-rule="evenodd"/>
            <path id="Path_1245521" data-name="Path 1245521" d="M10.365,41.539l7.94,14.03A1.421,1.421,0,0,1,17.77,57.5l-2.7,1.529a1.422,1.422,0,0,1-1.932-.535L5.2,44.463a1.421,1.421,0,0,1,.535-1.932L8.434,41a1.421,1.421,0,0,1,1.931.535Z" fill="#d1d1d6" fill-rule="evenodd"/>
            <path id="Path_1245522" data-name="Path 1245522" d="M14.542,51.178l1.405,2.483,1.39,2.456a1.421,1.421,0,0,1-.531,1.929l.965-.546a1.421,1.421,0,0,0,.535-1.931L16.911,53.1l-2.8-4.947-2.8-4.953-.943-1.666a1.423,1.423,0,0,0-1.651-.656l1.632,2.884,2.8,4.947,1.394,2.464Z" fill="#b1b1b5" fill-rule="evenodd"/>
          </g>
        </g>
        <path id="Path_1245523" data-name="Path 1245523" d="M9.481,44.175a.964.964,0,1,1-1.093-.814.963.963,0,0,1,1.093.814Zm44.929-1.52L36.941,53.411a5.466,5.466,0,0,1-4.44.622l-12.67-3.4a.953.953,0,0,0-.724.1L17.27,51.795l-4.663-8.239L19.7,39.448c1.584-.918,3.3-1.688,5.082-1.108.583.189,1.257.432,2.036.714A49.873,49.873,0,0,0,34.729,41.4a1.813,1.813,0,0,1,1.24,2.158,1.738,1.738,0,0,1-2.117,1.225c-1.492-.3-2.85-.685-4.27-1.089-.64-.181-1.3-.369-2-.555a.955.955,0,1,0-.494,1.844c.683.184,1.337.369,1.97.548,1.468.417,2.872.815,4.441,1.129l.019,0c.4.08.806.154,1.23.222a7.159,7.159,0,0,0,4.922-.865L49.3,40.416c2.717-1.583,4.8-1.76,5.568-.475a2.142,2.142,0,0,1-.456,2.715ZM17.518,56.388a.461.461,0,0,0-.042-.351L9.536,42.008a.462.462,0,0,0-.279-.216.488.488,0,0,0-.128-.018.453.453,0,0,0-.223.06l-2.7,1.528a.469.469,0,0,0-.176.63l7.941,14.029a.465.465,0,0,0,.629.174l2.7-1.528A.46.46,0,0,0,17.518,56.388ZM56.5,38.959c-.515-.861-2.629-3.42-8.168-.195l-9.626,5.606a5.309,5.309,0,0,1-1.228.529,3.964,3.964,0,0,0,.332-.846,3.748,3.748,0,0,0-2.551-4.488,1.23,1.23,0,0,0-.125-.032,48.112,48.112,0,0,1-7.675-2.274c-.762-.276-1.483-.537-2.1-.735-2.5-.813-4.755.187-6.628,1.273l-7.072,4.1-.468-.826a2.375,2.375,0,0,0-3.233-.9L5.265,41.7a2.373,2.373,0,0,0-.9,3.233l7.94,14.029a2.357,2.357,0,0,0,1.431,1.116,2.408,2.408,0,0,0,.64.087,2.355,2.355,0,0,0,1.163-.307l2.7-1.529a2.375,2.375,0,0,0,.9-3.233l-.929-1.64,1.51-.872,12.288,3.294a7.937,7.937,0,0,0,2.049.276,7.346,7.346,0,0,0,3.886-1.116L55.411,44.281A4.034,4.034,0,0,0,56.5,38.959Zm-24.6-23.491a.3.3,0,0,1,.088-.215.307.307,0,0,1,.432,0l1.9,1.9a.957.957,0,0,0,.676.281h0a.952.952,0,0,0,.675-.284l4.133-4.173a.3.3,0,0,1,.428,0,.3.3,0,0,1,0,.43q-.935.944-1.868,1.891c-1.03,1.046-2.1,2.127-3.153,3.183a.305.305,0,0,1-.432,0l-2.793-2.793a.3.3,0,0,1-.088-.216ZM35,20.476a2.213,2.213,0,0,0,1.567-.647c1.06-1.06,2.128-2.145,3.162-3.193q.931-.944,1.864-1.887a2.213,2.213,0,0,0-1.571-3.772h-.008a2.2,2.2,0,0,0-1.563.654L35,15.122l-1.22-1.22a2.216,2.216,0,0,0-3.134,3.134l2.794,2.793A2.212,2.212,0,0,0,35,20.476ZM36.117,8.182a7.544,7.544,0,1,0,7.543,7.545,7.553,7.553,0,0,0-7.543-7.545Zm0,17a9.454,9.454,0,1,0-9.453-9.453A9.464,9.464,0,0,0,36.117,25.181ZM23.723,12.668a1.955,1.955,0,0,0-.415,2.354l1,1.98a3.783,3.783,0,0,1,.392,2.224l-.262,2.2a1.955,1.955,0,0,0,1.195,2.07l2.039.872A3.79,3.79,0,0,1,29.4,25.825l1.214,1.856a1.955,1.955,0,0,0,2.246.817l2.125-.642a3.8,3.8,0,0,1,2.259,0l2.125.642a1.956,1.956,0,0,0,2.246-.817l1.214-1.856a3.788,3.788,0,0,1,1.73-1.453L46.6,23.5A1.955,1.955,0,0,0,47.8,21.43l-.262-2.2A3.786,3.786,0,0,1,47.925,17l1-1.98a1.958,1.958,0,0,0-.416-2.354l-1.617-1.519a3.785,3.785,0,0,1-1.13-1.956l-.506-2.162A1.956,1.956,0,0,0,43.427,5.5l-2.216-.123A3.8,3.8,0,0,1,39.088,4.6L37.312,3.27a1.955,1.955,0,0,0-2.39,0L33.146,4.6a3.794,3.794,0,0,1-2.122.772L28.807,5.5a1.955,1.955,0,0,0-1.831,1.536L26.47,9.193a3.784,3.784,0,0,1-1.129,1.956Zm20.6,19.259a.953.953,0,0,0-.99.461l-1.363,2.347L40,30.5a3.876,3.876,0,0,0,3.216-1.769l1.213-1.855L47,32.393ZM30.261,34.734,28.9,32.388a.954.954,0,0,0-.99-.461l-2.674.467,2.571-5.521,1.213,1.855a3.873,3.873,0,0,0,3.215,1.77ZM22.6,17.864l-1-1.982a3.875,3.875,0,0,1,.813-4.607l1.617-1.52a1.87,1.87,0,0,0,.577-1L25.116,6.6A3.879,3.879,0,0,1,28.7,3.589l2.216-.123A1.875,1.875,0,0,0,32,3.071l1.776-1.329a3.876,3.876,0,0,1,4.679,0l1.776,1.33a1.879,1.879,0,0,0,1.084.394l2.216.123A3.876,3.876,0,0,1,47.116,6.6l.507,2.161a1.868,1.868,0,0,0,.576,1l1.618,1.52a3.877,3.877,0,0,1,.813,4.607l-1,1.98a1.9,1.9,0,0,0-.2,1.136l.264,2.2a3.876,3.876,0,0,1-2.34,4.052l-1.31.561L49.29,32.79A1.218,1.218,0,0,1,47.976,34.5l-3.324-.581-1.7,2.918a1.212,1.212,0,0,1-1.052.606h-.056a1.213,1.213,0,0,1-1.048-.7l-3.152-6.768-.956-.289a1.88,1.88,0,0,0-1.153,0l-.956.289-3.151,6.768a1.212,1.212,0,0,1-1.048.7h-.056a1.211,1.211,0,0,1-1.051-.606l-1.7-2.918-3.324.581a1.217,1.217,0,0,1-1.313-1.713l3.247-6.975-1.309-.561a3.875,3.875,0,0,1-2.34-4.052L22.8,19a1.884,1.884,0,0,0-.2-1.135Z" fill-rule="evenodd"/>
      </g>
    </g>
  </g>
</svg>
