<svg xmlns="http://www.w3.org/2000/svg" xmlns:xlink="http://www.w3.org/1999/xlink" width="108" height="108" viewBox="0 0 108 108">
  <defs>
    <filter id="Rectangle_411831" x="0" y="0" width="108" height="108" filterUnits="userSpaceOnUse">
      <feOffset dy="3" input="SourceAlpha"/>
      <feGaussianBlur stdDeviation="3" result="blur"/>
      <feFlood flood-opacity="0.161"/>
      <feComposite operator="in" in2="blur"/>
      <feComposite in="SourceGraphic"/>
    </filter>
    <clipPath id="clip-path">
      <rect id="Rectangle_430334" data-name="Rectangle 430334" width="53" height="60" transform="translate(-3315 -10265)" fill="#fff" stroke="#707070" stroke-width="1" opacity="0"/>
    </clipPath>
  </defs>
  <g id="Group_1255123" data-name="Group 1255123" transform="translate(3342.27 10286)">
    <g id="Group_1242625" data-name="Group 1242625" transform="translate(-3333.27 -10280)">
      <g id="Group_1230590" data-name="Group 1230590">
        <g transform="matrix(1, 0, 0, 1, -9, -6)" filter="url(#Rectangle_411831)">
          <g id="Rectangle_411831-2" data-name="Rectangle 411831" transform="translate(9 6)" fill="#a4e0d4" stroke="#fff" stroke-width="2">
            <path d="M5,0H58A32,32,0,0,1,90,32V85a5,5,0,0,1-5,5H32A32,32,0,0,1,0,58V5A5,5,0,0,1,5,0Z" stroke="none"/>
            <path d="M5,1H58A31,31,0,0,1,89,32V85a4,4,0,0,1-4,4H32A31,31,0,0,1,1,58V5A4,4,0,0,1,5,1Z" fill="none"/>
          </g>
        </g>
      </g>
    </g>
    <g id="Mask_Group_1099541" data-name="Mask Group 1099541" clip-path="url(#clip-path)">
      <g id="marketing-directo" transform="translate(-3315.854 -10262.354)">
        <g id="Group_1252840" data-name="Group 1252840">
          <g id="Group_1252836" data-name="Group 1252836">
            <circle id="Ellipse_14183" data-name="Ellipse 14183" cx="9.386" cy="9.386" r="9.386" transform="translate(23.962 2.884)" fill="#ffe177"/>
            <path id="Path_1245524" data-name="Path 1245524" d="M33.347,2.884a9.386,9.386,0,1,1,0,18.772c-.213,0-.423-.008-.632-.022a9.386,9.386,0,0,0,0-18.728c.209-.014.42-.022.632-.022Z" fill="#ffd064" fill-rule="evenodd"/>
            <circle id="Ellipse_14184" data-name="Ellipse 14184" cx="7.166" cy="7.166" r="7.166" transform="translate(25.121 6.348) rotate(-9.208)" fill="#ffc338"/>
            <path id="Path_1245525" data-name="Path 1245525" d="M33.347,5.1a7.167,7.167,0,0,0,0,14.335q.292,0,.578-.023a7.167,7.167,0,0,1,0-14.288c-.191-.015-.383-.023-.578-.023Z" fill="#f5b829" fill-rule="evenodd"/>
          </g>
          <g id="Group_1252837" data-name="Group 1252837">
            <path id="Path_1245526" data-name="Path 1245526" d="M49.964,18.935l-6.982-4.045a4.942,4.942,0,0,0-4.083-.83A49.106,49.106,0,0,1,32,16.181,1.94,1.94,0,0,0,30.654,18.5a1.877,1.877,0,0,0,2.324,1.342l-.935.15a4.353,4.353,0,0,1-2.993-.521l-6.713-3.91c-5.218-3.039-5.985,1.636-4.25,2.7l12.183,7.5a4.467,4.467,0,0,0,3.618.51l8.837-2.368L46,25.8a1.322,1.322,0,0,0,1.8-.483l2.646-4.584a1.322,1.322,0,0,0-.481-1.8Z" fill="#f6dccd" fill-rule="evenodd"/>
            <path id="Path_1245527" data-name="Path 1245527" d="M30.813,18.922a1.916,1.916,0,0,0,2.164.924c1.448-.383,2.893-.775,4.34-1.163a.726.726,0,1,0-.376-1.4Z" fill="#f1cbbc" fill-rule="evenodd"/>
            <path id="Path_1245528" data-name="Path 1245528" d="M49.964,18.935l-6.982-4.045a4.942,4.942,0,0,0-4.083-.83c-.859.279-2.009.728-3.3,1.16l13.526,7.809,1.324-2.293A1.321,1.321,0,0,0,49.964,18.935Z" fill="#f1cbbc" fill-rule="evenodd"/>
            <path id="Path_1245529" data-name="Path 1245529" d="M49.267,16.732,43.73,26.516a.991.991,0,0,0,.373,1.347l1.884,1.066a.991.991,0,0,0,1.347-.373l5.538-9.785a.991.991,0,0,0-.373-1.347l-1.884-1.066A.991.991,0,0,0,49.267,16.732Z" fill="#d1d1d6" fill-rule="evenodd"/>
            <path id="Path_1245530" data-name="Path 1245530" d="M46.355,23.454l-.98,1.732L44.405,26.9a.991.991,0,0,0,.37,1.345l-.673-.381a.991.991,0,0,1-.373-1.347L44.7,24.8l1.953-3.45,1.955-3.454.657-1.162a.992.992,0,0,1,1.151-.458L49.28,18.285l-1.953,3.45-.972,1.718Z" fill="#b1b1b5" fill-rule="evenodd"/>
          </g>
          <g id="Group_1252838" data-name="Group 1252838">
            <path id="Path_1245531" data-name="Path 1245531" d="M22.562,24.836l6.8,3.926a.636.636,0,0,1,.326.564v7.852a.636.636,0,0,1-.326.564l-6.8,3.926a.636.636,0,0,1-.651,0l-6.8-3.926a.636.636,0,0,1-.326-.564V29.326a.636.636,0,0,1,.326-.564l6.8-3.926A.636.636,0,0,1,22.562,24.836Z" fill="#f2d1a5" fill-rule="evenodd"/>
            <path id="Path_1245532" data-name="Path 1245532" d="M19.1,34.831l-1.347-.778a.636.636,0,0,1-.326-.564V30.477l2.161,1.248v2.824a.326.326,0,0,1-.488.282Z" fill="#e3a76f" fill-rule="evenodd"/>
            <path id="Path_1245533" data-name="Path 1245533" d="M22.562,24.836l6.8,3.926A.648.648,0,0,1,29.6,29l-7.366,4.253L14.87,29a.648.648,0,0,1,.24-.237l6.8-3.926a.636.636,0,0,1,.651,0Z" fill="#e3a76f" fill-rule="evenodd"/>
            <path id="Path_1245534" data-name="Path 1245534" d="M17.43,30.477l2.161,1.248,7.451-4.3-2.161-1.248Z" fill="#c48958" fill-rule="evenodd"/>
            <path id="Path_1245535" data-name="Path 1245535" d="M29.6,29a.648.648,0,0,1,.085.327v7.852a.636.636,0,0,1-.326.564l-6.8,3.926a.649.649,0,0,1-.326.09V33.252Z" fill="#ecba78" fill-rule="evenodd"/>
          </g>
          <g id="Group_1252839" data-name="Group 1252839">
            <path id="Path_1245536" data-name="Path 1245536" d="M4.745,41.7l6.982-4.045a4.942,4.942,0,0,1,4.083-.83,49.094,49.094,0,0,0,6.9,2.121,1.94,1.94,0,0,1,1.341,2.324,1.877,1.877,0,0,1-2.324,1.342l.935.15a4.353,4.353,0,0,0,2.993-.521l6.713-3.91c5.218-3.039,5.985,1.636,4.25,2.7l-12.183,7.5a4.467,4.467,0,0,1-3.618.51L11.984,46.68,8.712,48.57a1.322,1.322,0,0,1-1.8-.483L4.264,43.5a1.322,1.322,0,0,1,.481-1.8Z" fill="#f6dccd" fill-rule="evenodd"/>
            <path id="Path_1245537" data-name="Path 1245537" d="M23.9,41.69a1.916,1.916,0,0,1-2.164.924c-1.448-.383-2.893-.775-4.34-1.163a.726.726,0,0,1,.376-1.4Z" fill="#f1cbbc" fill-rule="evenodd"/>
            <path id="Path_1245538" data-name="Path 1245538" d="M4.745,41.7l6.982-4.045a4.942,4.942,0,0,1,4.083-.83c.859.279,2.009.728,3.3,1.16L5.587,45.8,4.264,43.5a1.322,1.322,0,0,1,.481-1.8Z" fill="#f1cbbc" fill-rule="evenodd"/>
            <path id="Path_1245539" data-name="Path 1245539" d="M5.441,39.5l5.538,9.785a.991.991,0,0,1-.373,1.347L8.722,51.7a.991.991,0,0,1-1.347-.373L1.837,41.539a.991.991,0,0,1,.373-1.347l1.884-1.066a.991.991,0,0,1,1.347.373Z" fill="#d1d1d6" fill-rule="evenodd"/>
            <path id="Path_1245540" data-name="Path 1245540" d="M8.353,46.222l.98,1.732.969,1.713a.991.991,0,0,1-.37,1.345l.673-.381a.991.991,0,0,0,.373-1.347l-.972-1.718-1.953-3.45L6.1,40.66,5.441,39.5a.992.992,0,0,0-1.151-.458l1.138,2.011L7.381,44.5l.973,1.718Z" fill="#b1b1b5" fill-rule="evenodd"/>
          </g>
        </g>
        <path id="Path_1245541" data-name="Path 1245541" d="M8.453,12.27A.857.857,0,0,1,8.78,11.6l2.359-1.841A.854.854,0,1,1,12.19,11.1l-.4.313h8.962a.855.855,0,1,1,0,1.71H11.793l.4.313a.854.854,0,1,1-1.051,1.347L8.78,12.944a.857.857,0,0,1-.327-.674ZM45.2,33.251a.848.848,0,0,1-.332.674l-2.354,1.841a.856.856,0,0,1-1.056-1.347l.4-.313H32.891a.855.855,0,1,1,0-1.71h8.967l-.4-.312a.856.856,0,0,1,1.056-1.347l2.354,1.841a.847.847,0,0,1,.332.673Zm5.91-14.291a.673.673,0,1,1-.568-.763A.676.676,0,0,1,51.107,18.96Zm1.021-.611a.139.139,0,0,0-.05-.183L50.192,17.1a.122.122,0,0,0-.06-.017.147.147,0,0,0-.04.006.125.125,0,0,0-.08.061h0l-5.537,9.786a.134.134,0,0,0,.05.182L46.4,28.185a.142.142,0,0,0,.186-.051Zm-8.972,4.827,1.117.645L47.34,18.4l-4.783-2.769c-1.464-.846-2.444-1.065-3.395-.757-.4.131-.87.3-1.413.5a35.087,35.087,0,0,1-5.537,1.641,1.074,1.074,0,0,0-.729,1.273c.055.211.226.847,1.262.731.976-.2,1.906-.466,2.887-.747.473-.135.961-.275,1.464-.409a.855.855,0,1,1,.443,1.651c-.488.131-.971.269-1.433.4-1.031.294-2,.571-3.058.787l-.865.142a5.185,5.185,0,0,1-3.561-.627l-6.714-3.91c-1.765-1.03-3.158-1.181-3.626-.4a1.307,1.307,0,0,0,.252,1.635l12.186,7.5a3.641,3.641,0,0,0,2.952.412l8.837-2.368a.855.855,0,0,1,.649.086ZM36.5,14.005l-.015-.16c-.161-1.323-1.167-2.145-2.987-2.444-1.323-.217-1.343-.682-1.353-.858-.03-.647.644-.852.85-.9a1.428,1.428,0,0,1,1.68.779.854.854,0,1,0,1.574-.662A2.953,2.953,0,0,0,34.2,8V7.734a.855.855,0,0,0-1.71,0v.273a2.594,2.594,0,0,0-2.062,2.618c.04.755.448,2.079,2.786,2.462,1.479.243,1.539.747,1.569.963.015.142.05.431-.443.674-.216.065-.438.129-.654.19-.091.012-.181.02-.272.022a1.443,1.443,0,0,1-1.539-.946.855.855,0,0,0-1.66.413,2.811,2.811,0,0,0,.764,1.332A2.817,2.817,0,0,0,29.8,17.487,6.312,6.312,0,1,1,39.66,12.27a6.688,6.688,0,0,1-.05.779,4.428,4.428,0,0,0-.976.2c-.428.14-.935.322-1.469.515-.216.079-.437.16-.669.242ZM24.819,12.27a8.53,8.53,0,1,1,17.06,0,9.018,9.018,0,0,1-.07,1.106c-.161-.059-.327-.112-.493-.158a8.5,8.5,0,0,0,.055-.948A8.022,8.022,0,1,0,27.2,17.408l-1.1-.639a8.492,8.492,0,0,1-1.283-4.5Zm28.1,4.409-1.881-1.066a1.847,1.847,0,0,0-2.515.7l-.342.6-4.763-2.76a10.722,10.722,0,0,0,.171-1.883,10.24,10.24,0,1,0-20.027,3.021l-.795-.462c-4.013-2.337-5.573-.436-5.955.2A3.017,3.017,0,0,0,17.637,19l12.186,7.5a5.31,5.31,0,0,0,2.806.808,5.668,5.668,0,0,0,1.479-.2l8.5-2.276.82.475-.443.786a1.846,1.846,0,0,0,.694,2.512l1.886,1.066a1.841,1.841,0,0,0,2.51-.7l5.542-9.786a1.848,1.848,0,0,0-.7-2.512ZM4.932,41.532a.671.671,0,1,1-.76-.567.672.672,0,0,1,.76.567Zm31.243-1.22-12.186,7.5a3.634,3.634,0,0,1-2.947.412L12.2,45.859a.854.854,0,0,0-.649.085l-1.116.644-3.068-5.42,4.783-2.77c1.459-.845,2.439-1.064,3.39-.756.4.132.87.3,1.413.5A35.3,35.3,0,0,0,22.5,39.781a1.081,1.081,0,0,1,.734,1.272c-.06.212-.231.849-1.267.731-.976-.2-1.906-.466-2.887-.747-.473-.135-.961-.275-1.464-.409a.855.855,0,0,0-.443,1.652c.488.13.971.268,1.438.4,1.026.294,2,.572,3.053.787l.87.142a5.179,5.179,0,0,0,3.556-.626L32.8,39.073c1.77-1.029,3.158-1.182,3.626-.4a1.308,1.308,0,0,1-.252,1.636ZM10.183,49.887a.134.134,0,0,0,.05-.183L4.7,39.918a.129.129,0,0,0-.116-.067.12.12,0,0,0-.065.017L2.634,40.934a.149.149,0,0,0-.065.081.13.13,0,0,0,.015.1L8.121,50.9a.137.137,0,0,0,.181.05ZM22.239,25.634l.935.54L17.43,29.489l-.935-.54Zm-2.645,5.1-.453-.261,5.739-3.315.453.261Zm-1.308,1.22.453.261v1.413l-.453-.26Zm3.953.307-.935-.541,5.739-3.314.935.54ZM16.576,30.97l-.935-.54V35.9c.141.031.287.069.433.117.433.14.935.321,1.469.514,1.127.406,2.454.887,3.843,1.248V33.745l-.935-.54v1.907a.862.862,0,0,1-.428.741.879.879,0,0,1-.428.114.851.851,0,0,1-.428-.114L17,34.6a.851.851,0,0,1-.428-.74V30.97Zm8.052,8.519,4.2-2.429V30.43l-5.739,3.314v4.434a2.9,2.9,0,0,1,1.534,1.31ZM31.94,37.6l-6.714,3.911a3.368,3.368,0,0,1-.412.208c.025-.071.045-.144.065-.219l.045-.205,5.19-3a.85.85,0,0,0,.428-.739v-8.6a.85.85,0,0,0-.428-.74l-7.449-4.3a.854.854,0,0,0-.855,0l-7.454,4.3a.85.85,0,0,0-.428.74v6.917a8.025,8.025,0,0,0-2.635,1.054L6.527,39.682l-.342-.605a1.842,1.842,0,0,0-2.51-.7L1.789,39.447a1.848,1.848,0,0,0-.694,2.512l5.537,9.786a1.845,1.845,0,0,0,1.609.935,1.823,1.823,0,0,0,.9-.238l1.886-1.066a1.842,1.842,0,0,0,.694-2.512l-.443-.786L12.1,47.6,20.6,49.877a5.68,5.68,0,0,0,1.479.2,5.3,5.3,0,0,0,2.806-.807l12.186-7.5a3.012,3.012,0,0,0,.825-3.97c-.382-.638-1.941-2.539-5.955-.2Z" fill-rule="evenodd"/>
      </g>
    </g>
  </g>
</svg>
