<svg xmlns="http://www.w3.org/2000/svg" xmlns:xlink="http://www.w3.org/1999/xlink" width="108" height="108" viewBox="0 0 108 108">
  <defs>
    <filter id="Rectangle_411831" x="0" y="0" width="108" height="108" filterUnits="userSpaceOnUse">
      <feOffset dy="3" input="SourceAlpha"/>
      <feGaussianBlur stdDeviation="3" result="blur"/>
      <feFlood flood-opacity="0.161"/>
      <feComposite operator="in" in2="blur"/>
      <feComposite in="SourceGraphic"/>
    </filter>
    <clipPath id="clip-path">
      <rect id="Rectangle_430334" data-name="Rectangle 430334" width="53" height="60" transform="translate(-3315 -10265)" fill="#fff" stroke="#707070" stroke-width="1" opacity="0"/>
    </clipPath>
    <clipPath id="clip-path-2">
      <path id="path603" d="M0-53H53V0H0Z"/>
    </clipPath>
  </defs>
  <g id="Group_1242649" data-name="Group 1242649" transform="translate(3342.27 10286)">
    <g id="Group_1242625" data-name="Group 1242625" transform="translate(-3333.27 -10280)">
      <g id="Group_1230590" data-name="Group 1230590">
        <g transform="matrix(1, 0, 0, 1, -9, -6)" filter="url(#Rectangle_411831)">
          <g id="Rectangle_411831-2" data-name="Rectangle 411831" transform="translate(9 6)" fill="#a4e0d4" stroke="#fff" stroke-width="2">
            <path d="M5,0H58A32,32,0,0,1,90,32V85a5,5,0,0,1-5,5H32A32,32,0,0,1,0,58V5A5,5,0,0,1,5,0Z" stroke="none"/>
            <path d="M5,1H58A31,31,0,0,1,89,32V85a4,4,0,0,1-4,4H32A31,31,0,0,1,1,58V5A4,4,0,0,1,5,1Z" fill="none"/>
          </g>
        </g>
      </g>
    </g>
    <g id="Mask_Group_1099542" data-name="Mask Group 1099542" clip-path="url(#clip-path)">
      <g id="g597" transform="translate(-3315 -10208.5)">
        <g id="g599">
          <g id="g601" clip-path="url(#clip-path-2)">
            <g id="g607" transform="translate(20.772 -27.08)">
              <path id="path609" d="M0,0H0A2.571,2.571,0,0,0-3.546.8l-.4.627-.627-.4a2.571,2.571,0,0,0-3.546.8,2.571,2.571,0,0,0,.8,3.546l4.381,2.765a.7.7,0,0,0,.969-.219L.8,3.546A2.571,2.571,0,0,0,0,0" fill="#f82f41"/>
            </g>
            <g id="g611" transform="translate(21.574 -23.533)">
              <path id="path613" d="M0,0-1.314,2.08l-2.1-2.1A5.553,5.553,0,0,1-4.735-2.131l.387-.614A2.572,2.572,0,0,1-.8-3.546,2.572,2.572,0,0,1,0,0" fill="#e22334"/>
            </g>
            <g id="g615" transform="translate(21.574 -23.533)">
              <path id="path617" d="M0,0-2.766,4.381a.7.7,0,0,1-.968.218l-1.143-.722L-2.208-.351a2.572,2.572,0,0,0-.707-3.483A2.567,2.567,0,0,1-.8-3.546,2.572,2.572,0,0,1,0,0" fill="#e22334"/>
            </g>
            <g id="g619" transform="translate(20.772 -27.08)">
              <path id="path621" d="M0,0H0A2.571,2.571,0,0,0-3.546.8l-.4.627-.627-.4a2.571,2.571,0,0,0-3.546.8,2.571,2.571,0,0,0,.8,3.546l4.381,2.765a.7.7,0,0,0,.969-.219L.8,3.546A2.571,2.571,0,0,0,0,0Z" fill="none" stroke="#000" stroke-linecap="round" stroke-linejoin="round" stroke-miterlimit="10" stroke-width="1.553"/>
            </g>
            <g id="g623" transform="translate(20.378 -13.052)">
              <path id="path625" d="M0,0Q2.163.857,4.327,1.71L8.936-4.239a1.862,1.862,0,0,0-.478-2.714,1.862,1.862,0,0,0-2.366.315Z" fill="#873f30"/>
            </g>
            <g id="g627" transform="translate(20.378 -13.052)">
              <path id="path629" d="M0,0Q2.163.857,4.327,1.71L8.936-4.239a1.862,1.862,0,0,0-.478-2.714,1.862,1.862,0,0,0-2.366.315Z" fill="none" stroke="#000" stroke-linecap="round" stroke-linejoin="round" stroke-miterlimit="10" stroke-width="1.553"/>
            </g>
            <g id="g631" transform="translate(24.345 -12.648)">
              <path id="path633" d="M0,0Q2.1,1.008,4.195,2.012L9.213-3.6a1.862,1.862,0,0,0-.284-2.742,1.862,1.862,0,0,0-2.382.147Z" fill="#a34f41"/>
            </g>
            <g id="g635" transform="translate(24.345 -12.648)">
              <path id="path637" d="M0,0Q2.1,1.008,4.195,2.012L9.213-3.6a1.862,1.862,0,0,0-.284-2.742,1.862,1.862,0,0,0-2.382.147Z" fill="none" stroke="#000" stroke-linecap="round" stroke-linejoin="round" stroke-miterlimit="10" stroke-width="1.553"/>
            </g>
            <g id="g639" transform="translate(27.395 -11.18)">
              <path id="path641" d="M0,0Q2.047,1.1,4.1,2.206L9.371-3.162a1.862,1.862,0,0,0-.156-2.752,1.862,1.862,0,0,0-2.386.036Z" fill="#ba5d4f"/>
            </g>
            <g id="g643" transform="translate(27.395 -11.18)">
              <path id="path645" d="M0,0Q2.047,1.1,4.1,2.206L9.371-3.162a1.862,1.862,0,0,0-.156-2.752,1.862,1.862,0,0,0-2.386.036Z" fill="none" stroke="#000" stroke-linecap="round" stroke-linejoin="round" stroke-miterlimit="10" stroke-width="1.553"/>
            </g>
            <g id="g647" transform="translate(41.704 -14.365)">
              <path id="path649" d="M0,0A1.862,1.862,0,0,0-2.295-.656l-6.325,2.8A2.481,2.481,0,0,0-11.072.04h-5.351a9.765,9.765,0,0,1-3.1-.5l-4.515-1.512a4.044,4.044,0,0,0-2.413-.048l-2.932.853A4.043,4.043,0,0,0-31.84.846a8.256,8.256,0,0,1-2.839,3.123l-5.111,3.31,6.309,6.31L-26.9,8.555l12.7.854a3.836,3.836,0,0,0,2.1-.463L-.646,2.679A1.862,1.862,0,0,0,0,0" fill="#d5887a"/>
            </g>
            <g id="g651" transform="translate(41.057 -11.686)">
              <path id="path653" d="M0,0-11.45,6.266a3.841,3.841,0,0,1-2.1.463l-12.7-.854-6.584,5.034L-34.823,8.92l6.874-5.255a.685.685,0,0,1,.462-.139l12.443.836a3.842,3.842,0,0,0,2.1-.462l11.45-6.266A1.853,1.853,0,0,0-.6-3.471a1.864,1.864,0,0,1,1.249.793A1.861,1.861,0,0,1,0,0" fill="#c86f5c"/>
            </g>
            <g id="g655" transform="translate(20.921 -8.976)">
              <path id="path657" d="M0,0A13.969,13.969,0,0,1,3.264-.387H9.711a2.481,2.481,0,0,0,2.48-2.481,2.481,2.481,0,0,0-2.48-2.481H4.36a9.762,9.762,0,0,1-3.1-.505L-3.254-7.364a4.042,4.042,0,0,0-2.329-.069" fill="none" stroke="#000" stroke-linecap="round" stroke-linejoin="round" stroke-miterlimit="10" stroke-width="1.553"/>
            </g>
            <g id="g659" transform="translate(12.031 -15.437)">
              <path id="path661" d="M0,0A4.043,4.043,0,0,0-2.167,1.919h0A8.258,8.258,0,0,1-5.005,5.042l-5.111,3.31" fill="none" stroke="#000" stroke-linecap="round" stroke-linejoin="round" stroke-miterlimit="10" stroke-width="1.553"/>
            </g>
            <g id="g663" transform="translate(33.084 -12.216)">
              <path id="path665" d="M0,0,6.325-2.8a1.862,1.862,0,0,1,2.295.656A1.862,1.862,0,0,1,7.973.531L-3.477,6.8a3.837,3.837,0,0,1-2.1.463l-12.7-.854-6.585,5.034" fill="none" stroke="#000" stroke-linecap="round" stroke-linejoin="round" stroke-miterlimit="10" stroke-width="1.553"/>
            </g>
            <g id="g667" transform="translate(32.622 -39.948)">
              <path id="path669" d="M0,0Q-2.163-.857-4.327-1.71L-8.936,4.239a1.862,1.862,0,0,0,.478,2.714,1.862,1.862,0,0,0,2.366-.315Z" fill="#ea806f"/>
            </g>
            <g id="g671" transform="translate(32.622 -39.948)">
              <path id="path673" d="M0,0Q-2.163-.857-4.327-1.71L-8.936,4.239a1.862,1.862,0,0,0,.478,2.714,1.862,1.862,0,0,0,2.366-.315Z" fill="none" stroke="#000" stroke-linecap="round" stroke-linejoin="round" stroke-miterlimit="10" stroke-width="1.553"/>
            </g>
            <g id="g675" transform="translate(28.655 -40.352)">
              <path id="path677" d="M0,0Q-2.1-1.008-4.195-2.012L-9.213,3.6a1.862,1.862,0,0,0,.284,2.742A1.862,1.862,0,0,0-6.547,6.19Z" fill="#f89f8e"/>
            </g>
            <g id="g679" transform="translate(28.655 -40.352)">
              <path id="path681" d="M0,0Q-2.1-1.008-4.195-2.012L-9.213,3.6a1.862,1.862,0,0,0,.284,2.742A1.862,1.862,0,0,0-6.547,6.19Z" fill="none" stroke="#000" stroke-linecap="round" stroke-linejoin="round" stroke-miterlimit="10" stroke-width="1.553"/>
            </g>
            <g id="g683" transform="translate(25.605 -41.82)">
              <path id="path685" d="M0,0Q-2.047-1.1-4.1-2.206L-9.371,3.162a1.862,1.862,0,0,0,.156,2.752,1.862,1.862,0,0,0,2.386-.036Z" fill="#fdb0a0"/>
            </g>
            <g id="g687" transform="translate(25.605 -41.82)">
              <path id="path689" d="M0,0Q-2.047-1.1-4.1-2.206L-9.371,3.162a1.862,1.862,0,0,0,.156,2.752,1.862,1.862,0,0,0,2.386-.036Z" fill="none" stroke="#000" stroke-linecap="round" stroke-linejoin="round" stroke-miterlimit="10" stroke-width="1.553"/>
            </g>
            <g id="g691" transform="translate(11.296 -38.635)">
              <path id="path693" d="M0,0A1.862,1.862,0,0,0,2.295.656l6.325-2.8A2.481,2.481,0,0,0,11.072-.04h5.351a9.765,9.765,0,0,1,3.1.5l4.515,1.512a4.044,4.044,0,0,0,2.413.048l2.932-.853A4.043,4.043,0,0,0,31.84-.846a8.256,8.256,0,0,1,2.839-3.123l5.111-3.31-6.309-6.31L26.9-8.555,14.2-9.408a3.836,3.836,0,0,0-2.1.463L.646-2.679A1.862,1.862,0,0,0,0,0" fill="#ffcec0"/>
            </g>
            <g id="g695" transform="translate(51.086 -45.914)">
              <path id="path697" d="M0,0-5.111,3.31A8.229,8.229,0,0,0-6.734,4.687,8.283,8.283,0,0,0-7.95,6.432,4.046,4.046,0,0,1-10.407,8.45l-2.932.853a4.044,4.044,0,0,1-2.414-.048L-18,8.5a4.044,4.044,0,0,0,1.373-.153l2.932-.854a4.039,4.039,0,0,0,2.457-2.017,8.282,8.282,0,0,1,1.216-1.746A8.291,8.291,0,0,1-8.4,2.356l6.517-4.236Z" fill="#fdb0a0"/>
            </g>
            <g id="g699" transform="translate(51.086 -45.914)">
              <path id="path701" d="M0,0-5.111,3.31A8.257,8.257,0,0,0-7.95,6.432,4.043,4.043,0,0,1-10.407,8.45l-2.932.853a4.043,4.043,0,0,1-2.413-.048l-4.515-1.512a9.761,9.761,0,0,0-3.1-.5h-5.351A2.481,2.481,0,0,1-31.2,4.758a2.481,2.481,0,0,1,2.481-2.481h6.447a13.969,13.969,0,0,0,3.264-.387" fill="none" stroke="#000" stroke-linecap="round" stroke-linejoin="round" stroke-miterlimit="10" stroke-width="1.553"/>
            </g>
            <g id="g703" transform="translate(44.776 -52.224)">
              <path id="path705" d="M0,0-6.585,5.034l-4.043-.272" fill="none" stroke="#000" stroke-linecap="round" stroke-linejoin="round" stroke-miterlimit="10" stroke-width="1.553"/>
            </g>
            <g id="g707" transform="translate(30.708 -47.693)">
              <path id="path709" d="M0,0-5.216-.351a3.837,3.837,0,0,0-2.1.463l-11.45,6.266a1.862,1.862,0,0,0-.646,2.679,1.862,1.862,0,0,0,2.295.656l6.325-2.8" fill="none" stroke="#000" stroke-linecap="round" stroke-linejoin="round" stroke-miterlimit="10" stroke-width="1.553"/>
            </g>
            <g id="g711" transform="translate(37.606 -32.827)">
              <path id="path713" d="M0,0H0A5.576,5.576,0,0,0-7.886,0L-9.023,1.137-10.16,0a5.576,5.576,0,0,0-7.885,0h0a5.576,5.576,0,0,0,0,7.885l7.946,7.946a1.523,1.523,0,0,0,2.154,0L0,7.885A5.576,5.576,0,0,0,0,0" fill="#fb4a59"/>
            </g>
            <g id="g715" transform="translate(37.606 -24.942)">
              <path id="path717" d="M0,0-7.945,7.946a1.524,1.524,0,0,1-2.154,0l-1.712-1.712a1.425,1.425,0,0,0,1.423-.355l7.431-7.433a5.215,5.215,0,0,0,0-7.375,5.2,5.2,0,0,0-.695-.582A5.553,5.553,0,0,1,0-7.885,5.574,5.574,0,0,1,0,0" fill="#f82f41"/>
            </g>
            <g id="g719" transform="translate(38.961 -30.622)">
              <path id="path721" d="M0,0A5.549,5.549,0,0,0-1.355-2.205h0a5.576,5.576,0,0,0-7.886,0l-1.137,1.137-1.137-1.137a5.576,5.576,0,0,0-7.886,0,5.576,5.576,0,0,0,0,7.885l7.946,7.946a1.523,1.523,0,0,0,2.154,0L-1.355,5.68A5.549,5.549,0,0,0,.008,3.45" fill="none" stroke="#000" stroke-linecap="round" stroke-linejoin="round" stroke-miterlimit="10" stroke-width="1.553"/>
            </g>
          </g>
        </g>
      </g>
    </g>
  </g>
</svg>
