<svg xmlns="http://www.w3.org/2000/svg" xmlns:xlink="http://www.w3.org/1999/xlink" width="108" height="108" viewBox="0 0 108 108">
  <defs>
    <filter id="Rectangle_411831" x="0" y="0" width="108" height="108" filterUnits="userSpaceOnUse">
      <feOffset dy="3" input="SourceAlpha"/>
      <feGaussianBlur stdDeviation="3" result="blur"/>
      <feFlood flood-opacity="0.161"/>
      <feComposite operator="in" in2="blur"/>
      <feComposite in="SourceGraphic"/>
    </filter>
    <clipPath id="clip-path">
      <rect id="Rectangle_430334" data-name="Rectangle 430334" width="53" height="60" transform="translate(-3315 -10265)" fill="#fff" stroke="#707070" stroke-width="1" opacity="0"/>
    </clipPath>
  </defs>
  <g id="Group_1242648" data-name="Group 1242648" transform="translate(3342.27 10286)">
    <g id="Group_1242625" data-name="Group 1242625" transform="translate(-3333.27 -10280)">
      <g id="Group_1230590" data-name="Group 1230590">
        <g transform="matrix(1, 0, 0, 1, -9, -6)" filter="url(#Rectangle_411831)">
          <g id="Rectangle_411831-2" data-name="Rectangle 411831" transform="translate(9 6)" fill="#a4e0d4" stroke="#fff" stroke-width="2">
            <path d="M5,0H58A32,32,0,0,1,90,32V85a5,5,0,0,1-5,5H32A32,32,0,0,1,0,58V5A5,5,0,0,1,5,0Z" stroke="none"/>
            <path d="M5,1H58A31,31,0,0,1,89,32V85a4,4,0,0,1-4,4H32A31,31,0,0,1,1,58V5A4,4,0,0,1,5,1Z" fill="none"/>
          </g>
        </g>
      </g>
    </g>
    <g id="Mask_Group_1099543" data-name="Mask Group 1099543" clip-path="url(#clip-path)">
      <g id="pensamiento" transform="translate(-3315.855 -10262.354)">
        <circle id="Ellipse_14185" data-name="Ellipse 14185" cx="8.548" cy="8.548" r="8.548" transform="translate(35.903 1.71)" fill="#d96d6d"/>
        <path id="Path_1245542" data-name="Path 1245542" d="M35.9,31.629V25.645A16.242,16.242,0,0,0,19.661,9.4h-1.71A16.242,16.242,0,0,0,1.71,25.645v28.21H22.226V49.581h7.694a5.129,5.129,0,0,0,5.129-5.129V41.032l5.129-1.71Z" fill="#e6ccab"/>
        <path id="Path_1245543" data-name="Path 1245543" d="M24.219,12.845a14.233,14.233,0,0,0-5.14-.877H17.952C10.4,11.968,4.7,18.946,4.7,26.5l0,.27A20.441,20.441,0,0,0,6.127,34.1,15.387,15.387,0,0,1,7.08,37.83l.3,2.417a2.848,2.848,0,0,0,5.373.92l.819-1.638a19.246,19.246,0,0,1,4.936-6.214,8.548,8.548,0,0,1,3.38-1.71l4.9-1.225A6.935,6.935,0,0,0,32.056,23.6a11.687,11.687,0,0,0-7.837-10.753Z" fill="#dae6f2"/>
        <path id="Path_1245544" data-name="Path 1245544" d="M18.58,29.919a1.521,1.521,0,0,0,1.509-1.532v-1.3a1.764,1.764,0,0,1,.6-1.339,4.45,4.45,0,0,0,1.537-3.383A4.27,4.27,0,1,0,13.7,21.92,4.466,4.466,0,0,0,15.2,25.737a1.78,1.78,0,0,1,.61,1.346v1.3a1.521,1.521,0,0,0,1.509,1.533Z" fill="#f2d891"/>
        <path id="Path_1245545" data-name="Path 1245545" d="M17.323,29.919H18.58a1.521,1.521,0,0,0,1.509-1.532V27.355H15.814c0,.263,0,.638,0,1.032a1.521,1.521,0,0,0,1.509,1.532Z" fill="#7483a6"/>
        <path id="Path_1245546" data-name="Path 1245546" d="M2.565,25.645A15.4,15.4,0,0,1,17.952,10.258h1.71A15.4,15.4,0,0,1,35.048,25.645v5.984a.852.852,0,0,0,.108.415l3.774,6.793-4.152,1.384a.855.855,0,0,0-.584.811v3.419a4.279,4.279,0,0,1-4.274,4.274H22.226a.855.855,0,0,0-.855.855v4.274h1.71V50.435h6.839A5.991,5.991,0,0,0,35.9,44.452v-2.8l4.545-1.515a.856.856,0,0,0,.477-1.226l-4.167-7.5V25.645a17.116,17.116,0,0,0-17.1-17.1h-1.71a17.116,17.116,0,0,0-17.1,17.1v28.21h1.71Z"/>
        <path id="Path_1245547" data-name="Path 1245547" d="M27,31.211a7.757,7.757,0,0,0,5.915-7.622,12.509,12.509,0,0,0-8.384-11.541,15.068,15.068,0,0,0-5.447-.935H17.952c-7.646,0-14.1,7.047-14.1,15.4l0,.268A21.2,21.2,0,0,0,5.331,34.41a14.56,14.56,0,0,1,.9,3.525l.3,2.418a3.7,3.7,0,0,0,6.986,1.2l.819-1.637a18.281,18.281,0,0,1,4.717-5.938A7.747,7.747,0,0,1,22.1,32.435Zm-9.03,1.447a19.975,19.975,0,0,0-5.156,6.49l-.819,1.637a1.993,1.993,0,0,1-3.761-.644l-.3-2.418a16.29,16.29,0,0,0-1.006-3.94,19.488,19.488,0,0,1-1.363-7.022l0-.262c0-7.414,5.677-13.677,12.4-13.677h1.128a13.37,13.37,0,0,1,4.83.82h0a10.832,10.832,0,0,1,7.29,9.965,6.052,6.052,0,0,1-4.62,5.944l-4.9,1.225A9.456,9.456,0,0,0,17.965,32.658Z"/>
        <path id="Path_1245548" data-name="Path 1245548" d="M21.315,18.387a5,5,0,0,0-3.948-1.256,5.207,5.207,0,0,0-4.52,4.709,5.342,5.342,0,0,0,1.8,4.543.926.926,0,0,1,.316.7v1.3a2.378,2.378,0,0,0,2.363,2.388H18.58a2.378,2.378,0,0,0,2.363-2.387v-1.3a.905.905,0,0,1,.3-.691,5.352,5.352,0,0,0,.069-8.007Zm-2.081,10a.666.666,0,0,1-.654.677H17.323a.667.667,0,0,1-.654-.678V28.21h2.565Zm.9-3.289a2.58,2.58,0,0,0-.831,1.4H16.6a2.625,2.625,0,0,0-.839-1.41A3.636,3.636,0,0,1,14.549,22a3.535,3.535,0,0,1,3.012-3.171,3.452,3.452,0,0,1,.392-.023,3.314,3.314,0,0,1,2.224.856A3.643,3.643,0,0,1,20.13,25.1Z"/>
        <path id="Path_1245549" data-name="Path 1245549" d="M17.1,13.677h1.71v2.565H17.1Z"/>
        <path id="Path_1245550" data-name="Path 1245550" d="M23.935,21.371H26.5v1.71H23.935Z"/>
        <path id="Path_1245551" data-name="Path 1245551" d="M9.4,21.371h2.565v1.71H9.4Z"/>
        <path id="Path_1245552" data-name="Path 1245552" d="M11.957,15.8h1.709v2.564H11.957Z" transform="translate(-8.33 14.063) rotate(-45)"/>
        <path id="Path_1245553" data-name="Path 1245553" d="M21.8,16.231h2.564V17.94H21.8Z" transform="translate(-5.32 21.332) rotate(-45)"/>
        <path id="Path_1245554" data-name="Path 1245554" d="M44.452,4.274a3.423,3.423,0,0,0-3.419,3.419h1.71a1.71,1.71,0,1,1,1.71,1.71.855.855,0,0,0-.855.855v3.419h1.71V11a3.42,3.42,0,0,0-.855-6.731Z"/>
        <path id="Path_1245555" data-name="Path 1245555" d="M43.6,14.532h1.71v1.71H43.6Z"/>
        <path id="Path_1245556" data-name="Path 1245556" d="M44.452.855a9.4,9.4,0,1,0,9.4,9.4,9.4,9.4,0,0,0-9.4-9.4Zm0,17.1a7.694,7.694,0,1,1,7.694-7.694,7.694,7.694,0,0,1-7.694,7.694Z"/>
      </g>
    </g>
  </g>
</svg>
