<svg xmlns="http://www.w3.org/2000/svg" xmlns:xlink="http://www.w3.org/1999/xlink" width="108" height="108" viewBox="0 0 108 108">
  <defs>
    <filter id="Rectangle_411831" x="0" y="0" width="108" height="108" filterUnits="userSpaceOnUse">
      <feOffset dy="3" input="SourceAlpha"/>
      <feGaussianBlur stdDeviation="3" result="blur"/>
      <feFlood flood-opacity="0.161"/>
      <feComposite operator="in" in2="blur"/>
      <feComposite in="SourceGraphic"/>
    </filter>
    <clipPath id="clip-path">
      <rect id="Rectangle_430334" data-name="Rectangle 430334" width="53" height="60" transform="translate(-3315 -10265)" fill="#fff" stroke="#707070" stroke-width="1" opacity="0"/>
    </clipPath>
  </defs>
  <g id="Group_1255135" data-name="Group 1255135" transform="translate(3342.27 10286)">
    <g id="Group_1242625" data-name="Group 1242625" transform="translate(-3333.27 -10280)">
      <g id="Group_1230590" data-name="Group 1230590">
        <g transform="matrix(1, 0, 0, 1, -9, -6)" filter="url(#Rectangle_411831)">
          <g id="Rectangle_411831-2" data-name="Rectangle 411831" transform="translate(9 6)" fill="#a4e0d4" stroke="#fff" stroke-width="2">
            <path d="M5,0H58A32,32,0,0,1,90,32V85a5,5,0,0,1-5,5H32A32,32,0,0,1,0,58V5A5,5,0,0,1,5,0Z" stroke="none"/>
            <path d="M5,1H58A31,31,0,0,1,89,32V85a4,4,0,0,1-4,4H32A31,31,0,0,1,1,58V5A4,4,0,0,1,5,1Z" fill="none"/>
          </g>
        </g>
      </g>
    </g>
    <g id="Mask_Group_1099544" data-name="Mask Group 1099544" clip-path="url(#clip-path)">
      <g id="entusiasmo" transform="translate(-3315 -10261.5)">
        <g id="Group_1252862" data-name="Group 1252862">
          <g id="Group_1252841" data-name="Group 1252841">
            <path id="Path_1245557" data-name="Path 1245557" d="M26.5,6.138a5.274,5.274,0,0,1-.747,2.707,1.7,1.7,0,0,0-.963-.3h-1.71A12.349,12.349,0,0,1,16.729,6.79l-.866-.519a2.008,2.008,0,0,0-3.041,1.721v.557h-1.71a1.7,1.7,0,0,0-.963.3A5.282,5.282,0,0,1,14.686.855h6.531A5.283,5.283,0,0,1,26.5,6.138Z" fill="#b27946"/>
          </g>
          <g id="Group_1252842" data-name="Group 1252842">
            <path id="Path_1245558" data-name="Path 1245558" d="M33.74,7.822a5.837,5.837,0,0,1-2.82.727H28.21a1.7,1.7,0,0,0-.963.3A5.274,5.274,0,0,1,26.5,6.138V5.657a3.093,3.093,0,0,1,3.092-3.092h.327A3.091,3.091,0,0,1,32.686.855h5.628a5.281,5.281,0,0,1,4.536,7.99,1.7,1.7,0,0,0-.963-.3h-1.71a1.709,1.709,0,0,0-1.71-1.71h-.855l-.24.481a2.223,2.223,0,0,1-3.632.5Z" fill="#656d78"/>
          </g>
          <g id="Group_1252843" data-name="Group 1252843">
            <path id="Path_1245559" data-name="Path 1245559" d="M42.85,8.845a1.709,1.709,0,0,1-.963,3.122h-1.71V8.548h1.71a1.7,1.7,0,0,1,.963.3Z" fill="#f0d0b4"/>
          </g>
          <g id="Group_1252844" data-name="Group 1252844">
            <path id="Path_1245560" data-name="Path 1245560" d="M52.145,12.4v2.137H47.871V12.4a2.137,2.137,0,1,1,4.274,0Z" fill="#f0d0b4"/>
          </g>
          <g id="Group_1252845" data-name="Group 1252845">
            <path id="Path_1245561" data-name="Path 1245561" d="M33.74,7.822a2.223,2.223,0,0,0,3.632-.5l.24-.481h.855a1.709,1.709,0,0,1,1.71,1.71v5.406a4.271,4.271,0,0,1-1.9,3.556l-.281.188a.855.855,0,0,0-.38.711v1.252l-2.565,2.565-2.565-2.565V18.409a.855.855,0,0,0-.38-.711l-.281-.188a4.271,4.271,0,0,1-1.9-3.556V8.548h1A5.837,5.837,0,0,0,33.74,7.822Z" fill="#f0d0b4"/>
          </g>
          <g id="Group_1252846" data-name="Group 1252846">
            <path id="Path_1245562" data-name="Path 1245562" d="M29.919,8.548v3.419H28.21A1.711,1.711,0,0,1,27,9.048a1.6,1.6,0,0,1,.247-.2h0a1.7,1.7,0,0,1,.963-.3Z" fill="#f0d0b4"/>
          </g>
          <g id="Group_1252847" data-name="Group 1252847">
            <path id="Path_1245563" data-name="Path 1245563" d="M26,9.048a1.711,1.711,0,0,1-1.21,2.919h-1.71V8.548h1.71a1.7,1.7,0,0,1,.963.3h0A1.6,1.6,0,0,1,26,9.048Z" fill="#f0d0b4"/>
          </g>
          <g id="Group_1252848" data-name="Group 1252848">
            <path id="Path_1245564" data-name="Path 1245564" d="M23.081,11.968v1.986a4.271,4.271,0,0,1-1.9,3.556L20.9,17.7a.855.855,0,0,0-.38.711v1.252a2.565,2.565,0,0,1-5.129,0V18.409a.855.855,0,0,0-.38-.711l-.281-.188a4.271,4.271,0,0,1-1.9-3.556V7.992A2.007,2.007,0,0,1,15.864,6.27l.866.519a12.349,12.349,0,0,0,6.351,1.759Z" fill="#f0d0b4"/>
          </g>
          <g id="Group_1252849" data-name="Group 1252849">
            <path id="Path_1245565" data-name="Path 1245565" d="M12.823,8.548v3.419h-1.71a1.71,1.71,0,0,1-.963-3.122h0a1.7,1.7,0,0,1,.963-.3Z" fill="#f0d0b4"/>
          </g>
          <g id="Group_1252850" data-name="Group 1252850">
            <path id="Path_1245566" data-name="Path 1245566" d="M5.129,12.4v2.137H.855V12.4a2.137,2.137,0,0,1,4.274,0Z" fill="#f0d0b4"/>
          </g>
          <g id="Group_1252851" data-name="Group 1252851">
            <path id="Path_1245567" data-name="Path 1245567" d="M12.823,24.79,7.585,27.035a3.954,3.954,0,0,1-5.477-3.113L.855,14.532H5.129l1.71,7.694,3.019-1.207a14.7,14.7,0,0,1,2.581-.767l2.949-.59a2.565,2.565,0,1,0,5.129,0A14.725,14.725,0,0,1,26.5,22.1c-2.4,2.09-2.5,2.2-2.6,2.307a3.247,3.247,0,0,0-.82,2.156v5.925h-9.4a2.547,2.547,0,0,0-.855.146Z" fill="#fcd770"/>
          </g>
          <g id="Group_1252852" data-name="Group 1252852">
            <path id="Path_1245568" data-name="Path 1245568" d="M29.919,24.79l-6.839,6.839v-5.07A3.247,3.247,0,0,1,23.9,24.4c.1-.109.2-.217,2.6-2.307a14.9,14.9,0,0,1,1.285-.8,14.741,14.741,0,0,1,4.7-1.635l2.565,2.565,2.565-2.565,2.949.59a14.7,14.7,0,0,1,2.581.767l3.019,1.207,1.71-7.694h4.274l-1.252,9.39a3.955,3.955,0,0,1-5.477,3.113L40.177,24.79v7.84a2.547,2.547,0,0,0-.855-.146h-9.4Z" fill="#b4dd7f"/>
          </g>
          <g id="Group_1252853" data-name="Group 1252853">
            <path id="Path_1245569" data-name="Path 1245569" d="M34.194,37.613l-.754,4.274H28.376v-.006l1.543-9.4h9.4a2.565,2.565,0,0,0-2.565,2.565v1.71Z" fill="#d3a06c"/>
          </g>
          <g id="Group_1252854" data-name="Group 1252854">
            <path id="Path_1245570" data-name="Path 1245570" d="M41.887,35.048V47.016a2.565,2.565,0,0,0-5.129,0V35.048a2.565,2.565,0,1,1,5.129,0Z" fill="#d3a06c"/>
          </g>
          <g id="Group_1252855" data-name="Group 1252855">
            <path id="Path_1245571" data-name="Path 1245571" d="M16.242,36.758V47.016a2.565,2.565,0,0,0-5.129,0V35.048a2.565,2.565,0,0,1,5.129,0Z" fill="#d3a06c"/>
          </g>
          <g id="Group_1252856" data-name="Group 1252856">
            <path id="Path_1245572" data-name="Path 1245572" d="M18.806,37.613l-2.565-.855v-1.71a2.565,2.565,0,0,0-2.565-2.565h9.4l1.544,9.4H19.561Z" fill="#d3a06c"/>
          </g>
          <g id="Group_1252857" data-name="Group 1252857">
            <path id="Path_1245573" data-name="Path 1245573" d="M28.376,41.887H19.561l.6,3.419,1.082,6.132a.842.842,0,0,0,.125.315V51.29a2.565,2.565,0,0,1,5.129,0,2.565,2.565,0,0,1,5.129,0v.462h0a.835.835,0,0,0,.124-.314l1.082-6.132.6-3.419Z" fill="#e6e9ed"/>
          </g>
          <g id="Group_1252858" data-name="Group 1252858">
            <path id="Path_1245574" data-name="Path 1245574" d="M41.887,47.016a.855.855,0,0,1-.855.855H37.613a.854.854,0,0,1-.855-.855,2.565,2.565,0,0,1,5.129,0Z" fill="#969faa"/>
          </g>
          <g id="Group_1252859" data-name="Group 1252859">
            <path id="Path_1245575" data-name="Path 1245575" d="M31.629,51.752h0a.854.854,0,0,1-.718.392H26.5V51.29a2.565,2.565,0,0,1,5.129,0Z" fill="#969faa"/>
          </g>
          <g id="Group_1252860" data-name="Group 1252860">
            <path id="Path_1245576" data-name="Path 1245576" d="M26.5,51.29v.855H22.088a.854.854,0,0,1-.717-.39h0V51.29a2.565,2.565,0,1,1,5.129,0Z" fill="#969faa"/>
          </g>
          <g id="Group_1252861" data-name="Group 1252861">
            <path id="Path_1245577" data-name="Path 1245577" d="M16.242,47.016a.854.854,0,0,1-.855.855H11.968a.855.855,0,0,1-.855-.855,2.565,2.565,0,0,1,5.129,0Z" fill="#969faa"/>
          </g>
        </g>
        <path id="Path_1245578" data-name="Path 1245578" d="M50.008,9.4A3,3,0,0,0,47.016,12.4v2.043l-1.471,6.62-2.085-.834a15.616,15.616,0,0,0-2.73-.812l-2.262-.452v-.551l.281-.187a5.118,5.118,0,0,0,2.284-4.267V12.823h.855A2.562,2.562,0,0,0,43.9,8.675,6.136,6.136,0,0,0,38.314,0H32.686A3.923,3.923,0,0,0,29.43,1.713,3.941,3.941,0,0,0,26.564,3.13,6.141,6.141,0,0,0,21.217,0h-6.53A6.137,6.137,0,0,0,9.1,8.675a2.562,2.562,0,0,0,2.015,4.148h.855v1.132a5.118,5.118,0,0,0,2.284,4.268l.281.187v.551l-2.262.452a15.616,15.616,0,0,0-2.73.812l-2.085.834-1.471-6.62V12.4A2.992,2.992,0,1,0,0,12.4v2.194l1.26,9.447a4.809,4.809,0,0,0,6.662,3.785l4.046-1.734v6a3.421,3.421,0,0,0-1.71,2.959V47.016a1.712,1.712,0,0,0,1.71,1.71h3.419a1.712,1.712,0,0,0,1.71-1.71V37.944l.956.319L20.4,51.587A1.707,1.707,0,0,0,22.088,53h8.824A1.707,1.707,0,0,0,32.6,51.587l2.352-13.325.956-.319v9.072a1.712,1.712,0,0,0,1.71,1.71h3.419a1.712,1.712,0,0,0,1.71-1.71V35.048a3.421,3.421,0,0,0-1.71-2.959v-6l4.046,1.734a4.809,4.809,0,0,0,6.662-3.785L53,14.589V12.4A3,3,0,0,0,50.008,9.4ZM39.323,13.954A3.412,3.412,0,0,1,37.8,16.8l-.281.187a1.706,1.706,0,0,0-.761,1.423v.9l-1.71,1.71-1.71-1.71v-.9a1.706,1.706,0,0,0-.761-1.423L32.3,16.8a3.413,3.413,0,0,1-1.523-2.845V9.4h.147a6.713,6.713,0,0,0,2.686-.563A3.08,3.08,0,0,0,38.137,7.7l0-.008h.327a.856.856,0,0,1,.855.855ZM26.5,21.071a15.709,15.709,0,0,0-5.131-2.116v-.545l.281-.187a5.118,5.118,0,0,0,2.284-4.268V12.823h.855a2.554,2.554,0,0,0,1.71-.655,2.554,2.554,0,0,0,1.71.655h.855v1.132a5.118,5.118,0,0,0,2.284,4.268l.281.187v.545A15.633,15.633,0,0,0,26.5,21.071ZM23.935,9.4h.855a.855.855,0,1,1,0,1.71h-.855Zm5.129,1.71H28.21a.855.855,0,1,1,0-1.71h.855Zm12.823,0h-.855V9.4h.855a.855.855,0,1,1,0,1.71ZM27.355,5.657a2.241,2.241,0,0,1,2.238-2.238h.855l.236-.473a2.226,2.226,0,0,1,2-1.237h5.628a4.423,4.423,0,0,1,4.121,6.043,2.558,2.558,0,0,0-.547-.059h-1a2.569,2.569,0,0,0-2.417-1.71H37.085l-.476.953a1.369,1.369,0,0,1-2.363.147L33.2,5.51l-1.423.948.665,1a4.988,4.988,0,0,1-1.517.238H28.21a2.558,2.558,0,0,0-.547.059,4.428,4.428,0,0,1-.308-1.615ZM11.113,11.113a.855.855,0,1,1,0-1.71h.855v1.71Zm.87-3.419h-.87a2.558,2.558,0,0,0-.547.059A4.423,4.423,0,0,1,14.686,1.71h6.53a4.423,4.423,0,0,1,4.121,6.043,2.558,2.558,0,0,0-.547-.059h-1.71a11.492,11.492,0,0,1-5.912-1.637L16.3,5.537a2.863,2.863,0,0,0-4.321,2.157Zm1.694,6.261V7.992A1.153,1.153,0,0,1,15.424,7l.865.519a13.2,13.2,0,0,0,5.936,1.853v4.579A3.412,3.412,0,0,1,20.7,16.8l-.281.187a1.706,1.706,0,0,0-.761,1.423v1.252a1.71,1.71,0,0,1-3.419,0V18.409a1.706,1.706,0,0,0-.761-1.423L15.2,16.8a3.413,3.413,0,0,1-1.523-2.845ZM1.71,12.4a1.282,1.282,0,0,1,2.565,0v1.282H1.71ZM11.968,23.081v1.146l-4.72,2.023A3.1,3.1,0,0,1,2.954,23.81L1.831,15.387H4.443l1.5,6.728-.719,1.438,1.529.765.71-1.419,2.717-1.087a13.892,13.892,0,0,1,2.431-.723l2.079-.416a3.42,3.42,0,0,0,6.533,0A14,14,0,0,1,25,22.16a15.485,15.485,0,0,0-1.742,1.674,4.1,4.1,0,0,0-1.036,2.724v5.071H13.677V23.081ZM20.58,42.742H32.42l-.3,1.71H20.881Zm7.07-1.71h-2.3l-1.415-8.618v-.431l5.129-5.129v5.56ZM13.677,33.339a1.712,1.712,0,0,1,1.71,1.71v9.008a3.407,3.407,0,0,0-3.419,0V35.048A1.712,1.712,0,0,1,13.677,33.339Zm-1.71,13.677a1.71,1.71,0,0,1,3.419,0Zm4.669-13.677h5.718l1.263,7.694h-3.34l-.552-3.13,1.395-1.395L19.912,35.3l-1.336,1.336L17.1,36.142V35.048a3.4,3.4,0,0,0-.46-1.71ZM22.226,51.29a1.71,1.71,0,1,1,3.419,0Zm5.129,0a1.71,1.71,0,1,1,3.419,0Zm1.71-3.419A3.411,3.411,0,0,0,26.5,49.032a3.413,3.413,0,0,0-4.859-.275l-.458-2.6H31.817l-.458,2.6A3.406,3.406,0,0,0,29.065,47.871Zm5.36-11.236L33.088,35.3l-1.209,1.209L33.274,37.9l-.552,3.13h-3.34l1.263-7.694h5.718a3.4,3.4,0,0,0-.46,1.71v1.094Zm6.608,7.422a3.407,3.407,0,0,0-3.419,0V35.048a1.71,1.71,0,1,1,3.419,0Zm-3.419,2.959a1.71,1.71,0,0,1,3.419,0ZM50.046,23.81a3.1,3.1,0,0,1-4.294,2.439l-4.72-2.023V23.081h-1.71v8.548H30.774V23.081h-1.71v1.356l-5.129,5.129V26.558a2.388,2.388,0,0,1,.6-1.588A13.916,13.916,0,0,1,32.2,20.584l2.851,2.851,2.845-2.845,2.5.5a13.905,13.905,0,0,1,2.431.723L45.542,22.9l.71,1.419,1.529-.765-.719-1.438,1.5-6.728h2.612ZM51.29,13.677H48.726V12.4a1.282,1.282,0,0,1,2.565,0Z"/>
      </g>
    </g>
  </g>
</svg>
