<svg xmlns="http://www.w3.org/2000/svg" xmlns:xlink="http://www.w3.org/1999/xlink" width="108" height="108" viewBox="0 0 108 108">
  <defs>
    <filter id="Rectangle_411831" x="0" y="0" width="108" height="108" filterUnits="userSpaceOnUse">
      <feOffset dy="3" input="SourceAlpha"/>
      <feGaussianBlur stdDeviation="3" result="blur"/>
      <feFlood flood-opacity="0.161"/>
      <feComposite operator="in" in2="blur"/>
      <feComposite in="SourceGraphic"/>
    </filter>
    <clipPath id="clip-path">
      <rect id="Rectangle_430320" data-name="Rectangle 430320" width="54" height="60" transform="translate(288.051 3705)" fill="#fff" stroke="#707070" stroke-width="1" opacity="0"/>
    </clipPath>
  </defs>
  <g id="Group_1242672" data-name="Group 1242672" transform="translate(-261 -3684)">
    <g id="Group_1242608" data-name="Group 1242608" transform="translate(270 3690)">
      <g transform="matrix(1, 0, 0, 1, -9, -6)" filter="url(#Rectangle_411831)">
        <g id="Rectangle_411831-2" data-name="Rectangle 411831" transform="translate(9 6)" fill="#e8de49" stroke="#fff" stroke-width="2">
          <path d="M5,0H58A32,32,0,0,1,90,32V85a5,5,0,0,1-5,5H32A32,32,0,0,1,0,58V5A5,5,0,0,1,5,0Z" stroke="none"/>
          <path d="M5,1H58A31,31,0,0,1,89,32V85a4,4,0,0,1-4,4H32A31,31,0,0,1,1,58V5A4,4,0,0,1,5,1Z" fill="none"/>
        </g>
      </g>
    </g>
    <g id="Mask_Group_1099554" data-name="Mask Group 1099554" clip-path="url(#clip-path)">
      <g id="etiqueta" transform="translate(288.051 3708)">
        <g id="Group_1252927" data-name="Group 1252927">
          <path id="Path_1245732" data-name="Path 1245732" d="M18.539,19.649A6.54,6.54,0,0,0,6.5,14.668L1.3,24.6a2.092,2.092,0,0,0,.883,2.823l7.883,4.128a2.092,2.092,0,0,0,2.823-.883L15.543,25.6l6.676,3.363a3.3,3.3,0,0,0,2.977-5.9Z" fill="#b8ecbc"/>
          <circle id="Ellipse_14200" data-name="Ellipse 14200" cx="5.578" cy="5.578" r="5.578" transform="translate(12.877 1.427)" fill="#ffdcd5"/>
          <path id="Path_1245733" data-name="Path 1245733" d="M12.861,38.9l-.037,11.142H25.85V38.9Z" fill="#ffa96b"/>
          <path id="Path_1245734" data-name="Path 1245734" d="M46.221,30.356l-4.865,1.152v17.5a3.215,3.215,0,0,0,3.215,3.216,2.908,2.908,0,0,0,2.075-.76h0a3.214,3.214,0,0,0,5.645-2.1V27.276Z" fill="#dfedff"/>
          <path id="Path_1245735" data-name="Path 1245735" d="M7.695,30.356l4.865,1.152v17.5a3.215,3.215,0,0,1-3.215,3.216,2.908,2.908,0,0,1-2.075-.76h0a3.214,3.214,0,0,1-5.645-2.1V27.276Z" fill="#80b6ff"/>
          <path id="Path_1245736" data-name="Path 1245736" d="M35.459,19.649A6.54,6.54,0,0,1,47.5,14.668L52.7,24.6a2.092,2.092,0,0,1-.883,2.823l-7.883,4.128a2.092,2.092,0,0,1-2.823-.883L38.455,25.6l-6.676,3.363a3.3,3.3,0,0,1-2.977-5.9Z" fill="#ff7d97"/>
          <g id="Group_1252926" data-name="Group 1252926">
            <circle id="Ellipse_14201" data-name="Ellipse 14201" cx="5.578" cy="5.578" r="5.578" transform="translate(29.965 1.427)" fill="#ffdcd5"/>
            <path id="Path_1245737" data-name="Path 1245737" d="M21.037,28.369l2.526-6.142s4.319,1.532,3.181,4.456C24.979,31.212,21.037,28.369,21.037,28.369Z" fill="#ffdcd5"/>
            <path id="Path_1245738" data-name="Path 1245738" d="M32.948,28.375l-2.382-5.792s-4.154,1.033-3,4.417C29.072,31.408,32.948,28.375,32.948,28.375Z" fill="#ffdcd5"/>
          </g>
        </g>
        <g id="Group_1252928" data-name="Group 1252928">
          <circle id="Ellipse_14202" data-name="Ellipse 14202" cx="1.055" cy="1.055" r="1.055" transform="translate(51.236 37.845)"/>
          <path id="Path_1245739" data-name="Path 1245739" d="M53.639,24.11l-5.2-9.934A7.618,7.618,0,0,0,41.415,10.1a6.641,6.641,0,1,0-6.138,3.534,7.586,7.586,0,0,0-1.049,5.451l-5.908,3.03A4.373,4.373,0,0,0,27,23.151,4.364,4.364,0,0,0,25.68,22.12l-5.91-3.031a7.586,7.586,0,0,0-1.049-5.451,6.634,6.634,0,1,0-6.136-3.53,7.61,7.61,0,0,0-7.023,4.068L.359,24.11a3.156,3.156,0,0,0,.288,3.375V49.357A4.272,4.272,0,0,0,7.454,52.8a4.271,4.271,0,0,0,5.7-1.7h12.7a1.061,1.061,0,0,0,1.061-1.061V38.9A1.072,1.072,0,0,0,25.85,37.84h-3.8v-.281a4.123,4.123,0,0,0-4.118-4.118h-.224A4.124,4.124,0,0,0,13.7,36.623V31.379c.044-.07,2.3-4.361,2.3-4.361l5.747,2.9A4.369,4.369,0,0,0,27,28.86a4.369,4.369,0,0,0,5.257,1.051L38,27.018l2.3,4.361V49.006A4.275,4.275,0,0,0,46.543,52.8a4.273,4.273,0,0,0,6.808-3.443V43.641a1.061,1.061,0,1,0-2.121,0v5.716a2.154,2.154,0,1,1-4.309,0V31.187L51.23,28.93v5.228a1.061,1.061,0,1,0,2.121,0v-6.67a3.158,3.158,0,0,0,.287-3.378ZM31.034,7.277A4.522,4.522,0,0,1,35.271,2.5q.138-.008.275-.008a4.517,4.517,0,1,1-4.512,4.789ZM13.946,6.733a4.523,4.523,0,0,1,4.506-4.245c.091,0,.183,0,.275.008a4.517,4.517,0,1,1-4.781,4.237ZM2.768,49.357V28.93l4.309,2.256V49.357a2.154,2.154,0,1,1-4.309,0Zm6.659,1.8a2.163,2.163,0,0,1-.592-.082A4.25,4.25,0,0,0,9.2,49.357V32.3l.374.2a3.093,3.093,0,0,0,2.009.311v16.2A2.157,2.157,0,0,1,9.427,51.161Zm4.275-11.2H22.7l-4.872,3.694L13.7,40.53Zm0,9.02V43.192l3.48,2.639a1.061,1.061,0,0,0,1.282,0l6.325-4.8v7.946H13.7Zm2.012-11.422a2,2,0,0,1,2-2h.224a2,2,0,0,1,2,2v.28H15.715v-.28Zm-3.767-7.38a1.041,1.041,0,0,1-1.392.435L2.673,26.486a1.032,1.032,0,0,1-.435-1.392l5.2-9.934a5.48,5.48,0,0,1,10.086,4.172,1.061,1.061,0,0,0,.528,1.26l4.156,2.132-1.719,4.182-4.3-2.166L11.9,20.061a1.061,1.061,0,0,0-1.563,1.434l3.921,4.274ZM25.734,26.94A2.244,2.244,0,0,1,22.7,28.017l-.3-.153L24.106,23.7l.608.312a2.237,2.237,0,0,1,1.223,1.949A2.385,2.385,0,0,1,25.734,26.94Zm3.822,1.183a2.226,2.226,0,0,1-1.293-1.183,2.383,2.383,0,0,1-.2-.983,2.239,2.239,0,0,1,1.224-1.95l.594-.3,1.714,4.167-.288.145A2.225,2.225,0,0,1,29.557,28.123ZM39.74,25.769l3.921-4.274A1.061,1.061,0,0,0,42.1,20.061L37.8,24.741l-4.311,2.172-1.719-4.181,4.169-2.138a1.061,1.061,0,0,0,.528-1.26A5.48,5.48,0,0,1,46.557,15.16l5.2,9.934a1.031,1.031,0,0,1-.435,1.392l-7.883,4.128a1.041,1.041,0,0,1-1.392-.435Zm5.423,25.31a2.156,2.156,0,0,1-2.746-2.073V32.8a3.092,3.092,0,0,0,2.009-.31l.374-.2v17.06a4.248,4.248,0,0,0,.363,1.722Z"/>
          <path id="Path_1245740" data-name="Path 1245740" d="M33.479,6.722a1.061,1.061,0,1,0,1.078,1.043A1.061,1.061,0,0,0,33.479,6.722Z"/>
          <path id="Path_1245741" data-name="Path 1245741" d="M20.5,8.843A1.061,1.061,0,1,0,19.426,7.8,1.061,1.061,0,0,0,20.5,8.843Z"/>
        </g>
      </g>
    </g>
  </g>
</svg>
