<svg xmlns="http://www.w3.org/2000/svg" xmlns:xlink="http://www.w3.org/1999/xlink" width="108" height="108" viewBox="0 0 108 108">
  <defs>
    <filter id="Rectangle_411831" x="0" y="0" width="108" height="108" filterUnits="userSpaceOnUse">
      <feOffset dy="3" input="SourceAlpha"/>
      <feGaussianBlur stdDeviation="3" result="blur"/>
      <feFlood flood-opacity="0.161"/>
      <feComposite operator="in" in2="blur"/>
      <feComposite in="SourceGraphic"/>
    </filter>
    <clipPath id="clip-path">
      <rect id="Rectangle_430320" data-name="Rectangle 430320" width="54" height="60" transform="translate(288.051 3705)" fill="#fff" stroke="#707070" stroke-width="1" opacity="0"/>
    </clipPath>
  </defs>
  <g id="Group_1243843" data-name="Group 1243843" transform="translate(-261 -3684)">
    <g id="Group_1242608" data-name="Group 1242608" transform="translate(270 3690)">
      <g transform="matrix(1, 0, 0, 1, -9, -6)" filter="url(#Rectangle_411831)">
        <g id="Rectangle_411831-2" data-name="Rectangle 411831" transform="translate(9 6)" fill="#e8de49" stroke="#fff" stroke-width="2">
          <path d="M5,0H58A32,32,0,0,1,90,32V85a5,5,0,0,1-5,5H32A32,32,0,0,1,0,58V5A5,5,0,0,1,5,0Z" stroke="none"/>
          <path d="M5,1H58A31,31,0,0,1,89,32V85a4,4,0,0,1-4,4H32A31,31,0,0,1,1,58V5A4,4,0,0,1,5,1Z" fill="none"/>
        </g>
      </g>
    </g>
    <g id="Mask_Group_1099557" data-name="Mask Group 1099557" clip-path="url(#clip-path)">
      <g id="identidad_1_" data-name="identidad (1)" transform="translate(286.251 3706.2)">
        <path id="Path_1245784" data-name="Path 1245784" d="M16.663,40.5H18.72l-5.76-7.2L7.2,40.5h2.88c0,4.971,3.684,9,8.229,9a7.6,7.6,0,0,0,3.291-.754A9.058,9.058,0,0,1,16.663,40.5Z" fill="#ff6b6b"/>
        <path id="Path_1245785" data-name="Path 1245785" d="M38.7,20.709V2.7H2.7V27.9H34.74l3.96-.243V20.709Z" fill="#7ccdf4"/>
        <path id="Path_1245786" data-name="Path 1245786" d="M9.9,12.6h3.6a3.6,3.6,0,0,1,3.6,3.6H6.3a3.6,3.6,0,0,1,3.6-3.6Z" fill="#5c677d"/>
        <circle id="Ellipse_14206" data-name="Ellipse 14206" cx="1.8" cy="1.8" r="1.8" transform="translate(9.9 6.3)" fill="#fec3a6"/>
        <path id="Path_1245787" data-name="Path 1245787" d="M51.255,31.5H51.3V28.1a7.4,7.4,0,0,0-7.4-7.4h-5a7.4,7.4,0,0,0-7.4,7.4v3.4Z" fill="#2d3142"/>
        <path id="Path_1245788" data-name="Path 1245788" d="M54.9,54.9h-27V50.822A8.521,8.521,0,0,1,36.423,42.3h9.955A8.521,8.521,0,0,1,54.9,50.823Z" fill="#5c677d"/>
        <path id="Path_1245789" data-name="Path 1245789" d="M42.606,46.611,43.2,54.9H39.6l.594-8.289L40.5,42.3h1.8Z" fill="#ff6b6b"/>
        <path id="Path_1245790" data-name="Path 1245790" d="M49.5,30.178a2.52,2.52,0,0,0-2.52-2.52H45.9L38.7,24.3l.9,3.359H35.82a2.52,2.52,0,0,0-2.52,2.52,1.684,1.684,0,1,0,0,3.361v3.479a3.69,3.69,0,0,0,2.349,3.373l3.558,1.475a5.726,5.726,0,0,0,4.387,0l3.558-1.475A3.69,3.69,0,0,0,49.5,37.015V33.537a1.683,1.683,0,1,0,0-3.359Z" fill="#fec3a6"/>
        <path id="Path_1245791" data-name="Path 1245791" d="M45.45,49.5,41.4,45.386,37.35,49.5,36,42.3H46.8Z" fill="#7ccdf4"/>
        <path id="Path_1245792" data-name="Path 1245792" d="M19.53,40.89a.9.9,0,0,0-.108-.952l-5.76-7.2a.932.932,0,0,0-1.406,0l-5.76,7.2A.9.9,0,0,0,7.2,41.4H9.218c.42,5.04,4.337,9,9.09,9a8.465,8.465,0,0,0,3.679-.842.9.9,0,0,0,0-1.621,8.069,8.069,0,0,1-4.38-6.538H18.72A.9.9,0,0,0,19.53,40.89Zm-.024,7.6a6.66,6.66,0,0,1-1.2.109c-4.041,0-7.329-3.634-7.329-8.1a.9.9,0,0,0-.9-.9H9.073l3.887-4.86,3.887,4.86h-.184a.9.9,0,0,0-.9.9,10.192,10.192,0,0,0,3.744,7.991Z"/>
        <path id="Path_1245793" data-name="Path 1245793" d="M6.3,17.1H17.1a.9.9,0,0,0,.9-.9,4.505,4.505,0,0,0-4.5-4.5H9.9a4.505,4.505,0,0,0-4.5,4.5A.9.9,0,0,0,6.3,17.1Zm3.6-3.6h3.6a2.705,2.705,0,0,1,2.546,1.8H7.354A2.705,2.705,0,0,1,9.9,13.5Z"/>
        <path id="Path_1245794" data-name="Path 1245794" d="M11.7,10.8A2.7,2.7,0,1,0,9,8.1,2.7,2.7,0,0,0,11.7,10.8Zm0-3.6a.9.9,0,1,1-.9.9A.9.9,0,0,1,11.7,7.2Z"/>
        <path id="Path_1245795" data-name="Path 1245795" d="M21.6,6.3H36V8.1H21.6Z"/>
        <path id="Path_1245796" data-name="Path 1245796" d="M21.6,11.7H36v1.8H21.6Z"/>
        <path id="Path_1245797" data-name="Path 1245797" d="M21.6,17.1H36v1.8H21.6Z"/>
        <path id="Path_1245798" data-name="Path 1245798" d="M46.986,41.431l.508-.211a4.59,4.59,0,0,0,2.905-4.2V34.29a2.6,2.6,0,0,0,1.8-2.43,2.324,2.324,0,0,0-.022-.25.821.821,0,0,0,.022-.11V28.1a8.307,8.307,0,0,0-8.3-8.3H39.6V2.7a.9.9,0,0,0-.9-.9H2.7a.9.9,0,0,0-.9.9V27.9a.9.9,0,0,0,.9.9H30.6v2.7a.763.763,0,0,0,.023.1,2.4,2.4,0,0,0-.023.26,2.6,2.6,0,0,0,1.8,2.43v2.726a4.59,4.59,0,0,0,2.905,4.2l.508.211A9.427,9.427,0,0,0,27,50.822V54.9a.9.9,0,0,0,.9.9h27a.9.9,0,0,0,.9-.9V50.822a9.427,9.427,0,0,0-8.814-9.391ZM38.9,21.6h5a6.505,6.505,0,0,1,6.5,6.5V29.43c-.031-.01-.058-.025-.09-.034a3.425,3.425,0,0,0-3.33-2.638H46.1l-7.02-3.274a.9.9,0,0,0-1.25,1.049l.6,2.226H35.82A3.425,3.425,0,0,0,32.49,29.4c-.032.009-.059.024-.09.034V28.1a6.505,6.505,0,0,1,6.5-6.5Zm-6.833,1.8A8.254,8.254,0,0,0,30.681,27H3.6V3.6H37.8V19.881A8.254,8.254,0,0,0,33.75,21.6H5.4v1.8ZM34.2,37.015V33.537a.9.9,0,0,0-.9-.9.787.787,0,1,1,0-1.559.9.9,0,0,0,.9-.9,1.62,1.62,0,0,1,1.62-1.62H39.6a.9.9,0,0,0,.869-1.133l-.4-1.494,5.45,2.543a.9.9,0,0,0,.381.085h1.08a1.62,1.62,0,0,1,1.62,1.62.9.9,0,0,0,.9.9.788.788,0,1,1,0,1.559.9.9,0,0,0-.9.9v3.479a2.8,2.8,0,0,1-1.794,2.542l-3.558,1.475a4.822,4.822,0,0,1-1.826.368h-.045a4.822,4.822,0,0,1-1.826-.368l-3.558-1.475A2.8,2.8,0,0,1,34.2,37.015ZM38.762,54H35.1V51.3H33.3V54H28.8V50.822A7.627,7.627,0,0,1,35.271,43.3l1.194,6.369a.9.9,0,0,0,1.53.466l1.131-1.148Zm1.8,0,.5-6.995.337-.337.332.337.5,6.995Zm1.474-9.246a.9.9,0,0,0-1.282,0l-2.838,2.887L37.085,43.2H45.72l-.833,4.442ZM54,54H49.5V51.3H47.7V54H44.038l-.36-5.017,1.131,1.147a.9.9,0,0,0,1.526-.464L47.529,43.3A7.627,7.627,0,0,1,54,50.822Z"/>
        <path id="Path_1245799" data-name="Path 1245799" d="M37.8,31.5a.9.9,0,0,1,.9.9h1.8a2.7,2.7,0,0,0-5.4,0h1.8A.9.9,0,0,1,37.8,31.5Z"/>
        <path id="Path_1245800" data-name="Path 1245800" d="M45,31.5a.9.9,0,0,1,.9.9h1.8a2.7,2.7,0,1,0-5.4,0h1.8A.9.9,0,0,1,45,31.5Z"/>
        <path id="Path_1245801" data-name="Path 1245801" d="M39.6,36H37.8c0,1.514,1.581,2.7,3.6,2.7S45,37.514,45,36H43.2c0,.367-.7.9-1.8.9S39.6,36.367,39.6,36Z"/>
      </g>
    </g>
  </g>
</svg>
