<svg xmlns="http://www.w3.org/2000/svg" xmlns:xlink="http://www.w3.org/1999/xlink" width="108" height="108" viewBox="0 0 108 108">
  <defs>
    <filter id="Rectangle_411831" x="0" y="0" width="108" height="108" filterUnits="userSpaceOnUse">
      <feOffset dy="3" input="SourceAlpha"/>
      <feGaussianBlur stdDeviation="3" result="blur"/>
      <feFlood flood-opacity="0.161"/>
      <feComposite operator="in" in2="blur"/>
      <feComposite in="SourceGraphic"/>
    </filter>
    <clipPath id="clip-path">
      <rect id="Rectangle_430320" data-name="Rectangle 430320" width="54" height="60" transform="translate(288.051 3705)" fill="#fff" stroke="#707070" stroke-width="1" opacity="0"/>
    </clipPath>
  </defs>
  <g id="Group_1243842" data-name="Group 1243842" transform="translate(-261 -3684)">
    <g id="Group_1242608" data-name="Group 1242608" transform="translate(270 3690)">
      <g transform="matrix(1, 0, 0, 1, -9, -6)" filter="url(#Rectangle_411831)">
        <g id="Rectangle_411831-2" data-name="Rectangle 411831" transform="translate(9 6)" fill="#e8de49" stroke="#fff" stroke-width="2">
          <path d="M5,0H58A32,32,0,0,1,90,32V85a5,5,0,0,1-5,5H32A32,32,0,0,1,0,58V5A5,5,0,0,1,5,0Z" stroke="none"/>
          <path d="M5,1H58A31,31,0,0,1,89,32V85a4,4,0,0,1-4,4H32A31,31,0,0,1,1,58V5A4,4,0,0,1,5,1Z" fill="none"/>
        </g>
      </g>
    </g>
    <g id="Mask_Group_1099556" data-name="Mask Group 1099556" clip-path="url(#clip-path)">
      <g id="corporativo" transform="translate(287.273 3707.021)">
        <path id="Path_1245755" data-name="Path 1245755" d="M50.58,8.574c-2.079-.523-2.673-1.118-3.2-3.2a.175.175,0,0,0-.339,0c-.523,2.079-1.118,2.673-3.2,3.2a.175.175,0,0,0,0,.338c2.079.523,2.673,1.118,3.2,3.2a.175.175,0,0,0,.339,0c.523-2.078,1.118-2.673,3.2-3.2a.175.175,0,0,0,0-.338Z" fill="#f2dd9d"/>
        <path id="Path_1245756" data-name="Path 1245756" d="M11.235,12.072c-2.079-.523-2.673-1.118-3.2-3.2a.175.175,0,0,0-.339,0c-.523,2.079-1.118,2.673-3.2,3.2a.175.175,0,0,0,0,.338c2.079.523,2.673,1.118,3.2,3.2a.175.175,0,0,0,.339,0c.523-2.078,1.118-2.673,3.2-3.2a.175.175,0,0,0,0-.338Z" fill="#f2dd9d"/>
        <path id="Path_1245757" data-name="Path 1245757" d="M27.979,1.749,22.733,6.995H33.225Z" fill="#6088bf"/>
        <path id="Path_1245758" data-name="Path 1245758" d="M34.974,6.995H20.984a.874.874,0,0,0-.874.874v27.1H35.848V7.869A.874.874,0,0,0,34.974,6.995Z" fill="#88a2bf"/>
        <path id="Path_1245759" data-name="Path 1245759" d="M25.356,25.356H30.6v9.618H25.356Z" fill="#e6e6e6"/>
        <path id="Path_1245760" data-name="Path 1245760" d="M35.848,15.738V34.974l9.618.059V18.361Z" fill="#768da6"/>
        <path id="Path_1245761" data-name="Path 1245761" d="M20.11,15.68V34.916l-9.618.059V18.3Z" fill="#768da6"/>
        <path id="Path_1245762" data-name="Path 1245762" d="M1.915,46.778a27.947,27.947,0,0,1,52.129,0Z" fill="#5eb38c"/>
        <path id="Path_1245763" data-name="Path 1245763" d="M22.733,53.335H12.241V46.341a3.5,3.5,0,0,1,3.5-3.5h3.5a3.5,3.5,0,0,1,3.5,3.5Z" fill="#96b5e6"/>
        <circle id="Ellipse_14203" data-name="Ellipse 14203" cx="3.497" cy="3.497" r="3.497" transform="translate(13.99 35.848)" fill="#ffdbac"/>
        <path id="Path_1245764" data-name="Path 1245764" d="M20.857,38.472a3.485,3.485,0,0,0-6.753,0Z" fill="#6d8299"/>
        <path id="Path_1245765" data-name="Path 1245765" d="M17.487,42.843l-1.749,5.246,1.749,2.623,1.749-2.623Z" fill="#477fcc"/>
        <path id="Path_1245766" data-name="Path 1245766" d="M33.225,54.21H22.733V47.215a3.5,3.5,0,0,1,3.5-3.5h3.5a3.5,3.5,0,0,1,3.5,3.5Z" fill="#adc3e6"/>
        <circle id="Ellipse_14204" data-name="Ellipse 14204" cx="3.497" cy="3.497" r="3.497" transform="translate(24.482 36.723)" fill="#ffdbac"/>
        <path id="Path_1245767" data-name="Path 1245767" d="M31.349,39.346a3.485,3.485,0,0,0-6.753,0Z" fill="#6d8299"/>
        <path id="Path_1245768" data-name="Path 1245768" d="M27.979,43.718l-1.749,5.246,1.749,2.623,1.749-2.623Z" fill="#477fcc"/>
        <path id="Path_1245769" data-name="Path 1245769" d="M43.718,53.335H33.225V46.341a3.5,3.5,0,0,1,3.5-3.5h3.5a3.5,3.5,0,0,1,3.5,3.5Z" fill="#96b5e6"/>
        <circle id="Ellipse_14205" data-name="Ellipse 14205" cx="3.497" cy="3.497" r="3.497" transform="translate(34.974 35.848)" fill="#ffdbac"/>
        <path id="Path_1245770" data-name="Path 1245770" d="M41.841,38.472a3.485,3.485,0,0,0-6.753,0Z" fill="#6d8299"/>
        <path id="Path_1245771" data-name="Path 1245771" d="M38.472,42.843l-1.749,5.246,1.749,2.623,1.749-2.623Z" fill="#477fcc"/>
        <path id="Path_1245772" data-name="Path 1245772" d="M26.231,28.1V26.231h3.5v1.884c-.646-.044-1.3-.076-1.949-.076C27.259,28.038,26.745,28.07,26.231,28.1Zm18.361-9.069V33.492a29.005,29.005,0,0,0-7.869-4.011v-12.6ZM27.979,2.985,31.115,6.12H24.844Zm6.995,4.884V28.975a28.606,28.606,0,0,0-3.5-.678V25.356a.874.874,0,0,0-.874-.874H25.356a.874.874,0,0,0-.874.874V28.25a28.637,28.637,0,0,0-3.5.613V7.869ZM11.367,19.029l7.869-2.146V29.35A29,29,0,0,0,11.367,33.2ZM54.778,46.778a28.747,28.747,0,0,0-8.437-11.926V18.361a.861.861,0,0,0-.647-.839l-8.971-2.448v-7.2A1.754,1.754,0,0,0,34.974,6.12h-1.39L28.6,1.128a.881.881,0,0,0-1.242,0L22.375,6.12h-1.39a1.754,1.754,0,0,0-1.749,1.749v7.2l-8.971,2.448a.861.861,0,0,0-.647.839V34.511A28.8,28.8,0,0,0,.778,46.778h1.88a27.066,27.066,0,0,1,50.24,0Z"/>
        <path id="Path_1245773" data-name="Path 1245773" d="M41.715,42.249a4.372,4.372,0,1,0-6.487,0,4.367,4.367,0,0,0-2.315,1.991,4.363,4.363,0,0,0-1.692-1.117,4.365,4.365,0,1,0-6.5,0,4.363,4.363,0,0,0-1.68,1.114,4.367,4.367,0,0,0-2.317-1.992,4.365,4.365,0,1,0-6.5,0,4.367,4.367,0,0,0-2.867,4.088v6.995a.874.874,0,0,0,.874.874h9.618a.874.874,0,0,0,.874.874H33.225a.874.874,0,0,0,.874-.874h9.618a.874.874,0,0,0,.874-.874V46.341a4.366,4.366,0,0,0-2.877-4.091ZM17.486,36.723l.1,0a2.611,2.611,0,0,1,1.849.872H15.548a2.608,2.608,0,0,1,1.938-.874ZM20.1,39.346c0,.034.008.066.006.1a2.618,2.618,0,1,1-5.236-.1ZM18.271,47.96l-.784,1.176L16.7,47.96l.784-2.352Zm3.588,4.5H13.115v-6.12a2.626,2.626,0,0,1,2.623-2.623h.536l-1.365,4.1a.874.874,0,0,0,.1.762L16.76,51.2a.874.874,0,0,0,1.455,0l1.749-2.623a.874.874,0,0,0,.1-.762l-1.365-4.1h.536a2.626,2.626,0,0,1,2.623,2.623ZM27.978,37.6l.1,0a2.611,2.611,0,0,1,1.849.872H26.04A2.608,2.608,0,0,1,27.978,37.6Zm2.616,2.623c0,.034.008.066.006.1a2.618,2.618,0,1,1-5.236-.1Zm-1.831,8.614-.784,1.176L27.2,48.834l.784-2.352Zm3.588,4.5H23.608v-6.12a2.626,2.626,0,0,1,2.623-2.623h.536l-1.365,4.1a.874.874,0,0,0,.1.762l1.749,2.623a.874.874,0,0,0,1.455,0l1.749-2.623a.874.874,0,0,0,.1-.762l-1.365-4.1h.536a2.626,2.626,0,0,1,2.623,2.623Zm6.12-16.613a2.607,2.607,0,0,1,1.941.874H36.531a2.607,2.607,0,0,1,1.941-.874Zm2.623,2.623a2.623,2.623,0,0,1-5.246,0ZM39.255,47.96l-.784,1.176-.784-1.176.784-2.352Zm3.588,4.5H34.1v-6.12a2.626,2.626,0,0,1,2.623-2.623h.536l-1.365,4.1a.874.874,0,0,0,.1.762L37.744,51.2a.874.874,0,0,0,1.455,0l1.749-2.623a.874.874,0,0,0,.1-.762l-1.365-4.1h.536a2.626,2.626,0,0,1,2.623,2.623Z"/>
        <path id="Path_1245774" data-name="Path 1245774" d="M22.733,10.492H33.225v1.749H22.733Z"/>
        <path id="Path_1245775" data-name="Path 1245775" d="M22.733,13.99H33.225v1.749H22.733Z"/>
        <path id="Path_1245776" data-name="Path 1245776" d="M22.733,17.487H33.225v1.749H22.733Z"/>
        <path id="Path_1245777" data-name="Path 1245777" d="M22.733,20.984H33.225v1.749H22.733Z"/>
        <path id="Path_1245778" data-name="Path 1245778" d="M43.636,9.76c1.76.443,2.119.8,2.562,2.562a1.049,1.049,0,0,0,2.035,0c.443-1.76.8-2.119,2.56-2.562a1.049,1.049,0,0,0,0-2.034c-1.76-.443-2.119-.8-2.562-2.562a1.049,1.049,0,0,0-2.035,0c-.443,1.76-.8,2.119-2.56,2.562a1.049,1.049,0,0,0,0,2.034Zm3.579-2.327a3.345,3.345,0,0,0,1.31,1.31,3.345,3.345,0,0,0-1.31,1.31,3.348,3.348,0,0,0-1.31-1.31,3.345,3.345,0,0,0,1.31-1.31Z"/>
        <path id="Path_1245779" data-name="Path 1245779" d="M4.29,13.258c1.76.443,2.119.8,2.562,2.562a1.049,1.049,0,0,0,2.035,0c.443-1.76.8-2.119,2.56-2.562a1.049,1.049,0,0,0,0-2.034c-1.76-.443-2.119-.8-2.562-2.562a1.049,1.049,0,0,0-2.035,0c-.443,1.76-.8,2.119-2.56,2.562a1.049,1.049,0,0,0,0,2.034Zm3.579-2.327a3.345,3.345,0,0,0,1.31,1.31,3.345,3.345,0,0,0-1.31,1.31,3.348,3.348,0,0,0-1.31-1.31,3.345,3.345,0,0,0,1.31-1.31Z"/>
        <path id="Path_1245780" data-name="Path 1245780" d="M13.115,21.859h4.372v1.749H13.115Z"/>
        <path id="Path_1245781" data-name="Path 1245781" d="M38.472,21.859h4.372v1.749H38.472Z"/>
        <path id="Path_1245782" data-name="Path 1245782" d="M13.115,25.356h4.372V27.1H13.115Z"/>
        <path id="Path_1245783" data-name="Path 1245783" d="M38.472,25.356h4.372V27.1H38.472Z"/>
      </g>
    </g>
  </g>
</svg>
