<svg xmlns="http://www.w3.org/2000/svg" xmlns:xlink="http://www.w3.org/1999/xlink" width="108" height="108" viewBox="0 0 108 108">
  <defs>
    <filter id="Rectangle_411831" x="0" y="0" width="108" height="108" filterUnits="userSpaceOnUse">
      <feOffset dy="3" input="SourceAlpha"/>
      <feGaussianBlur stdDeviation="3" result="blur"/>
      <feFlood flood-opacity="0.161"/>
      <feComposite operator="in" in2="blur"/>
      <feComposite in="SourceGraphic"/>
    </filter>
    <clipPath id="clip-path">
      <rect id="Rectangle_430334" data-name="Rectangle 430334" width="53" height="60" transform="translate(18.27 15)" fill="#fff" stroke="#707070" stroke-width="1" opacity="0"/>
    </clipPath>
  </defs>
  <g id="Group_1243942" data-name="Group 1243942" transform="translate(9 6)">
    <g id="Group_1242625" data-name="Group 1242625">
      <g id="Group_1230590" data-name="Group 1230590">
        <g transform="matrix(1, 0, 0, 1, -9, -6)" filter="url(#Rectangle_411831)">
          <g id="Rectangle_411831-2" data-name="Rectangle 411831" transform="translate(9 6)" fill="#a4e0d4" stroke="#fff" stroke-width="2">
            <path d="M5,0H58A32,32,0,0,1,90,32V85a5,5,0,0,1-5,5H32A32,32,0,0,1,0,58V5A5,5,0,0,1,5,0Z" stroke="none"/>
            <path d="M5,1H58A31,31,0,0,1,89,32V85a4,4,0,0,1-4,4H32A31,31,0,0,1,1,58V5A4,4,0,0,1,5,1Z" fill="none"/>
          </g>
        </g>
      </g>
    </g>
    <g id="Mask_Group_1099563" data-name="Mask Group 1099563" clip-path="url(#clip-path)">
      <g id="imparcial" transform="translate(17.396 17.626)">
        <g id="Group_1252977" data-name="Group 1252977">
          <g id="Group_1252974" data-name="Group 1252974">
            <path id="Path_1245900" data-name="Path 1245900" d="M5.49,39.936l8.99-5.208c1.688-.978,3.4-1.672,5.259-1.07a62.9,62.9,0,0,0,8.887,2.731,2.5,2.5,0,0,1,1.729,2.991,2.421,2.421,0,0,1-2.994,1.729l1.206.192a5.588,5.588,0,0,0,3.853-.672L41.063,35.6c6.719-3.912,7.706,2.108,5.473,3.484L30.848,48.739a5.757,5.757,0,0,1-4.658.656L14.813,46.346,10.6,48.779a1.7,1.7,0,0,1-2.319-.623l-3.408-5.9a1.7,1.7,0,0,1,.62-2.319Z" fill="#f6dccd" fill-rule="evenodd"/>
            <path id="Path_1245901" data-name="Path 1245901" d="M5.49,39.936l8.99-5.208c1.688-.978,3.4-1.672,5.259-1.07,1.105.358,2.587.938,4.251,1.493L6.574,45.208l-1.7-2.953a1.7,1.7,0,0,1,.62-2.319Z" fill="#f1cbbc" fill-rule="evenodd"/>
            <path id="Path_1245902" data-name="Path 1245902" d="M6.533,37.345l7.131,12.6a1.278,1.278,0,0,1-.48,1.734l-2.428,1.374a1.278,1.278,0,0,1-1.734-.482l-7.129-12.6a1.273,1.273,0,0,1,.48-1.734L4.8,36.863a1.276,1.276,0,0,1,1.734.482Z" fill="#d1d1d6" fill-rule="evenodd"/>
            <path id="Path_1245903" data-name="Path 1245903" d="M10.286,46l1.26,2.23,1.249,2.206a1.275,1.275,0,0,1-.477,1.731l.867-.49a1.278,1.278,0,0,0,.48-1.734l-1.252-2.214L9.9,43.287,7.381,38.841l-.848-1.5a1.278,1.278,0,0,0-1.482-.591l1.466,2.59,2.514,4.444L10.283,46Z" fill="#b1b1b5" fill-rule="evenodd"/>
          </g>
          <g id="Group_1252976" data-name="Group 1252976">
            <path id="Path_1245904" data-name="Path 1245904" d="M40.064,17.7c.5,2.89,3.876,5.088,6.907,5.088s6.409-2.2,6.9-5.088Z" fill="#ffe177" fill-rule="evenodd"/>
            <path id="Path_1245905" data-name="Path 1245905" d="M46.434,22.766c2.881-.238,5.9-2.345,6.366-5.065h1.073c-.493,2.89-3.872,5.088-6.9,5.088Q46.7,22.788,46.434,22.766Z" fill="#ffd064" fill-rule="evenodd"/>
            <path id="Path_1245906" data-name="Path 1245906" d="M9.8,17.7c.5,2.89,3.876,5.088,6.907,5.088s6.4-2.2,6.9-5.088Z" fill="#ffe177" fill-rule="evenodd"/>
            <path id="Path_1245907" data-name="Path 1245907" d="M10.87,17.7c.469,2.72,3.49,4.827,6.37,5.065q-.269.022-.537.022c-3.031,0-6.409-2.2-6.907-5.088Z" fill="#ffd064" fill-rule="evenodd"/>
            <path id="Path_1245908" data-name="Path 1245908" d="M31.839,26.026a10.24,10.24,0,0,1,9.224,5.784H22.619A10.238,10.238,0,0,1,31.839,26.026Z" fill="#685e68" fill-rule="evenodd"/>
            <g id="Group_1252975" data-name="Group 1252975">
              <circle id="Ellipse_14226" data-name="Ellipse 14226" cx="5.346" cy="5.346" r="5.346" transform="translate(26.494 1.532)" fill="#fe646f"/>
              <path id="Path_1245909" data-name="Path 1245909" d="M31.3,1.558q.265-.026.537-.027a5.346,5.346,0,0,1,0,10.691q-.272,0-.537-.027a5.346,5.346,0,0,0,0-10.638Z" fill="#fd4755" fill-rule="evenodd"/>
            </g>
          </g>
        </g>
        <path id="Path_1245910" data-name="Path 1245910" d="M13.69,48.24l.686,1.213v0a2.135,2.135,0,0,1-.805,2.9l-2.417,1.37,0,0a2.135,2.135,0,0,1-2.9-.806L1.149,40.36a2.131,2.131,0,0,1,.8-2.9l2.419-1.37h0a2.137,2.137,0,0,1,2.9.8v0l.557.985,6.326-3.663c1.9-1.1,3.848-1.819,5.938-1.14a62.243,62.243,0,0,0,8.746,2.694.852.852,0,0,1,.112.028,3.343,3.343,0,0,1,2.285,4.023,3.755,3.755,0,0,1-.284.743,4.7,4.7,0,0,0,1.082-.464l8.617-5.019c3.114-1.814,5.19-1.618,6.365-.83a3.577,3.577,0,0,1-.029,5.775L31.349,49.655a6.566,6.566,0,0,1-5.315.756h0l-11-2.948ZM12.88,50.3l-7.1-12.554h0a.414.414,0,0,0-.559-.156L2.8,38.955h0a.41.41,0,0,0-.152.558h0L9.75,52.071h0a.413.413,0,0,0,.56.154l2.415-1.369h0a.412.412,0,0,0,.154-.56Zm-.037-3.552,1.641-.948a.858.858,0,0,1,.652-.086l11.341,3.04a4.9,4.9,0,0,0,3.97-.558h0l15.636-9.627A1.6,1.6,0,0,0,46.74,37.3a1.659,1.659,0,0,0-1.282-1.868c-.912-.191-2.2.113-3.944,1.132L32.9,41.585a6.419,6.419,0,0,1-4.41.777l-1.108-.181c-1.945-.4-3.748-.987-5.75-1.524A.859.859,0,0,1,22.075,39c1.955.525,3.717,1.1,5.614,1.494a1.576,1.576,0,0,0,1.886-1.114h0a1.629,1.629,0,0,0-1.107-1.927,64.787,64.787,0,0,1-8.908-2.739h0c-1.609-.523-3.083.146-4.548.993l-6.34,3.671ZM4.871,39.062A1,1,0,1,1,4.022,40.2a1,1,0,0,1,.849-1.136ZM23.486,17.342a.858.858,0,0,1,.107.583,6.995,6.995,0,0,1-13.785,0,.859.859,0,0,1,.108-.584l6.048-10.2a.859.859,0,0,1,.968-.39c3.13.867,4.335.405,5.632-.086a9.2,9.2,0,0,1,3.152-.719,6.205,6.205,0,0,1,12.244,0,9.216,9.216,0,0,1,3.15.72c1.3.491,2.5.952,5.631.085h0a.6.6,0,0,1,.2-.03h.03a.859.859,0,0,1,.739.421l6.044,10.2a.859.859,0,0,1,.108.582,7,7,0,0,1-13.785,0,.858.858,0,0,1,.108-.584l5.04-8.5a7.683,7.683,0,0,1-3.981-.3A10.4,10.4,0,0,0,38,7.667,6.212,6.212,0,0,1,32.7,13.1q0,4.694,0,12.177a11.1,11.1,0,0,1,9.139,6.236.859.859,0,0,1-.773,1.233H22.619a.859.859,0,0,1-.773-1.233,11.1,11.1,0,0,1,9.134-6.236q0-7.484,0-12.178a6.212,6.212,0,0,1-5.3-5.435,10.373,10.373,0,0,0-3.242.873,7.683,7.683,0,0,1-3.984.3Zm-11.706,1.3a5.279,5.279,0,0,0,9.843,0ZM21.24,16.92,16.7,9.261l-4.54,7.659ZM36.324,6.82A4.462,4.462,0,0,0,35.56,4.45l-6.228,6.228a4.487,4.487,0,0,0,6.994-3.721q0-.064,0-.127V6.82ZM34.346,3.235A4.487,4.487,0,0,0,27.354,6.82v.01c0,.042,0,.084,0,.126a4.465,4.465,0,0,0,.766,2.507ZM51.508,16.92,46.97,9.261,42.43,16.92Zm.384,1.718H42.047a5.279,5.279,0,0,0,9.844,0ZM31.839,26.964a9.369,9.369,0,0,0-7.73,4.066H39.573a9.372,9.372,0,0,0-7.734-4.066Z" fill-rule="evenodd"/>
      </g>
    </g>
  </g>
</svg>
