<svg xmlns="http://www.w3.org/2000/svg" xmlns:xlink="http://www.w3.org/1999/xlink" width="108" height="108" viewBox="0 0 108 108">
  <defs>
    <filter id="Rectangle_411831" x="0" y="0" width="108" height="108" filterUnits="userSpaceOnUse">
      <feOffset dy="3" input="SourceAlpha"/>
      <feGaussianBlur stdDeviation="3" result="blur"/>
      <feFlood flood-opacity="0.161"/>
      <feComposite operator="in" in2="blur"/>
      <feComposite in="SourceGraphic"/>
    </filter>
    <clipPath id="clip-path">
      <rect id="Rectangle_430334" data-name="Rectangle 430334" width="53" height="60" transform="translate(-3315 -10265)" fill="#fff" stroke="#707070" stroke-width="1" opacity="0"/>
    </clipPath>
  </defs>
  <g id="Group_1243927" data-name="Group 1243927" transform="translate(3342.27 10286)">
    <g id="Group_1242625" data-name="Group 1242625" transform="translate(-3333.27 -10280)">
      <g id="Group_1230590" data-name="Group 1230590">
        <g transform="matrix(1, 0, 0, 1, -9, -6)" filter="url(#Rectangle_411831)">
          <g id="Rectangle_411831-2" data-name="Rectangle 411831" transform="translate(9 6)" fill="#a4e0d4" stroke="#fff" stroke-width="2">
            <path d="M5,0H58A32,32,0,0,1,90,32V85a5,5,0,0,1-5,5H32A32,32,0,0,1,0,58V5A5,5,0,0,1,5,0Z" stroke="none"/>
            <path d="M5,1H58A31,31,0,0,1,89,32V85a4,4,0,0,1-4,4H32A31,31,0,0,1,1,58V5A4,4,0,0,1,5,1Z" fill="none"/>
          </g>
        </g>
      </g>
    </g>
    <g id="Mask_Group_1099558" data-name="Mask Group 1099558" clip-path="url(#clip-path)">
      <g id="compartiendo" transform="translate(-3315 -10261.5)">
        <g id="Group_1252945" data-name="Group 1252945">
          <g id="Group_1252930" data-name="Group 1252930">
            <path id="Path_1245802" data-name="Path 1245802" d="M12.823,47.016H23.081v5.129H12.823Z" fill="#5cd6b3"/>
          </g>
          <g id="Group_1252931" data-name="Group 1252931">
            <path id="Path_1245803" data-name="Path 1245803" d="M29.919,47.016H40.177v5.129H29.919Z" fill="#75b1f2"/>
          </g>
          <g id="Group_1252932" data-name="Group 1252932">
            <path id="Path_1245804" data-name="Path 1245804" d="M36.758,24.79V28.21a1.715,1.715,0,0,1,1.71-1.71,1.722,1.722,0,0,1,1.71,1.71v6.309a3.736,3.736,0,0,1,3.744-3.744,1.383,1.383,0,0,1,1.24,2l-1.026,2.043a5.222,5.222,0,0,0-.539,2.3v3.83a5.109,5.109,0,0,1-1.12,3.2l-2.3,2.872H29.919l-2.3-2.872a5.109,5.109,0,0,1-1.12-3.2V33.339a1.929,1.929,0,0,0,1.428-.633l1.992-2.214,3.419-3.8.47-.521a4.8,4.8,0,0,0,1.231-3.086h.009a1.715,1.715,0,0,1,1.71,1.71Z" fill="#f0d0b4"/>
          </g>
          <g id="Group_1252933" data-name="Group 1252933">
            <path id="Path_1245805" data-name="Path 1245805" d="M12.823,34.518V28.21a1.722,1.722,0,0,1,1.71-1.71,1.715,1.715,0,0,1,1.71,1.71V24.79a1.715,1.715,0,0,1,1.71-1.71h.009a4.8,4.8,0,0,0,1.231,3.086l.47.521,3.419,3.8,1.992,2.214a1.929,1.929,0,0,0,1.428.633v7.608a5.109,5.109,0,0,1-1.12,3.2l-2.3,2.872H12.823l-2.3-2.872a5.109,5.109,0,0,1-1.12-3.2v-3.83a5.222,5.222,0,0,0-.539-2.3L7.839,32.775a1.383,1.383,0,0,1,1.24-2,3.736,3.736,0,0,1,3.744,3.744Z" fill="#f0d0b4"/>
          </g>
          <g id="Group_1252934" data-name="Group 1252934">
            <circle id="Ellipse_14207" data-name="Ellipse 14207" cx="7.694" cy="7.694" r="7.694" transform="translate(0.855 0.855)" fill="#ffeaa7"/>
          </g>
          <g id="Group_1252935" data-name="Group 1252935">
            <circle id="Ellipse_14208" data-name="Ellipse 14208" cx="7.694" cy="7.694" r="7.694" transform="translate(36.758 0.855)" fill="#ffeaa7"/>
          </g>
          <g id="Group_1252936" data-name="Group 1252936">
            <path id="Path_1245806" data-name="Path 1245806" d="M44.452,11.113a5.121,5.121,0,0,1,4.83,3.419,7.677,7.677,0,0,1-9.66,0A5.121,5.121,0,0,1,44.452,11.113Z" fill="#75b1f2"/>
          </g>
          <g id="Group_1252937" data-name="Group 1252937">
            <path id="Path_1245807" data-name="Path 1245807" d="M8.548,11.113a5.121,5.121,0,0,1,4.83,3.419,7.677,7.677,0,0,1-9.66,0A5.121,5.121,0,0,1,8.548,11.113Z" fill="#5cd6b3"/>
          </g>
          <g id="Group_1252938" data-name="Group 1252938">
            <path id="Path_1245808" data-name="Path 1245808" d="M35.048,22.79v.145a.829.829,0,0,1-.009.145,4.8,4.8,0,0,1-1.231,3.086l-.47.521-3.419,3.8-1.992,2.214a1.927,1.927,0,0,1-2.855,0l-1.992-2.214-3.419-3.8-.47-.521a4.8,4.8,0,0,1-1.231-3.086.829.829,0,0,1-.009-.145V22.79a4.836,4.836,0,0,1,8.258-3.419l.291.291.291-.291a4.836,4.836,0,0,1,8.258,3.419Z" fill="#ff826e"/>
          </g>
          <g id="Group_1252939" data-name="Group 1252939">
            <circle id="Ellipse_14209" data-name="Ellipse 14209" cx="3.419" cy="3.419" r="3.419" transform="translate(41.032 4.274)" fill="#f0d0b4"/>
          </g>
          <g id="Group_1252940" data-name="Group 1252940">
            <circle id="Ellipse_14210" data-name="Ellipse 14210" cx="3.419" cy="3.419" r="3.419" transform="translate(5.129 4.274)" fill="#f0d0b4"/>
          </g>
          <g id="Group_1252941" data-name="Group 1252941">
            <circle id="Ellipse_14211" data-name="Ellipse 14211" cx="3.419" cy="3.419" r="3.419" transform="translate(45.306 19.661)" fill="#ffeaa7"/>
          </g>
          <g id="Group_1252942" data-name="Group 1252942">
            <circle id="Ellipse_14212" data-name="Ellipse 14212" cx="3.419" cy="3.419" r="3.419" transform="translate(0.855 19.661)" fill="#ffeaa7"/>
          </g>
          <g id="Group_1252943" data-name="Group 1252943">
            <path id="Path_1245809" data-name="Path 1245809" d="M26.5.855a5.129,5.129,0,1,1-5.129,5.129A5.133,5.133,0,0,1,26.5.855Z" fill="#ffeaa7"/>
          </g>
          <g id="Group_1252944" data-name="Group 1252944">
            <circle id="Ellipse_14213" data-name="Ellipse 14213" cx="1.71" cy="1.71" r="1.71" transform="translate(24.79 4.274)" fill="#fcd770"/>
          </g>
        </g>
        <g id="Group_1252946" data-name="Group 1252946">
          <path id="Path_1245810" data-name="Path 1245810" d="M24.986,28.772l1.27-1.144L22.37,23.31a.56.56,0,0,1-.144-.375v-.147a.582.582,0,0,1,.693-.546l.406-1.661a2.273,2.273,0,0,0-2.809,2.207v.147a2.261,2.261,0,0,0,.584,1.519Z"/>
          <path id="Path_1245811" data-name="Path 1245811" d="M29.065,5.984A2.565,2.565,0,1,0,26.5,8.548,2.568,2.568,0,0,0,29.065,5.984Zm-3.419,0a.855.855,0,1,1,.855.855A.856.856,0,0,1,25.645,5.984Z"/>
          <path id="Path_1245812" data-name="Path 1245812" d="M48.726,18.806a4.282,4.282,0,0,0-4.188,3.419H35.875a5.689,5.689,0,0,0-8.52-4.359V11.9a5.984,5.984,0,1,0-1.71,0v5.968a5.689,5.689,0,0,0-8.52,4.359H8.462a4.274,4.274,0,1,0,0,1.71h7.082a2.536,2.536,0,0,0-.157.855V25.8a2.536,2.536,0,0,0-.855-.157,2.568,2.568,0,0,0-2.565,2.565v2.761a4.553,4.553,0,0,0-2.891-1.051,2.239,2.239,0,0,0-2,3.239L8.1,35.2a4.291,4.291,0,0,1,.452,1.912v3.829a6.013,6.013,0,0,0,1.31,3.738l2.109,2.635V53H23.935V47.316l2.109-2.635A5.847,5.847,0,0,0,26.5,44a5.958,5.958,0,0,0,.456.682l2.109,2.635V53H41.032V47.316l2.109-2.635a6.01,6.01,0,0,0,1.31-3.737V37.115A4.3,4.3,0,0,1,44.9,35.2l1.022-2.044a2.238,2.238,0,0,0-2-3.24,4.555,4.555,0,0,0-2.891,1.051V28.21a2.568,2.568,0,0,0-2.565-2.565,2.536,2.536,0,0,0-.855.157V24.79a2.536,2.536,0,0,0-.157-.855h7.082a4.274,4.274,0,1,0,4.188-5.129ZM4.274,25.645a2.565,2.565,0,1,1,2.565-2.565A2.568,2.568,0,0,1,4.274,25.645ZM22.226,5.984A4.274,4.274,0,1,1,26.5,10.258,4.279,4.279,0,0,1,22.226,5.984Zm-3.419,16.8a3.981,3.981,0,0,1,6.8-2.816l.9.9.9-.9a3.981,3.981,0,0,1,6.8,2.815v.147A3.977,3.977,0,0,1,33.172,25.6l-5.88,6.534a1.1,1.1,0,0,1-1.583,0L19.828,25.6a3.977,3.977,0,0,1-1.022-2.663Zm3.419,28.5H13.677V47.871h8.548Zm2.482-7.677-2.039,2.548H13.234l-2.039-2.548a4.29,4.29,0,0,1-.937-2.67V37.115a6.019,6.019,0,0,0-.632-2.676L8.6,32.394a.522.522,0,0,1-.056-.237.529.529,0,0,1,.528-.528,2.9,2.9,0,0,1,2.891,2.891v3.709l.585.195a2.891,2.891,0,0,1,1.98,2.747v1.571h1.71V41.171a4.6,4.6,0,0,0-2.565-4.129V28.21a.855.855,0,1,1,1.71,0V35.9H17.1V24.79a.834.834,0,0,1,.172-.487,5.673,5.673,0,0,0,1.289,2.439l.249.276V35.9h1.71V28.917l1.71,1.9V35.9h1.71V32.717l.5.558a2.762,2.762,0,0,0,1.207.767v6.9a4.29,4.29,0,0,1-.937,2.671ZM39.323,51.29H30.774V47.871h8.548Zm-.855-23.935a.856.856,0,0,1,.855.855v8.832a4.6,4.6,0,0,0-2.565,4.129v1.571h1.71V41.171a2.891,2.891,0,0,1,1.98-2.747l.585-.195V34.52a2.9,2.9,0,0,1,2.891-2.891.528.528,0,0,1,.473.764l-1.022,2.044a6.012,6.012,0,0,0-.633,2.677v3.829a4.292,4.292,0,0,1-.937,2.671l-2.039,2.547H30.331l-2.039-2.548a4.29,4.29,0,0,1-.937-2.67v-6.9a2.759,2.759,0,0,0,1.207-.768l.5-.558V35.9h1.71V30.817l1.71-1.9V35.9h1.71V27.018l.249-.276A5.682,5.682,0,0,0,35.731,24.3a.834.834,0,0,1,.172.487V35.9h1.71V28.21a.856.856,0,0,1,.855-.855Zm10.258-1.71a2.565,2.565,0,1,1,2.565-2.565A2.568,2.568,0,0,1,48.726,25.645Z"/>
          <path id="Path_1245813" data-name="Path 1245813" d="M31.629,11.968a2.568,2.568,0,0,0-2.565,2.565v.855h1.71v-.855a.856.856,0,0,1,.855-.855h6a8.472,8.472,0,1,0-1.007-1.71Zm9.051,2.28a4.26,4.26,0,0,1,7.543,0,6.811,6.811,0,0,1-7.543,0Zm1.207-6.554a2.565,2.565,0,1,1,2.565,2.565A2.568,2.568,0,0,1,41.887,7.694ZM44.452,1.71a6.827,6.827,0,0,1,5.077,11.4A5.988,5.988,0,0,0,47.2,10.939a4.274,4.274,0,1,0-5.5,0,5.991,5.991,0,0,0-2.327,2.176A6.828,6.828,0,0,1,44.452,1.71Z"/>
          <path id="Path_1245814" data-name="Path 1245814" d="M8.548,17.1a8.534,8.534,0,0,0,6.822-3.419h6a.856.856,0,0,1,.855.855v.855h1.71v-.855a2.568,2.568,0,0,0-2.565-2.565H16.378A8.545,8.545,0,1,0,8.548,17.1ZM4.777,14.248a4.26,4.26,0,0,1,7.543,0,6.811,6.811,0,0,1-7.543,0ZM5.984,7.694a2.565,2.565,0,1,1,2.565,2.565A2.568,2.568,0,0,1,5.984,7.694ZM8.548,1.71a6.827,6.827,0,0,1,5.077,11.4A5.988,5.988,0,0,0,11.3,10.939a4.274,4.274,0,1,0-5.5,0,5.991,5.991,0,0,0-2.327,2.176A6.828,6.828,0,0,1,8.548,1.71Z"/>
        </g>
      </g>
    </g>
  </g>
</svg>
