<svg xmlns="http://www.w3.org/2000/svg" xmlns:xlink="http://www.w3.org/1999/xlink" width="108" height="108" viewBox="0 0 108 108">
  <defs>
    <filter id="Rectangle_411831" x="0" y="0" width="108" height="108" filterUnits="userSpaceOnUse">
      <feOffset dy="3" input="SourceAlpha"/>
      <feGaussianBlur stdDeviation="3" result="blur"/>
      <feFlood flood-opacity="0.161"/>
      <feComposite operator="in" in2="blur"/>
      <feComposite in="SourceGraphic"/>
    </filter>
    <clipPath id="clip-path">
      <rect id="Rectangle_430334" data-name="Rectangle 430334" width="53" height="60" transform="translate(-3315 -10265)" fill="#fff" stroke="#707070" stroke-width="1" opacity="0"/>
    </clipPath>
  </defs>
  <g id="Group_1243926" data-name="Group 1243926" transform="translate(3342.27 10286)">
    <g id="Group_1242625" data-name="Group 1242625" transform="translate(-3333.27 -10280)">
      <g id="Group_1230590" data-name="Group 1230590">
        <g transform="matrix(1, 0, 0, 1, -9, -6)" filter="url(#Rectangle_411831)">
          <g id="Rectangle_411831-2" data-name="Rectangle 411831" transform="translate(9 6)" fill="#a4e0d4" stroke="#fff" stroke-width="2">
            <path d="M5,0H58A32,32,0,0,1,90,32V85a5,5,0,0,1-5,5H32A32,32,0,0,1,0,58V5A5,5,0,0,1,5,0Z" stroke="none"/>
            <path d="M5,1H58A31,31,0,0,1,89,32V85a4,4,0,0,1-4,4H32A31,31,0,0,1,1,58V5A4,4,0,0,1,5,1Z" fill="none"/>
          </g>
        </g>
      </g>
    </g>
    <g id="Mask_Group_1099559" data-name="Mask Group 1099559" clip-path="url(#clip-path)">
      <g id="queja" transform="translate(-3315 -10261.5)">
        <g id="Group_1252969" data-name="Group 1252969">
          <g id="Group_1252947" data-name="Group 1252947">
            <path id="Path_1245815" data-name="Path 1245815" d="M25.645,43.6h1.71l1.71,8.548H23.935Z" fill="#ff826e"/>
          </g>
          <g id="Group_1252948" data-name="Group 1252948">
            <path id="Path_1245816" data-name="Path 1245816" d="M26.5,39.323l2.129,1.419L27.355,43.6h-1.71L24.3,40.784Z" fill="#fc6e51"/>
          </g>
          <g id="Group_1252949" data-name="Group 1252949">
            <path id="Path_1245817" data-name="Path 1245817" d="M41.032,52.145H29.065L27.355,43.6l1.274-2.855,3,2,.692-6.907C35.587,37.305,41.032,41.374,41.032,52.145Z" fill="#fcd770"/>
          </g>
          <g id="Group_1252950" data-name="Group 1252950">
            <path id="Path_1245818" data-name="Path 1245818" d="M24.3,40.784,25.645,43.6l-1.71,8.548H11.968c0-10.771,5.445-14.84,8.711-16.31l.692,6.907Z" fill="#fcd770"/>
          </g>
          <g id="Group_1252951" data-name="Group 1252951">
            <path id="Path_1245819" data-name="Path 1245819" d="M32.321,35.835l-.692,6.907-3-2L26.5,39.323l3.419-4.274A10.3,10.3,0,0,1,32.321,35.835Z" fill="#ffc729"/>
          </g>
          <g id="Group_1252952" data-name="Group 1252952">
            <path id="Path_1245820" data-name="Path 1245820" d="M23.081,35.048,26.5,39.323l-2.2,1.462-2.932,1.958-.692-6.907A10.3,10.3,0,0,1,23.081,35.048Z" fill="#ffc729"/>
          </g>
          <g id="Group_1252953" data-name="Group 1252953">
            <path id="Path_1245821" data-name="Path 1245821" d="M52.145,2.565V12.823a1.715,1.715,0,0,1-1.71,1.71H47.016L45.6,17.37a1.057,1.057,0,0,1-2-.479V14.532H38.348a11.945,11.945,0,0,0-5.864-8.651V2.565a1.715,1.715,0,0,1,1.71-1.71H50.435A1.715,1.715,0,0,1,52.145,2.565Z" fill="#e6e9ed"/>
          </g>
          <g id="Group_1252954" data-name="Group 1252954">
            <path id="Path_1245822" data-name="Path 1245822" d="M2.565.855H18.806a1.715,1.715,0,0,1,1.71,1.71V5.881a11.955,11.955,0,0,0-5.864,8.651H9.4v2.359a1.057,1.057,0,0,1-2,.479L5.984,14.532H2.565a1.715,1.715,0,0,1-1.71-1.71V2.565A1.715,1.715,0,0,1,2.565.855Z" fill="#e6e9ed"/>
          </g>
          <g id="Group_1252955" data-name="Group 1252955">
            <path id="Path_1245823" data-name="Path 1245823" d="M22.2,18.6a6.986,6.986,0,0,1-1.684.205H17.952V16.242a8.548,8.548,0,0,1,17.1,0v2.565H32.484A6.986,6.986,0,0,1,30.8,18.6a6.91,6.91,0,0,1-4.069-2.872l-.231-.342-.231.342A6.91,6.91,0,0,1,22.2,18.6Z" fill="#b27946"/>
          </g>
          <g id="Group_1252956" data-name="Group 1252956">
            <path id="Path_1245824" data-name="Path 1245824" d="M35.031,25.645a7.663,7.663,0,0,1-3.4,5.915v-.786a1.715,1.715,0,0,0-1.71-1.71H27.355a1.722,1.722,0,0,0-1.71,1.71,1.715,1.715,0,0,0,1.71,1.71h2.565v2.565L26.5,39.323l-3.419-4.274V33.014a.857.857,0,0,0-.47-.769l-.41-.2a7.718,7.718,0,0,1-4.231-6.4c-.009-.154-.017-.316-.017-.479v-6.36h2.565A6.986,6.986,0,0,0,22.2,18.6a6.91,6.91,0,0,0,4.069-2.872l.231-.342.231.342A6.91,6.91,0,0,0,30.8,18.6a6.986,6.986,0,0,0,1.684.205h2.565v6.36c0,.162-.009.316-.017.479Z" fill="#f0d0b4"/>
          </g>
          <g id="Group_1252957" data-name="Group 1252957">
            <path id="Path_1245825" data-name="Path 1245825" d="M29.919,32.484H27.355a1.715,1.715,0,0,1-1.71-1.71,1.722,1.722,0,0,1,1.71-1.71h2.565a1.715,1.715,0,0,1,1.71,1.71v1.71Z" fill="#aab2bd"/>
          </g>
          <g id="Group_1252958" data-name="Group 1252958">
            <path id="Path_1245826" data-name="Path 1245826" d="M36.758,18.806a3.41,3.41,0,0,1,1.71.462,3.612,3.612,0,0,1,.71.539,3.441,3.441,0,0,1,1,2.419,3.393,3.393,0,0,1-1.727,2.966,3.341,3.341,0,0,1-1.693.453H35.031c.009-.162.017-.316.017-.479v-6.36Z" fill="#aab2bd"/>
          </g>
          <g id="Group_1252959" data-name="Group 1252959">
            <path id="Path_1245827" data-name="Path 1245827" d="M17.952,16.242v2.565h-1.71a3.41,3.41,0,0,0-1.71.462V16.242a12.48,12.48,0,0,1,.12-1.71,11.971,11.971,0,0,1,23.7,0,12.48,12.48,0,0,1,.12,1.71v3.026a3.41,3.41,0,0,0-1.71-.462h-1.71V16.242a8.548,8.548,0,0,0-17.1,0Z" fill="#aab2bd"/>
          </g>
          <g id="Group_1252960" data-name="Group 1252960">
            <path id="Path_1245828" data-name="Path 1245828" d="M17.952,25.166c0,.162.009.325.017.479H16.242a3.415,3.415,0,0,1-3.419-3.419,3.428,3.428,0,0,1,3.419-3.419h1.71v6.36Z" fill="#aab2bd"/>
          </g>
          <g id="Group_1252961" data-name="Group 1252961">
            <path id="Path_1245829" data-name="Path 1245829" d="M45.306,27.355v6.839a1.71,1.71,0,0,1-3.419,0V27.355a1.715,1.715,0,0,1,1.71-1.71,1.722,1.722,0,0,1,1.71,1.71Z" fill="#ff826e"/>
          </g>
          <g id="Group_1252962" data-name="Group 1252962">
            <circle id="Ellipse_14214" data-name="Ellipse 14214" cx="1.71" cy="1.71" r="1.71" transform="translate(41.887 39.323)" fill="#ff826e"/>
          </g>
          <g id="Group_1252963" data-name="Group 1252963">
            <path id="Path_1245830" data-name="Path 1245830" d="M52.145,36.758V43.6a1.71,1.71,0,1,1-3.419,0V36.758a1.715,1.715,0,0,1,1.71-1.71,1.722,1.722,0,0,1,1.71,1.71Z" fill="#ff826e"/>
          </g>
          <g id="Group_1252964" data-name="Group 1252964">
            <circle id="Ellipse_14215" data-name="Ellipse 14215" cx="1.71" cy="1.71" r="1.71" transform="translate(48.726 48.726)" fill="#ff826e"/>
          </g>
          <g id="Group_1252965" data-name="Group 1252965">
            <circle id="Ellipse_14216" data-name="Ellipse 14216" cx="1.71" cy="1.71" r="1.71" transform="translate(7.694 39.323)" fill="#ff826e"/>
          </g>
          <g id="Group_1252966" data-name="Group 1252966">
            <path id="Path_1245831" data-name="Path 1245831" d="M11.113,27.355v6.839a1.71,1.71,0,0,1-3.419,0V27.355a1.722,1.722,0,0,1,1.71-1.71A1.715,1.715,0,0,1,11.113,27.355Z" fill="#ff826e"/>
          </g>
          <g id="Group_1252967" data-name="Group 1252967">
            <circle id="Ellipse_14217" data-name="Ellipse 14217" cx="1.71" cy="1.71" r="1.71" transform="translate(0.855 48.726)" fill="#ff826e"/>
          </g>
          <g id="Group_1252968" data-name="Group 1252968">
            <path id="Path_1245832" data-name="Path 1245832" d="M4.274,36.758V43.6a1.71,1.71,0,1,1-3.419,0V36.758a1.671,1.671,0,0,1,.5-1.205,1.671,1.671,0,0,1,1.205-.5A1.715,1.715,0,0,1,4.274,36.758Z" fill="#ff826e"/>
          </g>
        </g>
        <g id="Group_1252970" data-name="Group 1252970">
          <path id="Path_1245833" data-name="Path 1245833" d="M50.435,0H34.194a2.568,2.568,0,0,0-2.565,2.565V4.5a12.741,12.741,0,0,0-10.258,0V2.565A2.568,2.568,0,0,0,18.806,0H2.565A2.568,2.568,0,0,0,0,2.565V12.823a2.568,2.568,0,0,0,2.565,2.565H5.456l1.182,2.364a1.911,1.911,0,0,0,3.62-.856V15.387h3.463c-.019.284-.044.566-.044.855v2.587A4.259,4.259,0,0,0,16.242,26.5h.965a8.488,8.488,0,0,0,4.614,6.31l.4.2v1.363c-2.575.727-11.113,4.166-11.113,17.77V53H41.888v-.855c0-13.6-8.54-17.043-11.113-17.77V33.339h3.419a5.134,5.134,0,0,0,5.129-5.129V25.623a4.23,4.23,0,0,0,0-6.794V16.242c0-.289-.025-.571-.044-.855h3.463V16.9a1.911,1.911,0,0,0,3.621.855l1.181-2.363h2.891A2.568,2.568,0,0,0,53,12.823V2.565A2.568,2.568,0,0,0,50.435,0ZM8.548,13.677V16.9a.209.209,0,0,1-.382.09L6.512,13.677H2.565a.856.856,0,0,1-.855-.855V2.565a.856.856,0,0,1,.855-.855H18.806a.856.856,0,0,1,.855.855V5.414a12.849,12.849,0,0,0-5.726,8.264Zm5.129,8.548a2.568,2.568,0,0,1,2.565-2.565H17.1V24.79h-.854A2.568,2.568,0,0,1,13.677,22.226Zm20.516-4.569a6.052,6.052,0,0,1-3.222-2.93l-.287-.575-1.529.763.287.576a7.751,7.751,0,0,0,1.792,2.322c-.074-.015-.15-.023-.223-.042a6.041,6.041,0,0,1-3.572-2.517L26.5,13.845l-.941,1.408a6.039,6.039,0,0,1-3.572,2.517c-.074.018-.149.026-.222.041a7.763,7.763,0,0,0,1.791-2.322l.288-.575-1.529-.765-.288.575A6.047,6.047,0,0,1,18.8,17.657V16.242a7.694,7.694,0,1,1,15.387,0v1.415ZM22.743,35.994l2.508,3.134L22.08,41.242l-.488-4.879A10.45,10.45,0,0,1,22.743,35.994Zm3.6,8.458h.309l1.368,6.839H24.979Zm1.208-3.4-.753,1.69h-.617l-.791-1.655,1.107-.739Zm-7.6-3.913.711,7.1,3.294-2.2.8,1.663L23.235,51.29h-10.4c.243-8.628,4.164-12.472,7.117-14.151ZM40.165,51.29h-10.4L28.247,43.7,29,42.014l3.341,2.228.706-7.064C36,38.888,39.92,42.757,40.165,51.29ZM31.407,36.382l-.486,4.86-3.171-2.114L30.255,36a10.587,10.587,0,0,1,1.151.383Zm-2.341-1.634-2.565,3.2-2.565-3.207V33.015a1.7,1.7,0,0,0-.945-1.532l-.4-.2a6.8,6.8,0,0,1-3.781-6.118v-5.5H20.52a7.766,7.766,0,0,0,5.98-2.81,7.764,7.764,0,0,0,5.98,2.81h1.713v5.5a6.813,6.813,0,0,1-1.884,4.7,2.562,2.562,0,0,0-2.391-1.658H27.355a2.565,2.565,0,0,0,0,5.129h1.71Zm1.709-3.974v.855H27.355a.855.855,0,0,1,0-1.71h2.565A.855.855,0,0,1,30.774,30.774Zm6.839-2.565a3.423,3.423,0,0,1-3.419,3.419H32.951A8.513,8.513,0,0,0,35.788,26.5h.97a4.27,4.27,0,0,0,.855-.086Zm-.855-3.419H35.9V19.661h.855a2.565,2.565,0,1,1,0,5.129Zm0-6.839H35.9v-1.71a9.4,9.4,0,1,0-18.806,0v1.71h-.855a4.27,4.27,0,0,0-.855.086v-1.8a11.113,11.113,0,0,1,22.226,0v1.8A4.27,4.27,0,0,0,36.758,17.952ZM51.29,12.823a.856.856,0,0,1-.855.855H46.488l-1.653,3.307a.209.209,0,0,1-.383-.09V13.677H39.064a12.851,12.851,0,0,0-5.726-8.264V2.565a.856.856,0,0,1,.855-.855H50.435a.856.856,0,0,1,.855.855Z"/>
          <circle id="Ellipse_14218" data-name="Ellipse 14218" cx="0.855" cy="0.855" r="0.855" transform="translate(21.371 20.516)"/>
          <circle id="Ellipse_14219" data-name="Ellipse 14219" cx="0.855" cy="0.855" r="0.855" transform="translate(29.919 20.516)"/>
          <path id="Path_1245834" data-name="Path 1245834" d="M26.973,25.938a1.711,1.711,0,0,0,.765-2.294l-.383-.764V21.371h-1.71v1.71a.857.857,0,0,0,.09.382l.473.945-.945.473.765,1.529Z"/>
          <path id="Path_1245835" data-name="Path 1245835" d="M43.6,24.79a2.568,2.568,0,0,0-2.565,2.565v6.839a2.565,2.565,0,0,0,5.129,0V27.355A2.568,2.568,0,0,0,43.6,24.79Zm.855,9.4a.855.855,0,0,1-1.71,0V27.355a.855.855,0,0,1,1.71,0Z"/>
          <path id="Path_1245836" data-name="Path 1245836" d="M43.6,38.468a2.565,2.565,0,1,0,2.565,2.565A2.568,2.568,0,0,0,43.6,38.468Zm0,3.419a.855.855,0,1,1,.855-.855A.855.855,0,0,1,43.6,41.887Z"/>
          <path id="Path_1245837" data-name="Path 1245837" d="M50.435,34.194a2.568,2.568,0,0,0-2.565,2.565V43.6A2.565,2.565,0,1,0,53,43.6V36.758A2.568,2.568,0,0,0,50.435,34.194Zm.855,9.4a.855.855,0,0,1-1.71,0V36.758a.855.855,0,0,1,1.71,0Z"/>
          <path id="Path_1245838" data-name="Path 1245838" d="M50.435,47.871A2.565,2.565,0,1,0,53,50.435,2.568,2.568,0,0,0,50.435,47.871Zm0,3.419a.855.855,0,1,1,.855-.855A.855.855,0,0,1,50.435,51.29Z"/>
          <path id="Path_1245839" data-name="Path 1245839" d="M9.4,36.758a2.568,2.568,0,0,0,2.565-2.565V27.355a2.565,2.565,0,0,0-5.129,0v6.839A2.568,2.568,0,0,0,9.4,36.758Zm-.855-9.4a.855.855,0,1,1,1.71,0v6.839a.855.855,0,1,1-1.71,0Z"/>
          <path id="Path_1245840" data-name="Path 1245840" d="M11.968,41.032A2.565,2.565,0,1,0,9.4,43.6,2.568,2.568,0,0,0,11.968,41.032ZM9.4,41.887a.855.855,0,1,1,.855-.855A.855.855,0,0,1,9.4,41.887Z"/>
          <path id="Path_1245841" data-name="Path 1245841" d="M2.565,34.194A2.568,2.568,0,0,0,0,36.758V43.6a2.565,2.565,0,1,0,5.129,0V36.758A2.568,2.568,0,0,0,2.565,34.194Zm.855,9.4a.855.855,0,1,1-1.71,0V36.758a.855.855,0,1,1,1.71,0Z"/>
          <path id="Path_1245842" data-name="Path 1245842" d="M2.565,47.871a2.565,2.565,0,1,0,2.565,2.565A2.568,2.568,0,0,0,2.565,47.871Zm0,3.419a.855.855,0,1,1,.855-.855A.855.855,0,0,1,2.565,51.29Z"/>
          <path id="Path_1245843" data-name="Path 1245843" d="M11.363,2.815l-3.67,3.67-3.67-3.67L2.815,4.024l3.67,3.67-3.67,3.67,1.209,1.209L7.694,8.9l3.67,3.67,1.209-1.209L8.9,7.694l3.67-3.67Z"/>
          <path id="Path_1245844" data-name="Path 1245844" d="M41.887,9.9l-1.96-1.96L38.718,9.153l3.169,3.169,8.3-8.3L48.976,2.815Z"/>
        </g>
      </g>
    </g>
  </g>
</svg>
