<svg xmlns="http://www.w3.org/2000/svg" xmlns:xlink="http://www.w3.org/1999/xlink" width="108" height="108" viewBox="0 0 108 108">
  <defs>
    <filter id="Rectangle_411831" x="0" y="0" width="108" height="108" filterUnits="userSpaceOnUse">
      <feOffset dy="3" input="SourceAlpha"/>
      <feGaussianBlur stdDeviation="3" result="blur"/>
      <feFlood flood-opacity="0.161"/>
      <feComposite operator="in" in2="blur"/>
      <feComposite in="SourceGraphic"/>
    </filter>
    <clipPath id="clip-path">
      <rect id="Rectangle_430334" data-name="Rectangle 430334" width="53" height="60" transform="translate(-3315 -10265)" fill="#fff" stroke="#707070" stroke-width="1" opacity="0"/>
    </clipPath>
  </defs>
  <g id="Group_1252731" data-name="Group 1252731" transform="translate(3342.27 10286)">
    <g id="Group_1242625" data-name="Group 1242625" transform="translate(-3333.27 -10280)">
      <g id="Group_1230590" data-name="Group 1230590">
        <g transform="matrix(1, 0, 0, 1, -9, -6)" filter="url(#Rectangle_411831)">
          <g id="Rectangle_411831-2" data-name="Rectangle 411831" transform="translate(9 6)" fill="#a4e0d4" stroke="#fff" stroke-width="2">
            <path d="M5,0H58A32,32,0,0,1,90,32V85a5,5,0,0,1-5,5H32A32,32,0,0,1,0,58V5A5,5,0,0,1,5,0Z" stroke="none"/>
            <path d="M5,1H58A31,31,0,0,1,89,32V85a4,4,0,0,1-4,4H32A31,31,0,0,1,1,58V5A4,4,0,0,1,5,1Z" fill="none"/>
          </g>
        </g>
      </g>
    </g>
    <g id="Mask_Group_1099530" data-name="Mask Group 1099530" clip-path="url(#clip-path)">
      <g id="audiencia" transform="translate(-3315 -10261.5)">
        <path id="Path_1245329" data-name="Path 1245329" d="M50.9,50.9h0a4.559,4.559,0,0,1-6.428,0L36.53,42.958l6.428-6.428L50.9,44.47A4.559,4.559,0,0,1,50.9,50.9Z" fill="#6b5b85"/>
        <circle id="Ellipse_14169" data-name="Ellipse 14169" cx="6.211" cy="6.211" r="6.211" transform="translate(33.442 33.442)" fill="#f2f6fc"/>
        <g id="Group_1252784" data-name="Group 1252784">
          <path id="Path_1245330" data-name="Path 1245330" d="M39.653,7.447A22.7,22.7,0,0,0,23.55.776c-1.712,0-5.176,1.393-5.176,3.105V43.218c0,1.712,3.463,3.105,5.176,3.105a22.773,22.773,0,0,0,16.1-38.877Z" fill="#806e9c"/>
        </g>
        <path id="Path_1245331" data-name="Path 1245331" d="M20.444,43.218a3.109,3.109,0,0,1,3.105-3.105V6.987a3.105,3.105,0,1,1,0-6.211,22.773,22.773,0,0,0,0,45.547A3.109,3.109,0,0,1,20.444,43.218Z" fill="#6b5b85"/>
        <g id="Group_1252785" data-name="Group 1252785">
          <path id="Path_1245332" data-name="Path 1245332" d="M10.682,4.916A10.056,10.056,0,0,1,7.2,1.429,1.329,1.329,0,0,0,6.056.776h0a1.329,1.329,0,0,0-1.14.653A10.056,10.056,0,0,1,1.429,4.916a1.329,1.329,0,0,0-.653,1.14h0A1.329,1.329,0,0,0,1.429,7.2a10.056,10.056,0,0,1,3.487,3.487,1.329,1.329,0,0,0,1.14.653h0a1.329,1.329,0,0,0,1.14-.653A10.056,10.056,0,0,1,10.682,7.2a1.329,1.329,0,0,0,.653-1.14h0A1.329,1.329,0,0,0,10.682,4.916Z" fill="#fff04a"/>
        </g>
        <path id="Path_1245333" data-name="Path 1245333" d="M6.088,7.2a1.329,1.329,0,0,1-.653-1.14h0a1.329,1.329,0,0,1,.653-1.14,10.053,10.053,0,0,0,2.3-1.882A10.053,10.053,0,0,1,7.2,1.429a1.321,1.321,0,0,0-2.279,0A10.056,10.056,0,0,1,1.429,4.916a1.329,1.329,0,0,0-.653,1.14h0A1.329,1.329,0,0,0,1.429,7.2a10.056,10.056,0,0,1,3.487,3.487,1.329,1.329,0,0,0,1.14.653h0a1.329,1.329,0,0,0,1.14-.653,10.053,10.053,0,0,1,1.189-1.6A10.055,10.055,0,0,0,6.088,7.2Z" fill="#ffda45"/>
        <path id="Path_1245334" data-name="Path 1245334" d="M28.726,7.816c-7.955,0-15.874,7.384-15.874,17.152s11.211,11.9,11.211,11.9H33.39A16.556,16.556,0,0,0,28.726,7.816Z" fill="#87c7ff"/>
        <path id="Path_1245335" data-name="Path 1245335" d="M13.71,36.864H24.063A16.555,16.555,0,0,1,28.726,7.816,16.558,16.558,0,0,0,13.71,36.864Z" fill="#65b1fc"/>
        <path id="Path_1245336" data-name="Path 1245336" d="M23.55,40.112a16.474,16.474,0,0,0,9.84-3.248,10.537,10.537,0,0,0-19.68,0A16.474,16.474,0,0,0,23.55,40.112Z" fill="#f2f6fc"/>
        <circle id="Ellipse_14170" data-name="Ellipse 14170" cx="3.634" cy="3.634" r="3.634" transform="translate(19.916 29.741)" fill="#ffcdbe"/>
        <path id="Path_1245337" data-name="Path 1245337" d="M33.861,17.557a1.538,1.538,0,0,1-.19-.619c-.274-3.578-4.7-6.424-10.122-6.424H23.5c-4.917,1.282-7.132,9.364.745,13.921H35.233a11.891,11.891,0,0,0,.066-1.245A11.692,11.692,0,0,0,33.861,17.557Z" fill="#d79b8c"/>
        <path id="Path_1245338" data-name="Path 1245338" d="M24.245,22.017a6.226,6.226,0,0,1-.745-11.5c-5.4.017-9.8,2.856-10.072,6.423a1.538,1.538,0,0,1-.19.619A11.693,11.693,0,0,0,11.8,23.191a11.89,11.89,0,0,0,.066,1.245H24.244V22.017Z" fill="#c38778"/>
        <circle id="Ellipse_14171" data-name="Ellipse 14171" cx="2.514" cy="2.514" r="2.514" transform="translate(11.128 22.454)" fill="#ffcdbe"/>
        <circle id="Ellipse_14172" data-name="Ellipse 14172" cx="2.514" cy="2.514" r="2.514" transform="translate(30.943 22.454)" fill="#ffdecf"/>
        <path id="Path_1245339" data-name="Path 1245339" d="M20.445,19.63a7.538,7.538,0,0,0-3.2,6.132c0,4.12,3.66,7.218,9.027,7.218h0a9.538,9.538,0,0,0,6.808-9.139q0-.211-.009-.419a1.9,1.9,0,0,0-.6-1.313,4.4,4.4,0,0,1-1.269-2.3l0-.021a1.53,1.53,0,0,0-1.3-1.211,3.31,3.31,0,0,0-2.236.519,7.548,7.548,0,0,1-4.115,1.157,7.883,7.883,0,0,1-3.1-.619Z" fill="#ffeee5"/>
        <path id="Path_1245340" data-name="Path 1245340" d="M19.466,23.841a9.495,9.495,0,0,1,.979-4.211,6.608,6.608,0,0,1-1.009-.538,3.3,3.3,0,0,0-2.408-.491,1.531,1.531,0,0,0-1.216,1.2l0,.008a4.423,4.423,0,0,1-1.216,2.254,1.884,1.884,0,0,0-.565,1.255q-.012.222-.014.446a9.541,9.541,0,0,0,12.26,9.22A9.538,9.538,0,0,1,19.466,23.841Z" fill="#ffdecf"/>
        <g id="Group_1252786" data-name="Group 1252786">
          <path id="Path_1245341" data-name="Path 1245341" d="M45.67,4.916a10.056,10.056,0,0,1-3.487-3.487,1.329,1.329,0,0,0-1.14-.653h0a1.329,1.329,0,0,0-1.14.653,10.056,10.056,0,0,1-3.487,3.487,1.329,1.329,0,0,0-.653,1.14h0a1.329,1.329,0,0,0,.653,1.14A10.056,10.056,0,0,1,39.9,10.682a1.329,1.329,0,0,0,1.14.653h0a1.329,1.329,0,0,0,1.14-.653A10.056,10.056,0,0,1,45.67,7.2a1.329,1.329,0,0,0,.653-1.14h0A1.329,1.329,0,0,0,45.67,4.916Z" fill="#fff04a"/>
        </g>
        <path id="Path_1245342" data-name="Path 1245342" d="M41.076,7.2a1.329,1.329,0,0,1-.653-1.14h0a1.329,1.329,0,0,1,.653-1.14,10.053,10.053,0,0,0,2.3-1.882,10.053,10.053,0,0,1-1.189-1.6,1.321,1.321,0,0,0-2.279,0,10.056,10.056,0,0,1-3.487,3.487,1.329,1.329,0,0,0-.653,1.14h0a1.329,1.329,0,0,0,.653,1.14A10.056,10.056,0,0,1,39.9,10.682a1.329,1.329,0,0,0,1.14.653h0a1.329,1.329,0,0,0,1.14-.653,10.053,10.053,0,0,1,1.189-1.6A10.056,10.056,0,0,0,41.076,7.2Z" fill="#ffda45"/>
        <g id="Group_1252787" data-name="Group 1252787">
          <path id="Path_1245343" data-name="Path 1245343" d="M10.682,39.9A10.056,10.056,0,0,1,7.2,36.418a1.329,1.329,0,0,0-1.14-.653h0a1.329,1.329,0,0,0-1.14.653A10.056,10.056,0,0,1,1.429,39.9a1.329,1.329,0,0,0-.653,1.14h0a1.329,1.329,0,0,0,.653,1.14A10.056,10.056,0,0,1,4.916,45.67a1.329,1.329,0,0,0,1.14.653h0A1.329,1.329,0,0,0,7.2,45.67a10.056,10.056,0,0,1,3.487-3.487,1.329,1.329,0,0,0,.653-1.14h0A1.329,1.329,0,0,0,10.682,39.9Z" fill="#fff04a"/>
        </g>
        <path id="Path_1245344" data-name="Path 1245344" d="M6.088,42.184a1.329,1.329,0,0,1-.653-1.14h0a1.329,1.329,0,0,1,.653-1.14,10.053,10.053,0,0,0,2.3-1.882,10.053,10.053,0,0,1-1.189-1.6,1.321,1.321,0,0,0-2.279,0A10.056,10.056,0,0,1,1.429,39.9a1.329,1.329,0,0,0-.653,1.14h0a1.329,1.329,0,0,0,.653,1.14A10.056,10.056,0,0,1,4.916,45.67a1.329,1.329,0,0,0,1.14.653h0A1.329,1.329,0,0,0,7.2,45.67a10.053,10.053,0,0,1,1.189-1.6A10.055,10.055,0,0,0,6.088,42.184Z" fill="#ffda45"/>
        <g id="Group_1252795" data-name="Group 1252795">
          <path id="Path_1245345" data-name="Path 1245345" d="M46.005,39.577,50.9,44.47a4.559,4.559,0,0,1,0,6.428h0a4.559,4.559,0,0,1-6.428,0l-4.881-4.881" fill="none" stroke="#000" stroke-linecap="round" stroke-linejoin="round" stroke-miterlimit="10" stroke-width="1.553"/>
          <path id="Path_1245346" data-name="Path 1245346" d="M43.489,34.768a6.211,6.211,0,1,1-8.708,8.738" fill="none" stroke="#000" stroke-linecap="round" stroke-linejoin="round" stroke-miterlimit="10" stroke-width="1.553"/>
          <path id="Path_1245347" data-name="Path 1245347" d="M42.3,10.616A22.786,22.786,0,0,1,30.142,45.353" fill="none" stroke="#000" stroke-linecap="round" stroke-linejoin="round" stroke-miterlimit="10" stroke-width="1.553"/>
          <path id="Path_1245348" data-name="Path 1245348" d="M10.606,4.808a22.8,22.8,0,0,1,25.935.033" fill="none" stroke="#000" stroke-linecap="round" stroke-linejoin="round" stroke-miterlimit="10" stroke-width="1.553"/>
          <path id="Path_1245349" data-name="Path 1245349" d="M4.785,36.46a22.8,22.8,0,0,1,.023-25.855" fill="none" stroke="#000" stroke-linecap="round" stroke-linejoin="round" stroke-miterlimit="10" stroke-width="1.553"/>
          <path id="Path_1245350" data-name="Path 1245350" d="M26.6,46.119a22.769,22.769,0,0,1-15.919-3.774" fill="none" stroke="#000" stroke-linecap="round" stroke-linejoin="round" stroke-miterlimit="10" stroke-width="1.553"/>
          <circle id="Ellipse_14173" data-name="Ellipse 14173" cx="16.563" cy="16.563" r="16.563" transform="translate(6.987 6.987)" fill="none" stroke="#000" stroke-linecap="round" stroke-linejoin="round" stroke-miterlimit="10" stroke-width="1.553"/>
          <path id="Path_1245351" data-name="Path 1245351" d="M33.348,36.756a10.572,10.572,0,0,0-4.255-5.085" fill="none" stroke="#000" stroke-linecap="round" stroke-linejoin="round" stroke-miterlimit="10" stroke-width="1.553"/>
          <path id="Path_1245352" data-name="Path 1245352" d="M18.007,31.671a10.572,10.572,0,0,0-4.256,5.087" fill="none" stroke="#000" stroke-linecap="round" stroke-linejoin="round" stroke-miterlimit="10" stroke-width="1.553"/>
          <path id="Path_1245353" data-name="Path 1245353" d="M27.131,32.752a3.634,3.634,0,1,1-7.162.005" fill="none" stroke="#000" stroke-linecap="round" stroke-linejoin="round" stroke-miterlimit="10" stroke-width="1.553"/>
          <path id="Path_1245354" data-name="Path 1245354" d="M16.625,12.342a6.181,6.181,0,0,0-3.2,4.6,1.538,1.538,0,0,1-.19.619A11.694,11.694,0,0,0,11.8,23.191" fill="none" stroke="#000" stroke-linecap="round" stroke-linejoin="round" stroke-miterlimit="10" stroke-width="1.553"/>
          <path id="Path_1245355" data-name="Path 1245355" d="M35.3,23.191a11.693,11.693,0,0,0-1.437-5.634,1.538,1.538,0,0,1-.19-.619c-.274-3.578-4.7-6.424-10.122-6.424a14.659,14.659,0,0,0-3.58.435" fill="none" stroke="#000" stroke-linecap="round" stroke-linejoin="round" stroke-miterlimit="10" stroke-width="1.553"/>
          <path id="Path_1245356" data-name="Path 1245356" d="M32.911,22.514a2.515,2.515,0,1,1-.388,4.791" fill="none" stroke="#000" stroke-linecap="round" stroke-linejoin="round" stroke-miterlimit="10" stroke-width="1.553"/>
          <path id="Path_1245357" data-name="Path 1245357" d="M14.188,22.514a2.515,2.515,0,1,0,.388,4.791" fill="none" stroke="#000" stroke-linecap="round" stroke-linejoin="round" stroke-miterlimit="10" stroke-width="1.553"/>
          <path id="Path_1245358" data-name="Path 1245358" d="M31.2,19.806l0-.021a1.53,1.53,0,0,0-1.3-1.211,3.31,3.31,0,0,0-2.236.519,7.893,7.893,0,0,1-8.229,0,3.3,3.3,0,0,0-2.408-.491,1.531,1.531,0,0,0-1.216,1.2l0,.008a4.423,4.423,0,0,1-1.216,2.254,1.884,1.884,0,0,0-.565,1.255q-.012.222-.014.446a9.534,9.534,0,1,0,19.069.081q0-.211-.009-.419a1.9,1.9,0,0,0-.6-1.313A4.4,4.4,0,0,1,31.2,19.806Z" fill="none" stroke="#000" stroke-linecap="round" stroke-linejoin="round" stroke-miterlimit="10" stroke-width="1.553"/>
          <g id="Group_1252788" data-name="Group 1252788">
            <line id="Line_573" data-name="Line 573" y2="0.994" transform="translate(18.374 24.176)" fill="none" stroke="#000" stroke-linecap="round" stroke-linejoin="round" stroke-miterlimit="10" stroke-width="1.553"/>
            <line id="Line_574" data-name="Line 574" y2="0.994" transform="translate(28.726 24.176)" fill="none" stroke="#000" stroke-linecap="round" stroke-linejoin="round" stroke-miterlimit="10" stroke-width="1.553"/>
            <path id="Path_1245359" data-name="Path 1245359" d="M22.185,25.14a1.809,1.809,0,0,0,2.729,0" fill="none" stroke="#000" stroke-linecap="round" stroke-linejoin="round" stroke-miterlimit="10" stroke-width="1.553"/>
          </g>
          <g id="Group_1252790" data-name="Group 1252790">
            <g id="Group_1252789" data-name="Group 1252789">
              <path id="Path_1245360" data-name="Path 1245360" d="M45.67,4.916a10.056,10.056,0,0,1-3.487-3.487,1.329,1.329,0,0,0-1.14-.653h0a1.329,1.329,0,0,0-1.14.653,10.056,10.056,0,0,1-3.487,3.487,1.329,1.329,0,0,0-.653,1.14h0a1.329,1.329,0,0,0,.653,1.14A10.056,10.056,0,0,1,39.9,10.682a1.329,1.329,0,0,0,1.14.653h0a1.329,1.329,0,0,0,1.14-.653A10.056,10.056,0,0,1,45.67,7.2a1.329,1.329,0,0,0,.653-1.14h0A1.329,1.329,0,0,0,45.67,4.916Z" fill="none" stroke="#000" stroke-linecap="round" stroke-linejoin="round" stroke-miterlimit="10" stroke-width="1.553"/>
            </g>
          </g>
          <g id="Group_1252792" data-name="Group 1252792">
            <g id="Group_1252791" data-name="Group 1252791">
              <path id="Path_1245361" data-name="Path 1245361" d="M10.682,39.9A10.056,10.056,0,0,1,7.2,36.418a1.329,1.329,0,0,0-1.14-.653h0a1.329,1.329,0,0,0-1.14.653A10.056,10.056,0,0,1,1.429,39.9a1.329,1.329,0,0,0-.653,1.14h0a1.329,1.329,0,0,0,.653,1.14A10.056,10.056,0,0,1,4.916,45.67a1.329,1.329,0,0,0,1.14.653h0A1.329,1.329,0,0,0,7.2,45.67a10.056,10.056,0,0,1,3.487-3.487,1.329,1.329,0,0,0,.653-1.14h0A1.329,1.329,0,0,0,10.682,39.9Z" fill="none" stroke="#000" stroke-linecap="round" stroke-linejoin="round" stroke-miterlimit="10" stroke-width="1.553"/>
            </g>
          </g>
          <g id="Group_1252794" data-name="Group 1252794">
            <g id="Group_1252793" data-name="Group 1252793">
              <path id="Path_1245362" data-name="Path 1245362" d="M10.682,4.916A10.056,10.056,0,0,1,7.2,1.429,1.329,1.329,0,0,0,6.056.776h0a1.329,1.329,0,0,0-1.14.653A10.056,10.056,0,0,1,1.429,4.916a1.329,1.329,0,0,0-.653,1.14h0A1.329,1.329,0,0,0,1.429,7.2a10.056,10.056,0,0,1,3.487,3.487,1.329,1.329,0,0,0,1.14.653h0a1.329,1.329,0,0,0,1.14-.653A10.056,10.056,0,0,1,10.682,7.2a1.329,1.329,0,0,0,.653-1.14h0A1.329,1.329,0,0,0,10.682,4.916Z" fill="none" stroke="#000" stroke-linecap="round" stroke-linejoin="round" stroke-miterlimit="10" stroke-width="1.553"/>
            </g>
          </g>
        </g>
      </g>
    </g>
  </g>
</svg>
