<svg xmlns="http://www.w3.org/2000/svg" xmlns:xlink="http://www.w3.org/1999/xlink" width="108" height="108" viewBox="0 0 108 108">
  <defs>
    <filter id="Rectangle_411831" x="0" y="0" width="108" height="108" filterUnits="userSpaceOnUse">
      <feOffset dy="3" input="SourceAlpha"/>
      <feGaussianBlur stdDeviation="3" result="blur"/>
      <feFlood flood-opacity="0.161"/>
      <feComposite operator="in" in2="blur"/>
      <feComposite in="SourceGraphic"/>
    </filter>
    <clipPath id="clip-path">
      <rect id="Rectangle_430334" data-name="Rectangle 430334" width="53" height="60" transform="translate(18.27 15)" fill="#fff" stroke="#707070" stroke-width="1" opacity="0"/>
    </clipPath>
  </defs>
  <g id="Group_1243943" data-name="Group 1243943" transform="translate(9 6)">
    <g id="Group_1242625" data-name="Group 1242625">
      <g id="Group_1230590" data-name="Group 1230590">
        <g transform="matrix(1, 0, 0, 1, -9, -6)" filter="url(#Rectangle_411831)">
          <g id="Rectangle_411831-2" data-name="Rectangle 411831" transform="translate(9 6)" fill="#a4e0d4" stroke="#fff" stroke-width="2">
            <path d="M5,0H58A32,32,0,0,1,90,32V85a5,5,0,0,1-5,5H32A32,32,0,0,1,0,58V5A5,5,0,0,1,5,0Z" stroke="none"/>
            <path d="M5,1H58A31,31,0,0,1,89,32V85a4,4,0,0,1-4,4H32A31,31,0,0,1,1,58V5A4,4,0,0,1,5,1Z" fill="none"/>
          </g>
        </g>
      </g>
    </g>
    <g id="Mask_Group_1099564" data-name="Mask Group 1099564" clip-path="url(#clip-path)">
      <g id="participacion_1_" data-name="participacion (1)" transform="translate(14.768 15)">
        <path id="Path_1245911" data-name="Path 1245911" d="M50.152,59.121H39.228a.965.965,0,0,1-.965-.965V29.982a.965.965,0,0,1,.965-.965H50.152a.965.965,0,0,1,.965.965V58.156A.965.965,0,0,1,50.152,59.121Z" fill="#6ce79a"/>
        <path id="Path_1245912" data-name="Path 1245912" d="M45.193,59.121h4.958a.965.965,0,0,0,.965-.965V29.982a.965.965,0,0,0-.965-.965H48.693C48.6,32.616,48.043,53.853,45.193,59.121Z" fill="#00d8a2"/>
        <path id="Path_1245913" data-name="Path 1245913" d="M50.152,29.017H39.228a.965.965,0,0,0-.965.965V58.156a.965.965,0,0,0,.965.965H50.152a.965.965,0,0,0,.965-.965V29.982A.965.965,0,0,0,50.152,29.017Z" fill="none" stroke="#000" stroke-linecap="round" stroke-linejoin="round" stroke-miterlimit="10" stroke-width="1.758"/>
        <path id="Path_1245914" data-name="Path 1245914" d="M37.665,25.443h0a3.6,3.6,0,0,1,1.466,1.435h0l7.01.8,3.727-.8a16.43,16.43,0,0,1,.643-3.146l1.728-5.585,1.685-6.029a1.721,1.721,0,0,0-1.658-2.185h-.005a1.721,1.721,0,0,0-1.618,1.133L48.994,15.6l1.132-7.719a1.721,1.721,0,1,0-3.406-.5L45.514,15.6V6.116a1.721,1.721,0,0,0-1.721-1.721h-.037a1.721,1.721,0,0,0-1.721,1.721V15.6L40.848,8.3a1.721,1.721,0,0,0-1.7-1.445H39.1A1.721,1.721,0,0,0,37.4,8.808l1.241,9.123a3.363,3.363,0,0,1-.614,2.433h0a.524.524,0,0,1-.884-.058l-1.273-2.338a1.859,1.859,0,0,0-2.574-.714h0a1.859,1.859,0,0,0-.616,2.618l1.642,2.521A9.01,9.01,0,0,0,37.665,25.443Z" fill="#ffd3a3"/>
        <path id="Path_1245915" data-name="Path 1245915" d="M39.131,26.878a3.6,3.6,0,0,1,.457,1.727l.016.411H49.777v-.428a16.435,16.435,0,0,1,.091-1.711H39.131Z" fill="#ffbe84"/>
        <path id="Path_1245916" data-name="Path 1245916" d="M51.766,19.677l.474-1.531,1.685-6.029a1.721,1.721,0,0,0-1.658-2.185h-.005a1.721,1.721,0,0,0-1.618,1.133L48.994,15.6l1.132-7.719a1.721,1.721,0,1,0-3.406-.5L45.514,15.6V6.116a1.721,1.721,0,0,0-1.721-1.721h-.037a1.721,1.721,0,0,0-1.721,1.721V15.6L40.848,8.3a1.721,1.721,0,0,0-1.7-1.445H39.1A1.721,1.721,0,0,0,37.4,8.808l1.241,9.123a3.363,3.363,0,0,1-.614,2.433.524.524,0,0,1-.884-.058l-1.273-2.338a1.859,1.859,0,1,0-3.19,1.9l1.642,2.521a9.01,9.01,0,0,0,3.345,3.05h0a3.605,3.605,0,0,1,1.923,3.163l.016.411H49.777v-.428a16.432,16.432,0,0,1,.734-4.857l.245-.79" fill="none" stroke="#000" stroke-linecap="round" stroke-linejoin="round" stroke-miterlimit="10" stroke-width="1.758"/>
        <path id="Path_1245917" data-name="Path 1245917" d="M23.787,59.121H12.864a.965.965,0,0,1-.965-.965V26.466a.965.965,0,0,1,.965-.965H23.787a.965.965,0,0,1,.965.965V58.156A.965.965,0,0,1,23.787,59.121Z" fill="#ffab56"/>
        <path id="Path_1245918" data-name="Path 1245918" d="M18.829,59.121h4.958a.965.965,0,0,0,.965-.965V26.466a.965.965,0,0,0-.965-.965H22.329C22.235,29.1,21.678,53.853,18.829,59.121Z" fill="#ff982a"/>
        <path id="Path_1245919" data-name="Path 1245919" d="M11.9,34.864V58.156a.965.965,0,0,0,.965.965H23.787a.965.965,0,0,0,.965-.965V26.466a.965.965,0,0,0-.965-.965H12.864a.965.965,0,0,0-.965.965v5" fill="none" stroke="#000" stroke-linecap="round" stroke-linejoin="round" stroke-miterlimit="10" stroke-width="1.758"/>
        <path id="Path_1245920" data-name="Path 1245920" d="M11.3,21.927h0a3.6,3.6,0,0,1,1.466,1.435h0l7.01.8,3.727-.8a16.43,16.43,0,0,1,.643-3.146l1.728-5.585L27.559,8.6A1.721,1.721,0,0,0,25.9,6.417H25.9a1.721,1.721,0,0,0-1.618,1.133l-1.65,4.537,1.132-7.719a1.721,1.721,0,1,0-3.406-.5l-1.206,8.219V2.6A1.721,1.721,0,0,0,17.428.879h-.037A1.721,1.721,0,0,0,15.67,2.6v9.487l-1.187-7.3a1.721,1.721,0,0,0-1.7-1.445H12.74a1.721,1.721,0,0,0-1.706,1.953l1.241,9.123a3.363,3.363,0,0,1-.614,2.433h0a.524.524,0,0,1-.884-.058L9.5,14.453a1.859,1.859,0,0,0-2.574-.714h0a1.859,1.859,0,0,0-.616,2.618l1.642,2.521A9.009,9.009,0,0,0,11.3,21.927Z" fill="#ffe6c2"/>
        <path id="Path_1245921" data-name="Path 1245921" d="M12.766,23.363a3.6,3.6,0,0,1,.457,1.727l.016.411H23.412v-.428a16.435,16.435,0,0,1,.091-1.711H12.766Z" fill="#ffd3a3"/>
        <path id="Path_1245922" data-name="Path 1245922" d="M25.875,14.631,27.559,8.6A1.721,1.721,0,0,0,25.9,6.418H25.9a1.721,1.721,0,0,0-1.618,1.133l-1.649,4.537,1.132-7.719a1.721,1.721,0,0,0-1.7-1.971h0a1.721,1.721,0,0,0-1.7,1.472l-1.206,8.219V2.6A1.721,1.721,0,0,0,17.428.879h-.037A1.721,1.721,0,0,0,15.67,2.6v9.487l-1.187-7.3a1.721,1.721,0,0,0-1.7-1.445H12.74a1.721,1.721,0,0,0-1.706,1.953l1.241,9.123a3.363,3.363,0,0,1-.614,2.433h0a.524.524,0,0,1-.884-.058L9.5,14.453a1.859,1.859,0,0,0-2.574-.714h0a1.859,1.859,0,0,0-.616,2.618l1.642,2.521a9.009,9.009,0,0,0,3.345,3.05h0a3.605,3.605,0,0,1,1.923,3.163l.016.411H23.412v-.428a16.431,16.431,0,0,1,.734-4.857Z" fill="none" stroke="#000" stroke-linecap="round" stroke-linejoin="round" stroke-miterlimit="10" stroke-width="1.758"/>
        <path id="Path_1245923" data-name="Path 1245923" d="M40.654,59.121H29.73a.965.965,0,0,1-.965-.965V47.113a.965.965,0,0,1,.965-.965H40.654a.965.965,0,0,1,.965.965V58.156A.965.965,0,0,1,40.654,59.121Z" fill="#88bde7"/>
        <path id="Path_1245924" data-name="Path 1245924" d="M35.7,59.121h4.958a.965.965,0,0,0,.965-.965V47.113a.965.965,0,0,0-.965-.965H39.2A27.007,27.007,0,0,1,35.7,59.121Z" fill="#5faee2"/>
        <path id="Path_1245925" data-name="Path 1245925" d="M28.167,42.574h0a3.6,3.6,0,0,1,1.466,1.435h0l7.01.8,3.727-.8a16.43,16.43,0,0,1,.643-3.146l1.728-5.585,1.685-6.029a1.721,1.721,0,0,0-1.658-2.185h-.005A1.721,1.721,0,0,0,41.145,28.2L39.5,32.734l1.132-7.719a1.721,1.721,0,1,0-3.406-.5l-1.206,8.219V23.246a1.721,1.721,0,0,0-1.721-1.721h-.037a1.721,1.721,0,0,0-1.721,1.721v9.487l-1.187-7.3a1.721,1.721,0,0,0-1.7-1.445h-.044A1.721,1.721,0,0,0,27.9,25.938l1.241,9.123a3.363,3.363,0,0,1-.614,2.433h0a.524.524,0,0,1-.884-.058L26.37,35.1a1.859,1.859,0,0,0-2.574-.714h0A1.859,1.859,0,0,0,23.18,37l1.642,2.521A9.011,9.011,0,0,0,28.167,42.574Z" fill="#ffe6c2"/>
        <path id="Path_1245926" data-name="Path 1245926" d="M29.633,44.009a3.6,3.6,0,0,1,.457,1.727l.016.411H40.279V45.72a16.436,16.436,0,0,1,.091-1.711H29.633Z" fill="#ffd3a3"/>
        <path id="Path_1245927" data-name="Path 1245927" d="M42.741,35.277l1.685-6.029a1.721,1.721,0,0,0-1.658-2.185h-.005A1.721,1.721,0,0,0,41.145,28.2L39.5,32.734l1.132-7.719a1.721,1.721,0,0,0-1.7-1.971h0a1.721,1.721,0,0,0-1.7,1.472l-1.206,8.219V23.246a1.721,1.721,0,0,0-1.721-1.721h-.037a1.721,1.721,0,0,0-1.721,1.721v9.487l-1.187-7.3a1.721,1.721,0,0,0-1.7-1.445h-.044A1.721,1.721,0,0,0,27.9,25.938l1.241,9.123a3.363,3.363,0,0,1-.614,2.433h0a.524.524,0,0,1-.884-.058L26.37,35.1a1.859,1.859,0,0,0-2.574-.714h0A1.859,1.859,0,0,0,23.18,37l1.642,2.521a9.009,9.009,0,0,0,3.345,3.05h0a3.605,3.605,0,0,1,1.923,3.163l.016.411H40.279v-.428a16.431,16.431,0,0,1,.734-4.857Z" fill="none" stroke="#000" stroke-linecap="round" stroke-linejoin="round" stroke-miterlimit="10" stroke-width="1.758"/>
        <path id="Path_1245928" data-name="Path 1245928" d="M35.383,59.121h5.27a.965.965,0,0,0,.965-.965V47.113a.965.965,0,0,0-.965-.965H29.73a.965.965,0,0,0-.965.965V58.156a.965.965,0,0,0,.965.965h2.255" fill="none" stroke="#000" stroke-linecap="round" stroke-linejoin="round" stroke-miterlimit="10" stroke-width="1.758"/>
      </g>
    </g>
  </g>
</svg>
