<svg xmlns="http://www.w3.org/2000/svg" xmlns:xlink="http://www.w3.org/1999/xlink" width="108" height="108" viewBox="0 0 108 108">
  <defs>
    <filter id="Rectangle_411831" x="0" y="0" width="108" height="108" filterUnits="userSpaceOnUse">
      <feOffset dy="3" input="SourceAlpha"/>
      <feGaussianBlur stdDeviation="3" result="blur"/>
      <feFlood flood-opacity="0.161"/>
      <feComposite operator="in" in2="blur"/>
      <feComposite in="SourceGraphic"/>
    </filter>
    <clipPath id="clip-path">
      <rect id="Rectangle_430334" data-name="Rectangle 430334" width="53" height="60" transform="translate(-3315 -10265)" fill="#fff" stroke="#707070" stroke-width="1" opacity="0"/>
    </clipPath>
  </defs>
  <g id="Group_1260395" data-name="Group 1260395" transform="translate(3342.27 10286)">
    <g id="Group_1242625" data-name="Group 1242625" transform="translate(-3333.27 -10280)">
      <g id="Group_1230590" data-name="Group 1230590">
        <g transform="matrix(1, 0, 0, 1, -9, -6)" filter="url(#Rectangle_411831)">
          <g id="Rectangle_411831-2" data-name="Rectangle 411831" transform="translate(9 6)" fill="#a4e0d4" stroke="#fff" stroke-width="2">
            <path d="M5,0H58A32,32,0,0,1,90,32V85a5,5,0,0,1-5,5H32A32,32,0,0,1,0,58V5A5,5,0,0,1,5,0Z" stroke="none"/>
            <path d="M5,1H58A31,31,0,0,1,89,32V85a4,4,0,0,1-4,4H32A31,31,0,0,1,1,58V5A4,4,0,0,1,5,1Z" fill="none"/>
          </g>
        </g>
      </g>
    </g>
    <g id="Mask_Group_1099566" data-name="Mask Group 1099566" clip-path="url(#clip-path)">
      <g id="FILLED_OUTLINE" transform="translate(-3316.981 -10263.378)">
        <circle id="Ellipse_14227" data-name="Ellipse 14227" cx="9.755" cy="9.755" r="9.755" transform="translate(34.585 2.66)" fill="#008cb7"/>
        <circle id="Ellipse_14228" data-name="Ellipse 14228" cx="7.094" cy="7.094" r="7.094" transform="translate(15.962 34.585)" fill="#8bb276"/>
        <path id="Path_1245949" data-name="Path 1245949" d="M11.777,44.378A23.08,23.08,0,0,1,7.24,19.155l1.625.71a21.306,21.306,0,0,0,4.189,23.283Z" fill="#62b8d3"/>
        <path id="Path_1245950" data-name="Path 1245950" d="M50.582,4.919,49.034,6.467l1.254,1.254,1.548-1.548A9.812,9.812,0,0,0,50.582,4.919Z" fill="#00779c"/>
        <path id="Path_1245951" data-name="Path 1245951" d="M51.434,13.3h2.62c.026-.292.041-.588.041-.887s-.014-.595-.041-.887h-2.62Z" fill="#00779c"/>
        <path id="Path_1245952" data-name="Path 1245952" d="M51.836,18.657l-1.548-1.548-1.254,1.254,1.548,1.548a9.814,9.814,0,0,0,1.254-1.254Z" fill="#00779c"/>
        <path id="Path_1245953" data-name="Path 1245953" d="M43.453,22.129c.292.026.588.041.887.041s.595-.014.887-.041V19.51H43.453Z" fill="#00779c"/>
        <path id="Path_1245954" data-name="Path 1245954" d="M36.844,18.657A9.813,9.813,0,0,0,38.1,19.911l1.548-1.548-1.254-1.254Z" fill="#00779c"/>
        <path id="Path_1245955" data-name="Path 1245955" d="M34.626,13.3h2.62V11.528h-2.62c-.026.292-.041.588-.041.887S34.6,13.01,34.626,13.3Z" fill="#00779c"/>
        <path id="Path_1245956" data-name="Path 1245956" d="M36.844,6.173l1.548,1.548,1.254-1.254L38.1,4.919a9.812,9.812,0,0,0-1.254,1.254Z" fill="#00779c"/>
        <path id="Path_1245957" data-name="Path 1245957" d="M45.227,2.7c-.292-.026-.588-.041-.887-.041s-.595.014-.887.041v2.62h1.774Z" fill="#00779c"/>
        <path id="Path_1245958" data-name="Path 1245958" d="M42.307,15.7l-1.254-1.254,2.4-2.4V7.094h1.774v5.321a.887.887,0,0,1-.26.627Z" fill="#62b8d3"/>
        <rect id="Rectangle_433882" data-name="Rectangle 433882" width="5.321" height="8.868" transform="translate(15.076 7.981)" fill="#008cb7"/>
        <path id="Path_1245959" data-name="Path 1245959" d="M11.528,8.868,8.868,4.434H7.94A1.774,1.774,0,0,0,6.294,6.866l.8,2H4.642a1.774,1.774,0,0,0-1.763,1.969l.493,4.434a1.774,1.774,0,0,0,1.763,1.578H9.02a1.774,1.774,0,0,0,1.254-.519l1.254-1.254h3.547V8.868Z" fill="#ffcbb1"/>
        <path id="Path_1245960" data-name="Path 1245960" d="M33.7,44.34l-2.66-2.66H24.83a3.547,3.547,0,0,0,3.547,3.547h1.774L26.6,48.774,16.339,45.616a1.774,1.774,0,0,0-2,.711l-1.04,1.56,15.076,6.208,5.321-2.66h8.868V44.34Z" fill="#ffcbb1"/>
        <path id="Path_1245961" data-name="Path 1245961" d="M35.472,25.763V23.9l-1.782-.427L33.1,22.037l.961-1.568-1.319-1.318-1.568.961-1.433-.594-.427-1.782H27.445l-.427,1.782-1.433.594-1.568-.961L22.7,20.469l.961,1.568-.594,1.433-1.782.427v1.865l1.782.427.594,1.433L22.7,29.191l1.319,1.319,1.568-.961,1.433.594.427,1.782H29.31l.427-1.782,1.433-.594,1.568.961,1.319-1.319L33.1,27.623l.594-1.433Zm-7.094.841a1.774,1.774,0,1,1,1.774-1.774A1.774,1.774,0,0,1,28.378,26.6Z" fill="#008cb7"/>
        <path id="Path_1245962" data-name="Path 1245962" d="M45.283,44.056l-1.3-1.206a21.213,21.213,0,0,0,5.678-14.472,21.46,21.46,0,0,0-.427-4.263l1.739-.348a23.223,23.223,0,0,1,.461,4.61,22.982,22.982,0,0,1-6.151,15.679Z" fill="#62b8d3"/>
        <path id="Path_1245963" data-name="Path 1245963" d="M23.269,7.711l-.424-1.722a23.252,23.252,0,0,1,10.143-.207L32.635,7.52a21.479,21.479,0,0,0-9.366.191Z" fill="#62b8d3"/>
        <path id="Path_1245964" data-name="Path 1245964" d="M12.549,38.193a18.639,18.639,0,0,1,0-19.631l1.506.936a16.865,16.865,0,0,0,0,17.759Z" fill="#62b8d3"/>
        <path id="Path_1245965" data-name="Path 1245965" d="M41.414,41.677,40.172,40.41a16.724,16.724,0,0,0,5.055-12.033,16.978,16.978,0,0,0-.337-3.371l1.738-.353A18.755,18.755,0,0,1,47,28.378a18.484,18.484,0,0,1-5.587,13.3Z" fill="#62b8d3"/>
        <path id="Path_1245966" data-name="Path 1245966" d="M23.322,12.3l-.531-1.692a18.754,18.754,0,0,1,9.31-.48l-.353,1.738a16.981,16.981,0,0,0-8.426.434Z" fill="#62b8d3"/>
        <path id="Path_1245967" data-name="Path 1245967" d="M19.731,44.613a4.434,4.434,0,0,1,5.543-6.773l-.888,1.535a2.661,2.661,0,0,0-3.325,4.065Z" fill="#abc79b"/>
        <path id="Path_1245968" data-name="Path 1245968" d="M7.094,28.378a21.133,21.133,0,0,1,1.771-8.513l-1.625-.71a23.08,23.08,0,0,0,4.537,25.224l1.277-1.231a21.178,21.178,0,0,1-5.959-14.77Z"/>
        <path id="Path_1245969" data-name="Path 1245969" d="M44.34,1.774A10.642,10.642,0,1,0,54.982,12.415,10.642,10.642,0,0,0,44.34,1.774ZM51.2,18.024l-.915-.915-1.254,1.254.915.915a8.827,8.827,0,0,1-4.722,1.961V19.51H43.453v1.729a8.827,8.827,0,0,1-4.722-1.961l.915-.915-1.254-1.254-.915.915A8.827,8.827,0,0,1,35.516,13.3h1.729V11.528H35.516a8.827,8.827,0,0,1,1.961-4.722l.915.915,1.254-1.254-.915-.915a8.827,8.827,0,0,1,4.722-1.961V5.321h1.774V3.592a8.827,8.827,0,0,1,4.722,1.961l-.915.915,1.254,1.254.915-.915a8.827,8.827,0,0,1,1.961,4.722H51.434V13.3h1.729a8.827,8.827,0,0,1-1.96,4.722Z"/>
        <path id="Path_1245970" data-name="Path 1245970" d="M43.453,12.048l-2.4,2.4L42.307,15.7l2.66-2.66a.887.887,0,0,0,.26-.627V7.094H43.453Z"/>
        <path id="Path_1245971" data-name="Path 1245971" d="M10.9,16.957l.994-.994h2.293v.887a.887.887,0,0,0,.887.887H20.4a.887.887,0,0,0,.887-.887V7.981a.887.887,0,0,0-.887-.887H15.076a.887.887,0,0,0-.887.887H12.03l-2.4-4a.887.887,0,0,0-.76-.431H7.94A2.66,2.66,0,0,0,5.47,7.2l.314.786H4.642A2.66,2.66,0,0,0,2,10.935l.493,4.434a2.658,2.658,0,0,0,2.644,2.367H9.02a2.643,2.643,0,0,0,1.881-.779Zm5.061-8.089H19.51v7.094H15.962ZM4.253,15.174,3.761,10.74a.887.887,0,0,1,.881-.985H7.094a.887.887,0,0,0,.823-1.216l-.8-2A.887.887,0,0,1,7.94,5.321h.425l2.4,4a.887.887,0,0,0,.76.431h2.66v4.434h-2.66a.887.887,0,0,0-.627.26L9.647,15.7a.881.881,0,0,1-.627.26H5.135a.886.886,0,0,1-.881-.789Z"/>
        <path id="Path_1245972" data-name="Path 1245972" d="M31.665,41.052a.887.887,0,0,0-.627-.26h-.05A7.98,7.98,0,1,0,15.655,44.66a2.675,2.675,0,0,0-2.05,1.175l-1.04,1.56a.887.887,0,0,0,.4,1.312L28.04,54.915a.887.887,0,0,0,.734-.027l5.134-2.567h8.659V50.548H33.7a.886.886,0,0,0-.4.094l-4.96,2.48-13.7-5.642.44-.66a.892.892,0,0,1,1-.356l10.265,3.158a.886.886,0,0,0,.888-.221l3.547-3.547a.887.887,0,0,0-.627-1.514H28.378a2.665,2.665,0,0,1-2.508-1.774h4.8l2.4,2.4a.887.887,0,0,0,.627.26h8.868V43.453h-8.5Zm-6.835-.26a.887.887,0,0,0-.887.887,4.44,4.44,0,0,0,4.081,4.42l-1.67,1.67-8.427-2.593a6.132,6.132,0,0,1-1.078-3.5A6.207,6.207,0,0,1,29.2,40.793Z"/>
        <path id="Path_1245973" data-name="Path 1245973" d="M22.667,22.115l-.248.6-1.342.322a.887.887,0,0,0-.68.862v1.865a.887.887,0,0,0,.68.862l1.342.322.248.6-.725,1.183a.887.887,0,0,0,.129,1.09l1.319,1.319a.887.887,0,0,0,1.09.129l1.183-.725.6.248.322,1.342a.887.887,0,0,0,.862.68H29.31a.887.887,0,0,0,.862-.68l.322-1.342.6-.248,1.183.725a.887.887,0,0,0,1.09-.129l1.319-1.319a.887.887,0,0,0,.129-1.09l-.725-1.183.248-.6,1.342-.322a.887.887,0,0,0,.68-.862V23.9a.887.887,0,0,0-.68-.862l-1.342-.322-.248-.6.725-1.183a.887.887,0,0,0-.129-1.09l-1.319-1.318a.887.887,0,0,0-1.09-.129l-1.183.725-.6-.248-.322-1.342a.887.887,0,0,0-.862-.68H27.445a.887.887,0,0,0-.862.68l-.322,1.342-.6.248-1.183-.725a.887.887,0,0,0-1.09.129l-1.318,1.319a.887.887,0,0,0-.129,1.09Zm1.218,1.695.594-1.433a.887.887,0,0,0-.063-.8l-.6-.972.33-.33.972.6a.887.887,0,0,0,.8.063l1.433-.594a.887.887,0,0,0,.523-.612l.264-1.1h.466l.264,1.1a.887.887,0,0,0,.523.612l1.433.594a.887.887,0,0,0,.8-.063l.972-.6.33.33-.6.972a.887.887,0,0,0-.063.8l.594,1.433a.887.887,0,0,0,.612.523l1.1.264v.466l-1.1.264a.887.887,0,0,0-.612.523l-.594,1.433a.887.887,0,0,0,.063.8l.6.972-.33.33-.972-.6a.887.887,0,0,0-.8-.063l-1.433.594a.887.887,0,0,0-.523.612l-.264,1.1h-.466l-.264-1.1a.887.887,0,0,0-.523-.612l-1.433-.594a.887.887,0,0,0-.8.063l-.972.6-.33-.33.6-.972a.887.887,0,0,0,.063-.8l-.594-1.433a.887.887,0,0,0-.612-.523l-1.1-.264V24.6l1.1-.264a.887.887,0,0,0,.612-.523Z"/>
        <path id="Path_1245974" data-name="Path 1245974" d="M28.378,27.491a2.66,2.66,0,1,0-2.66-2.66A2.66,2.66,0,0,0,28.378,27.491Zm0-3.547a.887.887,0,1,1-.887.887.887.887,0,0,1,.887-.887Z"/>
        <path id="Path_1245975" data-name="Path 1245975" d="M49.235,24.12a21.448,21.448,0,0,1,.426,4.258A21.213,21.213,0,0,1,43.983,42.85l1.3,1.206a22.982,22.982,0,0,0,6.151-15.679,23.234,23.234,0,0,0-.462-4.615Z"/>
        <path id="Path_1245976" data-name="Path 1245976" d="M28.378,7.094a21.46,21.46,0,0,1,4.263.427l.348-1.739a23.252,23.252,0,0,0-10.143.207l.424,1.722A21.38,21.38,0,0,1,28.378,7.094Z"/>
        <path id="Path_1245977" data-name="Path 1245977" d="M12.549,18.562a18.639,18.639,0,0,0,0,19.631l1.506-.936a16.865,16.865,0,0,1,0-17.759Z"/>
        <path id="Path_1245978" data-name="Path 1245978" d="M41.414,41.677A18.484,18.484,0,0,0,47,28.378a18.765,18.765,0,0,0-.373-3.728l-1.737.357a16.978,16.978,0,0,1,.337,3.371A16.724,16.724,0,0,1,40.172,40.41Z"/>
        <path id="Path_1245979" data-name="Path 1245979" d="M28.378,11.528a16.978,16.978,0,0,1,3.371.337l.353-1.738a18.754,18.754,0,0,0-9.31.48l.531,1.692a16.85,16.85,0,0,1,5.055-.771Z"/>
        <path id="Path_1245980" data-name="Path 1245980" d="M18.623,41.68a4.429,4.429,0,0,0,1.109,2.933l1.33-1.174a2.661,2.661,0,0,1,3.325-4.065l.888-1.535a4.435,4.435,0,0,0-6.652,3.84Z"/>
      </g>
    </g>
  </g>
</svg>
