<svg xmlns="http://www.w3.org/2000/svg" xmlns:xlink="http://www.w3.org/1999/xlink" width="108" height="108" viewBox="0 0 108 108">
  <defs>
    <filter id="Rectangle_411831" x="0" y="0" width="108" height="108" filterUnits="userSpaceOnUse">
      <feOffset dy="3" input="SourceAlpha"/>
      <feGaussianBlur stdDeviation="3" result="blur"/>
      <feFlood flood-opacity="0.161"/>
      <feComposite operator="in" in2="blur"/>
      <feComposite in="SourceGraphic"/>
    </filter>
    <clipPath id="clip-path">
      <rect id="Rectangle_430334" data-name="Rectangle 430334" width="53" height="60" transform="translate(-3315 -10265)" fill="#fff" stroke="#707070" stroke-width="1" opacity="0"/>
    </clipPath>
  </defs>
  <g id="Group_1253963" data-name="Group 1253963" transform="translate(3342.27 10286)">
    <g id="Group_1242625" data-name="Group 1242625" transform="translate(-3333.27 -10280)">
      <g id="Group_1230590" data-name="Group 1230590">
        <g transform="matrix(1, 0, 0, 1, -9, -6)" filter="url(#Rectangle_411831)">
          <g id="Rectangle_411831-2" data-name="Rectangle 411831" transform="translate(9 6)" fill="#a4e0d4" stroke="#fff" stroke-width="2">
            <path d="M5,0H58A32,32,0,0,1,90,32V85a5,5,0,0,1-5,5H32A32,32,0,0,1,0,58V5A5,5,0,0,1,5,0Z" stroke="none"/>
            <path d="M5,1H58A31,31,0,0,1,89,32V85a4,4,0,0,1-4,4H32A31,31,0,0,1,1,58V5A4,4,0,0,1,5,1Z" fill="none"/>
          </g>
        </g>
      </g>
    </g>
    <g id="Mask_Group_1099533" data-name="Mask Group 1099533" clip-path="url(#clip-path)">
      <g id="Layer_50" data-name="Layer 50" transform="translate(-3315.001 -10262.577)">
        <path id="Path_1245390" data-name="Path 1245390" d="M31.312,42.976,31.3,32.546l-4.748,0,0,3.273-10.669.011A2.063,2.063,0,0,0,13.827,37.9l.005,5.093a5.008,5.008,0,0,0,5.013,5l7.462-.008a5.009,5.009,0,0,0,5-5.013Z" fill="#0a9bd8"/>
        <path id="Path_1245391" data-name="Path 1245391" d="M18.84,48.592a5.6,5.6,0,0,1-5.6-5.6L13.232,37.9a2.662,2.662,0,0,1,2.656-2.662l10.074-.01,0-2.678a.6.6,0,0,1,.594-.6l4.748,0h0a.6.6,0,0,1,.6.595l.011,10.43a5.6,5.6,0,0,1-5.6,5.609l-7.463.008Zm8.31-15.447,0,2.678a.6.6,0,0,1-.595.6L15.89,36.43a1.471,1.471,0,0,0-1.467,1.47l.005,5.093A4.413,4.413,0,0,0,18.84,47.4h0l7.462-.008a4.414,4.414,0,0,0,4.41-4.418l-.01-9.835Z"/>
        <path id="Path_1245392" data-name="Path 1245392" d="M26.567,48.309a3.522,3.522,0,0,0-3.523-3.38h-.939a3.521,3.521,0,0,0-3.516,3.388Z" fill="#efcdb1"/>
        <path id="Path_1245393" data-name="Path 1245393" d="M18.589,48.912a.6.6,0,0,1-.6-.617,4.1,4.1,0,0,1,4.11-3.961h.944a4.1,4.1,0,0,1,4.114,3.952.6.6,0,0,1-.594.619l-7.977.008Zm4.459-3.389h-.942a2.916,2.916,0,0,0-2.833,2.2l6.61-.007A2.916,2.916,0,0,0,23.048,45.523Z"/>
        <path id="Path_1245394" data-name="Path 1245394" d="M22.573,44.878a.6.6,0,0,1-.6-.594l0-4.12a.6.6,0,0,1,.595-.6h0a.6.6,0,0,1,.6.595l0,4.12a.6.6,0,0,1-.595.6Z"/>
        <path id="Path_1245395" data-name="Path 1245395" d="M26.573,51.031l0-2.583c0-.047,0-.092,0-.139l-7.977.008c0,.047,0,.092,0,.139l0,2.583a3.522,3.522,0,0,0,3.526,3.519h.939a3.523,3.523,0,0,0,3.519-3.526Z" fill="#8a5d3b"/>
        <path id="Path_1245396" data-name="Path 1245396" d="M22.111,55.153a4.117,4.117,0,0,1-4.118-4.114l0-2.582c0-.057,0-.112,0-.169a.6.6,0,0,1,.594-.565l7.978-.009h0a.6.6,0,0,1,.594.564c0,.057,0,.112,0,.169l0,2.583a4.118,4.118,0,0,1-4.113,4.122h-.939Zm-2.929-6.242,0,2.127a2.927,2.927,0,0,0,2.927,2.924h.942a2.927,2.927,0,0,0,2.924-2.93l0-2.127Z"/>
        <path id="Path_1245397" data-name="Path 1245397" d="M26.558,36.325l0,4.373" fill="#272d33"/>
        <path id="Path_1245398" data-name="Path 1245398" d="M26.563,41.293a.6.6,0,0,1-.6-.594l0-4.373a.6.6,0,0,1,.594-.6h0a.6.6,0,0,1,.6.595l0,4.373a.6.6,0,0,1-.594.6Z"/>
        <path id="Path_1245399" data-name="Path 1245399" d="M31.3,32.546l0-2.6a1.163,1.163,0,0,0-1.164-1.162l-2.422,0a1.164,1.164,0,0,0-1.162,1.164l0,2.6Z" fill="#efcdb1"/>
        <path id="Path_1245400" data-name="Path 1245400" d="M26.554,33.146a.6.6,0,0,1-.6-.594l0-2.6a1.76,1.76,0,0,1,1.756-1.76l2.422,0h0a1.76,1.76,0,0,1,1.759,1.757l0,2.6a.6.6,0,0,1-.595.6l-4.748,0Zm3.582-3.765h0l-2.422,0a.568.568,0,0,0-.567.568l0,2,3.557,0,0-2a.568.568,0,0,0-.568-.567Z"/>
        <path id="Path_1245401" data-name="Path 1245401" d="M44.1,29.178l-9.818-3.523-1.6,4.469L35.76,31.23l-3.6,10.042a2.063,2.063,0,0,0,1.246,2.64l4.793,1.72A5.008,5.008,0,0,0,44.6,42.609l2.52-7.024A5.009,5.009,0,0,0,44.1,29.178Z" fill="#89c45e"/>
        <path id="Path_1245402" data-name="Path 1245402" d="M39.882,46.521a5.577,5.577,0,0,1-1.887-.33L33.2,44.472a2.662,2.662,0,0,1-1.6-3.4L35,31.589l-2.521-.9a.6.6,0,0,1-.359-.761l1.6-4.469a.6.6,0,0,1,.761-.359L44.3,28.618a5.61,5.61,0,0,1,3.381,7.168l-2.52,7.024a5.614,5.614,0,0,1-5.28,3.711ZM33.44,29.765l2.521.9a.6.6,0,0,1,.359.761l-3.6,10.042a1.471,1.471,0,0,0,.886,1.879l4.793,1.72a4.418,4.418,0,0,0,5.644-2.663l2.52-7.024A4.419,4.419,0,0,0,43.9,29.739l-9.257-3.322Z"/>
        <path id="Path_1245403" data-name="Path 1245403" d="M47.51,35.45a3.522,3.522,0,0,0-4.374,2.169l-.317.884a3.521,3.521,0,0,0,2,4.455Z" fill="#efcdb1"/>
        <path id="Path_1245404" data-name="Path 1245404" d="M44.815,43.554a.594.594,0,0,1-.222-.043A4.1,4.1,0,0,1,42.259,38.3l.317-.884a4.1,4.1,0,0,1,5.113-2.536.6.6,0,0,1,.381.769L45.376,43.16a.6.6,0,0,1-.56.394Zm1.627-7.674A2.917,2.917,0,0,0,43.7,37.82l-.317.884a2.916,2.916,0,0,0,1.107,3.409l2.232-6.221q-.137-.013-.275-.013Z"/>
        <path id="Path_1245405" data-name="Path 1245405" d="M42.37,38.439a.6.6,0,0,1-.2-.035L38.29,37.012a.6.6,0,1,1,.4-1.12l3.879,1.392a.6.6,0,0,1-.2,1.156Z"/>
        <path id="Path_1245406" data-name="Path 1245406" d="M50.073,36.365l-2.432-.873c-.044-.016-.087-.03-.132-.044l-2.694,7.509c.043.018.086.034.129.05l2.432.873a3.522,3.522,0,0,0,4.505-2.126l.317-.884A3.523,3.523,0,0,0,50.073,36.365Z" fill="#8a5d3b"/>
        <path id="Path_1245407" data-name="Path 1245407" d="M48.569,44.686a4.122,4.122,0,0,1-1.394-.244l-2.431-.873c-.054-.019-.1-.039-.157-.061a.6.6,0,0,1-.332-.751l2.694-7.508a.6.6,0,0,1,.733-.369c.054.016.107.034.16.053l2.431.873a4.123,4.123,0,0,1,2.485,5.267l-.317.884a4.125,4.125,0,0,1-3.873,2.729ZM45.575,42.6l2,.718a2.926,2.926,0,0,0,3.744-1.767l.317-.884a2.931,2.931,0,0,0-1.767-3.744l-2-.718Z"/>
        <path id="Path_1245408" data-name="Path 1245408" d="M36.232,31.4l4.116,1.477" fill="#272d33"/>
        <path id="Path_1245409" data-name="Path 1245409" d="M40.347,33.471a.6.6,0,0,1-.2-.035l-4.116-1.477a.6.6,0,1,1,.4-1.12l4.116,1.477a.6.6,0,0,1-.2,1.156Z"/>
        <path id="Path_1245410" data-name="Path 1245410" d="M34.282,25.656l-2.445-.877a1.163,1.163,0,0,0-1.488.7l-.818,2.279a1.164,1.164,0,0,0,.7,1.487l2.445.878Z" fill="#efcdb1"/>
        <path id="Path_1245411" data-name="Path 1245411" d="M32.679,30.719a.593.593,0,0,1-.2-.035l-2.445-.877a1.759,1.759,0,0,1-1.061-2.249l.818-2.28a1.76,1.76,0,0,1,2.249-1.061l2.445.878a.6.6,0,0,1,.359.761l-1.6,4.469a.6.6,0,0,1-.56.394Zm-1.234-5.414a.569.569,0,0,0-.535.376l-.818,2.279a.568.568,0,0,0,.343.726l1.885.677,1.2-3.348-1.885-.677A.563.563,0,0,0,31.445,25.305Z"/>
        <path id="Path_1245412" data-name="Path 1245412" d="M35.481,13.224l-6.167,8.412,3.829,2.807,1.936-2.64,8.6,6.308a2.063,2.063,0,0,0,2.885-.444l3.011-4.107a5.008,5.008,0,0,0-1.078-7l-6.018-4.412a5.009,5.009,0,0,0-7,1.076Z" fill="#fdc00f"/>
        <path id="Path_1245413" data-name="Path 1245413" d="M44.9,29.106a2.639,2.639,0,0,1-1.567-.515l-8.124-5.956-1.584,2.16a.6.6,0,0,1-.832.128l-3.829-2.807a.6.6,0,0,1-.128-.832L35,12.872a5.611,5.611,0,0,1,7.833-1.2l6.019,4.413a5.6,5.6,0,0,1,1.206,7.832l-3.011,4.107a2.642,2.642,0,0,1-1.739,1.056A2.7,2.7,0,0,1,44.9,29.106Zm-9.818-7.9a.592.592,0,0,1,.351.115l8.6,6.308a1.468,1.468,0,0,0,2.053-.316L49.1,23.208a4.413,4.413,0,0,0-.95-6.168L42.13,12.627a4.419,4.419,0,0,0-6.169.949l-5.815,7.931,2.869,2.1L34.6,21.45A.594.594,0,0,1,35.079,21.207Z"/>
        <path id="Path_1245414" data-name="Path 1245414" d="M42.463,11.736a3.523,3.523,0,0,0,.837,4.81l.757.555a3.521,3.521,0,0,0,4.839-.648Z" fill="#efcdb1"/>
        <path id="Path_1245415" data-name="Path 1245415" d="M46.142,18.384a4.11,4.11,0,0,1-2.437-.8l-.757-.556a4.1,4.1,0,0,1-.978-5.623.6.6,0,0,1,.845-.147l6.434,4.717a.6.6,0,0,1,.114.85A4.1,4.1,0,0,1,46.142,18.384Zm-3.48-5.763a2.916,2.916,0,0,0,.989,3.445l.757.556a2.916,2.916,0,0,0,3.584-.093Z"/>
        <path id="Path_1245416" data-name="Path 1245416" d="M40.86,21.263a.6.6,0,0,1-.48-.947l2.436-3.323a.6.6,0,1,1,.96.7l-2.436,3.323a.594.594,0,0,1-.48.243Z"/>
        <path id="Path_1245417" data-name="Path 1245417" d="M44.069,9.539l-1.528,2.083c-.028.038-.053.075-.079.114L48.9,16.453c.03-.036.057-.072.085-.11l1.528-2.083a3.521,3.521,0,0,0-.758-4.924l-.757-.555a3.523,3.523,0,0,0-4.924.758Z" fill="#8a5d3b"/>
        <path id="Path_1245418" data-name="Path 1245418" d="M48.9,17.049a.593.593,0,0,1-.352-.115l-6.434-4.717a.6.6,0,0,1-.145-.808c.031-.047.063-.093.1-.138l1.528-2.083A4.123,4.123,0,0,1,49.345,8.3l.757.555a4.117,4.117,0,0,1,.886,5.756L49.461,16.7c-.034.046-.067.089-.1.134a.594.594,0,0,1-.462.219Zm-5.6-5.443,5.479,4.017,1.258-1.715a2.931,2.931,0,0,0-.63-4.092l-.757-.555a2.931,2.931,0,0,0-4.092.63Z"/>
        <path id="Path_1245419" data-name="Path 1245419" d="M35.374,21.4l2.586-3.527" fill="#272d33"/>
        <path id="Path_1245420" data-name="Path 1245420" d="M35.373,21.994a.6.6,0,0,1-.48-.947l2.586-3.527a.6.6,0,1,1,.96.7l-2.586,3.526A.594.594,0,0,1,35.373,21.994Z"/>
        <path id="Path_1245421" data-name="Path 1245421" d="M29.314,21.636l-1.536,2.1a1.163,1.163,0,0,0,.25,1.626l1.953,1.432a1.164,1.164,0,0,0,1.625-.25l1.536-2.1Z" fill="#efcdb1"/>
        <path id="Path_1245422" data-name="Path 1245422" d="M30.664,27.609a1.745,1.745,0,0,1-1.036-.341l-1.953-1.432a1.758,1.758,0,0,1-.378-2.457l1.536-2.1a.6.6,0,0,1,.832-.128l3.829,2.807a.6.6,0,0,1,.128.832l-1.536,2.1a1.747,1.747,0,0,1-1.151.7A1.794,1.794,0,0,1,30.664,27.609Zm-1.223-5.141-1.184,1.615a.567.567,0,0,0,.122.794l1.953,1.432a.568.568,0,0,0,.794-.122l1.184-1.615Z"/>
        <path id="Path_1245423" data-name="Path 1245423" d="M15.023,34.609,24.7,30.72l-1.77-4.405-3.038,1.22-3.978-9.9a2.063,2.063,0,0,0-2.685-1.146l-4.725,1.9A5.008,5.008,0,0,0,5.726,24.9l2.782,6.925a5.009,5.009,0,0,0,6.515,2.782Z" fill="#3d5ca9"/>
        <path id="Path_1245424" data-name="Path 1245424" d="M13.156,35.568a5.617,5.617,0,0,1-5.2-3.518L5.174,25.125a5.61,5.61,0,0,1,3.111-7.289l4.725-1.9a2.662,2.662,0,0,1,3.459,1.476l3.755,9.347,2.485-1a.6.6,0,0,1,.774.33l1.77,4.405a.6.6,0,0,1-.33.774L15.245,35.16A5.6,5.6,0,0,1,13.156,35.568ZM14,16.936a1.46,1.46,0,0,0-.546.106l-4.725,1.9a4.418,4.418,0,0,0-2.45,5.74l2.782,6.925A4.414,4.414,0,0,0,14.8,34.056l9.126-3.667-1.326-3.3-2.485,1a.6.6,0,0,1-.774-.33l-3.978-9.9A1.471,1.471,0,0,0,14,16.936Z"/>
        <path id="Path_1245425" data-name="Path 1245425" d="M8.308,32.186a3.522,3.522,0,0,0,1.828-4.527l-.35-.872a3.521,3.521,0,0,0-4.452-2Z" fill="#efcdb1"/>
        <path id="Path_1245426" data-name="Path 1245426" d="M8.308,32.782a.6.6,0,0,1-.552-.373l-2.974-7.4a.6.6,0,0,1,.352-.782,4.1,4.1,0,0,1,5.2,2.342l.35.872A4.1,4.1,0,0,1,8.551,32.73a.6.6,0,0,1-.243.052ZM6.141,25.2,8.605,31.33a2.916,2.916,0,0,0,.978-3.448l-.35-.872A2.916,2.916,0,0,0,6.141,25.2Z"/>
        <path id="Path_1245427" data-name="Path 1245427" d="M10.56,27.577a.6.6,0,0,1-.222-1.148l3.823-1.536a.6.6,0,0,1,.444,1.1l-3.823,1.536A.594.594,0,0,1,10.56,27.577Z"/>
        <path id="Path_1245428" data-name="Path 1245428" d="M5.784,33.2l2.4-.963c.043-.017.085-.035.127-.055l-2.974-7.4c-.044.015-.087.031-.13.049l-2.4.963A3.522,3.522,0,0,0,.852,30.378l.35.872A3.523,3.523,0,0,0,5.784,33.2Z" fill="#8a5d3b"/>
        <path id="Path_1245429" data-name="Path 1245429" d="M4.47,34.056a4.127,4.127,0,0,1-3.82-2.585L.3,30.6a4.117,4.117,0,0,1,2.286-5.356l2.4-.963c.052-.021.1-.04.158-.059a.6.6,0,0,1,.746.341l2.974,7.4a.6.6,0,0,1-.3.762c-.051.024-.1.046-.154.067l-2.4.963a4.114,4.114,0,0,1-1.536.3ZM5,25.555l-1.974.793A2.927,2.927,0,0,0,1.4,30.156l.35.871a2.927,2.927,0,0,0,3.808,1.625l1.974-.793Z"/>
        <path id="Path_1245430" data-name="Path 1245430" d="M19.429,27.722l-4.058,1.63" fill="#272d33"/>
        <path id="Path_1245431" data-name="Path 1245431" d="M15.372,29.947A.6.6,0,0,1,15.15,28.8l4.057-1.63a.6.6,0,1,1,.444,1.1L15.594,29.9a.593.593,0,0,1-.222.043Z"/>
        <path id="Path_1245432" data-name="Path 1245432" d="M24.7,30.72l2.41-.969a1.163,1.163,0,0,0,.645-1.513l-.9-2.247a1.164,1.164,0,0,0-1.513-.645l-2.41.969Z" fill="#efcdb1"/>
        <path id="Path_1245433" data-name="Path 1245433" d="M24.7,31.315a.6.6,0,0,1-.552-.374l-1.77-4.405a.6.6,0,0,1,.33-.774l2.41-.969a1.76,1.76,0,0,1,2.287.976l.9,2.247a1.76,1.76,0,0,1-.976,2.287l-2.41.969A.6.6,0,0,1,24.7,31.315Zm-1-4.67,1.326,3.3L26.89,29.2a.568.568,0,0,0,.315-.738l-.9-2.247a.569.569,0,0,0-.738-.315Z"/>
        <path id="Path_1245434" data-name="Path 1245434" d="M16.736,15.924l5.78,8.682,3.952-2.631L24.654,19.25l8.881-5.912a2.063,2.063,0,0,0,.574-2.862L31.287,6.237a5.008,5.008,0,0,0-6.945-1.394L18.131,8.979a5.009,5.009,0,0,0-1.395,6.945Z" fill="#be1e2d"/>
        <path id="Path_1245435" data-name="Path 1245435" d="M22.516,25.2a.6.6,0,0,1-.5-.265l-5.779-8.682A5.6,5.6,0,0,1,17.8,8.483l6.212-4.135a5.61,5.61,0,0,1,7.769,1.559L34.6,10.147a2.658,2.658,0,0,1-.74,3.687l-8.385,5.582,1.484,2.23a.6.6,0,0,1-.166.825L22.845,25.1a.6.6,0,0,1-.33.1Zm4.6-20.6a4.388,4.388,0,0,0-2.439.738L18.46,9.474a4.414,4.414,0,0,0-1.229,6.12l5.45,8.187,2.961-1.971-1.484-2.23a.6.6,0,0,1,.166-.825L33.2,12.842a1.468,1.468,0,0,0,.409-2.037L30.792,6.567A4.413,4.413,0,0,0,27.112,4.6Z"/>
        <path id="Path_1245436" data-name="Path 1245436" d="M17.739,8.856a3.522,3.522,0,0,0,4.8.867l.782-.52a3.521,3.521,0,0,0,1.054-4.767Z" fill="#efcdb1"/>
        <path id="Path_1245437" data-name="Path 1245437" d="M20.588,10.913A4.1,4.1,0,0,1,17.256,9.2a.6.6,0,0,1,.153-.843L24.05,3.94a.6.6,0,0,1,.838.185A4.1,4.1,0,0,1,23.655,9.7l-.782.52a4.112,4.112,0,0,1-2.285.695Zm-1.95-1.941a2.916,2.916,0,0,0,3.576.255L23,8.707a2.916,2.916,0,0,0,1.145-3.4Z"/>
        <path id="Path_1245438" data-name="Path 1245438" d="M25.576,14.025a.6.6,0,0,1-.5-.265L22.8,10.329a.6.6,0,1,1,.991-.66l2.283,3.43a.6.6,0,0,1-.495.925Z"/>
        <path id="Path_1245439" data-name="Path 1245439" d="M16.227,6.592l1.432,2.15c.026.039.052.076.079.113l6.641-4.421c-.024-.04-.048-.078-.074-.117l-1.432-2.15a3.522,3.522,0,0,0-4.884-.98l-.782.52a3.523,3.523,0,0,0-.98,4.884Z" fill="#8a5d3b"/>
        <path id="Path_1245440" data-name="Path 1245440" d="M17.739,9.451a.594.594,0,0,1-.479-.241c-.034-.045-.065-.09-.1-.137L15.732,6.922a4.118,4.118,0,0,1,1.146-5.71l.782-.52a4.117,4.117,0,0,1,5.71,1.146L24.8,3.988c.031.047.061.094.089.142a.6.6,0,0,1-.181.8l-6.64,4.421a.593.593,0,0,1-.329.1Zm2.2-8.261a2.908,2.908,0,0,0-1.617.492l-.781.521a2.928,2.928,0,0,0-.815,4.059L17.9,8.032l5.656-3.765L22.379,2.5a2.908,2.908,0,0,0-1.861-1.248,2.957,2.957,0,0,0-.582-.059Z"/>
        <path id="Path_1245441" data-name="Path 1245441" d="M24.376,18.833l-2.423-3.64" fill="#272d33"/>
        <path id="Path_1245442" data-name="Path 1245442" d="M24.377,19.429a.594.594,0,0,1-.5-.265l-2.423-3.64a.6.6,0,1,1,.991-.66l2.423,3.64a.6.6,0,0,1-.495.925Z"/>
        <path id="Path_1245443" data-name="Path 1245443" d="M22.516,24.606l1.44,2.162a1.163,1.163,0,0,0,1.612.324l2.016-1.342a1.164,1.164,0,0,0,.324-1.613l-1.44-2.162Z" fill="#efcdb1"/>
        <path id="Path_1245444" data-name="Path 1245444" d="M24.926,27.882A1.758,1.758,0,0,1,23.46,27.1l-1.44-2.162a.6.6,0,0,1,.166-.825l3.952-2.631a.6.6,0,0,1,.825.166l1.44,2.162a1.759,1.759,0,0,1-.489,2.438L25.9,27.587a1.748,1.748,0,0,1-.972.294Zm-1.585-3.11,1.11,1.667a.569.569,0,0,0,.787.158l2.016-1.342a.568.568,0,0,0,.158-.787L26.3,22.8Z"/>
      </g>
    </g>
  </g>
</svg>
