<svg xmlns="http://www.w3.org/2000/svg" xmlns:xlink="http://www.w3.org/1999/xlink" width="108" height="108" viewBox="0 0 108 108">
  <defs>
    <filter id="Rectangle_411831" x="0" y="0" width="108" height="108" filterUnits="userSpaceOnUse">
      <feOffset dy="3" input="SourceAlpha"/>
      <feGaussianBlur stdDeviation="3" result="blur"/>
      <feFlood flood-opacity="0.161"/>
      <feComposite operator="in" in2="blur"/>
      <feComposite in="SourceGraphic"/>
    </filter>
    <clipPath id="clip-path">
      <rect id="Rectangle_430334" data-name="Rectangle 430334" width="53" height="60" transform="translate(18.27 15)" fill="#fff" stroke="#707070" stroke-width="1" opacity="0"/>
    </clipPath>
  </defs>
  <g id="Group_1246296" data-name="Group 1246296" transform="translate(9 6)">
    <g id="Group_1242625" data-name="Group 1242625">
      <g id="Group_1230590" data-name="Group 1230590">
        <g transform="matrix(1, 0, 0, 1, -9, -6)" filter="url(#Rectangle_411831)">
          <g id="Rectangle_411831-2" data-name="Rectangle 411831" transform="translate(9 6)" fill="#a4e0d4" stroke="#fff" stroke-width="2">
            <path d="M5,0H58A32,32,0,0,1,90,32V85a5,5,0,0,1-5,5H32A32,32,0,0,1,0,58V5A5,5,0,0,1,5,0Z" stroke="none"/>
            <path d="M5,1H58A31,31,0,0,1,89,32V85a4,4,0,0,1-4,4H32A31,31,0,0,1,1,58V5A4,4,0,0,1,5,1Z" fill="none"/>
          </g>
        </g>
      </g>
    </g>
    <g id="Mask_Group_1099569" data-name="Mask Group 1099569" clip-path="url(#clip-path)">
      <g id="claridad_2_" data-name="claridad (2)" transform="translate(17.415 17.646)">
        <g id="Group_1252990" data-name="Group 1252990">
          <g id="Group_1252988" data-name="Group 1252988">
            <path id="Path_1246004" data-name="Path 1246004" d="M14.393,39.682h5.471v2.782a1.664,1.664,0,0,1-1.659,1.659H16.052a1.664,1.664,0,0,1-1.659-1.659V39.682Z" fill="#b1b1b5" fill-rule="evenodd"/>
            <path id="Path_1246005" data-name="Path 1246005" d="M12.692,35.676h8.873v3.471a1.664,1.664,0,0,1-1.659,1.659H14.351a1.664,1.664,0,0,1-1.659-1.659Z" fill="#d1d1d6" fill-rule="evenodd"/>
            <path id="Path_1246006" data-name="Path 1246006" d="M19.633,35.172v3.974a1.664,1.664,0,0,1-1.659,1.659h1.932a1.664,1.664,0,0,0,1.659-1.659V35.171C20.934,35.192,20.268,35.172,19.633,35.172Z" fill="#b1b1b5" fill-rule="evenodd"/>
            <path id="Path_1246007" data-name="Path 1246007" d="M11.033,32.512H23.224v3.316a1.664,1.664,0,0,1-1.659,1.659H12.692a1.664,1.664,0,0,1-1.659-1.659Z" fill="#eceff1" fill-rule="evenodd"/>
            <path id="Path_1246008" data-name="Path 1246008" d="M21.292,34.169v1.659a1.664,1.664,0,0,1-1.659,1.659h1.988a1.664,1.664,0,0,0,1.6-1.658V34.169Z" fill="#d1d1d6" fill-rule="evenodd"/>
            <path id="Path_1246009" data-name="Path 1246009" d="M17.129,10.272A10.209,10.209,0,0,1,27.338,20.481c0,5.67-3.622,5.331-4.113,13.688H11.033c-.491-8.357-4.113-8.018-4.113-13.688A10.209,10.209,0,0,1,17.129,10.272Z" fill="#ffe177" fill-rule="evenodd"/>
            <path id="Path_1246010" data-name="Path 1246010" d="M16.163,10.317a10.21,10.21,0,0,1,9.243,10.164c0,5.267-3.125,5.349-3.963,12.031-.064.512-.115,1.062-.15,1.657h1.932c.491-8.357,4.113-8.018,4.113-13.688A10.209,10.209,0,0,0,17.129,10.272q-.489,0-.966.045Z" fill="#ffd064" fill-rule="evenodd"/>
          </g>
          <g id="Group_1252989" data-name="Group 1252989">
            <path id="Path_1246011" data-name="Path 1246011" d="M40.985,36.6a10.985,10.985,0,0,1-1.854,2.041l5.041,4.941L46.091,41.6Z" fill="#a79ba7" fill-rule="evenodd"/>
            <path id="Path_1246012" data-name="Path 1246012" d="M41.019,36.562a1.267,1.267,0,0,1-.549.736l5.007,4.974.613-.672Z" fill="#837683" fill-rule="evenodd"/>
            <path id="Path_1246013" data-name="Path 1246013" d="M50.555,49.991l2.166-2.232a1,1,0,0,0-.021-1.4l-6-5.821a1,1,0,0,0-1.4.021l-2.166,2.232a1,1,0,0,0,.021,1.4l6,5.821a1,1,0,0,0,1.4-.021Z" fill="#f1ba84" fill-rule="evenodd"/>
            <path id="Path_1246014" data-name="Path 1246014" d="M45.813,40.535l6,5.821a1,1,0,0,1,.021,1.4l-2.166,2.232a.985.985,0,0,1-.269.2,1,1,0,0,0,1.156-.2l2.166-2.232a1,1,0,0,0-.021-1.4l-6-5.821a1,1,0,0,0-1.135-.176A.982.982,0,0,1,45.813,40.535Z" fill="#e3a76f" fill-rule="evenodd"/>
            <circle id="Ellipse_14231" data-name="Ellipse 14231" cx="10.922" cy="10.922" r="10.922" transform="translate(17.347 31.097) rotate(-45)" fill="#8ac9fe"/>
            <path id="Path_1246015" data-name="Path 1246015" d="M32.8,20.174a10.923,10.923,0,1,1,0,21.846q-.267,0-.53-.013a10.923,10.923,0,0,0,0-21.82q.264-.013.53-.013Z" fill="#60b7ff" fill-rule="evenodd"/>
            <circle id="Ellipse_14232" data-name="Ellipse 14232" cx="7.844" cy="7.844" r="7.844" transform="translate(22.726 35.73) rotate(-69.699)" fill="#eceff1"/>
            <path id="Path_1246016" data-name="Path 1246016" d="M32.8,23.254c.178,0,.355.007.53.018a7.843,7.843,0,0,0,0,15.65c-.175.012-.352.018-.53.018a7.844,7.844,0,0,1,0-15.687Z" fill="#d1d1d6" fill-rule="evenodd"/>
          </g>
          <path id="Path_1246017" data-name="Path 1246017" d="M31.769,31.789l3.814-3.852a1.161,1.161,0,1,1,1.648,1.636c-1.547,1.561-3.083,3.132-4.637,4.686a1.163,1.163,0,0,1-1.645,0l-2.578-2.578a1.163,1.163,0,0,1,1.645-1.645Z" fill="#8ac9fe" fill-rule="evenodd"/>
        </g>
        <path id="Path_1246018" data-name="Path 1246018" d="M36.623,28.538a.3.3,0,0,0-.218-.088.3.3,0,0,0-.215.088l-3.814,3.853a.852.852,0,0,1-.606.253h0a.854.854,0,0,1-.6-.25l-1.752-1.752a.308.308,0,0,0-.437.436l2.578,2.579a.311.311,0,0,0,.437,0c.973-.975,1.957-1.973,2.91-2.937q.861-.874,1.724-1.746a.307.307,0,0,0,0-.434Zm1.215,1.637q-.862.871-1.721,1.743c-.953.967-1.939,1.968-2.918,2.946a2.018,2.018,0,0,1-2.854,0l-2.578-2.578a2.018,2.018,0,0,1,2.854-2.854l1.146,1.144,3.209-3.241a2.016,2.016,0,0,1,2.853-.01,2.019,2.019,0,0,1,.01,2.849Zm1.95.922A6.989,6.989,0,1,1,32.8,24.109,7,7,0,0,1,39.788,31.1Zm1.71,0a8.7,8.7,0,1,1-8.7-8.7A8.708,8.708,0,0,1,41.5,31.1ZM52.1,46.97l-6-5.822a.135.135,0,0,0-.095-.037h0a.134.134,0,0,0-.1.041l-2.165,2.232a.138.138,0,0,0-.039.1.147.147,0,0,0,.041.1l6,5.82a.141.141,0,0,0,.2,0l2.166-2.232A.141.141,0,0,0,52.1,46.97Zm-19.3-5.8A10.069,10.069,0,1,1,42.867,31.1,10.08,10.08,0,0,1,32.8,41.167ZM22.226,36.285a11.671,11.671,0,0,1-.531-1.26H11.888v.8a.805.805,0,0,0,.8.8h8.874a.8.8,0,0,0,.66-.349Zm-3.217,6.18v-.8H15.248v.8a.805.805,0,0,0,.8.8h2.153a.806.806,0,0,0,.8-.8Zm1.7-3.318v-.8H13.547v.8a.805.805,0,0,0,.8.8h5.556A.805.805,0,0,0,20.71,39.147Zm.554-17.073a1.517,1.517,0,1,0-1.518-1.517v1.517Zm-3.227,1.71H16.221v9.531h1.816Zm-3.526-3.227a1.518,1.518,0,1,0-1.517,1.517h1.517ZM9.327,25.538a16.148,16.148,0,0,1,2.5,7.777h2.683V23.783H12.994a3.227,3.227,0,1,1,3.227-3.227v1.517h1.816V20.557a3.227,3.227,0,1,1,3.227,3.227H19.746v9.531h1.485a11.774,11.774,0,0,1,5.23-12.141q.022-.336.022-.692a9.354,9.354,0,1,0-18.708,0,8.626,8.626,0,0,0,1.552,5.056ZM41.911,38.552q-.332.405-.7.779l2.1,2.04.728-.751Zm11.423,9.8-2.166,2.233a1.849,1.849,0,0,1-2.612.038l-6-5.821a1.835,1.835,0,0,1-.56-1.3,1.855,1.855,0,0,1,.192-.847l-2.26-2.193A11.76,11.76,0,0,1,23.12,37.8a2.531,2.531,0,0,1-.7.39v.955a2.518,2.518,0,0,1-1.7,2.378v.94a2.516,2.516,0,0,1-2.514,2.514H16.052a2.516,2.516,0,0,1-2.514-2.514v-.94a2.517,2.517,0,0,1-1.7-2.378v-.954a2.518,2.518,0,0,1-1.659-2.364V34.2a15.044,15.044,0,0,0-2.327-7.8,10.264,10.264,0,0,1-1.786-5.92,11.064,11.064,0,0,1,22.125-.223A11.773,11.773,0,0,1,42.906,37.136l2.456,2.383a1.848,1.848,0,0,1,1.934.4l6,5.822A1.849,1.849,0,0,1,53.334,48.355ZM30.466,15.376a.848.848,0,0,0,.426-.114l2.083-1.2a.855.855,0,0,0-.855-1.481l-2.083,1.2a.855.855,0,0,0,.428,1.595ZM24.4,9.625a.856.856,0,0,0,1.168-.313l1.2-2.082a.855.855,0,1,0-1.481-.855l-1.2,2.083A.855.855,0,0,0,24.4,9.625ZM4.22,13.781l-2.083-1.2a.855.855,0,0,0-.855,1.481l2.083,1.2a.855.855,0,0,0,.855-1.481ZM8.689,9.312a.855.855,0,1,0,1.481-.854l-1.2-2.083a.855.855,0,1,0-1.48.855Zm7.585-2.491V4.416a.855.855,0,1,1,1.71,0V6.822a.855.855,0,1,1-1.71,0Z" fill-rule="evenodd"/>
      </g>
    </g>
  </g>
</svg>
