<svg xmlns="http://www.w3.org/2000/svg" xmlns:xlink="http://www.w3.org/1999/xlink" width="108" height="108" viewBox="0 0 108 108">
  <defs>
    <filter id="Rectangle_411831" x="0" y="0" width="108" height="108" filterUnits="userSpaceOnUse">
      <feOffset dy="3" input="SourceAlpha"/>
      <feGaussianBlur stdDeviation="3" result="blur"/>
      <feFlood flood-opacity="0.161"/>
      <feComposite operator="in" in2="blur"/>
      <feComposite in="SourceGraphic"/>
    </filter>
    <clipPath id="clip-path">
      <rect id="Rectangle_430334" data-name="Rectangle 430334" width="53" height="60" transform="translate(-3315 -10265)" fill="#fff" stroke="#707070" stroke-width="1" opacity="0"/>
    </clipPath>
  </defs>
  <g id="Group_1260399" data-name="Group 1260399" transform="translate(3342.27 10286)">
    <g id="Group_1242625" data-name="Group 1242625" transform="translate(-3333.27 -10280)">
      <g id="Group_1230590" data-name="Group 1230590">
        <g transform="matrix(1, 0, 0, 1, -9, -6)" filter="url(#Rectangle_411831)">
          <g id="Rectangle_411831-2" data-name="Rectangle 411831" transform="translate(9 6)" fill="#a4e0d4" stroke="#fff" stroke-width="2">
            <path d="M5,0H58A32,32,0,0,1,90,32V85a5,5,0,0,1-5,5H32A32,32,0,0,1,0,58V5A5,5,0,0,1,5,0Z" stroke="none"/>
            <path d="M5,1H58A31,31,0,0,1,89,32V85a4,4,0,0,1-4,4H32A31,31,0,0,1,1,58V5A4,4,0,0,1,5,1Z" fill="none"/>
          </g>
        </g>
      </g>
    </g>
    <g id="Mask_Group_1099572" data-name="Mask Group 1099572" clip-path="url(#clip-path)">
      <g id="apreton-de-manos_1_" data-name="apreton-de-manos (1)" transform="translate(-3315 -10261.5)">
        <g id="Group_1252998" data-name="Group 1252998">
          <g id="Group_1252993" data-name="Group 1252993">
            <path id="Path_1246027" data-name="Path 1246027" d="M43.3,25.4,41.95,14.461l-2.523.311v0l-4.891-2.753a2.948,2.948,0,0,0-1.717-.366l-7.723.714a2.947,2.947,0,0,0-2.277,1.454l-5.443,9.369a1.3,1.3,0,0,0,.662,1.862l.223.084a4.829,4.829,0,0,0,1.309.292l-.69.6-1.38,1.2-3.925,3.348a1.677,1.677,0,0,0-.163,2.366l.4.456a2.155,2.155,0,0,0,3.04.208l1.5,1.72a2.151,2.151,0,0,0,3.04.208l1.5,1.721a2.156,2.156,0,0,0,3.041.209l.814.7a2.156,2.156,0,0,0,3.041.209l1.107-.966L40.2,30.163l.01-.009,3.671,0Z" fill="#f29f5c"/>
            <path id="Path_1246028" data-name="Path 1246028" d="M39.308,27.336l-.01.009-9.306,7.247-1.107.966a2.156,2.156,0,0,1-3.041-.209l-.814-.7a2.156,2.156,0,0,1-3.041-.209l-1.5-1.721a2.151,2.151,0,0,1-3.04-.208l-1.5-1.72a2.155,2.155,0,0,1-2.669.127,1.676,1.676,0,0,0,.133,2.027l.4.456a2.155,2.155,0,0,0,3.04.208l1.5,1.72a2.151,2.151,0,0,0,3.04.208l1.5,1.721a2.156,2.156,0,0,0,3.041.209l.814.7a2.156,2.156,0,0,0,3.041.209l1.107-.966L40.2,30.163l.01-.009,3.671,0-.406-3.3Z" fill="#d37d42"/>
          </g>
          <g id="Group_1252994" data-name="Group 1252994">
            <path id="Path_1246029" data-name="Path 1246029" d="M41,32.067l-4.986-4.3L34.63,26.573l-.992-.854-4.266-3.677.493-4.193a2.894,2.894,0,0,0-2.1-3.127l-9.3-2.573a2.152,2.152,0,0,0-2.489,1.093l-1.169,2.283-5.019-.341L8.5,26.128l-.559,4.756,4.886.325.01.009,10.207,8.8,1.112.96a2.156,2.156,0,0,0,3.04-.226l1.489-1.727a2.156,2.156,0,0,0,3.04-.226l1.489-1.729a2.151,2.151,0,0,0,3.038-.224l1.49-1.729a2.155,2.155,0,0,0,3.038-.224l.4-.458A1.677,1.677,0,0,0,41,32.067Z" fill="#f9c295"/>
            <path id="Path_1246030" data-name="Path 1246030" d="M41,32.067l-1.519-1.309a1.78,1.78,0,0,1-.074,2.232l-.42.486a2.288,2.288,0,0,1-3.226.238l-1.582,1.835a2.284,2.284,0,0,1-3.226.238l-1.58,1.835a2.289,2.289,0,0,1-3.227.24L24.569,39.7a2.272,2.272,0,0,1-1.084.7l.673.58a2.156,2.156,0,0,0,3.04-.226l1.489-1.727a2.156,2.156,0,0,0,3.04-.226l1.489-1.729a2.151,2.151,0,0,0,3.038-.224l1.49-1.729a2.155,2.155,0,0,0,3.038-.224l.4-.458A1.677,1.677,0,0,0,41,32.067Z" fill="#e59f6a"/>
          </g>
          <g id="Group_1252996" data-name="Group 1252996">
            <g id="Group_1252995" data-name="Group 1252995">
              <path id="Path_1246031" data-name="Path 1246031" d="M13.083,31.2l-.591.781a1.932,1.932,0,0,0,.374,2.706h0a1.932,1.932,0,0,0,2.706-.374l.591-.781a1.932,1.932,0,0,0-.374-2.706h0A1.932,1.932,0,0,0,13.083,31.2Z" fill="#f29f5c"/>
              <path id="Path_1246032" data-name="Path 1246032" d="M16.685,32.84l-1.114,1.471a1.932,1.932,0,0,0,.374,2.706h0a1.932,1.932,0,0,0,2.706-.374l1.114-1.471a1.932,1.932,0,0,0-.374-2.706h0A1.932,1.932,0,0,0,16.685,32.84Z" fill="#f29f5c"/>
              <path id="Path_1246033" data-name="Path 1246033" d="M20.168,34.639l-1.518,2a1.932,1.932,0,0,0,.374,2.706h0a1.932,1.932,0,0,0,2.706-.374l1.518-2a1.932,1.932,0,0,0-.374-2.706h0A1.932,1.932,0,0,0,20.168,34.639Z" fill="#f29f5c"/>
              <path id="Path_1246034" data-name="Path 1246034" d="M23.336,36.855,21.73,38.975a1.932,1.932,0,0,0,.374,2.706h0a1.932,1.932,0,0,0,2.706-.374l1.606-2.121a1.932,1.932,0,0,0-.374-2.706h0A1.932,1.932,0,0,0,23.336,36.855Z" fill="#f29f5c"/>
            </g>
          </g>
          <path id="Path_1246035" data-name="Path 1246035" d="M39.428,14.77l-4.891-2.753a2.948,2.948,0,0,0-1.717-.366l-7.723.714a2.947,2.947,0,0,0-2.277,1.454l-5.443,9.369a1.3,1.3,0,0,0,.662,1.862l.223.084a4.84,4.84,0,0,0,5.548-1.579L25.9,20.841s5.013,5.8,10.533-.974" fill="#f29f5c"/>
          <path id="Path_1246036" data-name="Path 1246036" d="M49.665,10.927l2.558,20.781-5.982.736a2.063,2.063,0,0,1-2.3-1.8L41.888,13.962a2.063,2.063,0,0,1,1.8-2.3Z" fill="#5c9cee"/>
          <path id="Path_1246037" data-name="Path 1246037" d="M46.142,30.1a2.261,2.261,0,0,1-2.481-1.744l.282,2.294a2.062,2.062,0,0,0,2.3,1.8l5.982-.736-.286-2.322Z" fill="#3580d3"/>
          <path id="Path_1246038" data-name="Path 1246038" d="M3.335,10.927.776,31.708l5.982.736a2.063,2.063,0,0,0,2.3-1.8l2.054-16.687a2.063,2.063,0,0,0-1.8-2.3Z" fill="#ed5575"/>
          <path id="Path_1246039" data-name="Path 1246039" d="M6.9,30.047l-5.83-.718L.776,31.708l5.982.736a2.063,2.063,0,0,0,2.3-1.8l.217-1.763A2.423,2.423,0,0,1,6.9,30.047Z" fill="#cc3a60"/>
          <g id="Group_1252997" data-name="Group 1252997">
            <circle id="Ellipse_14233" data-name="Ellipse 14233" cx="1.501" cy="1.501" r="1.501" transform="translate(46.531 26.784)" fill="#ebeef2"/>
            <circle id="Ellipse_14234" data-name="Ellipse 14234" cx="1.501" cy="1.501" r="1.501" transform="translate(3.384 26.784)" fill="#ebeef2"/>
          </g>
        </g>
        <g id="Group_1252999" data-name="Group 1252999">
          <path id="Path_1246040" data-name="Path 1246040" d="M26.51,35.862a2.7,2.7,0,0,0-2.132-.5,2.706,2.706,0,0,0-3.041-2.238,2.737,2.737,0,0,0-.516.123A2.7,2.7,0,0,0,17.191,31.5a2.709,2.709,0,0,0-4.458-1.081L9.89,30.235l1.742-14.149,3.121.212.053,0a.776.776,0,0,0,.691-.422l1.17-2.282a1.381,1.381,0,0,1,1.591-.7l1.737.48a.776.776,0,0,0,.414-1.5l-1.737-.48a2.94,2.94,0,0,0-3.386,1.486l-.937,1.827-2.526-.172.06-.486a2.842,2.842,0,0,0-2.471-3.164l-5.982-.736A.776.776,0,0,0,3.24,11.7l5.982.736a1.286,1.286,0,0,1,1.119,1.434L8.287,30.554a1.288,1.288,0,0,1-1.434,1.119L.871,30.937a.776.776,0,1,0-.19,1.541l5.982.736A2.836,2.836,0,0,0,9.5,31.765l2.126.141a2.708,2.708,0,0,0,2.4,3.946,2.761,2.761,0,0,0,.376-.026l.024,0c0,.008,0,.016,0,.024a2.705,2.705,0,0,0,2.679,2.336,2.732,2.732,0,0,0,.4-.03,2.7,2.7,0,0,0,2.681,2.363,2.729,2.729,0,0,0,.4-.03c0,.009,0,.017,0,.026a2.709,2.709,0,0,0,2.677,2.338,2.759,2.759,0,0,0,.376-.026,2.69,2.69,0,0,0,1.788-1.048l1.606-2.121A2.711,2.711,0,0,0,26.51,35.862ZM14.189,34.289a1.155,1.155,0,0,1-1.079-1.842l.591-.781a1.155,1.155,0,0,1,1.842,1.395l-.591.781A1.148,1.148,0,0,1,14.189,34.289ZM16.413,36.4a1.155,1.155,0,0,1-.223-1.618L16.781,34h0l.522-.69A1.155,1.155,0,0,1,19.145,34.7l-1.114,1.471A1.156,1.156,0,0,1,16.413,36.4Zm3.08,2.332a1.155,1.155,0,0,1-.224-1.618h0l1.114-1.471h0l.4-.534A1.155,1.155,0,0,1,22.629,36.5l-1.518,2h0A1.156,1.156,0,0,1,19.493,38.73Zm6.3-.012-1.606,2.121a1.155,1.155,0,1,1-1.842-1.395l1.518-2h0l.087-.115A1.155,1.155,0,1,1,25.8,38.718Z"/>
          <path id="Path_1246041" data-name="Path 1246041" d="M52.994,31.613a.776.776,0,0,0-.865-.676l-5.982.736a1.287,1.287,0,0,1-1.434-1.119l-.061-.5h0l-.014-.115L42.659,13.867a1.286,1.286,0,0,1,1.119-1.434L49.76,11.7a.776.776,0,1,0-.19-1.541l-5.982.736A2.843,2.843,0,0,0,41.1,13.784l-1.509.186-4.671-2.629a3.707,3.707,0,0,0-2.169-.463h0l-1.406.13a.776.776,0,1,0,.143,1.546l1.41-.13a2.161,2.161,0,0,1,1.264.27L39,15.419a.777.777,0,0,0,.523.123l1.752-.216,1.285,10.439L43,29.375l-2.795,0a.776.776,0,0,0-.507.189l-.216.168L32.47,23.688a9.418,9.418,0,0,0,4.561-3.331.776.776,0,1,0-1.2-.98c-1.6,1.962-3.277,2.971-4.992,3a6.345,6.345,0,0,1-4.351-2.044.776.776,0,0,0-1.2.034l-2.086,2.714a4.04,4.04,0,0,1-4.658,1.326l-.223-.084a.518.518,0,0,1-.265-.745l5.443-9.369a2.174,2.174,0,0,1,1.677-1.071l3.223-.3a.776.776,0,1,0-.143-1.546l-3.223.3a3.73,3.73,0,0,0-2.876,1.837L16.706,22.8a2.071,2.071,0,0,0,1.059,2.978l.223.084a5.656,5.656,0,0,0,2,.368,5.584,5.584,0,0,0,4.437-2.2L25.982,22a7.667,7.667,0,0,0,4.375,1.914L40.5,32.655a.9.9,0,0,1,.095,1.27l-.4.458a1.382,1.382,0,0,1-1.945.143.776.776,0,0,0-.1-.073l-2.632-2.269A.776.776,0,0,0,34.5,33.36L36.642,35.2l-.976,1.132a1.376,1.376,0,0,1-1.944.144l-.011-.009-2.446-2.109a.776.776,0,0,0-1.014,1.176L32.12,37.15l-.981,1.14a1.381,1.381,0,0,1-1.208.47A.776.776,0,0,0,29.75,40.3a2.932,2.932,0,0,0,2.565-1l1.049-1.218a2.93,2.93,0,0,0,3.478-.735l1.051-1.22a2.938,2.938,0,0,0,3.478-.732l.4-.459a2.453,2.453,0,0,0-.257-3.46l-.637-.549,2.329,0a2.837,2.837,0,0,0,3.135,2.287l5.982-.736A.777.777,0,0,0,52.994,31.613Z"/>
          <path id="Path_1246042" data-name="Path 1246042" d="M48.031,26.008a2.277,2.277,0,1,0,2.277,2.277A2.28,2.28,0,0,0,48.031,26.008Zm0,3a.724.724,0,1,1,.724-.725A.725.725,0,0,1,48.031,29.01Z"/>
          <path id="Path_1246043" data-name="Path 1246043" d="M7.162,28.285a2.277,2.277,0,1,0-2.277,2.277A2.28,2.28,0,0,0,7.162,28.285Zm-3,0a.724.724,0,1,1,.724.725A.725.725,0,0,1,4.161,28.285Z"/>
        </g>
      </g>
    </g>
  </g>
</svg>
