<svg xmlns="http://www.w3.org/2000/svg" xmlns:xlink="http://www.w3.org/1999/xlink" width="108" height="108" viewBox="0 0 108 108">
  <defs>
    <filter id="Rectangle_411831" x="0" y="0" width="108" height="108" filterUnits="userSpaceOnUse">
      <feOffset dy="3" input="SourceAlpha"/>
      <feGaussianBlur stdDeviation="3" result="blur"/>
      <feFlood flood-opacity="0.161"/>
      <feComposite operator="in" in2="blur"/>
      <feComposite in="SourceGraphic"/>
    </filter>
    <clipPath id="clip-path">
      <rect id="Rectangle_430334" data-name="Rectangle 430334" width="53" height="60" transform="translate(-3315 -10265)" fill="#fff" stroke="#707070" stroke-width="1" opacity="0"/>
    </clipPath>
  </defs>
  <g id="Group_1260393" data-name="Group 1260393" transform="translate(3342.27 10286)">
    <g id="Group_1242625" data-name="Group 1242625" transform="translate(-3333.27 -10280)">
      <g id="Group_1230590" data-name="Group 1230590">
        <g transform="matrix(1, 0, 0, 1, -9, -6)" filter="url(#Rectangle_411831)">
          <g id="Rectangle_411831-2" data-name="Rectangle 411831" transform="translate(9 6)" fill="#a4e0d4" stroke="#fff" stroke-width="2">
            <path d="M5,0H58A32,32,0,0,1,90,32V85a5,5,0,0,1-5,5H32A32,32,0,0,1,0,58V5A5,5,0,0,1,5,0Z" stroke="none"/>
            <path d="M5,1H58A31,31,0,0,1,89,32V85a4,4,0,0,1-4,4H32A31,31,0,0,1,1,58V5A4,4,0,0,1,5,1Z" fill="none"/>
          </g>
        </g>
      </g>
    </g>
    <g id="Mask_Group_1099570" data-name="Mask Group 1099570" clip-path="url(#clip-path)">
      <g id="proceso" transform="translate(-3316.622 -10263.207)">
        <g id="Group_1252991" data-name="Group 1252991">
          <path id="Path_1246019" data-name="Path 1246019" d="M45.433,2.585h1.154a3.235,3.235,0,0,1,3.232,3.232c0,.29,0,.581,0,.871a10.349,10.349,0,0,1-.092,2,5.949,5.949,0,0,1-.724,1.733,4.057,4.057,0,0,0-.536,2.027.933.933,0,0,0,.933.938h.307a4.039,4.039,0,0,1,4.036,4.035v.708H38.275v-.708a4.039,4.039,0,0,1,4.036-4.035h.307a.933.933,0,0,0,.931-.938,4.046,4.046,0,0,0-.533-2.023A5.973,5.973,0,0,1,42.29,8.68,10.472,10.472,0,0,1,42.2,6.662c0-.282,0-.562,0-.843a3.234,3.234,0,0,1,3.231-3.233Z" fill="#60b7ff" fill-rule="evenodd"/>
          <path id="Path_1246020" data-name="Path 1246020" d="M18.031,17.417v.708H2.559v-.708a4.039,4.039,0,0,1,4.036-4.035H6.9a.933.933,0,0,0,.931-.938A4.043,4.043,0,0,0,7.3,10.421,5.973,5.973,0,0,1,6.575,8.68a10.472,10.472,0,0,1-.092-2.018c0-.282,0-.562,0-.843A3.235,3.235,0,0,1,9.719,2.586h1.154A3.235,3.235,0,0,1,14.1,5.818c0,.29,0,.582,0,.872a10.246,10.246,0,0,1-.092,2,5.949,5.949,0,0,1-.724,1.733,4.057,4.057,0,0,0-.536,2.027.933.933,0,0,0,.933.938H14A4.037,4.037,0,0,1,18.031,17.417Z" fill="#60b7ff" fill-rule="evenodd"/>
          <path id="Path_1246021" data-name="Path 1246021" d="M46.587,38.29a3.234,3.234,0,0,1,3.232,3.231c0,.29,0,.581,0,.872a10.437,10.437,0,0,1-.091,2,5.968,5.968,0,0,1-.724,1.734,4.064,4.064,0,0,0-.536,2.026.931.931,0,0,0,.931.939h.307a4.04,4.04,0,0,1,4.036,4.036v.707H38.275v-.707a4.04,4.04,0,0,1,4.036-4.036h.307a.931.931,0,0,0,.931-.937,4.047,4.047,0,0,0-.533-2.024,5.973,5.973,0,0,1-.725-1.742,10.465,10.465,0,0,1-.092-2.017c0-.282,0-.563,0-.845a3.234,3.234,0,0,1,3.232-3.231h1.152Z" fill="#60b7ff" fill-rule="evenodd"/>
          <path id="Path_1246022" data-name="Path 1246022" d="M17.974,53.122v.707H2.5v-.707a4.04,4.04,0,0,1,4.036-4.036h.307a.931.931,0,0,0,.931-.937,4.047,4.047,0,0,0-.533-2.024,5.973,5.973,0,0,1-.725-1.742,10.472,10.472,0,0,1-.092-2.018c0-.282,0-.563,0-.845A3.234,3.234,0,0,1,9.66,38.29h1.154a3.234,3.234,0,0,1,3.232,3.231c0,.29,0,.581,0,.872a10.262,10.262,0,0,1-.092,2,5.949,5.949,0,0,1-.724,1.733,4.064,4.064,0,0,0-.536,2.026.931.931,0,0,0,.931.939h.307a4.039,4.039,0,0,1,4.037,4.035Z" fill="#60b7ff" fill-rule="evenodd"/>
        </g>
        <path id="Path_1246023" data-name="Path 1246023" d="M39.237,30.661l-2.226,5.579H23.562l-4.073-10.2H41.083l-1.67,4.185H36.357a.22.22,0,0,0,0,.44Z" fill="#ffd064" fill-rule="evenodd"/>
        <path id="Path_1246024" data-name="Path 1246024" d="M28.525,41.423a1.312,1.312,0,1,1,1.313-1.313A1.314,1.314,0,0,1,28.525,41.423Z" fill="#f1f1f2" fill-rule="evenodd"/>
        <path id="Path_1246025" data-name="Path 1246025" d="M34.615,38.8A1.312,1.312,0,1,1,33.3,40.11,1.314,1.314,0,0,1,34.615,38.8Z" fill="#f1f1f2" fill-rule="evenodd"/>
        <path id="Path_1246026" data-name="Path 1246026" d="M9.427,33.206v-8.86l-.726.726a.66.66,0,0,1-.934-.934L9.62,22.287a.659.659,0,0,1,.934,0l1.852,1.852a.66.66,0,0,1-.933.934l-.726-.726v8.86a.66.66,0,0,1-1.32,0ZM46.811,22.753v8.86l.726-.726a.66.66,0,1,1,.933.934l-1.852,1.852a.658.658,0,0,1-.933,0l-1.852-1.852a.66.66,0,0,1,.934-.934l.726.726v-8.86a.659.659,0,1,1,1.318,0ZM34.219,49.085a.66.66,0,0,1-.66.66H24.7l.726.726a.66.66,0,0,1-.933.934L22.64,49.551a.658.658,0,0,1,0-.933l1.852-1.853a.66.66,0,0,1,.934.934l-.726.726h8.86A.66.66,0,0,1,34.219,49.085Zm-16.685,4.3H2.942v-.267a3.6,3.6,0,0,1,3.6-3.6h.307a1.372,1.372,0,0,0,1.372-1.38,4.5,4.5,0,0,0-.588-2.236,5.225,5.225,0,0,1-.762-3.542c0-.254,0-.536,0-.848A2.794,2.794,0,0,1,9.662,38.73h1.154a2.794,2.794,0,0,1,2.792,2.791c0,.324,0,.614,0,.875a5.165,5.165,0,0,1-.76,3.512,4.479,4.479,0,0,0-.591,2.237,1.37,1.37,0,0,0,1.371,1.381h.307a3.6,3.6,0,0,1,3.6,3.6v.267Zm-3.6-5.183h-.307a.053.053,0,0,1-.053-.053,3.166,3.166,0,0,1,.423-1.6,6.37,6.37,0,0,0,.927-4.164c0-.258,0-.545,0-.865a4.115,4.115,0,0,0-4.111-4.111H9.662a4.115,4.115,0,0,0-4.111,4.111c0,.309,0,.586,0,.838a6.509,6.509,0,0,0,.928,4.194,3.168,3.168,0,0,1,.422,1.6c0,.022,0,.022-.015.037a.036.036,0,0,1-.037.015H6.537a4.921,4.921,0,0,0-4.915,4.915v.927a.66.66,0,0,0,.66.66H18.194a.66.66,0,0,0,.66-.66v-.927a4.921,4.921,0,0,0-4.915-4.915Zm39.368,5.183H38.713v-.267a3.6,3.6,0,0,1,3.6-3.6h.307a1.372,1.372,0,0,0,1.372-1.38,4.5,4.5,0,0,0-.588-2.236,5.228,5.228,0,0,1-.762-3.542c0-.255,0-.536,0-.848a2.794,2.794,0,0,1,2.792-2.791h1.154a2.794,2.794,0,0,1,2.792,2.791c0,.324,0,.614,0,.875a5.165,5.165,0,0,1-.76,3.512,4.479,4.479,0,0,0-.591,2.237,1.372,1.372,0,0,0,1.372,1.381h.307a3.6,3.6,0,0,1,3.6,3.6v.267Zm-3.6-5.183H49.4c-.022,0-.022,0-.037-.015a.038.038,0,0,1-.015-.037,3.166,3.166,0,0,1,.423-1.6,6.37,6.37,0,0,0,.927-4.164c0-.258,0-.545,0-.865a4.116,4.116,0,0,0-4.112-4.111H45.431a4.116,4.116,0,0,0-4.112,4.111c0,.309,0,.586,0,.838a6.51,6.51,0,0,0,.928,4.194,3.168,3.168,0,0,1,.422,1.6c0,.022,0,.022-.015.037a.036.036,0,0,1-.037.015h-.307a4.921,4.921,0,0,0-4.915,4.915v.927a.66.66,0,0,0,.66.66H53.962a.66.66,0,0,0,.66-.66v-.927a4.916,4.916,0,0,0-4.912-4.915ZM22.446,12.858a.66.66,0,0,1,.66-.66h8.86l-.726-.726a.66.66,0,1,1,.934-.934l1.852,1.852a.661.661,0,0,1,0,.934l-1.852,1.852a.659.659,0,0,1-.933-.933l.726-.726h-8.86a.661.661,0,0,1-.661-.66Zm30.86,4.827H38.713v-.268a3.6,3.6,0,0,1,3.6-3.595h.307a1.374,1.374,0,0,0,1.372-1.381,4.5,4.5,0,0,0-.588-2.234,5.229,5.229,0,0,1-.762-3.543c0-.254,0-.534,0-.847a2.8,2.8,0,0,1,2.792-2.792h1.154A2.8,2.8,0,0,1,49.38,5.817c0,.323,0,.613,0,.874a5.164,5.164,0,0,1-.76,3.512,4.483,4.483,0,0,0-.591,2.238,1.374,1.374,0,0,0,1.372,1.381h.307a3.6,3.6,0,0,1,3.6,3.595v.268ZM49.71,12.5H49.4c-.022,0-.022,0-.037-.016a.036.036,0,0,1-.015-.036,3.163,3.163,0,0,1,.423-1.6A6.373,6.373,0,0,0,50.7,6.681c0-.258,0-.544,0-.864a4.116,4.116,0,0,0-4.112-4.112H45.431a4.116,4.116,0,0,0-4.112,4.112c0,.309,0,.586,0,.838a6.507,6.507,0,0,0,.928,4.193,3.172,3.172,0,0,1,.422,1.6c0,.021,0,.022-.015.036s-.016.016-.037.016h-.307a4.921,4.921,0,0,0-4.915,4.914v.928a.66.66,0,0,0,.66.66H53.962a.66.66,0,0,0,.66-.66v-.928A4.916,4.916,0,0,0,49.71,12.5ZM3,17.417a3.6,3.6,0,0,1,3.6-3.595H6.9a1.374,1.374,0,0,0,1.372-1.381,4.5,4.5,0,0,0-.588-2.234,5.236,5.236,0,0,1-.762-3.543c0-.254,0-.534,0-.847A2.8,2.8,0,0,1,9.72,3.025h1.154a2.8,2.8,0,0,1,2.792,2.792c0,.323,0,.614,0,.875a5.161,5.161,0,0,1-.76,3.511,4.472,4.472,0,0,0-.591,2.238,1.374,1.374,0,0,0,1.372,1.381H14a3.6,3.6,0,0,1,3.6,3.595v.268H3Zm-.66,1.588H18.251a.66.66,0,0,0,.66-.66v-.928A4.92,4.92,0,0,0,14,12.5h-.307c-.021,0-.022,0-.037-.016s-.015-.015-.015-.036a3.163,3.163,0,0,1,.423-1.6,6.373,6.373,0,0,0,.927-4.165c0-.258,0-.544,0-.864A4.116,4.116,0,0,0,10.87,1.706H9.719A4.116,4.116,0,0,0,5.608,5.817c0,.309,0,.586,0,.838a6.506,6.506,0,0,0,.928,4.193,3.172,3.172,0,0,1,.422,1.6c0,.021,0,.022-.015.036s-.015.016-.037.016H6.6A4.92,4.92,0,0,0,1.68,17.417v.928a.659.659,0,0,0,.659.66ZM30.853,32.312c0-.3-.517-.478-.739-.539-1.089-.295-1.713-.956-1.713-1.811a1.828,1.828,0,0,1,1.227-1.706v-.451a.66.66,0,0,1,1.32,0v.451a1.828,1.828,0,0,1,1.226,1.706.66.66,0,1,1-1.32,0,.57.57,0,0,0-1.133,0c0,.3.517.477.74.538,1.089.3,1.713.956,1.713,1.812a1.826,1.826,0,0,1-1.226,1.7v.452a.66.66,0,1,1-1.32,0v-.452a1.825,1.825,0,0,1-1.227-1.7.66.66,0,1,1,1.32,0,.57.57,0,0,0,1.132,0Zm3.762,8.671a.873.873,0,1,1,.873-.873A.874.874,0,0,1,34.615,40.983Zm-6.09,0a.873.873,0,1,1,.873-.873A.874.874,0,0,1,28.525,40.983ZM40.434,26.475h-20.3L23.859,35.8H36.712l1.875-4.7H36.356a.66.66,0,1,1,0-1.32h2.758ZM37.819,40.11a.66.66,0,0,0-.66-.66h-.453a2.192,2.192,0,0,0-4.181,0H30.617a2.192,2.192,0,0,0-4.181,0H24.919a.847.847,0,0,1-.847-.847V37.119H37.159a.659.659,0,0,0,.613-.416l4.242-10.629a.69.69,0,0,0,.041-.133.659.659,0,0,0,0-.232.669.669,0,0,0-.1-.264.653.653,0,0,0-.207-.2.684.684,0,0,0-.214-.082.671.671,0,0,0-.14-.011H19.611l-.364-.914A3.04,3.04,0,0,0,16.374,22.3h-1.15a.66.66,0,1,0,0,1.32h1.15a1.743,1.743,0,0,1,1.647,1.116l.53,1.328a.008.008,0,0,0,0,0l0,.01,4.2,10.512V38.6a2.168,2.168,0,0,0,2.166,2.166h1.516a2.192,2.192,0,0,0,4.181,0h1.909a2.192,2.192,0,0,0,4.181,0h.453a.66.66,0,0,0,.661-.66Z" fill-rule="evenodd"/>
      </g>
    </g>
  </g>
</svg>
