<svg xmlns="http://www.w3.org/2000/svg" xmlns:xlink="http://www.w3.org/1999/xlink" width="108" height="108" viewBox="0 0 108 108">
  <defs>
    <filter id="Rectangle_411831" x="0" y="0" width="108" height="108" filterUnits="userSpaceOnUse">
      <feOffset dy="3" input="SourceAlpha"/>
      <feGaussianBlur stdDeviation="3" result="blur"/>
      <feFlood flood-opacity="0.161"/>
      <feComposite operator="in" in2="blur"/>
      <feComposite in="SourceGraphic"/>
    </filter>
    <clipPath id="clip-path">
      <rect id="Rectangle_430334" data-name="Rectangle 430334" width="53" height="60" transform="translate(-3315 -10265)" fill="#fff" stroke="#707070" stroke-width="1" opacity="0"/>
    </clipPath>
  </defs>
  <g id="Group_1253962" data-name="Group 1253962" transform="translate(3342.27 10286)">
    <g id="Group_1242625" data-name="Group 1242625" transform="translate(-3333.27 -10280)">
      <g id="Group_1230590" data-name="Group 1230590">
        <g transform="matrix(1, 0, 0, 1, -9, -6)" filter="url(#Rectangle_411831)">
          <g id="Rectangle_411831-2" data-name="Rectangle 411831" transform="translate(9 6)" fill="#a4e0d4" stroke="#fff" stroke-width="2">
            <path d="M5,0H58A32,32,0,0,1,90,32V85a5,5,0,0,1-5,5H32A32,32,0,0,1,0,58V5A5,5,0,0,1,5,0Z" stroke="none"/>
            <path d="M5,1H58A31,31,0,0,1,89,32V85a4,4,0,0,1-4,4H32A31,31,0,0,1,1,58V5A4,4,0,0,1,5,1Z" fill="none"/>
          </g>
        </g>
      </g>
    </g>
    <g id="Mask_Group_1099532" data-name="Mask Group 1099532" clip-path="url(#clip-path)">
      <g id="comunicacion" transform="translate(-3315.854 -10262.354)">
        <g id="Group_1252808" data-name="Group 1252808">
          <g id="Group_1252796" data-name="Group 1252796">
            <path id="Path_1245370" data-name="Path 1245370" d="M20.516,47.871V53H13.4a9.982,9.982,0,0,1-9.985-9.985A7.5,7.5,0,0,1,8.548,35.9,10.243,10.243,0,0,1,18.806,46.161v1.71Z" fill="#b4dd7f"/>
          </g>
          <g id="Group_1252797" data-name="Group 1252797">
            <path id="Path_1245371" data-name="Path 1245371" d="M37.613,42.742l.051-.205a8.8,8.8,0,0,1,8.5-6.634,7.5,7.5,0,0,1,5.129,7.112V43.6a9.4,9.4,0,1,1-18.806,0v-.855Z" fill="#fcd770"/>
          </g>
          <g id="Group_1252798" data-name="Group 1252798">
            <path id="Path_1245372" data-name="Path 1245372" d="M44.016,18.234l-.068.068a1.671,1.671,0,0,1-1.205.5H37.613a3.419,3.419,0,1,1,0-6.839h4.65A10.733,10.733,0,0,1,53,22.7v7.813a3.678,3.678,0,0,1-3.676,3.676H46.161V25.645a1.71,1.71,0,0,0,0-3.419,4.793,4.793,0,0,0-2.137-3.984Z" fill="#656d78"/>
          </g>
          <g id="Group_1252799" data-name="Group 1252799">
            <path id="Path_1245373" data-name="Path 1245373" d="M18.806,11.113v4.018a3.676,3.676,0,0,1-1.641,3.06l-.034.026a.065.065,0,0,1-.034.017,3.524,3.524,0,0,1-1.932.573h-2.24a4.516,4.516,0,0,0-4.377,3.419,1.71,1.71,0,0,0,0,3.419v5.129A10.533,10.533,0,0,1,1.71,20.909V20a8.049,8.049,0,0,1,8.044-8.035h3.787a16.732,16.732,0,0,0,5.266-.855Z" fill="#b27946"/>
          </g>
          <g id="Group_1252800" data-name="Group 1252800">
            <path id="Path_1245374" data-name="Path 1245374" d="M34.194,3.419v6.839a1.715,1.715,0,0,1-1.71,1.71H29.065l-1.419,2.838a1.057,1.057,0,0,1-2-.479V11.968H20.516a1.715,1.715,0,0,1-1.71-1.71V3.419a1.715,1.715,0,0,1,1.71-1.71H32.484A1.715,1.715,0,0,1,34.194,3.419Z" fill="#e6e9ed"/>
          </g>
          <g id="Group_1252801" data-name="Group 1252801">
            <path id="Path_1245375" data-name="Path 1245375" d="M22.226,35.9V29.065a1.715,1.715,0,0,1,1.71-1.71h3.419l1.419-2.838a1.057,1.057,0,0,1,2,.479v2.359H35.9a1.715,1.715,0,0,1,1.71,1.71V35.9a1.715,1.715,0,0,1-1.71,1.71H23.935A1.715,1.715,0,0,1,22.226,35.9Z" fill="#e6e9ed"/>
          </g>
          <g id="Group_1252802" data-name="Group 1252802">
            <path id="Path_1245376" data-name="Path 1245376" d="M47.367,22.73a1.671,1.671,0,0,0-1.205-.5,4.793,4.793,0,0,0-2.137-3.984l-.009-.009-.068.068a1.671,1.671,0,0,1-1.205.5H37.613v2a3.423,3.423,0,0,1-1,2.419l-.359.359a1.209,1.209,0,0,0,.855,2.06h.5v5.129l.3-.009a3.017,3.017,0,0,0,2.727,1.718,2.037,2.037,0,0,0,.393-.034v5.112l.009.009a8.671,8.671,0,0,1,5.12-1.667V25.645a1.7,1.7,0,0,0,1.205-2.915Z" fill="#f0d0b4"/>
          </g>
          <g id="Group_1252803" data-name="Group 1252803">
            <path id="Path_1245377" data-name="Path 1245377" d="M37.613,40.177v2.565H32.484V40.177a2.565,2.565,0,0,1,5.129,0Z" fill="#f0d0b4"/>
          </g>
          <g id="Group_1252804" data-name="Group 1252804">
            <path id="Path_1245378" data-name="Path 1245378" d="M28.312,48.623A2.563,2.563,0,0,1,26.5,53H20.516V47.871h1.71a1.71,1.71,0,0,1,3.419,0H26.5A2.558,2.558,0,0,1,28.312,48.623Z" fill="#f0d0b4"/>
          </g>
          <g id="Group_1252805" data-name="Group 1252805">
            <path id="Path_1245379" data-name="Path 1245379" d="M18.456,23.585l-.359-.359a3.423,3.423,0,0,1-1-2.419V18.234a3.524,3.524,0,0,1-1.932.573h-2.24a4.516,4.516,0,0,0-4.377,3.419,1.71,1.71,0,0,0,0,3.419V35.9a10.194,10.194,0,0,1,5.129,1.368V32.45l.393.034A3.017,3.017,0,0,0,16.8,30.766l.3.009V25.645h.5a1.209,1.209,0,0,0,.855-2.06Z" fill="#f0d0b4"/>
          </g>
          <g id="Group_1252806" data-name="Group 1252806">
            <path id="Path_1245380" data-name="Path 1245380" d="M37.613,27.355h3.419a3.4,3.4,0,0,1-.906,2.317,3.439,3.439,0,0,1-2.214,1.094,3.03,3.03,0,0,1-.3-1.308v-2.1Z" fill="#ff826e"/>
          </g>
          <g id="Group_1252807" data-name="Group 1252807">
            <path id="Path_1245381" data-name="Path 1245381" d="M17.1,27.355v2.1a3.03,3.03,0,0,1-.3,1.308,3.439,3.439,0,0,1-2.214-1.094,3.4,3.4,0,0,1-.906-2.317Z" fill="#ff826e"/>
          </g>
        </g>
        <g id="Group_1252809" data-name="Group 1252809">
          <path id="Path_1245382" data-name="Path 1245382" d="M26.5,47.016h-.146a2.565,2.565,0,0,0-4.837,0H19.661v-.855a11.106,11.106,0,0,0-5.129-9.349V33.293a3.868,3.868,0,0,0,3.419-3.831V26.47a2.064,2.064,0,0,0,1.105-3.493l-.354-.354a2.553,2.553,0,0,1-.751-1.814V18.665a4.518,4.518,0,0,0,1.711-3.538V12.665a2.531,2.531,0,0,0,.854.157H24.79v1.508a1.911,1.911,0,0,0,3.621.855l1.181-2.363h2.891a2.568,2.568,0,0,0,2.565-2.565V3.419A2.568,2.568,0,0,0,32.484.855H20.516a2.568,2.568,0,0,0-2.565,2.565v6.839c0,.071.015.138.021.207a15.785,15.785,0,0,1-4.433.648H9.749A8.894,8.894,0,0,0,.855,20.008v.9A11.453,11.453,0,0,0,7.694,31.35v3.962A8.346,8.346,0,0,0,2.565,43.02,10.849,10.849,0,0,0,13.4,53.855H26.5a3.419,3.419,0,1,0,0-6.839ZM16.212,29.757a2.594,2.594,0,0,1-1.531-1.547h1.561v1.252A2.1,2.1,0,0,1,16.212,29.757ZM17.6,24.79H16.242V26.5H12.823v.855a4.294,4.294,0,0,0,2.5,3.873,2.155,2.155,0,0,1-2.779-.233l-.825-.825-1.209,1.209.825.825a3.849,3.849,0,0,0,1.489.913v2.79A11.023,11.023,0,0,0,9.4,35.093V24.79H8.548a.855.855,0,1,1,0-1.71h.667l.162-.648a3.654,3.654,0,0,1,3.548-2.771h2.243a4.36,4.36,0,0,0,1.073-.144v1.291a4.248,4.248,0,0,0,1.252,3.023l.354.354a.354.354,0,0,1-.25.6ZM19.661,3.419a.855.855,0,0,1,.855-.855H32.484a.855.855,0,0,1,.855.855v6.839a.855.855,0,0,1-.855.855H28.536l-1.653,3.307a.209.209,0,0,1-.383-.089V11.113H20.516a.855.855,0,0,1-.855-.855V3.419ZM2.565,20.906v-.9a7.184,7.184,0,0,1,7.185-7.185h3.79a17.474,17.474,0,0,0,4.413-.565v2.87a2.84,2.84,0,0,1-1.3,2.375,2.674,2.674,0,0,1-1.487.451H12.926a5.36,5.36,0,0,0-5.034,3.5,2.565,2.565,0,0,0-.2,4.9v3.1a9.736,9.736,0,0,1-5.129-8.545Zm1.71,22.113A6.632,6.632,0,0,1,8.7,36.766a9.41,9.41,0,0,1,9.254,9.4v.855H14.331A4.933,4.933,0,0,1,9.4,42.089a2.553,2.553,0,0,0-1.417-2.294l-.765-.382-.765,1.529.765.382a.851.851,0,0,1,.473.765,6.643,6.643,0,0,0,6.637,6.637h5.331v3.419H13.4a9.136,9.136,0,0,1-9.126-9.126ZM26.5,52.145H21.371V48.726h1.71v-.855a.855.855,0,0,1,1.71,0v.855H26.5a1.71,1.71,0,0,1,0,3.419Z"/>
          <circle id="Ellipse_14178" data-name="Ellipse 14178" cx="0.855" cy="0.855" r="0.855" transform="translate(12.823 21.371)"/>
          <circle id="Ellipse_14179" data-name="Ellipse 14179" cx="0.855" cy="0.855" r="0.855" transform="translate(40.177 21.371)"/>
          <path id="Path_1245383" data-name="Path 1245383" d="M42.262,11.113H37.613a4.274,4.274,0,0,0-.855,8.462v1.234a2.55,2.55,0,0,1-.751,1.814l-.354.354a2.064,2.064,0,0,0,1.105,3.493v.187A2.536,2.536,0,0,0,35.9,26.5H31.629V24.992a1.911,1.911,0,0,0-3.621-.855L26.827,26.5H23.935a2.568,2.568,0,0,0-2.565,2.565V35.9a2.568,2.568,0,0,0,2.565,2.565H32.1a3.384,3.384,0,0,0-.475,1.71V43.6a10.258,10.258,0,0,0,20.516,0v-.578a8.346,8.346,0,0,0-5.129-7.708v-.262h2.306a4.533,4.533,0,0,0,4.533-4.533V22.706A11.607,11.607,0,0,0,42.262,11.113Zm-5.4,13.073.354-.354a4.248,4.248,0,0,0,1.252-3.023V19.661h4.274a2.532,2.532,0,0,0,1.269-.35,3.926,3.926,0,0,1,1.3,2.914v.855h.855a.855.855,0,0,1,0,1.71h-.855v10.3a9.57,9.57,0,0,0-3.419.969v-2.94a3.839,3.839,0,0,0,1.489-.913l.825-.825L42.992,30.17l-.825.825a2.157,2.157,0,0,1-2.78.233,4.3,4.3,0,0,0,2.5-3.873V26.5H38.468V24.79H37.112a.354.354,0,0,1-.25-.6Zm1.43,14.961a3.4,3.4,0,0,0-.747-1.291,2.546,2.546,0,0,0,.923-1.953V32.675a3.85,3.85,0,0,0,1.71.617v3.844a9.6,9.6,0,0,0-1.886,2.011Zm.206-9.39a2.1,2.1,0,0,1-.03-.295V28.21h1.561A2.594,2.594,0,0,1,38.5,29.757ZM23.081,35.9V29.065a.855.855,0,0,1,.855-.855h3.948L29.536,24.9a.209.209,0,0,1,.383.089V28.21H35.9a.855.855,0,0,1,.855.855V35.9a.855.855,0,0,1-.855.855H23.935a.855.855,0,0,1-.855-.855Zm13.677,4.274v1.71H33.339v-1.71a1.71,1.71,0,1,1,3.419,0Zm13.677,2.841V43.6a8.548,8.548,0,1,1-17.1,0h3.419v.855a4.274,4.274,0,0,0,8.548,0V41.234a.85.85,0,0,1,.473-.765l.765-.382-.765-1.529-.765.382A2.554,2.554,0,0,0,43.6,41.234v3.218a2.565,2.565,0,1,1-5.129,0V42.846l.025-.1a7.89,7.89,0,0,1,7.517-5.98A6.631,6.631,0,0,1,50.435,43.019Zm1.71-12.5a2.824,2.824,0,0,1-2.824,2.824H47.016V26.354A2.565,2.565,0,0,0,46.97,21.5a5.62,5.62,0,0,0-1.842-3.483,2.526,2.526,0,0,0,.179-.922,2.568,2.568,0,0,0-2.565-2.565h-.855v1.71h.855a.855.855,0,1,1,0,1.71H37.613a2.565,2.565,0,1,1,0-5.129h4.649a9.9,9.9,0,0,1,9.884,9.885Z"/>
          <path id="Path_1245384" data-name="Path 1245384" d="M21.371,4.274H31.629v1.71H21.371Z"/>
          <path id="Path_1245385" data-name="Path 1245385" d="M29.919,7.694h1.71V9.4h-1.71Z"/>
          <path id="Path_1245386" data-name="Path 1245386" d="M24.79,29.919H35.048v1.71H24.79Z"/>
          <path id="Path_1245387" data-name="Path 1245387" d="M24.79,33.339h6.839v1.71H24.79Z"/>
          <path id="Path_1245388" data-name="Path 1245388" d="M33.339,33.339h1.71v1.71h-1.71Z"/>
          <path id="Path_1245389" data-name="Path 1245389" d="M21.371,7.694H28.21V9.4H21.371Z"/>
        </g>
      </g>
    </g>
  </g>
</svg>
