<svg xmlns="http://www.w3.org/2000/svg" xmlns:xlink="http://www.w3.org/1999/xlink" width="108" height="108" viewBox="0 0 108 108">
  <defs>
    <filter id="Rectangle_411831" x="0" y="0" width="108" height="108" filterUnits="userSpaceOnUse">
      <feOffset dy="3" input="SourceAlpha"/>
      <feGaussianBlur stdDeviation="3" result="blur"/>
      <feFlood flood-opacity="0.161"/>
      <feComposite operator="in" in2="blur"/>
      <feComposite in="SourceGraphic"/>
    </filter>
    <clipPath id="clip-path">
      <rect id="Rectangle_430334" data-name="Rectangle 430334" width="53" height="60" transform="translate(-3315 -10265)" fill="#fff" stroke="#707070" stroke-width="1" opacity="0"/>
    </clipPath>
  </defs>
  <g id="Group_1242625" data-name="Group 1242625" transform="translate(3342.27 10286)">
    <g id="Group_1242625-2" data-name="Group 1242625" transform="translate(-3333.27 -10280)">
      <g id="Group_1230590" data-name="Group 1230590">
        <g transform="matrix(1, 0, 0, 1, -9, -6)" filter="url(#Rectangle_411831)">
          <g id="Rectangle_411831-2" data-name="Rectangle 411831" transform="translate(9 6)" fill="#a4e0d4" stroke="#fff" stroke-width="2">
            <path d="M5,0H58A32,32,0,0,1,90,32V85a5,5,0,0,1-5,5H32A32,32,0,0,1,0,58V5A5,5,0,0,1,5,0Z" stroke="none"/>
            <path d="M5,1H58A31,31,0,0,1,89,32V85a4,4,0,0,1-4,4H32A31,31,0,0,1,1,58V5A4,4,0,0,1,5,1Z" fill="none"/>
          </g>
        </g>
      </g>
    </g>
    <g id="Mask_Group_1099538" data-name="Mask Group 1099538" clip-path="url(#clip-path)">
      <g id="materias-primas" transform="translate(-3320.551 -10267.047)">
        <g id="Group_1252815" data-name="Group 1252815">
          <path id="Path_1245481" data-name="Path 1245481" d="M14.948,46.044c-3.443-2.579-5.784-7.6-5.784-13.358S11.5,21.908,14.948,19.329c3.443,2.579,5.784,7.6,5.784,13.358S18.39,43.466,14.948,46.044Z" fill="#ffc60b" fill-rule="evenodd"/>
          <path id="Path_1245482" data-name="Path 1245482" d="M14.685,47.4c5.921,1.014,10.491-6.961,8.05-14.021C16.825,32.361,12.243,40.323,14.685,47.4Z" fill="#e47b25" fill-rule="evenodd"/>
          <path id="Path_1245483" data-name="Path 1245483" d="M15.2,47.4c-5.921,1.014-10.491-6.961-8.05-14.021C13.057,32.361,17.639,40.323,15.2,47.4Z" fill="#e47b25" fill-rule="evenodd"/>
          <path id="Path_1245484" data-name="Path 1245484" d="M52.141,17.915c2.917,0,5.283-2.967,5.283-6.6s-2.379-6.6-5.283-6.6-5.3,2.967-5.3,6.6S49.237,17.915,52.141,17.915Z" fill="#9e4623" fill-rule="evenodd"/>
          <path id="Path_1245485" data-name="Path 1245485" d="M39.735,12.581c-2.066,2.066-1.652,5.834.926,8.413s6.335,2.992,8.4.926,1.652-5.834-.926-8.413-6.335-2.992-8.4-.926Z" fill="#9e4623" fill-rule="evenodd"/>
          <path id="Path_1245486" data-name="Path 1245486" d="M34.464,32.474h4.607V50.789H34.464Z" fill="#6d51a1" fill-rule="evenodd"/>
          <path id="Path_1245487" data-name="Path 1245487" d="M43.741,38.521h4.607V50.777H43.741Z" fill="#6d51a1" fill-rule="evenodd"/>
          <path id="Path_1245488" data-name="Path 1245488" d="M57.612,37.006V50.789H53V30.12h4.607Z" fill="#6d51a1" fill-rule="evenodd"/>
          <path id="Path_1245489" data-name="Path 1245489" d="M26.628,22.609a8.938,8.938,0,1,0-8.938-8.938,8.96,8.96,0,0,0,8.938,8.938Z" fill="#9ed3f2" fill-rule="evenodd"/>
          <path id="Path_1245490" data-name="Path 1245490" d="M29.97,15.361a3.349,3.349,0,1,1-6.7,0c0-1.527.914-2.516,1.715-3.918l1.627-2.817,1.627,2.817C29.056,12.832,29.97,13.833,29.97,15.361Z" fill="#b92025" fill-rule="evenodd"/>
          <path id="Path_1245491" data-name="Path 1245491" d="M27.141,59.39a9.577,9.577,0,1,0-9.577-9.577,9.6,9.6,0,0,0,9.577,9.577Z" fill="#ffcd05" fill-rule="evenodd"/>
          <path id="Path_1245492" data-name="Path 1245492" d="M27.141,56.4a6.585,6.585,0,1,0-6.585-6.585A6.6,6.6,0,0,0,27.141,56.4Z" fill="#faa21b" fill-rule="evenodd"/>
          <path id="Path_1245493" data-name="Path 1245493" d="M33.263,50.626A1.865,1.865,0,1,0,31.4,48.761,1.87,1.87,0,0,0,33.263,50.626Z" fill="#feeb90" fill-rule="evenodd"/>
        </g>
        <path id="Path_1245494" data-name="Path 1245494" d="M23.536,52.254a.931.931,0,1,1,1.853-.175c.1,1.052,1.978,1.627,3.067.751A1.092,1.092,0,0,0,28.906,52c0-2.191-5.371-.175-5.371-4.394A3.233,3.233,0,0,1,26.2,44.592v-.638a.933.933,0,0,1,.964-.926.919.919,0,0,1,.926.939l-.013.613a3.246,3.246,0,0,1,2.692,3.03.926.926,0,0,1-1.853,0c0-1.114-1.953-1.74-3.067-.839a1.115,1.115,0,0,0-.451.839c0,2.191,5.371.175,5.371,4.394a3.233,3.233,0,0,1-2.692,3.017l-.013.638a.926.926,0,1,1-1.853,0v-.638A3.266,3.266,0,0,1,23.536,52.254ZM27.141,39.3a10.443,10.443,0,0,1,6.4,2.178V32.461a.927.927,0,0,1,.939-.926h4.607a.935.935,0,0,1,.939.926V50.777a.938.938,0,0,1-.939.939h-1.6a10.512,10.512,0,0,1-20.744-3.393.47.47,0,0,1-.125.013,6.619,6.619,0,0,1-1.652.025,6.927,6.927,0,0,1-3-.338c-3.418-1.177-5.6-4.77-6.209-8.363a13.3,13.3,0,0,1,.526-6.6A.91.91,0,0,1,7,32.449a5.916,5.916,0,0,1,1.239-.1c.075-5.233,2.116-10.741,6.159-13.771a.92.92,0,0,1,1.127.013,14.816,14.816,0,0,1,4.507,5.972,20.669,20.669,0,0,1,1.627,7.787,7.086,7.086,0,0,1,1.239.1.95.95,0,0,1,.726.613,13.323,13.323,0,0,1,.513,6.673,10.319,10.319,0,0,1,3-.438ZM35.4,43.315a10.529,10.529,0,0,1,2.241,6.535h.5V33.388H35.4ZM17.226,46.295a10.646,10.646,0,0,1,4.782-5.671,11.269,11.269,0,0,0,.463-3.33,11.476,11.476,0,0,0-.451-3.092,5.178,5.178,0,0,0-3.267.939,8.443,8.443,0,0,0-2.817,3.505,13.464,13.464,0,0,1,.488,7.837,4.154,4.154,0,0,0,.8-.188Zm16.024-2.6a8.649,8.649,0,1,0,0,12.231A8.644,8.644,0,0,0,33.25,43.691ZM30.9,15.348a4.281,4.281,0,1,1-8.563,0c0-1.84,1.014-2.954,1.853-4.382L25.814,8.15a.923.923,0,0,1,1.6,0l1.627,2.817C29.87,12.381,30.9,13.5,30.9,15.348ZM28.33,17.063a2.411,2.411,0,0,0,.714-1.715c0-1.2-.914-2.278-1.59-3.455l-.826-1.427c-.463.8-.9,1.59-1.39,2.354a4.885,4.885,0,0,0-1.027,2.529,2.418,2.418,0,0,0,4.119,1.715Zm-1.7-13.283a9.877,9.877,0,1,1-9.865,9.877,9.873,9.873,0,0,1,9.865-9.877Zm5.659,4.206a8.011,8.011,0,1,0,0,11.33A8.009,8.009,0,0,0,32.286,7.987ZM58.551,36.993V50.777a.935.935,0,0,1-.926.939H53.017a.927.927,0,0,1-.926-.939V30.108a.935.935,0,0,1,.926-.939h4.607a.927.927,0,0,1,.926.939ZM56.686,49.85V31.034H53.944v18.8h2.742Zm-9.264-10.4H44.68v10.4h2.742Zm-3.681-1.865h4.607a.924.924,0,0,1,.926.926V50.764a.935.935,0,0,1-.926.939H43.741a.927.927,0,0,1-.926-.939V38.508A.932.932,0,0,1,43.741,37.582Zm.225-4.507a.916.916,0,0,1,.075-1.3.932.932,0,0,1,1.314.075l.325.363.325-.363a.942.942,0,0,1,1.314-.075.927.927,0,0,1,.075,1.3l-1.089,1.214a.916.916,0,0,1-1.3-.075ZM49.6,30.609a.931.931,0,1,1-1.39-1.239l.776-.864a.931.931,0,1,1,1.39,1.239Zm3.08-3.43a.916.916,0,0,1-1.3.075.93.93,0,0,1-.075-1.314l.9-1.014a.93.93,0,0,1,1.314-.075.942.942,0,0,1,.075,1.314Zm3.142-3.518a.926.926,0,1,1-1.377-1.239l1.2-1.327a.93.93,0,0,1,1.314-.075.942.942,0,0,1,.075,1.314ZM43.14,29.382a.931.931,0,1,1-1.39,1.239l-.776-.864a.931.931,0,1,1,1.39-1.239ZM40.286,26.19a.931.931,0,0,1-1.39,1.239l-2.641-2.942-8.262,8.8a.93.93,0,1,1-1.352-1.277L35.6,22.471a.935.935,0,0,1,1.365.013Zm1.3-13.733c.438,4.632,4.882,4.181,7.749,7.1.776-3.23-2.241-6.96-5.684-7.349A4.53,4.53,0,0,0,41.588,12.456Zm6.785,8.813c-2.329-2.892-7.349-2.554-8.45-7.436a4.183,4.183,0,0,0-.538,2.641,6.879,6.879,0,0,0,5.771,5.771,3.889,3.889,0,0,0,3.217-.976ZM37.544,16.675c-.526-4.782,3.831-7.649,8.388-5.771a8.385,8.385,0,0,1,1.753-4.845,5.506,5.506,0,0,1,8.926,0,8.713,8.713,0,0,1,0,10.491,5.612,5.612,0,0,1-5.3,2.216A5.454,5.454,0,0,1,44.968,24.1a8.7,8.7,0,0,1-7.424-7.424Zm10.278-4.695a8.782,8.782,0,0,1,3.28,4.832,3.355,3.355,0,0,0,1,.163,9.571,9.571,0,0,0-.789-4.131c-.8-2.3-1.565-4.519.063-7.111a4.105,4.105,0,0,0-2.241,1.49,6.689,6.689,0,0,0-1.314,4.757Zm5.709-6.047c-2.967,3.58.488,6.41.463,10.5,2.829-1.728,3.343-6.51,1.177-9.214a4.468,4.468,0,0,0-1.64-1.289ZM13.32,26.978a.926.926,0,1,1,0-1.853h.225a.926.926,0,0,1,0,1.853Zm3.017,3.067a.933.933,0,1,1,0-1.865h.225a.938.938,0,0,1,.939.939.927.927,0,0,1-.939.926Zm0,3a.938.938,0,0,1-.939-.939.927.927,0,0,1,.939-.926h.225a.933.933,0,1,1,0,1.865Zm0-6.072a.926.926,0,1,1,0-1.853h.225a.926.926,0,1,1,0,1.853ZM13.32,30.045a.924.924,0,0,1-.926-.926.935.935,0,0,1,.926-.939h.225a.933.933,0,0,1,0,1.865Zm0,3a.933.933,0,0,1,0-1.865h.225a.924.924,0,0,1,.926.926.935.935,0,0,1-.926.939Zm-3.23-.426a8.708,8.708,0,0,1,4.845,3.968,8.779,8.779,0,0,1,4.845-3.968c-.013-4.507-1.59-9.276-4.845-12.106C11.68,23.335,10.1,28.1,10.09,32.624ZM12.556,46.27a5.03,5.03,0,0,0,1.94.263,11.335,11.335,0,0,0-1.54-9.552,5.916,5.916,0,0,0-5.12-2.767,11.335,11.335,0,0,0,1.54,9.552A6.891,6.891,0,0,0,12.556,46.27Z" fill="#010101"/>
      </g>
    </g>
  </g>
</svg>
