<svg xmlns="http://www.w3.org/2000/svg" xmlns:xlink="http://www.w3.org/1999/xlink" width="108" height="108" viewBox="0 0 108 108">
  <defs>
    <filter id="Rectangle_411831" x="0" y="0" width="108" height="108" filterUnits="userSpaceOnUse">
      <feOffset dy="3" input="SourceAlpha"/>
      <feGaussianBlur stdDeviation="3" result="blur"/>
      <feFlood flood-opacity="0.161"/>
      <feComposite operator="in" in2="blur"/>
      <feComposite in="SourceGraphic"/>
    </filter>
    <clipPath id="clip-path">
      <rect id="Rectangle_430334" data-name="Rectangle 430334" width="53" height="60" transform="translate(-3315 -10265)" fill="#fff" stroke="#707070" stroke-width="1" opacity="0"/>
    </clipPath>
  </defs>
  <g id="Group_1242626" data-name="Group 1242626" transform="translate(3342.27 10286)">
    <g id="Group_1242625" data-name="Group 1242625" transform="translate(-3333.27 -10280)">
      <g id="Group_1230590" data-name="Group 1230590">
        <g transform="matrix(1, 0, 0, 1, -9, -6)" filter="url(#Rectangle_411831)">
          <g id="Rectangle_411831-2" data-name="Rectangle 411831" transform="translate(9 6)" fill="#a4e0d4" stroke="#fff" stroke-width="2">
            <path d="M5,0H58A32,32,0,0,1,90,32V85a5,5,0,0,1-5,5H32A32,32,0,0,1,0,58V5A5,5,0,0,1,5,0Z" stroke="none"/>
            <path d="M5,1H58A31,31,0,0,1,89,32V85a4,4,0,0,1-4,4H32A31,31,0,0,1,1,58V5A4,4,0,0,1,5,1Z" fill="none"/>
          </g>
        </g>
      </g>
    </g>
    <g id="Mask_Group_1099537" data-name="Mask Group 1099537" clip-path="url(#clip-path)">
      <g id="metodo-de-pago_1_" data-name="metodo-de-pago (1)" transform="translate(-3315 -10261.5)">
        <path id="Path_1245467" data-name="Path 1245467" d="M11.111,38.51v8.207c4.675.206,3.326,1.032,11.46,4.689a7.7,7.7,0,0,0,5.988-.1l.005,0,15.979-5.721c.52-.239,3.143-1.664,2.108-4.318-1.209-2.83-4.322-1.65-4.583-1.565L33.727,42" fill="#eac092"/>
        <g id="Group_1252812" data-name="Group 1252812">
          <path id="Path_1245468" data-name="Path 1245468" d="M20.55,41.943l9.29,2.944a3.052,3.052,0,0,0,3.77-2.1h0a3.349,3.349,0,0,0-2.337-4l-8.242-2.8a7.005,7.005,0,0,0-5.949-2.874c-2.645,0-4.926,2.138-5.971,4.01v3.737" fill="#fedbab"/>
        </g>
        <path id="Path_1245469" data-name="Path 1245469" d="M16.847,41.805a1.02,1.02,0,0,1-.2-.021,1,1,0,0,1-.195-.059,1.044,1.044,0,0,1-.178-.1,1.006,1.006,0,0,1-.286-.286.957.957,0,0,1-.1-.179.972.972,0,0,1-.059-.194.994.994,0,0,1,0-.4,1,1,0,0,1,.059-.195,1.02,1.02,0,0,1,.381-.464,1.05,1.05,0,0,1,.178-.1,1,1,0,0,1,.195-.059,1.019,1.019,0,0,1,.4,0,.972.972,0,0,1,.194.059,1.021,1.021,0,0,1,.179.1,1.006,1.006,0,0,1,.286.286,1.05,1.05,0,0,1,.1.178,1.08,1.08,0,0,1,.059.195.994.994,0,0,1,0,.4,1.045,1.045,0,0,1-.059.194,1.022,1.022,0,0,1-.1.179,1.006,1.006,0,0,1-.286.286,1.022,1.022,0,0,1-.179.1.972.972,0,0,1-.194.059A1.02,1.02,0,0,1,16.847,41.805Z"/>
        <rect id="Rectangle_433877" data-name="Rectangle 433877" width="3.921" height="11.122" transform="translate(7.19 36.994)" fill="#eaecf0"/>
        <rect id="Rectangle_433878" data-name="Rectangle 433878" width="6.155" height="13.051" transform="translate(1.035 36.994)" fill="#3688c8"/>
        <path id="Path_1245470" data-name="Path 1245470" d="M47.616,40.887l-.013-.031c-.953-2.229-3.187-3.053-5.832-2.15L34.561,40.7a4.728,4.728,0,0,0-2.928-2.883l-.027-.01-7.927-2.691a8.176,8.176,0,0,0-6.6-3.035c-2.7,0-5.1,1.855-6.465,3.877H1.035A1.035,1.035,0,0,0,0,36.994V50.045A1.035,1.035,0,0,0,1.035,51.08H7.19a1.035,1.035,0,0,0,1.035-1.035v-.894h2.886a1.035,1.035,0,0,0,1.035-1.035v-.3a7.339,7.339,0,0,1,3.781,1.357,62.644,62.644,0,0,0,6.219,3.175l.045.019a9.292,9.292,0,0,0,3.33.628,8.251,8.251,0,0,0,3.43-.734l15.94-5.707c.028-.01.056-.022.084-.034C46.5,45.821,48.77,43.845,47.616,40.887ZM6.155,49.01H2.07V38.029H6.155Zm3.921-1.929H8.225V38.029h1.851Zm34.073-2.458-15.933,5.7-.047.018-.042.018a6.709,6.709,0,0,1-5.155.088,59.964,59.964,0,0,1-6.01-3.07,9.317,9.317,0,0,0-4.815-1.638V37.406c.981-1.608,2.884-3.254,4.936-3.254a5.973,5.973,0,0,1,5.067,2.381,1.035,1.035,0,0,0,.549.438l8.227,2.792a2.323,2.323,0,0,1,1.689,2.74A2.017,2.017,0,0,1,30.137,43.9l-9.274-2.939a1.035,1.035,0,1,0-.625,1.974l9.29,2.944.03.009a4.063,4.063,0,0,0,3.107-.361,4.06,4.06,0,0,0,1.942-2.452q.036-.126.063-.252l7.772-2.153c1.123-.383,2.6-.522,3.252.989C46.373,43.428,44.608,44.4,44.149,44.623Z"/>
        <path id="Path_1245471" data-name="Path 1245471" d="M24.834,10.232,15.64,1.038,4.113,12.565l19.7,19.7L34.688,21.385" fill="#26cfad"/>
        <path id="Path_1245472" data-name="Path 1245472" d="M19.39,11.8h0l0-.006a4.866,4.866,0,1,0,5.2,4.976" fill="#ffd36c"/>
        <path id="Path_1245473" data-name="Path 1245473" d="M41.889,16.079V7.872c-4.675-.206-3.326-1.032-11.46-4.689a7.7,7.7,0,0,0-5.988.1l-.005,0L19.614,5.012l4.974,4.974" fill="#eac092"/>
        <g id="Group_1252813" data-name="Group 1252813">
          <path id="Path_1245474" data-name="Path 1245474" d="M4.113,12.565,8.02,8.657a5.532,5.532,0,0,1,0,7.816Z" fill="#00b192"/>
          <path id="Path_1245475" data-name="Path 1245475" d="M19.9,28.354a5.532,5.532,0,0,1,7.816,0L23.81,32.262Z" fill="#00b192"/>
          <path id="Path_1245476" data-name="Path 1245476" d="M11.732,4.945,15.64,1.038l3.908,3.908A5.532,5.532,0,0,1,11.732,4.945Z" fill="#00b192"/>
          <path id="Path_1245477" data-name="Path 1245477" d="M30.144,18.845a5.534,5.534,0,0,0,1.285,5.8l3.258-3.258" fill="#00b192"/>
        </g>
        <g id="Group_1252814" data-name="Group 1252814">
          <path id="Path_1245478" data-name="Path 1245478" d="M32.45,12.645,23.16,9.7a3.052,3.052,0,0,0-3.77,2.1h0a3.349,3.349,0,0,0,2.337,4l8.245,2.8h0a7.005,7.005,0,0,0,5.949,2.874c2.645,0,4.926-2.138,5.971-4.01V13.725" fill="#fedbab"/>
        </g>
        <path id="Path_1245479" data-name="Path 1245479" d="M36.153,14.854a1.02,1.02,0,0,1-.2-.021,1.045,1.045,0,0,1-.194-.059,1.022,1.022,0,0,1-.179-.1,1.006,1.006,0,0,1-.286-.286,1.022,1.022,0,0,1-.1-.179.972.972,0,0,1-.059-.194.994.994,0,0,1,0-.4,1,1,0,0,1,.059-.195,1.05,1.05,0,0,1,.1-.178,1.006,1.006,0,0,1,.286-.286,1.022,1.022,0,0,1,.179-.1.972.972,0,0,1,.194-.059,1.031,1.031,0,0,1,.6.059,1.05,1.05,0,0,1,.178.1,1.035,1.035,0,0,1,.381.464,1.006,1.006,0,0,1,.06.195,1.046,1.046,0,0,1,0,.4.975.975,0,0,1-.06.194.957.957,0,0,1-.1.179,1.006,1.006,0,0,1-.286.286,1.05,1.05,0,0,1-.178.1,1.1,1.1,0,0,1-.194.059A1.038,1.038,0,0,1,36.153,14.854Z"/>
        <rect id="Rectangle_433879" data-name="Rectangle 433879" width="3.921" height="11.122" transform="translate(41.889 6.473)" fill="#eaecf0"/>
        <rect id="Rectangle_433880" data-name="Rectangle 433880" width="6.155" height="13.051" transform="translate(45.81 4.543)" fill="#3688c8"/>
        <path id="Path_1245480" data-name="Path 1245480" d="M51.965,3.508H45.81a1.035,1.035,0,0,0-1.035,1.035v.894H41.889a1.035,1.035,0,0,0-1.035,1.035v.3a7.339,7.339,0,0,1-3.781-1.357,62.637,62.637,0,0,0-6.219-3.175l-.046-.019a8.807,8.807,0,0,0-6.759.106L19.883,3.817,16.372.306a1.035,1.035,0,0,0-1.464,0L3.381,11.833a1.027,1.027,0,0,0,0,1.464l19.7,19.7a1.118,1.118,0,0,0,1.464,0L35.066,22.471c.274.024.558.036.852.036,2.7,0,5.1-1.855,6.465-3.877h9.582A1.035,1.035,0,0,0,53,17.595V4.543A1.035,1.035,0,0,0,51.965,3.508Zm-33.7,9.6a4.583,4.583,0,0,0,3.1,3.663l.027.01,2.07.7a3.83,3.83,0,1,1-5.2-4.375Zm2.071-4.042a4.058,4.058,0,0,0-1.687,1.782,5.9,5.9,0,1,0,6.784,7.3l3.5,1.186a6.609,6.609,0,0,0,1.1,5.246l-2.364,2.364a6.578,6.578,0,0,0-7.7,0L9.427,16.415a6.578,6.578,0,0,0,0-7.7l2.362-2.362a6.578,6.578,0,0,0,7.7,0l2.239,2.239A4.085,4.085,0,0,0,20.336,9.067Zm11.18,14.026a4.528,4.528,0,0,1-.661-2.153,8.049,8.049,0,0,0,1.826.988ZM15.64,2.5,18,4.861a4.513,4.513,0,0,1-4.719,0Zm-7.7,7.7a4.513,4.513,0,0,1,0,4.719L5.576,12.565ZM23.81,30.8,21.451,28.44a4.507,4.507,0,0,1,4.718,0ZM35.918,20.436a7.534,7.534,0,0,1-1.08-.076h0A5.929,5.929,0,0,1,31,18.262c-.021-.031-.111-.149-.124-.168a1.031,1.031,0,0,0-.57-.474l-8.23-2.793a2.323,2.323,0,0,1-1.689-2.739v0a2.017,2.017,0,0,1,2.477-1.388l9.274,2.939a1.035,1.035,0,1,0,.625-1.974L25.387,9.321l-.064-.064,0,0L21.5,5.436,24.784,4.26l.036-.014.011,0,.042-.018a6.709,6.709,0,0,1,5.155-.088,59.962,59.962,0,0,1,6.01,3.07,9.316,9.316,0,0,0,4.815,1.638v8.337C39.872,18.79,37.969,20.436,35.918,20.436ZM42.924,7.507h1.851v9.052H42.924Zm8.006,9.052H46.845V5.579H50.93Z"/>
      </g>
    </g>
  </g>
</svg>
