<svg xmlns="http://www.w3.org/2000/svg" xmlns:xlink="http://www.w3.org/1999/xlink" width="108" height="108" viewBox="0 0 108 108">
  <defs>
    <filter id="Rectangle_411831" x="0" y="0" width="108" height="108" filterUnits="userSpaceOnUse">
      <feOffset dy="3" input="SourceAlpha"/>
      <feGaussianBlur stdDeviation="3" result="blur"/>
      <feFlood flood-opacity="0.161"/>
      <feComposite operator="in" in2="blur"/>
      <feComposite in="SourceGraphic"/>
    </filter>
    <clipPath id="clip-path">
      <rect id="Rectangle_430334" data-name="Rectangle 430334" width="53" height="60" transform="translate(-3315 -10265)" fill="#fff" stroke="#707070" stroke-width="1" opacity="0"/>
    </clipPath>
  </defs>
  <g id="Group_1255138" data-name="Group 1255138" transform="translate(3342.27 10286)">
    <g id="Group_1242625" data-name="Group 1242625" transform="translate(-3333.27 -10280)">
      <g id="Group_1230590" data-name="Group 1230590">
        <g transform="matrix(1, 0, 0, 1, -9, -6)" filter="url(#Rectangle_411831)">
          <g id="Rectangle_411831-2" data-name="Rectangle 411831" transform="translate(9 6)" fill="#a4e0d4" stroke="#fff" stroke-width="2">
            <path d="M5,0H58A32,32,0,0,1,90,32V85a5,5,0,0,1-5,5H32A32,32,0,0,1,0,58V5A5,5,0,0,1,5,0Z" stroke="none"/>
            <path d="M5,1H58A31,31,0,0,1,89,32V85a4,4,0,0,1-4,4H32A31,31,0,0,1,1,58V5A4,4,0,0,1,5,1Z" fill="none"/>
          </g>
        </g>
      </g>
    </g>
    <g id="Mask_Group_1099550" data-name="Mask Group 1099550" clip-path="url(#clip-path)">
      <g id="esceptico" transform="translate(-3316.403 -10262.903)">
        <path id="Path_1245667" data-name="Path 1245667" d="M33.421,12.262h3.27V.817h-3.27L30.9,6.54Z" fill="#d5e3aa"/>
        <path id="Path_1245668" data-name="Path 1245668" d="M33.421.817V12.262H20.2l-3.27,3.27V.817Z" fill="#fff0d3"/>
        <path id="Path_1245669" data-name="Path 1245669" d="M8.76,5.722V16.731l4.9-5.014v-1.09A4.9,4.9,0,0,0,8.76,5.722Z" fill="#ffb4a9"/>
        <path id="Path_1245670" data-name="Path 1245670" d="M8.76,5.722a4.9,4.9,0,0,0-4.9,4.9v1.09l6.54,5.014v-6.1C10.4,7.918,9.663,5.722,8.76,5.722Z" fill="#ffd9d4"/>
        <path id="Path_1245671" data-name="Path 1245671" d="M10.8,11.717a2.464,2.464,0,0,0-.4-.464L8.76,18.8a4.9,4.9,0,0,0,4.9-4.9v-2.18Z" fill="#ff6337"/>
        <path id="Path_1245672" data-name="Path 1245672" d="M10.4,13.9V11.253a2.451,2.451,0,0,0-3.674.464H3.855V13.9a4.9,4.9,0,0,0,4.9,4.9C9.663,18.8,10.4,16.606,10.4,13.9Z" fill="#ff8646"/>
        <path id="Path_1245673" data-name="Path 1245673" d="M8.76,28.611v8.175a4.9,4.9,0,0,0,4.9-4.9Z" fill="#2dade3"/>
        <path id="Path_1245674" data-name="Path 1245674" d="M10.4,31.881,8.76,28.611l-4.9,3.27a4.9,4.9,0,0,0,4.9,4.9C9.663,36.786,10.4,34.59,10.4,31.881Z" fill="#49c9ff"/>
        <path id="Path_1245675" data-name="Path 1245675" d="M11.485,18.8H8.215L10.4,31.881h3.27v-10.9A2.18,2.18,0,0,0,11.485,18.8Z" fill="#9db55f"/>
        <path id="Path_1245676" data-name="Path 1245676" d="M8.215,18.8H6.035a2.18,2.18,0,0,0-2.18,2.18v10.9H10.4v-10.9A2.18,2.18,0,0,0,8.215,18.8Z" fill="#b9d171"/>
        <path id="Path_1245677" data-name="Path 1245677" d="M47.591,18.8h-3.27V31.881h5.45v-10.9A2.18,2.18,0,0,0,47.591,18.8Z" fill="#2dade3"/>
        <path id="Path_1245678" data-name="Path 1245678" d="M44.321,18.8h-2.18a2.18,2.18,0,0,0-2.18,2.18v10.9H46.5v-10.9A2.18,2.18,0,0,0,44.321,18.8Z" fill="#49c9ff"/>
        <path id="Path_1245679" data-name="Path 1245679" d="M49.771,28.611H46.5l1.635,9.81h3.27V32.935A6.513,6.513,0,0,0,49.771,28.611Z" fill="#ff4128"/>
        <path id="Path_1245680" data-name="Path 1245680" d="M46.5,28.611h-6.54a6.513,6.513,0,0,0-1.635,4.323v5.486h9.81V32.935A6.513,6.513,0,0,0,46.5,28.611Z" fill="#ff6337"/>
        <circle id="Ellipse_14196" data-name="Ellipse 14196" cx="2.452" cy="2.452" r="2.452" transform="translate(42.413 0.817)" fill="#60312c"/>
        <path id="Path_1245681" data-name="Path 1245681" d="M48.6,7.448s-3.734,0-3.734,0v8.084A4.9,4.9,0,0,0,48.6,7.448Z" fill="#a45e43"/>
        <path id="Path_1245682" data-name="Path 1245682" d="M46.38,8.775,41.132,7.448a4.9,4.9,0,0,0,3.734,8.084c.9,0,1.635-2.2,1.635-4.9A13.7,13.7,0,0,0,46.38,8.775Z" fill="#c27749"/>
        <path id="Path_1245683" data-name="Path 1245683" d="M44.866,5.722,46.38,8.775A5.279,5.279,0,0,0,48.6,7.448,4.891,4.891,0,0,0,44.866,5.722Z" fill="#40211d"/>
        <path id="Path_1245684" data-name="Path 1245684" d="M44.866,5.722a4.891,4.891,0,0,0-3.734,1.726A5.277,5.277,0,0,0,46.38,8.775C46.137,6.984,45.55,5.722,44.866,5.722Z" fill="#60312c"/>
        <circle id="Ellipse_14197" data-name="Ellipse 14197" cx="0.817" cy="0.817" r="0.817" transform="translate(22.726 5.722)"/>
        <circle id="Ellipse_14198" data-name="Ellipse 14198" cx="0.817" cy="0.817" r="0.817" transform="translate(25.995 5.722)"/>
        <circle id="Ellipse_14199" data-name="Ellipse 14199" cx="0.817" cy="0.817" r="0.817" transform="translate(29.265 5.722)"/>
        <path id="Path_1245685" data-name="Path 1245685" d="M21.047,21.494a9.4,9.4,0,0,1-6.565,2.757V20.982a3,3,0,0,0-1.933-2.8A5.709,5.709,0,0,0,14.483,13.9v-3.27a5.722,5.722,0,1,0-11.445,0V13.9A5.709,5.709,0,0,0,4.972,18.18a3,3,0,0,0-1.933,2.8v10.9a5.7,5.7,0,0,0,1.635,4V53.309l-2.711.9a.817.817,0,1,0,.517,1.551l3.27-1.09a.817.817,0,0,0,.559-.776V37.05a5.712,5.712,0,0,0,4.9,0V53.9a.817.817,0,0,0,.559.776l3.27,1.09a.817.817,0,1,0,.517-1.551l-2.711-.9V35.88a5.7,5.7,0,0,0,1.635-4v-6A11.033,11.033,0,0,0,22.2,22.65a.817.817,0,0,0-1.156-1.156ZM8.76,6.54a4.092,4.092,0,0,1,4.087,4.087V10.9H11.2a3.27,3.27,0,0,0-4.874,0H4.673v-.272A4.092,4.092,0,0,1,8.76,6.54ZM4.673,13.9V12.534H6.721a.817.817,0,0,0,.679-.363,1.635,1.635,0,0,1,2.72,0,.817.817,0,0,0,.679.363h2.048V13.9a4.087,4.087,0,1,1-8.175,0Zm1.362,5.722h5.45a1.364,1.364,0,0,1,1.362,1.362v3.145A9.381,9.381,0,0,1,7.7,21.494.817.817,0,0,0,6.547,22.65a11.013,11.013,0,0,0,6.3,3.132v5.282H4.673V20.982A1.364,1.364,0,0,1,6.035,19.619ZM4.755,32.7h8.01a4.088,4.088,0,0,1-8.01,0Z"/>
        <path id="Path_1245686" data-name="Path 1245686" d="M37.509,12.262V.817A.817.817,0,0,0,36.691,0H16.935a.817.817,0,0,0-.817.817V15.532a.817.817,0,0,0,1.4.578l3.03-3.03h9.608a.817.817,0,1,0,0-1.635H20.2a.818.818,0,0,0-.578.239l-1.874,1.874V1.635H35.874v9.81H33.421a.817.817,0,0,0,0,1.635h3.27A.817.817,0,0,0,37.509,12.262Z"/>
        <path id="Path_1245687" data-name="Path 1245687" d="M51.406,26.159a3,3,0,1,0,0-5.995h-.932a3,3,0,0,0-2.883-2.18h-5.45a3,3,0,0,0-2.883,2.18h-.932a3,3,0,1,0,0,5.995h.817v2.154a7.348,7.348,0,0,0-1.635,4.622v5.486a.817.817,0,0,0,.817.817h2.452V53.309l-2.711.9a.817.817,0,1,0,.517,1.551l3.27-1.09a.817.817,0,0,0,.559-.776V39.238h4.9V53.9a.817.817,0,0,0,.559.776l3.27,1.09a.817.817,0,1,0,.517-1.551l-2.711-.9V39.238h2.452a.817.817,0,0,0,.817-.817V32.935a7.348,7.348,0,0,0-1.635-4.622V26.159Zm1.362-3a1.364,1.364,0,0,1-1.362,1.362h-.817V21.8h.817A1.364,1.364,0,0,1,52.768,23.162ZM42.141,19.619h5.45a1.364,1.364,0,0,1,1.362,1.362v3.542H40.779V20.982A1.364,1.364,0,0,1,42.141,19.619Zm-3.815,4.9a1.362,1.362,0,0,1,0-2.725h.817v2.725ZM50.588,37.6H39.144V32.935a5.713,5.713,0,0,1,1.2-3.506h9.038a5.713,5.713,0,0,1,1.2,3.506V37.6Zm-1.635-9.81H40.779V26.159h8.175Z"/>
        <path id="Path_1245688" data-name="Path 1245688" d="M44.866,16.349a5.718,5.718,0,0,0,4.385-9.394.826.826,0,0,0-.073-.085A5.768,5.768,0,0,0,47.3,5.45a3.27,3.27,0,1,0-4.869,0,5.755,5.755,0,0,0-1.874,1.417.794.794,0,0,0-.076.088,5.718,5.718,0,0,0,4.385,9.394Zm0-1.635a4.085,4.085,0,0,1-3.577-6.062,6.109,6.109,0,0,0,7.154,0,4.085,4.085,0,0,1-3.577,6.062ZM42.357,7.4a4.074,4.074,0,0,1,5.019,0A4.473,4.473,0,0,1,42.357,7.4Zm.874-4.134A1.635,1.635,0,1,1,44.866,4.9,1.637,1.637,0,0,1,43.231,3.27Z"/>
      </g>
    </g>
  </g>
</svg>
