<svg xmlns="http://www.w3.org/2000/svg" xmlns:xlink="http://www.w3.org/1999/xlink" width="108" height="108" viewBox="0 0 108 108">
  <defs>
    <filter id="Rectangle_411831" x="0" y="0" width="108" height="108" filterUnits="userSpaceOnUse">
      <feOffset dy="3" input="SourceAlpha"/>
      <feGaussianBlur stdDeviation="3" result="blur"/>
      <feFlood flood-opacity="0.161"/>
      <feComposite operator="in" in2="blur"/>
      <feComposite in="SourceGraphic"/>
    </filter>
    <clipPath id="clip-path">
      <rect id="Rectangle_430334" data-name="Rectangle 430334" width="53" height="60" transform="translate(-3315 -10265)" fill="#fff" stroke="#707070" stroke-width="1" opacity="0"/>
    </clipPath>
  </defs>
  <g id="Group_1255133" data-name="Group 1255133" transform="translate(3342.27 10286)">
    <g id="Group_1242625" data-name="Group 1242625" transform="translate(-3333.27 -10280)">
      <g id="Group_1230590" data-name="Group 1230590">
        <g transform="matrix(1, 0, 0, 1, -9, -6)" filter="url(#Rectangle_411831)">
          <g id="Rectangle_411831-2" data-name="Rectangle 411831" transform="translate(9 6)" fill="#a4e0d4" stroke="#fff" stroke-width="2">
            <path d="M5,0H58A32,32,0,0,1,90,32V85a5,5,0,0,1-5,5H32A32,32,0,0,1,0,58V5A5,5,0,0,1,5,0Z" stroke="none"/>
            <path d="M5,1H58A31,31,0,0,1,89,32V85a4,4,0,0,1-4,4H32A31,31,0,0,1,1,58V5A4,4,0,0,1,5,1Z" fill="none"/>
          </g>
        </g>
      </g>
    </g>
    <g id="Mask_Group_1099546" data-name="Mask Group 1099546" clip-path="url(#clip-path)">
      <g id="pregunta" transform="translate(-3316.102 -10262.602)">
        <path id="Path_1245579" data-name="Path 1245579" d="M50.57.809H36.379a2.722,2.722,0,0,0-2.722,2.722V17.723a2.722,2.722,0,0,0,2.722,2.722h2.546a1.342,1.342,0,0,1,1.342,1.342v2.3a.506.506,0,0,0,.906.31l2.676-3.448a1.293,1.293,0,0,1,1.022-.5h5.7a2.722,2.722,0,0,0,2.722-2.722V3.531A2.722,2.722,0,0,0,50.57.809Z" fill="#f7e365"/>
        <path id="Path_1245580" data-name="Path 1245580" d="M50.57.809H47.629a2.722,2.722,0,0,1,2.722,2.722V17.723a2.722,2.722,0,0,1-2.722,2.722H50.57a2.722,2.722,0,0,0,2.722-2.722V3.531A2.722,2.722,0,0,0,50.57.809Z" fill="#f3d332"/>
        <path id="Path_1245581" data-name="Path 1245581" d="M32.957,54.4H4.289l.395-5.415A7.141,7.141,0,0,1,10.7,42.444l2.27-.356a2.369,2.369,0,0,0,2-2.341V31.413h8.518v8.334a2.37,2.37,0,0,0,2,2.341l2.271.356a7.14,7.14,0,0,1,6.018,6.536l.306,4.192A1.14,1.14,0,0,1,32.957,54.4Z" fill="#faa68e"/>
        <path id="Path_1245582" data-name="Path 1245582" d="M13.018,47.257a.861.861,0,0,1,.833-.644h3.578a3.51,3.51,0,0,0,3.51-3.51V41.628A.626.626,0,0,1,21.565,41h2.292a2.36,2.36,0,0,1-.362-1.255V37.268H15.971a.5.5,0,0,1-.407-.782l1.508-2.155a1.831,1.831,0,0,0-.422-2.526l-.038-.028a1.891,1.891,0,0,0-1.634-.29v8.26a2.369,2.369,0,0,1-2,2.341l-2.27.356a7.128,7.128,0,0,0-3.938,2L4.332,53.8l-.043.595h6.874Z" fill="#e09380"/>
        <path id="Path_1245583" data-name="Path 1245583" d="M32.957,54.4H4.289l.395-5.415A7.141,7.141,0,0,1,10.7,42.444l2.27-.356a2.441,2.441,0,0,0,.464-.121,7.931,7.931,0,0,0,11.534-.024,2.376,2.376,0,0,0,.528.146l2.271.356a7.14,7.14,0,0,1,6.018,6.536l.306,4.192A1.14,1.14,0,0,1,32.957,54.4Z" fill="#acd980"/>
        <path id="Path_1245584" data-name="Path 1245584" d="M13.851,46.613H17.43a3.511,3.511,0,0,0,3.3-2.321,8.082,8.082,0,0,1-1.54.149,7.817,7.817,0,0,1-5.755-2.474c-1.372.509-4.224.034-6.672,2.475L4.332,53.8l-.043.595h6.874l1.856-7.138a.86.86,0,0,1,.833-.644Z" fill="#8cc951"/>
        <path id="Path_1245585" data-name="Path 1245585" d="M34.093,53.173l-.306-4.192a7.125,7.125,0,0,0-1.868-4.318c-2.449-2.659-5.49-2.211-6.834-2.677l-.016-.006c-.033-.012-.067-.024-.1-.037a7.518,7.518,0,0,1-.772.728l.618.1A7.14,7.14,0,0,1,30.835,49.3l.305,4.192a1.135,1.135,0,0,1-.343.9h2.159A1.14,1.14,0,0,0,34.093,53.173Z" fill="#8cc951"/>
        <path id="Path_1245586" data-name="Path 1245586" d="M20.761,4.409H17.146a11.3,11.3,0,0,0-9.823,5.709,6.165,6.165,0,0,0-4.593,6.14l.312,10.8H34.67V18.318A13.909,13.909,0,0,0,20.761,4.409Z" fill="#655e67"/>
        <g id="Group_1252863" data-name="Group 1252863">
          <path id="Path_1245587" data-name="Path 1245587" d="M9.9,28.873H4.333a2.422,2.422,0,0,1-2.422-2.422v-.759A2.422,2.422,0,0,1,4.333,23.27H9.9Z" fill="#faa68e"/>
          <path id="Path_1245588" data-name="Path 1245588" d="M27.834,28.873h5.571a2.422,2.422,0,0,0,2.422-2.422v-.759a2.422,2.422,0,0,0-2.422-2.422H27.834Z" fill="#faa68e"/>
          <path id="Path_1245589" data-name="Path 1245589" d="M31.952,25.147c0,7.983-8.054,12.566-12.76,12.566S6.433,33.13,6.433,25.147c0-5.1,1.418-8.959,3.711-11.547a1.3,1.3,0,0,1,1.941.006,17.3,17.3,0,0,0,1.678,1.676,4.052,4.052,0,0,0,2.476,1.174,1.971,1.971,0,0,0,1.6-.825,1.02,1.02,0,0,1,1.279-.33,26.155,26.155,0,0,0,9.538,2.424,2.986,2.986,0,0,1,2.746,2.3A22.683,22.683,0,0,1,31.952,25.147Z" fill="#faa68e"/>
        </g>
        <path id="Path_1245590" data-name="Path 1245590" d="M31.4,20.021a2.976,2.976,0,0,0-1.963-2.145,23.658,23.658,0,0,1,.442,4.684c0,8.152-8.224,12.832-13.029,12.832A13.884,13.884,0,0,1,9.1,32.475a14.337,14.337,0,0,0,10.091,5.238c4.706,0,12.76-4.583,12.76-12.566a22.675,22.675,0,0,0-.549-5.126Z" fill="#e09380"/>
        <path id="Path_1245591" data-name="Path 1245591" d="M8.857,54.4l2.326-8.949a.868.868,0,0,1,.84-.649H15.6a3.51,3.51,0,0,0,3.51-3.51V39.811a.626.626,0,0,1,.626-.626h3.489a1.9,1.9,0,0,0,1.915-1.851,1.867,1.867,0,0,0-1.867-1.884H14.138a.5.5,0,0,1-.407-.782l1.508-2.155a1.831,1.831,0,0,0-.423-2.526l-.038-.028a1.886,1.886,0,0,0-2.642.417c-1.077,1.494-5.813,8.05-6.281,8.7L2.124,53.425a.775.775,0,0,0,.751.97H8.857Z" fill="#f9b1a0"/>
        <g id="Group_1252864" data-name="Group 1252864">
          <path id="Path_1245592" data-name="Path 1245592" d="M43.475,3.951a3.754,3.754,0,0,0-3.75,3.75.809.809,0,0,0,1.617,0,2.132,2.132,0,1,1,2.132,2.132h-.513a.809.809,0,0,0-.809.809v2.767a.809.809,0,0,0,1.617,0V11.439a3.75,3.75,0,0,0-.3-7.488Z"/>
          <path id="Path_1245593" data-name="Path 1245593" d="M42.961,15.449a.809.809,0,0,0-.809.809v.237a.809.809,0,0,0,1.617,0v-.237A.809.809,0,0,0,42.961,15.449Z"/>
          <path id="Path_1245594" data-name="Path 1245594" d="M50.57,0H36.378a3.535,3.535,0,0,0-3.531,3.531v6.4A14.712,14.712,0,0,0,20.761,3.6H17.146A12.147,12.147,0,0,0,6.79,9.43a6.936,6.936,0,0,0-4.869,6.851l.2,7.056A3.222,3.222,0,0,0,1.1,25.693v.759a3.234,3.234,0,0,0,3.231,3.23H6.5a12.946,12.946,0,0,0,2.4,3.8L5.2,38.6a.811.811,0,0,0-.127.27L1.342,53.221A1.584,1.584,0,0,0,2.875,55.2H32.956a1.949,1.949,0,0,0,1.944-2.09l-.306-4.192a7.878,7.878,0,0,0-.837-3.018.809.809,0,1,0-1.442.733,6.269,6.269,0,0,1,.666,2.4l.306,4.191a.332.332,0,0,1-.331.356h-3.73v-3.3a.809.809,0,1,0-1.617,0v3.3H9.9l2.063-7.937a.059.059,0,0,1,.057-.044H15.6a4.291,4.291,0,0,0,2.009-.5,8.893,8.893,0,0,0,1.586.143,8.676,8.676,0,0,0,6.017-2.393h0c.158.033.038.009,2.434.386a6.281,6.281,0,0,1,2.445.929.809.809,0,1,0,.875-1.36A7.887,7.887,0,0,0,27.9,41.646a22.671,22.671,0,0,1-2.6-.444,1.55,1.55,0,0,1-.993-1.43,2.663,2.663,0,0,0,1.505-3.294,14.331,14.331,0,0,0,6.073-6.8h1.522a3.234,3.234,0,0,0,3.23-3.23v-.759a3.226,3.226,0,0,0-1.157-2.475V21.136a3.528,3.528,0,0,0,.9.117h2.547a.534.534,0,0,1,.534.534v2.3a1.3,1.3,0,0,0,.889,1.244,1.34,1.34,0,0,0,.434.073,1.3,1.3,0,0,0,1.03-.512l2.676-3.447a.483.483,0,0,1,.384-.188h5.7A3.535,3.535,0,0,0,54.1,17.722V3.531A3.536,3.536,0,0,0,50.57,0ZM2.719,26.451v-.759a1.616,1.616,0,0,1,1.614-1.614H5.645a13.273,13.273,0,0,0,.332,3.986H4.333a1.615,1.615,0,0,1-1.614-1.613Zm16.5,17.18a4.292,4.292,0,0,0,.7-2.345V39.994H22.7a3.162,3.162,0,0,0,.977,2.062A7.088,7.088,0,0,1,19.22,43.632Zm4-5.255H19.732A1.436,1.436,0,0,0,18.3,39.811v1.475a2.7,2.7,0,0,1-2.7,2.7H12.024A1.677,1.677,0,0,0,10.4,45.242L8.232,53.587H2.918L6.6,39.426c.285-.4,5.53-7.659,6.192-8.576a1.065,1.065,0,0,1,.7-.431,1.082,1.082,0,0,1,.812.2l.039.029a1.006,1.006,0,0,1,.417.8.994.994,0,0,1-.182.61L13.068,34.2a1.305,1.305,0,0,0,1.069,2.055h9.131a1.058,1.058,0,0,1,1.059,1.069A1.086,1.086,0,0,1,23.221,38.377Zm11.8-11.926a1.615,1.615,0,0,1-1.613,1.613h-1a12.154,12.154,0,0,0,.353-2.918c0-.361-.008-.717-.021-1.068h.666a1.615,1.615,0,0,1,1.613,1.614Zm-1.613-3.99h-.782a21.6,21.6,0,0,0-.433-2.623A3.814,3.814,0,0,0,28.7,16.917a25.408,25.408,0,0,1-9.241-2.349,1.839,1.839,0,0,0-2.291.611,1.155,1.155,0,0,1-.922.468,3.245,3.245,0,0,1-1.959-.979,16.625,16.625,0,0,1-1.6-1.6,2.111,2.111,0,0,0-1.579-.714h0a2.1,2.1,0,0,0-1.571.706,13.778,13.778,0,0,0-2.006,3,.809.809,0,0,0,1.447.722,12.159,12.159,0,0,1,1.769-2.645.477.477,0,0,1,.36-.162.492.492,0,0,1,.37.168,18.221,18.221,0,0,0,1.756,1.753,4.862,4.862,0,0,0,2.994,1.369,2.769,2.769,0,0,0,2.283-1.182.218.218,0,0,1,.266-.049,27.044,27.044,0,0,0,9.835,2.5,2.188,2.188,0,0,1,2,1.672,20.5,20.5,0,0,1,.462,3.126c.044.583.066,1.195.066,1.817a10.444,10.444,0,0,1-.581,3.459,12.621,12.621,0,0,1-5.707,6.557,2.657,2.657,0,0,0-1.587-.521H14.736L15.9,32.979a2.64,2.64,0,0,0-.608-3.645l-.039-.029a2.7,2.7,0,0,0-3.773.6l-1.61,2.231a11.125,11.125,0,0,1-2.047-3.529,12.27,12.27,0,0,1-.515-5.277,20.414,20.414,0,0,1,.48-3.195.809.809,0,0,0-1.574-.372,21.542,21.542,0,0,0-.451,2.7H4.333a3.23,3.23,0,0,0-.614.059l-.182-6.286A5.328,5.328,0,0,1,7.528,10.9a.809.809,0,0,0,.5-.381,10.525,10.525,0,0,1,9.12-5.3h3.615a13.116,13.116,0,0,1,13.1,13.1v4.175a3.247,3.247,0,0,0-.456-.033Zm19.079-4.739a1.916,1.916,0,0,1-1.914,1.914h-5.7a2.09,2.09,0,0,0-1.661.813L41.076,23.2V21.787a2.153,2.153,0,0,0-2.151-2.151H36.378a1.89,1.89,0,0,1-.9-.225V18.319a14.644,14.644,0,0,0-1.014-5.37V3.531a1.916,1.916,0,0,1,1.914-1.914H50.57a1.917,1.917,0,0,1,1.915,1.914Z"/>
          <path id="Path_1245595" data-name="Path 1245595" d="M15.106,25.948a.809.809,0,0,0,.809-.809v-.9a.809.809,0,0,0-1.617,0v.9A.809.809,0,0,0,15.106,25.948Z"/>
          <path id="Path_1245596" data-name="Path 1245596" d="M27.19,25.948A.809.809,0,0,0,28,25.139v-.9a.809.809,0,0,0-1.617,0v.9a.809.809,0,0,0,.809.809Z"/>
          <path id="Path_1245597" data-name="Path 1245597" d="M19.754,29.926a2.948,2.948,0,0,1,3.232,0,.809.809,0,0,0,.815-1.4,4.594,4.594,0,0,0-4.862,0,.809.809,0,1,0,.815,1.4Z"/>
        </g>
      </g>
    </g>
  </g>
</svg>
