<svg xmlns="http://www.w3.org/2000/svg" xmlns:xlink="http://www.w3.org/1999/xlink" width="108" height="108" viewBox="0 0 108 108">
  <defs>
    <filter id="Rectangle_411831" x="0" y="0" width="108" height="108" filterUnits="userSpaceOnUse">
      <feOffset dy="3" input="SourceAlpha"/>
      <feGaussianBlur stdDeviation="3" result="blur"/>
      <feFlood flood-opacity="0.161"/>
      <feComposite operator="in" in2="blur"/>
      <feComposite in="SourceGraphic"/>
    </filter>
    <clipPath id="clip-path">
      <rect id="Rectangle_430334" data-name="Rectangle 430334" width="53" height="60" transform="translate(18.27 15)" fill="#fff" stroke="#707070" stroke-width="1" opacity="0"/>
    </clipPath>
  </defs>
  <g id="Group_1242657" data-name="Group 1242657" transform="translate(9 6)">
    <g id="Group_1242625" data-name="Group 1242625" transform="translate(0)">
      <g id="Group_1230590" data-name="Group 1230590">
        <g transform="matrix(1, 0, 0, 1, -9, -6)" filter="url(#Rectangle_411831)">
          <g id="Rectangle_411831-2" data-name="Rectangle 411831" transform="translate(9 6)" fill="#a4e0d4" stroke="#fff" stroke-width="2">
            <path d="M5,0H58A32,32,0,0,1,90,32V85a5,5,0,0,1-5,5H32A32,32,0,0,1,0,58V5A5,5,0,0,1,5,0Z" stroke="none"/>
            <path d="M5,1H58A31,31,0,0,1,89,32V85a4,4,0,0,1-4,4H32A31,31,0,0,1,1,58V5A4,4,0,0,1,5,1Z" fill="none"/>
          </g>
        </g>
      </g>
    </g>
    <g id="Mask_Group_1099547" data-name="Mask Group 1099547" clip-path="url(#clip-path)">
      <g id="secreto" transform="translate(14.769 15)">
        <g id="Group_1252885" data-name="Group 1252885">
          <g id="Group_1252875" data-name="Group 1252875">
            <g id="Group_1252874" data-name="Group 1252874">
              <g id="Group_1252865" data-name="Group 1252865">
                <circle id="Ellipse_14186" data-name="Ellipse 14186" cx="15.094" cy="15.094" r="15.094" transform="translate(6.367 9.172)" fill="#2d2b2d"/>
              </g>
              <g id="Group_1252866" data-name="Group 1252866">
                <circle id="Ellipse_14187" data-name="Ellipse 14187" cx="15.094" cy="15.094" r="15.094" transform="translate(22.813 9.172)" fill="#2d2b2d"/>
              </g>
              <g id="Group_1252872" data-name="Group 1252872">
                <circle id="Ellipse_14188" data-name="Ellipse 14188" cx="5.729" cy="5.729" r="5.729" transform="translate(42.847 29.544)" fill="#f9a08f"/>
                <circle id="Ellipse_14189" data-name="Ellipse 14189" cx="5.729" cy="5.729" r="5.729" transform="translate(5.436 29.544)" fill="#f9a08f"/>
                <path id="Path_1245598" data-name="Path 1245598" d="M29.871,59.12A18.075,18.075,0,0,1,11.8,41.045V26.466a13.8,13.8,0,0,1,13.8-13.8h8.553a13.8,13.8,0,0,1,13.8,13.8V41.045A18.075,18.075,0,0,1,29.871,59.12Z" fill="#fdb0a0"/>
                <path id="Path_1245599" data-name="Path 1245599" d="M47.946,26.466v.873c-.549,0-1.118-.033-1.7-.089-.6-.06-1.224-.148-1.857-.264-.015.036-.03.073-.047.109-1.351,3.034-5.131,3.487-7.265,3.487a30.618,30.618,0,0,1-11.917-2.913c-5.213-2.322-9.265-5.389-11.324-8.421a13.788,13.788,0,0,1,11.761-6.58h8.552a13.8,13.8,0,0,1,13.8,13.8Z" fill="#f9a08f"/>
                <g id="Group_1252871" data-name="Group 1252871">
                  <g id="Group_1252868" data-name="Group 1252868">
                    <g id="Group_1252867" data-name="Group 1252867">
                      <circle id="Ellipse_14190" data-name="Ellipse 14190" cx="5.993" cy="5.993" r="5.993" transform="translate(32.3 28.236)" fill="#faf7f7"/>
                      <path id="Path_1245600" data-name="Path 1245600" d="M42.012,29.53a10.781,10.781,0,0,1-4.938,1.052,21.48,21.48,0,0,1-3.311-.276,5.991,5.991,0,0,1,8.249-.776Z" fill="#e2dee2"/>
                      <g id="XMLID_248_">
                        <path id="Path_1245601" data-name="Path 1245601" d="M38.3,36.6h-.015a2.367,2.367,0,0,1,0-4.733H38.3a2.367,2.367,0,0,1,0,4.733Z"/>
                      </g>
                    </g>
                  </g>
                  <g id="Group_1252870" data-name="Group 1252870">
                    <g id="Group_1252869" data-name="Group 1252869">
                      <circle id="Ellipse_14191" data-name="Ellipse 14191" cx="5.993" cy="5.993" r="5.993" transform="translate(15.455 28.236)" fill="#faf7f7"/>
                      <g id="XMLID_244_">
                        <path id="Path_1245602" data-name="Path 1245602" d="M21.456,36.6h-.015a2.367,2.367,0,1,1,0-4.733h.015a2.367,2.367,0,1,1,0,4.733Z"/>
                      </g>
                    </g>
                  </g>
                </g>
              </g>
              <g id="Group_1252873" data-name="Group 1252873">
                <path id="Path_1245603" data-name="Path 1245603" d="M54.564,12.558C54.564,6.081,45.5.83,34.329.83S14.094,6.081,14.094,12.558a7.164,7.164,0,0,0,.609,2.865c.365,3.042,4.968,7.233,11.409,10.1,7.539,3.358,14.74,3.633,16.084.615a2.975,2.975,0,0,0,.06-2.083c5.332,1.6,9.975,1.141,11.092-1.366.581-1.305.112-2.95-1.143-4.635a8.127,8.127,0,0,0,2.358-5.5Z" fill="#554e55"/>
                <path id="Path_1245604" data-name="Path 1245604" d="M52.206,18.057c1.254,1.685,1.724,3.33,1.143,4.635-.9,2.029-4.114,2.718-8.129,2.058a4.022,4.022,0,0,0,2.989-2.058,4.017,4.017,0,0,0-.464-3.59,1.873,1.873,0,0,1,.11-2.01,7.682,7.682,0,0,0,1.568-4.533c0-5.974-7.7-10.9-17.664-11.634q1.262-.093,2.57-.095c11.176,0,20.235,5.25,20.235,11.728a8.13,8.13,0,0,1-2.357,5.5Z" fill="#433f43"/>
              </g>
            </g>
          </g>
          <g id="Group_1252883" data-name="Group 1252883">
            <g id="Group_1252882" data-name="Group 1252882">
              <g id="Group_1252876" data-name="Group 1252876">
                <path id="Path_1245605" data-name="Path 1245605" d="M22.846,52.886H20.735a.586.586,0,0,1-.586-.586V49.345h3.284V52.3a.586.586,0,0,1-.586.586Z" fill="#7a6e79"/>
              </g>
              <g id="Group_1252877" data-name="Group 1252877">
                <path id="Path_1245606" data-name="Path 1245606" d="M24.019,45.8H26.13a.586.586,0,0,1,.586.586v2.955H23.432V46.39a.586.586,0,0,1,.586-.586Z" fill="#918291"/>
              </g>
              <g id="Group_1252878" data-name="Group 1252878">
                <path id="Path_1245607" data-name="Path 1245607" d="M29.414,52.886H27.3a.586.586,0,0,1-.586-.586V49.345H30V52.3A.586.586,0,0,1,29.414,52.886Z" fill="#7a6e79"/>
              </g>
              <g id="Group_1252879" data-name="Group 1252879">
                <path id="Path_1245608" data-name="Path 1245608" d="M30.586,45.8H32.7a.586.586,0,0,1,.586.586v2.955H30V46.39A.586.586,0,0,1,30.586,45.8Z" fill="#918291"/>
              </g>
              <g id="Group_1252880" data-name="Group 1252880">
                <path id="Path_1245609" data-name="Path 1245609" d="M35.981,52.886H33.87a.586.586,0,0,1-.586-.586V49.345h3.284V52.3A.586.586,0,0,1,35.981,52.886Z" fill="#7a6e79"/>
              </g>
              <g id="Group_1252881" data-name="Group 1252881">
                <path id="Path_1245610" data-name="Path 1245610" d="M37.154,45.8h2.111a.586.586,0,0,1,.586.586v2.955H36.568V46.39A.586.586,0,0,1,37.154,45.8Z" fill="#918291"/>
              </g>
            </g>
          </g>
          <g id="Group_1252884" data-name="Group 1252884">
            <path id="Path_1245611" data-name="Path 1245611" d="M50.16,55.087l-3.678,3.678a.993.993,0,0,1-1.467-.069l-5.5-6.644a.993.993,0,0,1,.063-1.336l2.537-2.537a.993.993,0,0,1,1.336-.063l6.644,5.5A.993.993,0,0,1,50.16,55.087Z" fill="#cbc5cb"/>
            <path id="Path_1245612" data-name="Path 1245612" d="M50.159,55.088,48.445,56.8a.994.994,0,0,0-.068-1.467l-6.644-5.5c-.4-.327-.623-.651-.986-.289l1.363-1.363a.994.994,0,0,1,1.337-.062l6.644,5.5a.993.993,0,0,1,.068,1.467Z" fill="#b5adb6"/>
          </g>
        </g>
        <g id="Group_1252886" data-name="Group 1252886">
          <path id="Path_1245613" data-name="Path 1245613" d="M53.156,33.675a.88.88,0,1,0,1.661-.58,6.6,6.6,0,0,0-2.059-2.938,15.875,15.875,0,0,0,1.122-5.891c0-.23-.006-.462-.016-.692a3.622,3.622,0,0,0,.288-.524c.625-1.4.327-3.136-.835-4.935a8.793,8.793,0,0,0,2.126-5.557C55.444,5.978,47.185.579,36.234,0a.88.88,0,1,0-.093,1.757c9.837.519,17.543,5.263,17.543,10.8a7.211,7.211,0,0,1-2.127,4.9l-.009.012-.022.023a6.383,6.383,0,0,1-3.265,1.8.88.88,0,1,0,.4,1.714,8.59,8.59,0,0,0,3.386-1.608,3.3,3.3,0,0,1,.5,2.929c-.4.9-1.561,1.511-3.263,1.709a17.584,17.584,0,0,1-6.772-.827l-.026-.006a27.213,27.213,0,0,1-3.193-1.192,26.278,26.278,0,0,1-4.186-2.327.88.88,0,0,0-1,1.45,28.039,28.039,0,0,0,4.466,2.484,29.229,29.229,0,0,0,2.933,1.124,1.872,1.872,0,0,1-.116,1.035c-.48,1.077-2.305,1.662-4.882,1.563A28.5,28.5,0,0,1,26.47,24.722c-6.772-3.017-10.606-7.014-10.893-9.4a.881.881,0,0,0-.066-.245,6.3,6.3,0,0,1-.537-2.515c0-5.515,7.673-10.258,17.469-10.8a.88.88,0,0,0-.1-1.757c-9.687.532-17.258,4.849-18.83,10.4A15.984,15.984,0,0,0,6.708,30.4,6.606,6.606,0,0,0,9,41.518a.88.88,0,0,0,.577-1.662,4.851,4.851,0,0,1,1.342-9.427V41.045a18.85,18.85,0,0,0,3.319,10.716.88.88,0,1,0,1.45-1,17.1,17.1,0,0,1-3.01-9.72V26.466a12.909,12.909,0,0,1,2.574-7.738c1.955,2.684,5.747,5.481,10.5,7.6a33.412,33.412,0,0,0,8.257,2.53,6.871,6.871,0,1,0,7.473-.714A3.653,3.653,0,0,0,43,26.5a3.413,3.413,0,0,0,.291-1.246,20.862,20.862,0,0,0,3.759.589c.01.208.016.417.016.625V41.045a17.226,17.226,0,0,1-1.72,7.5l-1.339-1.109a1.865,1.865,0,0,0-2.519.118l-.757.758V46.39a1.468,1.468,0,0,0-1.466-1.466H37.154a1.468,1.468,0,0,0-1.466,1.466v2.075H34.164V46.39A1.468,1.468,0,0,0,32.7,44.924H30.587a1.468,1.468,0,0,0-1.466,1.466v2.075H27.6V46.39a1.468,1.468,0,0,0-1.466-1.466H24.019a1.468,1.468,0,0,0-1.466,1.466v2.075H18.72a.88.88,0,0,0,0,1.759h.549V52.3a1.468,1.468,0,0,0,1.466,1.466h2.111A1.468,1.468,0,0,0,24.312,52.3V50.224h1.525V52.3A1.468,1.468,0,0,0,27.3,53.766h2.111A1.468,1.468,0,0,0,30.88,52.3V50.224H32.4V52.3a1.468,1.468,0,0,0,1.466,1.466h2.111A1.468,1.468,0,0,0,37.447,52.3V50.224h1.386a1.863,1.863,0,0,0,0,2.39l1.634,1.973a17.194,17.194,0,0,1-22.433-1.069.88.88,0,0,0-1.211,1.276A18.953,18.953,0,0,0,41.59,55.942l2.746,3.316a1.877,1.877,0,0,0,1.355.676l.087,0a1.878,1.878,0,0,0,1.325-.549l.483-.483a.88.88,0,1,0-1.244-1.244l-.483.483a.107.107,0,0,1-.086.033.11.11,0,0,1-.082-.041l-5.5-6.644a.113.113,0,0,1,.007-.153L42.733,48.8a.113.113,0,0,1,.153-.007l6.644,5.5a.114.114,0,0,1,.008.168l-.514.514a.88.88,0,0,0,1.244,1.244l.514-.514a1.873,1.873,0,0,0-.129-2.767L46.737,49.7a18.973,18.973,0,0,0,2.068-7.822,6.62,6.62,0,0,0,6-4.407.88.88,0,1,0-1.659-.585,4.857,4.857,0,0,1-4.325,3.23V30.43a4.855,4.855,0,0,1,4.33,3.245ZM10.916,26.466v2.2a6.56,6.56,0,0,0-2.724.7,14.228,14.228,0,0,1,5.026-16.688,8.046,8.046,0,0,0,.63,2.973A5.6,5.6,0,0,0,14.29,17.1a14.666,14.666,0,0,0-3.374,9.363Zm32.491,7.763a5.113,5.113,0,1,1-5.113-5.113A5.119,5.119,0,0,1,43.407,34.229ZM22.553,52.007H21.028V50.224h1.525Zm3.284-3.541H24.312V46.683h1.525Zm3.284,3.541H27.6V50.224H29.12ZM32.4,48.465H30.88V46.683H32.4Zm3.284,3.541H34.163V50.224h1.525Zm3.284-3.541H37.447V46.683h1.525ZM52.1,25.063a14.085,14.085,0,0,1-.866,4.16,6.586,6.586,0,0,0-2.406-.554v-2.2c0-.206,0-.414-.013-.621a8.712,8.712,0,0,0,3.285-.782Z"/>
          <path id="Path_1245614" data-name="Path 1245614" d="M35.919,34.229A2.367,2.367,0,0,0,38.286,36.6H38.3a2.367,2.367,0,0,0,0-4.733h-.015A2.367,2.367,0,0,0,35.919,34.229Z"/>
          <path id="Path_1245615" data-name="Path 1245615" d="M21.448,27.356a6.873,6.873,0,1,0,6.873,6.873,6.88,6.88,0,0,0-6.873-6.873Zm0,11.986a5.113,5.113,0,1,1,5.113-5.113A5.119,5.119,0,0,1,21.448,39.342Z"/>
          <path id="Path_1245616" data-name="Path 1245616" d="M21.456,31.862h-.015a2.367,2.367,0,0,0,0,4.733h.015a2.367,2.367,0,1,0,0-4.733Z"/>
          <path id="Path_1245617" data-name="Path 1245617" d="M26.858,41.375a.88.88,0,0,0-.076,1.242,4.116,4.116,0,0,0,6.177,0,.88.88,0,1,0-1.318-1.166,2.356,2.356,0,0,1-3.542,0,.88.88,0,0,0-1.242-.076Z"/>
          <path id="Path_1245618" data-name="Path 1245618" d="M46.264,54.087l-.783.783a.88.88,0,1,0,1.244,1.244l.783-.783a.88.88,0,0,0-1.244-1.244Z"/>
          <path id="Path_1245619" data-name="Path 1245619" d="M42.005,50.435l-.176.176a.88.88,0,0,0,1.244,1.244l.176-.176a.88.88,0,1,0-1.244-1.244Z"/>
        </g>
      </g>
    </g>
  </g>
</svg>
