<svg xmlns="http://www.w3.org/2000/svg" xmlns:xlink="http://www.w3.org/1999/xlink" width="108" height="108" viewBox="0 0 108 108">
  <defs>
    <filter id="Rectangle_411831" x="0" y="0" width="108" height="108" filterUnits="userSpaceOnUse">
      <feOffset dy="3" input="SourceAlpha"/>
      <feGaussianBlur stdDeviation="3" result="blur"/>
      <feFlood flood-opacity="0.161"/>
      <feComposite operator="in" in2="blur"/>
      <feComposite in="SourceGraphic"/>
    </filter>
    <clipPath id="clip-path">
      <rect id="Rectangle_430334" data-name="Rectangle 430334" width="53" height="60" transform="translate(-3315 -10265)" fill="#fff" stroke="#707070" stroke-width="1" opacity="0"/>
    </clipPath>
  </defs>
  <g id="Group_1255136" data-name="Group 1255136" transform="translate(3342.27 10286)">
    <g id="Group_1242625" data-name="Group 1242625" transform="translate(-3333.27 -10280)">
      <g id="Group_1230590" data-name="Group 1230590">
        <g transform="matrix(1, 0, 0, 1, -9, -6)" filter="url(#Rectangle_411831)">
          <g id="Rectangle_411831-2" data-name="Rectangle 411831" transform="translate(9 6)" fill="#a4e0d4" stroke="#fff" stroke-width="2">
            <path d="M5,0H58A32,32,0,0,1,90,32V85a5,5,0,0,1-5,5H32A32,32,0,0,1,0,58V5A5,5,0,0,1,5,0Z" stroke="none"/>
            <path d="M5,1H58A31,31,0,0,1,89,32V85a4,4,0,0,1-4,4H32A31,31,0,0,1,1,58V5A4,4,0,0,1,5,1Z" fill="none"/>
          </g>
        </g>
      </g>
    </g>
    <g id="Mask_Group_1099549" data-name="Mask Group 1099549" clip-path="url(#clip-path)">
      <g id="orgulloso" transform="translate(-3309.79 -10265)">
        <g id="Group_1252899" data-name="Group 1252899">
          <g id="Group_1252893" data-name="Group 1252893">
            <path id="Path_1245657" data-name="Path 1245657" d="M22.258,8.71a3.871,3.871,0,0,1-3.871,3.871,1.928,1.928,0,0,1-.8-.172h0l-.053.053a7.007,7.007,0,0,1-4.956,2.053v1.935H10.645a3.871,3.871,0,1,0,0,7.742h1.937a7.887,7.887,0,0,0,6.773,7.742,1.935,1.935,0,0,1-1.935,1.935H13.035a7.74,7.74,0,0,0-6.593,3.685l-.1.162A3.872,3.872,0,0,1,2.9,33.871l2.6-1.95a3.176,3.176,0,0,0,.34-4.787l-.226-.226A9.271,9.271,0,0,1,3.7,16.59L8,6.916A10.017,10.017,0,0,1,19.583,1.267l2.675.669,2.675-.669A10.017,10.017,0,0,1,36.514,6.916l4.3,9.674A9.271,9.271,0,0,1,38.9,26.908l-.226.226a3.176,3.176,0,0,0,.34,4.787l2.6,1.95a3.871,3.871,0,0,1-3.87,3.871A9.665,9.665,0,0,0,30,33.871H27.1a1.935,1.935,0,0,1-1.935-1.935,7.887,7.887,0,0,0,6.773-7.742h1.937a3.871,3.871,0,1,0,0-7.742H31.935V14.516a7.007,7.007,0,0,1-4.956-2.053l-.053-.053h0l-.8.172A3.871,3.871,0,0,1,22.258,8.71Z" fill="#b27946"/>
          </g>
          <g id="Group_1252894" data-name="Group 1252894">
            <path id="Path_1245658" data-name="Path 1245658" d="M12.561,53.226H6.248a5.281,5.281,0,0,1-4.5-8.047l4.592-7.461.1-.162a7.74,7.74,0,0,1,6.593-3.685h3.416a5.806,5.806,0,0,0,11.613,0H30a9.675,9.675,0,0,1,9.677,9.677V59.032H10.645l1.286-2.573a6.139,6.139,0,0,0,.65-2.75c0-.162-.006-.323-.019-.484Z" fill="#5cd6b3"/>
          </g>
          <g id="Group_1252895" data-name="Group 1252895">
            <path id="Path_1245659" data-name="Path 1245659" d="M28.065,49.355V51.29a1.935,1.935,0,0,1-1.935,1.935H20.323V47.419l1.535-1.535a1.369,1.369,0,0,1,2.336.968v.567h1.935A1.935,1.935,0,0,1,28.065,49.355Z" fill="#f0d0b4"/>
          </g>
          <g id="Group_1252896" data-name="Group 1252896">
            <path id="Path_1245660" data-name="Path 1245660" d="M31.935,24.125V16.452h1.935a3.871,3.871,0,1,1,0,7.742H31.934C31.935,24.171,31.935,24.148,31.935,24.125Z" fill="#f0d0b4"/>
          </g>
          <g id="Group_1252897" data-name="Group 1252897">
            <path id="Path_1245661" data-name="Path 1245661" d="M26.129,12.581l.8-.172h0l.053.053a7.007,7.007,0,0,0,4.956,2.053v9.608c0,.023,0,.046,0,.069a7.887,7.887,0,0,1-6.773,7.742A1.935,1.935,0,0,0,27.1,33.871h.968a5.806,5.806,0,1,1-11.613,0h.968a1.935,1.935,0,0,0,1.935-1.935,7.887,7.887,0,0,1-6.773-7.742c0-.023,0-.046,0-.069V14.516a7.007,7.007,0,0,0,4.956-2.053l.053-.053h0a1.928,1.928,0,0,0,.8.172A3.871,3.871,0,0,0,22.258,8.71a3.871,3.871,0,0,0,3.871,3.871Z" fill="#f0d0b4"/>
          </g>
          <g id="Group_1252898" data-name="Group 1252898">
            <path id="Path_1245662" data-name="Path 1245662" d="M12.581,24.125c0,.023,0,.046,0,.069H10.645a3.871,3.871,0,0,1,0-7.742h1.935v7.673Z" fill="#f0d0b4"/>
          </g>
        </g>
        <g id="Group_1252900" data-name="Group 1252900">
          <path id="Path_1245663" data-name="Path 1245663" d="M25.161,18.387a.968.968,0,0,1,1.935,0v.968h1.935v-.968a2.9,2.9,0,0,0-5.806,0v.968h1.935Z"/>
          <path id="Path_1245664" data-name="Path 1245664" d="M18.387,17.419a.969.969,0,0,1,.968.968v.968H21.29v-.968a2.9,2.9,0,0,0-5.806,0v.968h1.935v-.968A.969.969,0,0,1,18.387,17.419Z"/>
          <path id="Path_1245665" data-name="Path 1245665" d="M27,23.681l.05-.149-1.836-.612-.05.149a3.06,3.06,0,0,1-5.806,0l-.05-.149-1.836.612.05.149a5,5,0,0,0,9.479,0Z"/>
          <path id="Path_1245666" data-name="Path 1245666" d="M38.71,29.38a2.193,2.193,0,0,1,.646-1.561l.226-.226A10.237,10.237,0,0,0,41.7,16.2L37.4,6.523A10.983,10.983,0,0,0,24.7.328l-2.44.61-2.44-.61a10.983,10.983,0,0,0-12.7,6.195L2.818,16.2a10.237,10.237,0,0,0,2.116,11.4l.226.226a2.194,2.194,0,0,1,.647,1.561,2.218,2.218,0,0,1-.883,1.766L1.935,33.387v.484a4.833,4.833,0,0,0,2.907,4.438L.927,44.672a6.248,6.248,0,0,0,5.321,9.522h5.34a5.207,5.207,0,0,1-.522,1.833L9.079,60H40.645V43.548a10.579,10.579,0,0,0-1.309-5.11,4.846,4.846,0,0,0,3.244-4.568v-.484l-2.988-2.241a2.219,2.219,0,0,1-.883-1.766Zm0,28.685H34.469L33.45,56.027a5.181,5.181,0,0,1,0-4.634l.344-.687a9.947,9.947,0,0,0,1.045-4.426,9.833,9.833,0,0,0-2.9-7l-1.256-1.256-1.369,1.369,1.256,1.256a7.911,7.911,0,0,1,2.332,5.63,8,8,0,0,1-.84,3.56l-.344.687a7.117,7.117,0,0,0,0,6.366l.586,1.172H12.211l.586-1.172a7.156,7.156,0,0,0,.733-2.7h12.6a2.907,2.907,0,0,0,2.9-2.9V49.355a2.907,2.907,0,0,0-2.9-2.9h-1A2.337,2.337,0,0,0,21.173,45.2l-1.251,1.251H11.616c0-.057,0-.115,0-.172a7.91,7.91,0,0,1,2.332-5.63L15.2,39.394l-1.369-1.369-1.256,1.256a9.833,9.833,0,0,0-2.9,7c0,.057,0,.115,0,.172H8.938a4.445,4.445,0,0,0-4,2.47l1.731.866a2.52,2.52,0,0,1,2.266-1.4H19.355v3.871H6.248a4.312,4.312,0,0,1-3.672-6.572l4.691-7.624a6.819,6.819,0,0,1,5.769-3.224h2.518a6.773,6.773,0,0,0,13.408,0H30a8.72,8.72,0,0,1,8.71,8.71ZM21.29,47.82l1.251-1.251a.4.4,0,0,1,.684.283v1.535h2.9a.969.969,0,0,1,.968.968V51.29a.969.969,0,0,1-.968.968H21.29Zm-1.8-16.843a6.956,6.956,0,0,1-5.943-6.853v-8.7a7.9,7.9,0,0,0,4.3-1.927,2.9,2.9,0,0,0,.541.051,4.834,4.834,0,0,0,3.871-1.939,4.834,4.834,0,0,0,3.871,1.939,2.911,2.911,0,0,0,.541-.051,7.9,7.9,0,0,0,4.3,1.927v8.7a6.956,6.956,0,0,1-5.943,6.853l-.831.119v.839A2.906,2.906,0,0,0,27,34.836a4.839,4.839,0,0,1-9.484,0,2.906,2.906,0,0,0,2.806-2.9V31.1Zm-8.846-7.752a2.9,2.9,0,1,1,0-5.806h.968v2.5l-1.251-1.251L8.993,20.039l2.62,2.62v.567ZM32.9,22.659l2.62-2.62-1.369-1.369L32.9,19.922v-2.5h.968a2.9,2.9,0,0,1,0,5.806H32.9Zm5.273,14.08A10.627,10.627,0,0,0,30,32.9H27.1a.964.964,0,0,1-.651-.252,8.851,8.851,0,0,0,6.394-7.49h1.031a4.839,4.839,0,1,0,0-9.677H32.9v-.166a2.9,2.9,0,0,0-.968-5.64h-.968v1.935h.968a.968.968,0,1,1,0,1.935,6,6,0,0,1-3.513-1.127,2.9,2.9,0,0,0-2.294-4.68h-.968V9.677h.968a.968.968,0,0,1,0,1.935,2.907,2.907,0,0,1-2.9-2.9V7.742H21.29V8.71a2.907,2.907,0,0,1-2.9,2.9.968.968,0,1,1,0-1.935h.968V7.742h-.968a2.9,2.9,0,0,0-2.294,4.68,6,6,0,0,1-3.513,1.126.968.968,0,0,1,0-1.935h.968V9.677h-.968a2.9,2.9,0,0,0-.968,5.64v.166h-.968a4.839,4.839,0,1,0,0,9.677h1.031a8.851,8.851,0,0,0,6.394,7.49.964.964,0,0,1-.651.252H13.036A8.772,8.772,0,0,0,5.89,36.636a2.9,2.9,0,0,1-1.983-2.308l2.178-1.633A4.163,4.163,0,0,0,7.742,29.38a4.117,4.117,0,0,0-1.214-2.93L6.3,26.224a8.3,8.3,0,0,1-1.716-9.241l4.3-9.674a9.049,9.049,0,0,1,10.463-5.1l2.91.727,2.91-.727a9.049,9.049,0,0,1,10.463,5.1l4.3,9.674a8.3,8.3,0,0,1-1.716,9.241l-.226.226a4.117,4.117,0,0,0-1.214,2.93,4.163,4.163,0,0,0,1.657,3.315l2.178,1.633a2.909,2.909,0,0,1-2.434,2.411Z"/>
        </g>
      </g>
    </g>
  </g>
</svg>
