<svg xmlns="http://www.w3.org/2000/svg" xmlns:xlink="http://www.w3.org/1999/xlink" width="108" height="108" viewBox="0 0 108 108">
  <defs>
    <filter id="Rectangle_411831" x="0" y="0" width="108" height="108" filterUnits="userSpaceOnUse">
      <feOffset dy="3" input="SourceAlpha"/>
      <feGaussianBlur stdDeviation="3" result="blur"/>
      <feFlood flood-opacity="0.161"/>
      <feComposite operator="in" in2="blur"/>
      <feComposite in="SourceGraphic"/>
    </filter>
    <clipPath id="clip-path">
      <rect id="Rectangle_430334" data-name="Rectangle 430334" width="53" height="60" transform="translate(18.27 15)" fill="#fff" stroke="#707070" stroke-width="1" opacity="0"/>
    </clipPath>
  </defs>
  <g id="Group_1242658" data-name="Group 1242658" transform="translate(9 6)">
    <g id="Group_1242625" data-name="Group 1242625" transform="translate(0)">
      <g id="Group_1230590" data-name="Group 1230590">
        <g transform="matrix(1, 0, 0, 1, -9, -6)" filter="url(#Rectangle_411831)">
          <g id="Rectangle_411831-2" data-name="Rectangle 411831" transform="translate(9 6)" fill="#a4e0d4" stroke="#fff" stroke-width="2">
            <path d="M5,0H58A32,32,0,0,1,90,32V85a5,5,0,0,1-5,5H32A32,32,0,0,1,0,58V5A5,5,0,0,1,5,0Z" stroke="none"/>
            <path d="M5,1H58A31,31,0,0,1,89,32V85a4,4,0,0,1-4,4H32A31,31,0,0,1,1,58V5A4,4,0,0,1,5,1Z" fill="none"/>
          </g>
        </g>
      </g>
    </g>
    <g id="Mask_Group_1099548" data-name="Mask Group 1099548" clip-path="url(#clip-path)">
      <g id="argumento" transform="translate(18.269 18.5)">
        <g id="Group_1252891" data-name="Group 1252891">
          <g id="Group_1252888" data-name="Group 1252888">
            <path id="Path_1245620" data-name="Path 1245620" d="M27.519,34.928,12.635,42.2,6.113,45.385C3.543,42.276-2.412,35.332,2.938,29c4.118-4.877,10.727-4.988,10.727-4.988S24.373,15.937,27.519,34.928Z" fill="#f4dd45"/>
            <path id="Path_1245621" data-name="Path 1245621" d="M10.78,40.408,12.635,42.2,6.113,45.385C3.543,42.276-2.412,35.332,2.938,29c4.118-4.877,10.727-4.988,10.727-4.988-9.894,4.829-6.319,13.68-2.885,16.4Z" fill="#eab14d"/>
            <path id="Path_1245622" data-name="Path 1245622" d="M9.665,49.423A3.238,3.238,0,0,1,5.1,47.257a1.6,1.6,0,0,1,2.99-1.068l18.607-9.082a1.6,1.6,0,0,1,2.682-1.7,3.238,3.238,0,0,1-1.1,4.935" fill="#eaac9d"/>
            <path id="Path_1245623" data-name="Path 1245623" d="M25.255,34.163l2.315,4.742A7.545,7.545,0,0,1,24.1,49l-5.045,2.462a7.546,7.546,0,0,1-10.09-3.471l-2.25-4.609c1.333-.892,2.727-1.893,4.067-2.969,3.25-2.607,6.191-5.656,7.232-8.681,0,0,3.381,3.657,7.243,2.435Z" fill="#ffcbbe"/>
            <path id="Path_1245624" data-name="Path 1245624" d="M23.508,49.284l-4.455,2.174a7.546,7.546,0,0,1-10.09-3.471l-2.25-4.609c1.333-.892,2.727-1.893,4.067-2.969l2.637,5.4A7.545,7.545,0,0,0,23.508,49.284Z" fill="#eaac9d"/>
            <g id="Group_1252887" data-name="Group 1252887">
              <ellipse id="Ellipse_14192" data-name="Ellipse 14192" cx="1.695" cy="1.031" rx="1.695" ry="1.031" transform="translate(23.426 40.393) rotate(-26.027)" fill="#e490b7"/>
              <ellipse id="Ellipse_14193" data-name="Ellipse 14193" cx="1.695" cy="1.031" rx="1.695" ry="1.031" transform="translate(12.464 45.748) rotate(-26.027)" fill="#e490b7"/>
            </g>
          </g>
          <g id="Group_1252890" data-name="Group 1252890">
            <path id="Path_1245625" data-name="Path 1245625" d="M31.548,27.8a3.238,3.238,0,0,1-4.521-2.264,1.6,1.6,0,0,1,3.012-1l18.8-8.681a1.6,1.6,0,0,1,2.718-1.642,3.238,3.238,0,0,1-1.208,4.91" fill="#b17a4a"/>
            <path id="Path_1245626" data-name="Path 1245626" d="M25.744,15.231l5.134,11.117a7.546,7.546,0,0,0,10.014,3.687l5.1-2.354a7.546,7.546,0,0,0,3.687-10.014L44.541,6.549" fill="#c38959"/>
            <path id="Path_1245627" data-name="Path 1245627" d="M45.206,28.042l-4.314,1.992a7.546,7.546,0,0,1-10.014-3.687L25.744,15.231l4.314-1.992,5.134,11.117a7.546,7.546,0,0,0,10.014,3.687Z" fill="#b17a4a"/>
            <g id="Group_1252889" data-name="Group 1252889">
              <ellipse id="Ellipse_14194" data-name="Ellipse 14194" cx="1.695" cy="1.03" rx="1.695" ry="1.03" transform="translate(44.068 19.727) rotate(-24.771)" fill="#e490b7"/>
              <ellipse id="Ellipse_14195" data-name="Ellipse 14195" cx="1.695" cy="1.03" rx="1.695" ry="1.03" transform="translate(32.993 24.839) rotate(-24.771)" fill="#e490b7"/>
            </g>
            <path id="Path_1245628" data-name="Path 1245628" d="M42.441,2,47.2,12.312a2.8,2.8,0,0,1-3.709-1.366l-.824-1.784L28.946,15.5l.824,1.784a2.793,2.793,0,0,1-1.364,3.709L23.645,10.685a2.112,2.112,0,0,1,1.032-2.8L39.638.972A2.113,2.113,0,0,1,42.441,2Z" fill="#544f57"/>
            <path id="Path_1245629" data-name="Path 1245629" d="M29.088,5.844a2.113,2.113,0,0,0-1.032,2.8l2.765,5.987-1.875.866.824,1.784a2.793,2.793,0,0,1-1.364,3.709L23.645,10.685a2.112,2.112,0,0,1,1.032-2.8Z" fill="#454045"/>
          </g>
          <path id="Path_1245630" data-name="Path 1245630" d="M27.491,13.206a1.893,1.893,0,0,1-1.747,1.682l-.225.015a1.059,1.059,0,0,0-.988,1.057v2.107a.856.856,0,0,1-1.375.682,15.7,15.7,0,0,1-3.237-3.158,1.056,1.056,0,0,0-.876-.451q-3.878.02-7.756-.252a1.89,1.89,0,0,1-1.606-1.14,1.857,1.857,0,0,1-.142-.537,48.079,48.079,0,0,1,0-10.494,1.89,1.89,0,0,1,1.746-1.678A103.049,103.049,0,0,1,22.839.877q1.452.06,2.9.162A1.89,1.89,0,0,1,27.49,2.717a48.065,48.065,0,0,1,0,10.49Z" fill="#dd636e"/>
          <path id="Path_1245631" data-name="Path 1245631" d="M32.625,45.372a1.893,1.893,0,0,0,1.747,1.682l.225.015a1.059,1.059,0,0,1,.988,1.057v2.107a.856.856,0,0,0,1.375.682A15.7,15.7,0,0,0,40.2,47.757a1.056,1.056,0,0,1,.876-.451q3.878.02,7.756-.252a1.89,1.89,0,0,0,1.606-1.14,1.857,1.857,0,0,0,.142-.537,48.079,48.079,0,0,0,0-10.494A1.89,1.89,0,0,0,48.831,33.2a103.05,103.05,0,0,0-11.554-.162q-1.452.06-2.9.162a1.89,1.89,0,0,0-1.747,1.678,48.078,48.078,0,0,0,0,10.49Z" fill="#80b4fb"/>
        </g>
        <g id="Group_1252892" data-name="Group 1252892">
          <path id="Path_1245632" data-name="Path 1245632" d="M29.981,34.919a2.332,2.332,0,0,0-1.834-.905c-1.216-6.617-3.539-10.654-6.911-12-3.538-1.414-6.958.64-7.829,1.229-1.291.072-7.172.648-11.06,5.253A9.424,9.424,0,0,0,.766,38.506,24.542,24.542,0,0,0,4.96,45.2a2.314,2.314,0,0,0-.619,2.229,4.015,4.015,0,0,0,3.912,3.092A3.981,3.981,0,0,0,9.6,50.289a8.308,8.308,0,0,0,9.795,1.864l5.046-2.463c.1-.051.209-.1.315-.162a.776.776,0,0,0-.737-1.367c-.085.046-.172.091-.26.134l-5.045,2.463a6.769,6.769,0,0,1-9.051-3.115l-1.954-4c3.971-2.716,8.688-6.574,10.6-10.6a11.164,11.164,0,0,0,1.491,1.03,7.237,7.237,0,0,0,5.035.993l2.038,4.174a6.729,6.729,0,0,1-.739,7.125.776.776,0,0,0,1.226.953A8.268,8.268,0,0,0,29,40.82a4.014,4.014,0,0,0,.981-5.9ZM7.447,48.838a2.443,2.443,0,0,1-1.41-1.247,2.477,2.477,0,0,1-.185-.516.821.821,0,0,1,1.537-.549h0l.877,1.8c.1.214.218.42.339.622A2.448,2.448,0,0,1,7.447,48.838ZM25.022,33.42a5.433,5.433,0,0,1-4.413-.672,9.4,9.4,0,0,1-2.025-1.55.776.776,0,0,0-1.3.274c-1.439,4.183-6.774,8.43-11,11.257a.776.776,0,0,0-.266.986l.393.806h0a24.141,24.141,0,0,1-4.191-6.563A7.871,7.871,0,0,1,3.533,29.5c3.832-4.538,10.085-4.711,10.147-4.712a.781.781,0,0,0,.453-.155c.033-.025,3.342-2.455,6.536-1.171,2.839,1.141,4.906,4.968,5.995,11.079a2.5,2.5,0,0,0-.251.224l-.458-.939a.776.776,0,0,0-.932-.4Zm3.529,5.79c-.085-.218-.178-.435-.282-.648l-.879-1.8a.821.821,0,0,1,1.379-.872,2.462,2.462,0,0,1-.219,3.32Z"/>
          <path id="Path_1245633" data-name="Path 1245633" d="M12.566,41.511c-.486.237-.561,1.085-.168,1.89a2.26,2.26,0,0,0,.759.905,1.035,1.035,0,0,0,.555.188.632.632,0,0,0,.28-.063.845.845,0,0,0,.415-.735,2.261,2.261,0,0,0-.247-1.155c-.393-.805-1.108-1.268-1.594-1.031Z"/>
          <path id="Path_1245634" data-name="Path 1245634" d="M23.258,39.836a.632.632,0,0,0,.28-.063.845.845,0,0,0,.415-.735,2.448,2.448,0,0,0-1.006-2.061.844.844,0,0,0-.834-.125c-.486.237-.561,1.085-.168,1.89a2.26,2.26,0,0,0,.759.905A1.035,1.035,0,0,0,23.258,39.836Z"/>
          <path id="Path_1245635" data-name="Path 1245635" d="M19.895,44.416a1.455,1.455,0,0,1,1.6.212.673.673,0,0,0,.885-1.014,2.8,2.8,0,0,0-4.643,2.266.673.673,0,0,0,.671.636h.038a.673.673,0,0,0,.635-.709A1.455,1.455,0,0,1,19.895,44.416Z"/>
          <path id="Path_1245636" data-name="Path 1245636" d="M19.928,42.188a.776.776,0,0,0-.681-1.4l-1.812.884a.776.776,0,1,0,.681,1.4Z"/>
          <path id="Path_1245637" data-name="Path 1245637" d="M52.631,14.5a4.031,4.031,0,0,0-.461-.764,2.316,2.316,0,0,0-3.111-.586,2.547,2.547,0,0,0-.453.35L46.743,9.464h0l-3.6-7.786A2.892,2.892,0,0,0,39.313.266l-10.834,5q-.073-1.322-.217-2.639A2.664,2.664,0,0,0,25.8.264C24.829.2,23.844.14,22.872.1a104.3,104.3,0,0,0-11.64.164A2.664,2.664,0,0,0,8.768,2.631a49.08,49.08,0,0,0,0,10.663,2.667,2.667,0,0,0,2.464,2.367c2.583.182,5.212.267,7.815.254h0a.281.281,0,0,1,.232.118,16.487,16.487,0,0,0,3.4,3.332,1.633,1.633,0,0,0,2.622-1.3V16.135L27.7,21.318l.005.01.694,1.5a2.553,2.553,0,0,0-.56.118A2.316,2.316,0,0,0,26.268,25.7a4.015,4.015,0,0,0,3.93,3.175,3.981,3.981,0,0,0,1.266-.207,8.307,8.307,0,0,0,9.753,2.073l5.1-2.354a8.329,8.329,0,0,0,4.746-8.769A4.017,4.017,0,0,0,52.631,14.5ZM23.755,15.959v2.107a.072.072,0,0,1-.045.072.07.07,0,0,1-.084-.008,14.994,14.994,0,0,1-3.07-2.983,1.832,1.832,0,0,0-1.507-.785h-.01c-2.563.013-5.154-.071-7.7-.25a1.109,1.109,0,0,1-.947-.675,1.081,1.081,0,0,1-.082-.313,47.526,47.526,0,0,1,0-10.325,1.112,1.112,0,0,1,1.029-.988,102.835,102.835,0,0,1,11.467-.161c.957.04,1.927.094,2.882.161a1.112,1.112,0,0,1,1.03.988,47.519,47.519,0,0,1,0,10.32,1.115,1.115,0,0,1-1.03.992l-.03,0-.194.013a1.841,1.841,0,0,0-1.712,1.831Zm4.206,9.932a2.474,2.474,0,0,1-.174-.52.821.821,0,0,1,1.547-.519l.84,1.819c.1.215.209.424.325.628a2.463,2.463,0,0,1-2.538-1.409Zm21.217-2.724a6.724,6.724,0,0,1-3.514,3.807l-5.1,2.354a6.769,6.769,0,0,1-8.983-3.307L29.4,21.293a3.588,3.588,0,0,0,1.406-2.84,3.54,3.54,0,0,0-.329-1.5l-.5-1.08,6.987-3.226a.776.776,0,0,0-.651-1.41l-7.692,3.552a.776.776,0,0,0-.379,1.031l.825,1.784a2,2,0,0,1,.186.844,2.028,2.028,0,0,1-.534,1.367l-.773-1.674,0-.008-1.247-2.7a2.667,2.667,0,0,0,1.568-2.148h0a49.073,49.073,0,0,0,.278-6.339L39.964,1.676a1.337,1.337,0,0,1,1.773.653l4.37,9.463A2.022,2.022,0,0,1,44.2,10.62l-.824-1.785a.776.776,0,0,0-1.03-.379L39.132,9.94a.776.776,0,0,0,.651,1.41l2.507-1.158.5,1.08a3.565,3.565,0,0,0,4,1.994l2.183,4.726a6.724,6.724,0,0,1,.207,5.176Zm1.47-5.173c-.08-.22-.168-.439-.268-.655l-.839-1.816h0a.821.821,0,0,1,1.4-.844,2.462,2.462,0,0,1-.29,3.315Z"/>
          <path id="Path_1245638" data-name="Path 1245638" d="M34.51,20.528a.744.744,0,0,0-1.262.583,2.448,2.448,0,0,0,.961,2.082,1.024,1.024,0,0,0,.566.2.629.629,0,0,0,.266-.057c.491-.227.584-1.073.209-1.886a2.261,2.261,0,0,0-.74-.922Z"/>
          <path id="Path_1245639" data-name="Path 1245639" d="M43.322,15.932c-.491.227-.584,1.073-.208,1.886a1.714,1.714,0,0,0,1.308,1.121.623.623,0,0,0,.263-.056c.491-.227.584-1.073.208-1.886S43.812,15.705,43.322,15.932Z"/>
          <path id="Path_1245640" data-name="Path 1245640" d="M40.4,22.272a2.746,2.746,0,0,0-1.6,2.591.621.621,0,0,0,.62.6h.021a.621.621,0,0,0,.6-.642,1.509,1.509,0,0,1,2.526-1.166.621.621,0,0,0,.837-.918,2.746,2.746,0,0,0-3.008-.465Z"/>
          <path id="Path_1245641" data-name="Path 1245641" d="M39.129,21.924l1.83-.845a.621.621,0,0,0-.521-1.128l-1.83.845a.621.621,0,1,0,.521,1.128Z"/>
          <path id="Path_1245642" data-name="Path 1245642" d="M35.337,18.754,32.754,18.7H32.74a.621.621,0,0,0-.014,1.242L35.309,20h.014a.621.621,0,0,0,.014-1.242Z"/>
          <path id="Path_1245643" data-name="Path 1245643" d="M41.094,17.01a.621.621,0,0,0,.874-.09l1.63-2a.621.621,0,1,0-.964-.784l-1.63,2A.621.621,0,0,0,41.094,17.01Z"/>
          <path id="Path_1245644" data-name="Path 1245644" d="M48.885,32.429a104.316,104.316,0,0,0-11.64-.164c-.972.04-1.957.1-2.926.164A2.664,2.664,0,0,0,31.855,34.8a49.076,49.076,0,0,0,0,10.658h0a2.666,2.666,0,0,0,2.464,2.372h.016l.211.014a.284.284,0,0,1,.264.282v2.107a1.631,1.631,0,0,0,2.622,1.3,16.493,16.493,0,0,0,3.4-3.333.28.28,0,0,1,.232-.117h0c2.6.013,5.232-.072,7.814-.254a2.667,2.667,0,0,0,2.465-2.368,49.08,49.08,0,0,0,0-10.663A2.664,2.664,0,0,0,48.885,32.429Zm.92,12.861a1.092,1.092,0,0,1-.084.317,1.108,1.108,0,0,1-.946.671c-2.543.179-5.134.263-7.7.25a1.842,1.842,0,0,0-1.517.784,14.991,14.991,0,0,1-3.07,2.983.07.07,0,0,1-.084.008.072.072,0,0,1-.045-.072V48.124a1.842,1.842,0,0,0-1.714-1.832l-.2-.014h-.017a1.115,1.115,0,0,1-1.03-.992h0a47.526,47.526,0,0,1,0-10.32,1.112,1.112,0,0,1,1.03-.988c.955-.067,1.924-.122,2.882-.161a102.825,102.825,0,0,1,11.467.161,1.112,1.112,0,0,1,1.029.988,47.5,47.5,0,0,1,0,10.324Z"/>
          <path id="Path_1245645" data-name="Path 1245645" d="M15.108,3.226A.776.776,0,0,0,14.331,4v5.37a.776.776,0,0,0,1.553,0V4a.776.776,0,0,0-.776-.776Z"/>
          <path id="Path_1245646" data-name="Path 1245646" d="M15.108,11.537a.776.776,0,0,0-.776.776v.052a.776.776,0,1,0,1.553,0v-.052A.776.776,0,0,0,15.108,11.537Z"/>
          <path id="Path_1245647" data-name="Path 1245647" d="M18.516,3.226A.776.776,0,0,0,17.739,4v5.37a.776.776,0,1,0,1.553,0V4a.776.776,0,0,0-.776-.776Z"/>
          <path id="Path_1245648" data-name="Path 1245648" d="M18.516,11.537a.776.776,0,0,0-.776.776v.052a.776.776,0,1,0,1.553,0v-.052A.776.776,0,0,0,18.516,11.537Z"/>
          <path id="Path_1245649" data-name="Path 1245649" d="M21.923,3.226A.776.776,0,0,0,21.147,4v5.37a.776.776,0,1,0,1.553,0V4a.776.776,0,0,0-.776-.776Z"/>
          <path id="Path_1245650" data-name="Path 1245650" d="M21.923,11.537a.776.776,0,0,0-.776.776v.052a.776.776,0,1,0,1.553,0v-.052A.776.776,0,0,0,21.923,11.537Z"/>
          <path id="Path_1245651" data-name="Path 1245651" d="M38.194,35.239a.776.776,0,0,0-.776.776v5.37a.776.776,0,1,0,1.553,0v-5.37A.776.776,0,0,0,38.194,35.239Z"/>
          <path id="Path_1245652" data-name="Path 1245652" d="M38.194,43.55a.776.776,0,0,0-.776.776v.052a.776.776,0,1,0,1.553,0v-.052A.776.776,0,0,0,38.194,43.55Z"/>
          <path id="Path_1245653" data-name="Path 1245653" d="M41.6,35.239a.776.776,0,0,0-.776.776v5.37a.776.776,0,0,0,1.553,0v-5.37A.776.776,0,0,0,41.6,35.239Z"/>
          <path id="Path_1245654" data-name="Path 1245654" d="M41.6,43.55a.776.776,0,0,0-.776.776v.052a.776.776,0,0,0,1.553,0v-.052A.776.776,0,0,0,41.6,43.55Z"/>
          <path id="Path_1245655" data-name="Path 1245655" d="M45.009,35.239a.776.776,0,0,0-.776.776v5.37a.776.776,0,1,0,1.553,0v-5.37A.776.776,0,0,0,45.009,35.239Z"/>
          <path id="Path_1245656" data-name="Path 1245656" d="M45.009,43.55a.776.776,0,0,0-.776.776v.052a.776.776,0,1,0,1.553,0v-.052A.776.776,0,0,0,45.009,43.55Z"/>
        </g>
      </g>
    </g>
  </g>
</svg>
