<svg xmlns="http://www.w3.org/2000/svg" xmlns:xlink="http://www.w3.org/1999/xlink" width="108" height="108" viewBox="0 0 108 108">
  <defs>
    <filter id="Rectangle_411831" x="0" y="0" width="108" height="108" filterUnits="userSpaceOnUse">
      <feOffset dy="3" input="SourceAlpha"/>
      <feGaussianBlur stdDeviation="3" result="blur"/>
      <feFlood flood-opacity="0.161"/>
      <feComposite operator="in" in2="blur"/>
      <feComposite in="SourceGraphic"/>
    </filter>
    <clipPath id="clip-path">
      <rect id="Rectangle_430334" data-name="Rectangle 430334" width="53" height="60" transform="translate(-3315 -10265)" fill="#fff" stroke="#707070" stroke-width="1" opacity="0"/>
    </clipPath>
    <clipPath id="clip-path-2">
      <path id="path21" d="M0-53H53V0H0Z"/>
    </clipPath>
  </defs>
  <g id="Group_1255134" data-name="Group 1255134" transform="translate(3342.27 10286)">
    <g id="Group_1242625" data-name="Group 1242625" transform="translate(-3333.27 -10280)">
      <g id="Group_1230590" data-name="Group 1230590">
        <g transform="matrix(1, 0, 0, 1, -9, -6)" filter="url(#Rectangle_411831)">
          <g id="Rectangle_411831-2" data-name="Rectangle 411831" transform="translate(9 6)" fill="#a4e0d4" stroke="#fff" stroke-width="2">
            <path d="M5,0H58A32,32,0,0,1,90,32V85a5,5,0,0,1-5,5H32A32,32,0,0,1,0,58V5A5,5,0,0,1,5,0Z" stroke="none"/>
            <path d="M5,1H58A31,31,0,0,1,89,32V85a4,4,0,0,1-4,4H32A31,31,0,0,1,1,58V5A4,4,0,0,1,5,1Z" fill="none"/>
          </g>
        </g>
      </g>
    </g>
    <g id="Mask_Group_1099551" data-name="Mask Group 1099551" clip-path="url(#clip-path)">
      <g id="g15" transform="translate(-3315 -10208.5)">
        <g id="g17">
          <g id="g19" clip-path="url(#clip-path-2)">
            <g id="g25" transform="translate(38.81 -26.564)">
              <path id="path27" d="M0,0,8.9,2.994a3.431,3.431,0,0,0,1.085.176A3.432,3.432,0,0,0,13.416-.262V-11.581H8.659v9.448L-.781-5.28Z" fill="#b6e6fa"/>
            </g>
            <path id="path29" d="M49.811-38.145H47.47V-26.5h2.342Z" fill="#8ad8f6"/>
            <g id="g31" transform="translate(48.777 -25.798)">
              <path id="path33" d="M0,0C-1.693-.445-5.081-1.632-6.834-2.226a7.223,7.223,0,0,0-.592-2.712l-3.322-1.107.781,5.28S-.582,2.414.018,2.4A3.473,3.473,0,0,0,3.45-1.078,3.359,3.359,0,0,1,0,0" fill="#8ad8f6"/>
            </g>
            <g id="g35" transform="translate(35.823 -33.486)">
              <path id="path37" d="M0,0-3.817-1.3l-7.226,18.425h1.72V18.63h7.131v1.6H-1.2L3.675,7.48A5.893,5.893,0,0,0,0,0" fill="#b6e6fa"/>
            </g>
            <g id="g39" transform="translate(28.626 -17.254)">
              <path id="path41" d="M0,0V-2.524l3.021-7.7a6.31,6.31,0,0,0,2.508-6.4L3.38-17.534-3.846.891l1.72.393V2.4H5v1.6h.989l1.137-2.97V0Z" fill="#8ad8f6"/>
            </g>
            <g id="g43" transform="translate(20.289 -41.995)">
              <path id="path45" d="M0,0A6.987,6.987,0,0,1-6.987,6.987,6.987,6.987,0,0,1-13.975,0,6.987,6.987,0,0,1-6.987-6.987,6.987,6.987,0,0,1,0,0" fill="#feef8f"/>
            </g>
            <g id="g47" transform="translate(14.98 -36.686)">
              <path id="path49" d="M0,0A6.987,6.987,0,0,1-6.987-6.987a6.953,6.953,0,0,1,1.28-4.029A6.977,6.977,0,0,0-8.666-5.309,6.987,6.987,0,0,0-1.678,1.678,6.977,6.977,0,0,0,4.029-1.28,6.953,6.953,0,0,1,0,0" fill="#fde31d"/>
            </g>
            <g id="g51" transform="translate(45.311 -13.259)">
              <path id="path53" d="M0,0H-11.884V6.173h8.269l-3.006,7.086H.9l3.22-7.03A4.48,4.48,0,0,0,4.48,4.48,4.48,4.48,0,0,0,0,0" fill="#6987a0"/>
            </g>
            <path id="path55" d="M45.128-9.409h-11.7V-7.03h11.7Z" fill="#57758d"/>
            <path id="path57" d="M33.427-7.086h2.342v-6.173H33.427Z" fill="#57758d"/>
            <g id="g59" transform="translate(41.872 -1.491)">
              <path id="path61" d="M0,0,2.373-5.6H-.176L-3.158,1.491h7.5L5.027,0Z" fill="#57758d"/>
            </g>
            <path id="path63" d="M33.5-14.857H13.3V-.67H33.5Z" fill="#eb975d"/>
            <g id="g65" transform="translate(15.612 -2.98)">
              <path id="path67" d="M0,0V-11.877H-2.31V2.31h20.2V0Z" fill="#b25e1e"/>
            </g>
            <g id="g69" transform="translate(33.227 -37.571)">
              <path id="path71" d="M0,0A6.2,6.2,0,0,0,3.38,1,6.224,6.224,0,0,0,9.6-5.228V-9.906H5.694L2.589-6.774V-2.9Z" fill="#ffdaaa"/>
            </g>
            <g id="g73" transform="translate(37.5 -38.8)">
              <path id="path75" d="M0,0-.076,0l.66-.741v-3.87L4.6-8.662,1.422-8.677-1.683-5.545v3.87l-2.589,2.9A6.261,6.261,0,0,0,5.222-2.839,6.217,6.217,0,0,1,0,0" fill="#ffb680"/>
            </g>
            <g id="g77" transform="translate(35.18 -52.194)">
              <path id="path79" d="M0,0A1.665,1.665,0,0,0-1.665,1.665,3.132,3.132,0,0,0-4.8,4.8V9.4a6.219,6.219,0,0,0,2.844,5.228l2.589-2.9V7.85L3.742,4.718H7.651V0Z" fill="#6987a0"/>
            </g>
            <g id="g81" transform="translate(35.18 -52.194)">
              <path id="path83" d="M0,0A1.665,1.665,0,0,0-1.665,1.665,3.132,3.132,0,0,0-4.8,4.8V9.4a6.219,6.219,0,0,0,2.844,5.228l1.41-1.581A6.205,6.205,0,0,1-2.418,8.59V4.06A3.132,3.132,0,0,1,.451,2.183,1.665,1.665,0,0,1,2.116.518H7.651V0Z" fill="#57758d"/>
            </g>
            <path id="path85" d="M52.227-38.145H45.914V-41.25h6.313Z" fill="#ffdaaa"/>
            <path id="path87" d="M52.227-44.354H47.47v3.1h4.757Z" fill="#ffdaaa"/>
            <path id="path89" d="M49.848-44.354H47.47v3.1h2.379Z" fill="#ffb680"/>
            <path id="path91" d="M48.292-41.25H45.914v3.1h2.379Z" fill="#ffb680"/>
            <g id="g93" transform="translate(15.818 -14.857)">
              <path id="path95" d="M0,0H-2.441A11.036,11.036,0,0,0,16.125,2.363,11.065,11.065,0,0,1,0,0" fill="#b25e1e"/>
            </g>
            <path id="path97" d="M26.5-11.751H20.289v-4.612H26.5Z" fill="#ffdaaa"/>
            <g id="g99" transform="translate(22.542 -14.004)">
              <path id="path101" d="M0,0V-2.359H-2.253V2.253H3.958V0Z" fill="#ffb680"/>
            </g>
            <g id="g103" transform="translate(31.721 -34.788)">
              <path id="path105" d="M0,0H0L-9.078,4.261a4.093,4.093,0,0,0-2.354,3.706V18.425h4.658V8.5L-2.14,6.231A4.658,4.658,0,0,0,0,0" fill="#b6e6fa"/>
            </g>
            <g id="g107" transform="translate(22.488 -18.538)">
              <path id="path109" d="M0,0V-10.459a4.084,4.084,0,0,1,.334-1.614l-.178.084A4.093,4.093,0,0,0-2.2-8.284V2.175H2.46V0Z" fill="#8ad8f6"/>
            </g>
            <path id="path111" d="M1.656-26.678H0v-1.544H1.656Z" fill="#c5d9ec"/>
            <path id="path113" d="M1.656-20.493H0v-1.544H1.656Z" fill="#c5d9ec"/>
            <path id="path115" d="M7.919-23.585h-1.6V-25.13h1.6Z" fill="#c5d9ec"/>
            <path id="path117" d="M7.919-17.4h-1.6v-1.544h1.6Z" fill="#c5d9ec"/>
            <path id="path119" d="M34.315-46.686H32.763v-1.553h1.553Z" fill="#fff"/>
            <path id="path121" d="M17.165-6.314H15.612V-7.867h1.553Z" fill="#fff"/>
            <g id="g123" transform="translate(31.217 -47.457)">
              <path id="path125" d="M0,0A2.348,2.348,0,0,1,2.349-2.343h.774v-.772A.886.886,0,0,1,4.009-4h6.856V-.851H7.418L3.87,2.718V6.59L1.953,8.735A5.393,5.393,0,0,1,0,4.573ZM10.865,4.573A5.436,5.436,0,0,1,3.294,9.555L5.418,7.178V3.354L8.063.693h2.8ZM5.432,11.54a6.778,6.778,0,0,0,6.981-6.966V-5.543h-8.4A2.438,2.438,0,0,0,1.683-3.83,3.9,3.9,0,0,0-1.548,0V4.573c0,2.371,1.388,6.966,6.981,6.966"/>
            </g>
            <g id="g127" transform="translate(8.567 -38.234)">
              <path id="path129" d="M0,0A6.1,6.1,0,0,1-1.351-3.851a6.192,6.192,0,0,1,6.194-6.177,6.192,6.192,0,0,1,6.194,6.177A6.192,6.192,0,0,1,4.843,2.325,6.137,6.137,0,0,1,.976.974L.008,2.18A7.777,7.777,0,0,0,4.843,3.87a7.74,7.74,0,0,0,7.742-7.721,7.74,7.74,0,0,0-7.742-7.721A7.74,7.74,0,0,0-2.9-3.851,7.73,7.73,0,0,0-1.21.964Z"/>
            </g>
            <path id="path131" d="M48.256-43.659h3.2v1.542h-3.2Zm3.2,4.631H46.7v-1.544h4.747ZM23.326-9.5a10.005,10.005,0,0,1-8.562-4.826H19.6v2.413h7.742v-2.413h4.83A10.25,10.25,0,0,1,23.326-9.5M21.151-27a3.311,3.311,0,0,1,1.9-2.986l8.295-3.883A3.864,3.864,0,0,1,29.3-29.416l-5.055,2.464v9.585h-3.1ZM25.8-20.94v-5.048l2.4-1.168Zm-4.645,5.118H25.8v2.367H21.151ZM32.729-31.128a5.361,5.361,0,0,0,.217-2.673l2.672.909A5.064,5.064,0,0,1,38.55-30.32a5.043,5.043,0,0,1,.254,3.873L34.327-14.779v-1.09H27.345v-1.5H26.078l4.163-10.8a5.368,5.368,0,0,0,2.489-2.966M46.708-45.2v3.087H45.156v4.633h1.552V-34.4h1.548v-3.088h3.2V-27A2.647,2.647,0,0,1,48.8-24.359c-.007.262-7.977-2.549-8.276-2.608a6.549,6.549,0,0,0-.359-3.51L46.708-28.3v1.629h1.548v-6.177H46.708v2.92l-7.8-2.594a6.614,6.614,0,0,0-2.787-1.828l-4.259-1.425L22.4-31.38A4.861,4.861,0,0,0,19.6-27v11.128H12.635V0H25.022V-1.544H14.184V-12.438c4.283,5.962,14.305,5.878,18.595-.053V-1.544H29.668V0h4.659V-6.6h6.228L37.749,0h1.69l2.8-6.6h2.915V-8.141H34.327v-4.594h11a3.693,3.693,0,0,1,3.693,3.683,3.654,3.654,0,0,1-.289,1.429L45.254,0h1.682l3.211-6.991.009-.02a5.187,5.187,0,0,0,.416-2.041,5.24,5.24,0,0,0-5.242-5.227H35.793l4.3-11.2c.947.234,7.868,2.832,8.711,2.669A4.2,4.2,0,0,0,53-27V-45.2Z"/>
            <path id="path133" d="M26.571,0h1.548V-1.544H26.571Z"/>
            <g id="g135" transform="translate(12.635 -46.75)">
              <path id="path137" d="M0,0V5.436H4.645V3.892h-3.1V0Z"/>
            </g>
            <path id="path139" d="M18.054-28.222H3.345v1.544H18.054Z"/>
            <path id="path141" d="M18.054-22.037H3.345v1.544H18.054Z"/>
            <path id="path143" d="M18.054-25.13H9.59v1.544h8.464Z"/>
            <path id="path145" d="M18.054-18.945H9.59V-17.4h8.464Z"/>
          </g>
        </g>
      </g>
    </g>
  </g>
</svg>
