<svg xmlns="http://www.w3.org/2000/svg" xmlns:xlink="http://www.w3.org/1999/xlink" width="108" height="108" viewBox="0 0 108 108">
  <defs>
    <filter id="Rectangle_411831" x="0" y="0" width="108" height="108" filterUnits="userSpaceOnUse">
      <feOffset dy="3" input="SourceAlpha"/>
      <feGaussianBlur stdDeviation="3" result="blur"/>
      <feFlood flood-opacity="0.161"/>
      <feComposite operator="in" in2="blur"/>
      <feComposite in="SourceGraphic"/>
    </filter>
    <clipPath id="clip-path">
      <rect id="Rectangle_430320" data-name="Rectangle 430320" width="54" height="60" transform="translate(288.051 3705)" fill="#fff" stroke="#707070" stroke-width="1" opacity="0"/>
    </clipPath>
  </defs>
  <g id="Group_1242673" data-name="Group 1242673" transform="translate(-261 -3684)">
    <g id="Group_1242608" data-name="Group 1242608" transform="translate(270 3690)">
      <g transform="matrix(1, 0, 0, 1, -9, -6)" filter="url(#Rectangle_411831)">
        <g id="Rectangle_411831-2" data-name="Rectangle 411831" transform="translate(9 6)" fill="#e8de49" stroke="#fff" stroke-width="2">
          <path d="M5,0H58A32,32,0,0,1,90,32V85a5,5,0,0,1-5,5H32A32,32,0,0,1,0,58V5A5,5,0,0,1,5,0Z" stroke="none"/>
          <path d="M5,1H58A31,31,0,0,1,89,32V85a4,4,0,0,1-4,4H32A31,31,0,0,1,1,58V5A4,4,0,0,1,5,1Z" fill="none"/>
        </g>
      </g>
    </g>
    <g id="Mask_Group_1099555" data-name="Mask Group 1099555" clip-path="url(#clip-path)">
      <g id="listado" transform="translate(287.587 3707.537)">
        <path id="Path_1245742" data-name="Path 1245742" d="M53.879,26.287l-4.267-2.764a1.287,1.287,0,0,0-1.778.379l-.556.858-1.818-1.178-4.68-5.033a12.527,12.527,0,0,0-3.633-2.461V12.537l1.289-1.993a.72.72,0,0,0-.214-.993l-1.074-.693V5.186a.72.72,0,0,0-.72-.72H7.963a.715.715,0,0,0-.457.19L.674,11.486A.712.712,0,0,0,.463,12V45.7A4.763,4.763,0,0,0,5.219,50.46H39.359A3.65,3.65,0,0,0,43,46.816V40.175a.72.72,0,0,0-.72-.72H37.147V33.015c.6.12,1.277.229,2.074.329l1.754,1.14-.5.764a1.289,1.289,0,0,0,.379,1.778l4.265,2.765a1.287,1.287,0,0,0,1.779-.379l7.353-11.347a1.286,1.286,0,0,0-.377-1.777Z" fill-rule="evenodd"/>
        <path id="Path_1245743" data-name="Path 1245743" d="M45.808,38.5,41.8,35.9l7.188-11.089L53,27.41Z" fill="#31a7fb" fill-rule="evenodd"/>
        <path id="Path_1245744" data-name="Path 1245744" d="M39.893,32.047a.714.714,0,0,0-.3-.111,21.131,21.131,0,0,1-2.89-.5c-2.179-.736-2.733-1.4-4.362-2.99l-.66-.639c-.9-.87-3.429-2.49-4.581-3.324a1.233,1.233,0,0,1-.57-1.039,1.255,1.255,0,0,1,1.185-1.264,1.1,1.1,0,0,1,.682.236l4.818,3.123a.72.72,0,0,0,.78-1.206L30.866,22.3l3.671-5.683a12.923,12.923,0,0,1,5.22,2.9l4.74,5.1a.762.762,0,0,0,.136.113l1.891,1.224-4.74,7.309Z" fill="#ffd9cd" fill-rule="evenodd"/>
        <path id="Path_1245745" data-name="Path 1245745" d="M35.738,40.173v6.644a3.628,3.628,0,0,0,.747,2.206H5.247A3.323,3.323,0,0,1,1.932,45.7V12.711h6.09a.72.72,0,0,0,.72-.72V5.9h27V7.927L33.7,6.607a.72.72,0,0,0-.993.214l-6.232,9.639-.66.162-3.978.976H14.664a.72.72,0,0,0,0,1.437h4.715a2.922,2.922,0,0,0-.393,1.771h-4.32a.72.72,0,1,0,0,1.44h4.814a2.965,2.965,0,0,0,.347.441,2.715,2.715,0,0,0,2.088.84l-2.472,3.828H14.667a.72.72,0,1,0,0,1.44h4.218l-.06,1.769h-4.16a.72.72,0,0,0,0,1.437h4.106l-.06,1.67a.721.721,0,0,0,1.037.67L24.482,32h4.885a.72.72,0,1,0,.047-1.439l-3.876,0,2.389-3.7,2.791,2.02c.219.211.424.411.618.6,1.718,1.672,2.65,2.58,4.4,3.165v7.524ZM5.779,16.4a.72.72,0,0,0-.72.72v5.606a.72.72,0,0,0,.72.72h5.606a.72.72,0,0,0,.72-.72V17.116a.72.72,0,0,0-.72-.719Zm0,9.75a.72.72,0,0,0-.72.72v5.606a.72.72,0,0,0,.72.719h5.606a.721.721,0,0,0,.72-.72V26.863a.72.72,0,0,0-.72-.716Zm0,9.749a.72.72,0,0,0-.72.72v5.607a.72.72,0,0,0,.72.72h5.606a.721.721,0,0,0,.72-.72V36.615a.72.72,0,0,0-.72-.719H5.779ZM14.66,41.74h14.7a.72.72,0,1,0,0-1.44h-14.7a.72.72,0,0,0,0,1.44Zm0-3.207h14.7a.72.72,0,0,0,0-1.438h-14.7a.719.719,0,0,0,0,1.438Z" fill="#fff" fill-rule="evenodd"/>
        <path id="Path_1245746" data-name="Path 1245746" d="M41.591,46.817a2.207,2.207,0,1,1-4.413,0V40.892h4.414Z" fill="#9c9c9c" fill-rule="evenodd"/>
        <path id="Path_1245747" data-name="Path 1245747" d="M7.3,6.919v4.355H2.945Z" fill="#9c9c9c" fill-rule="evenodd"/>
        <path id="Path_1245748" data-name="Path 1245748" d="M22.241,22.031a1.347,1.347,0,0,1-1.376-.344,1.494,1.494,0,0,1,.669-2.535l3.806-.934L23,21.845Z" fill="#ffd9cd" fill-rule="evenodd"/>
        <path id="Path_1245749" data-name="Path 1245749" d="M20.291,29.691,22.72,31.26l-2.528,1.249Z" fill="#6e6e6e" fill-rule="evenodd"/>
        <path id="Path_1245750" data-name="Path 1245750" d="M29.174,21.208a2.55,2.55,0,0,0-1.462-.461,2.7,2.7,0,0,0-2.629,2.7,2.653,2.653,0,0,0,1.171,2.2l.506.366-2.8,4.338L20.61,28.19,33.517,8.2l3.349,2.163L29.66,21.523Z" fill="#fcc16d" fill-rule="evenodd"/>
        <path id="Path_1245751" data-name="Path 1245751" d="M35.738,15.493q-.2-.069-.389-.129l.389-.6Z" fill="#fff" fill-rule="evenodd"/>
        <g id="Group_1252929" data-name="Group 1252929">
          <path id="Path_1245752" data-name="Path 1245752" d="M10.664,41.5H6.5V37.334h4.169Z" fill="#79aa30" fill-rule="evenodd"/>
          <path id="Path_1245753" data-name="Path 1245753" d="M10.664,31.753H6.5v-4.17h4.169Z" fill="#79aa30" fill-rule="evenodd"/>
          <path id="Path_1245754" data-name="Path 1245754" d="M10.664,22H6.5V17.835h4.169Z" fill="#79aa30" fill-rule="evenodd"/>
        </g>
      </g>
    </g>
  </g>
</svg>
