<svg xmlns="http://www.w3.org/2000/svg" xmlns:xlink="http://www.w3.org/1999/xlink" width="108" height="108" viewBox="0 0 108 108">
  <defs>
    <filter id="Rectangle_411831" x="0" y="0" width="108" height="108" filterUnits="userSpaceOnUse">
      <feOffset dy="3" input="SourceAlpha"/>
      <feGaussianBlur stdDeviation="3" result="blur"/>
      <feFlood flood-opacity="0.161"/>
      <feComposite operator="in" in2="blur"/>
      <feComposite in="SourceGraphic"/>
    </filter>
    <clipPath id="clip-path">
      <rect id="Rectangle_430334" data-name="Rectangle 430334" width="53" height="60" transform="translate(-3315 -10265)" fill="#fff" stroke="#707070" stroke-width="1" opacity="0"/>
    </clipPath>
  </defs>
  <g id="Group_1260391" data-name="Group 1260391" transform="translate(3342.27 10286)">
    <g id="Group_1242625" data-name="Group 1242625" transform="translate(-3333.27 -10280)">
      <g id="Group_1230590" data-name="Group 1230590">
        <g transform="matrix(1, 0, 0, 1, -9, -6)" filter="url(#Rectangle_411831)">
          <g id="Rectangle_411831-2" data-name="Rectangle 411831" transform="translate(9 6)" fill="#a4e0d4" stroke="#fff" stroke-width="2">
            <path d="M5,0H58A32,32,0,0,1,90,32V85a5,5,0,0,1-5,5H32A32,32,0,0,1,0,58V5A5,5,0,0,1,5,0Z" stroke="none"/>
            <path d="M5,1H58A31,31,0,0,1,89,32V85a4,4,0,0,1-4,4H32A31,31,0,0,1,1,58V5A4,4,0,0,1,5,1Z" fill="none"/>
          </g>
        </g>
      </g>
    </g>
    <g id="Mask_Group_1099560" data-name="Mask Group 1099560" clip-path="url(#clip-path)">
      <g id="investigacion_1_" data-name="investigacion (1)" transform="translate(-3315.42 -10261.921)">
        <g id="Group_1252971" data-name="Group 1252971">
          <path id="Path_1245845" data-name="Path 1245845" d="M36.044,11.9l2.415-1.619a.974.974,0,0,1,1.24.121l3.737,3.737a.974.974,0,0,1,.121,1.24L41.938,17.8l2.054,4.957,2.852.562a.974.974,0,0,1,.792.963v5.285a.974.974,0,0,1-.792.963l-2.852.562-2.054,4.957,1.619,2.415a.974.974,0,0,1-.121,1.24L39.7,43.438a.974.974,0,0,1-1.24.121L36.044,41.94l-4.957,2.054-.562,2.852a.974.974,0,0,1-.963.791H24.276a.974.974,0,0,1-.963-.791l-.562-2.852L17.794,41.94l-2.415,1.619a.974.974,0,0,1-1.24-.121L10.4,39.7a.974.974,0,0,1-.121-1.24L11.9,36.046,9.846,31.089l-2.852-.562a.974.974,0,0,1-.791-.963V24.278a.974.974,0,0,1,.792-.963l2.852-.562L11.9,17.8l-1.619-2.415a.974.974,0,0,1,.121-1.24L14.139,10.4a.974.974,0,0,1,1.24-.121L17.794,11.9l4.957-2.054L23.314,7a.974.974,0,0,1,.963-.791h5.285A.974.974,0,0,1,30.524,7l.562,2.852L36.044,11.9Z" fill="#fdc72e" fill-rule="evenodd"/>
          <path id="Path_1245846" data-name="Path 1245846" d="M38.747,10.91l3.23,3.23a.974.974,0,0,1,.121,1.24L40.479,17.8l2.054,4.957,2.852.562a.974.974,0,0,1,.792.963v5.285a.974.974,0,0,1-.792.963l-2.852.562-2.054,4.957L42.1,38.46a.974.974,0,0,1-.121,1.24l-3.23,3.23a.839.839,0,0,1-1.069.1l-2.191-1.469-5.859,2.427-.562,2.852a.974.974,0,0,1-.961.791H24.276a.974.974,0,0,1-.963-.791l-.562-2.852-5.844-2.421-1.215.8-.991.665a.839.839,0,0,1-1.069-.1L10.4,39.7a.974.974,0,0,1-.121-1.24L11.9,36.046,9.846,31.088l-2.852-.562a.974.974,0,0,1-.791-.963V24.278a.974.974,0,0,1,.792-.963l2.852-.562L11.9,17.8l-1.619-2.415a.974.974,0,0,1,.121-1.24l3.23-3.23a.839.839,0,0,1,1.069-.1l.991.665,1.215.8,5.844-2.421L23.314,7a.974.974,0,0,1,.963-.791H28.1A.974.974,0,0,1,29.066,7l.562,2.852L34.585,11.9l.9.374,2.191-1.469a.839.839,0,0,1,1.069.1Z" fill="#ffeb87" fill-rule="evenodd"/>
          <path id="Path_1245847" data-name="Path 1245847" d="M13.9,26.928a13.03,13.03,0,0,0,19.677,11.2,2.21,2.21,0,0,1,2.72.34L38.623,40.8,40.8,38.625,38.47,36.3a2.21,2.21,0,0,1-.34-2.72A13.028,13.028,0,1,0,13.9,26.928Z" fill="#4eb1fc" fill-rule="evenodd"/>
          <path id="Path_1245848" data-name="Path 1245848" d="M13.9,26.928a12.981,12.981,0,0,0,3.533,8.919A13.031,13.031,0,0,0,33,37.556a2.21,2.21,0,0,1,2.72.34l.576.576h0L38.623,40.8,40.8,38.625,38.47,36.3l-.576-.576a2.21,2.21,0,0,1-.34-2.72,13.031,13.031,0,0,0-1.709-15.569A13.027,13.027,0,0,0,13.9,26.928Z" fill="#85caff" fill-rule="evenodd"/>
          <path id="Path_1245849" data-name="Path 1245849" d="M44.267,48.21,36.68,40.623a1.347,1.347,0,0,1,0-1.9l2.04-2.04a1.347,1.347,0,0,1,1.9,0l7.587,7.587a2.787,2.787,0,0,1-3.941,3.941Z" fill="#a34f41" fill-rule="evenodd"/>
          <path id="Path_1245850" data-name="Path 1245850" d="M37.977,37.425l.743-.743a1.347,1.347,0,0,1,1.9,0l7.587,7.587a2.8,2.8,0,0,1,.538,3.182,2.8,2.8,0,0,1-3.183-.538l-7.587-7.587a1.347,1.347,0,0,1,0-1.9Z" fill="#c86f5c" fill-rule="evenodd"/>
        </g>
        <circle id="Ellipse_14220" data-name="Ellipse 14220" cx="9.94" cy="9.94" r="9.94" transform="translate(12.435 26.501) rotate(-45)" fill="#4eb1fc"/>
        <circle id="Ellipse_14221" data-name="Ellipse 14221" cx="9.943" cy="9.943" r="9.943" transform="translate(16.817 36.695) rotate(-89.083)" fill="#e3f1ff"/>
        <path id="Path_1245851" data-name="Path 1245851" d="M34.449,20.43A9.941,9.941,0,0,1,19.785,33.845,9.941,9.941,0,0,1,34.449,20.429Z" fill="#fff" fill-rule="evenodd"/>
        <path id="Path_1245852" data-name="Path 1245852" d="M32.5,24.744a1.475,1.475,0,0,0-2.086-2.086l-5.735,5.735-1.594-2.76a1.475,1.475,0,0,0-2.554,1.475L23,31.395a1.6,1.6,0,0,0,2.511.331L32.5,24.744Z" fill="#2dd62d" fill-rule="evenodd"/>
        <path id="Path_1245853" data-name="Path 1245853" d="M32.845,23.218a1.461,1.461,0,0,0-.35-.56,1.479,1.479,0,0,0-2.086,0l-5.735,5.735-1.594-2.76a1.473,1.473,0,0,0-2.67.257,1.465,1.465,0,0,0,.115.252L23,30.429a1.6,1.6,0,0,0,2.511.331L32.5,23.778a1.464,1.464,0,0,0,.35-.56Z" fill="#43f043" fill-rule="evenodd"/>
        <path id="Path_1245854" data-name="Path 1245854" d="M31.977,23.178a.743.743,0,0,0-1.044,0L25.2,28.913a.736.736,0,0,1-1.158-.153L22.446,26a.739.739,0,0,0-.64-.369.73.73,0,0,0-.368.1.74.74,0,0,0-.272,1.009l2.476,4.287A.861.861,0,0,0,25,31.2l6.982-6.982a.739.739,0,0,0,0-1.045Zm1.041,2.086-6.982,6.982a2.278,2.278,0,0,1-1.632.684,2.468,2.468,0,0,1-.321-.021,2.285,2.285,0,0,1-1.715-1.146l-2.476-4.288a2.211,2.211,0,0,1,3.829-2.211l1.115,1.93,5.056-5.057a2.211,2.211,0,1,1,3.126,3.126ZM36,26.921a9.077,9.077,0,1,1-9.077-9.078A9.087,9.087,0,0,1,36,26.921Zm1.472,0a10.549,10.549,0,1,1-10.549-10.55A10.561,10.561,0,0,1,37.47,26.921Zm10.811,19.3a2.046,2.046,0,0,0-.6-1.459l-1.185-1.186h0l-6.355-6.355a.618.618,0,0,0-.869,0l-2.049,2.048a.619.619,0,0,0,0,.869l7.543,7.543a2.06,2.06,0,0,0,3.519-1.459ZM36.63,37.775a2.923,2.923,0,0,0-3.443-.293,12.274,12.274,0,1,1,4.294-4.293,2.921,2.921,0,0,0,.295,3.443Zm15.242-1.905a26.4,26.4,0,0,1-3.881,7.123l.729.729a3.535,3.535,0,0,1-5,5l-.729-.729a26.522,26.522,0,0,1-28.377,2.4l.539,1.2a.736.736,0,1,1-1.343.6l-1.477-3.289a.737.737,0,0,1,.551-1.028l3.551-.589a.736.736,0,1,1,.241,1.452L15.127,49a25.03,25.03,0,0,0,11.793,2.947,24.737,24.737,0,0,0,15.021-5.008l-5.764-5.763a2.089,2.089,0,0,1-.462-2.246,1.474,1.474,0,0,0-1.776-.185,13.745,13.745,0,1,1,4.806-4.806,1.473,1.473,0,0,0,.186,1.775,2.09,2.09,0,0,1,2.246.463l5.763,5.763a24.73,24.73,0,0,0,5.008-15.02,25,25,0,0,0-6.234-16.529.736.736,0,0,1,1.105-.972,26.538,26.538,0,0,1,5.052,26.449ZM1.893,26.921A25,25,0,0,0,8.126,43.449a.736.736,0,1,1-1.105.973,26.5,26.5,0,0,1,32.2-40.976l-.539-1.2a.736.736,0,0,1,1.343-.6l1.476,3.289a.737.737,0,0,1-.551,1.028l-3.551.59A.736.736,0,1,1,37.164,5.1l1.55-.258A25.036,25.036,0,0,0,1.893,26.921Zm11.723,17.04L9.88,40.226a1.7,1.7,0,0,1-.211-2.173l1.4-2.087-1.752-4.23L6.85,31.249a1.7,1.7,0,0,1-1.387-1.687V24.279A1.7,1.7,0,0,1,6.85,22.592l2.465-.486,1.752-4.23-1.4-2.086a1.7,1.7,0,0,1,.211-2.174L13.616,9.88a1.7,1.7,0,0,1,2.174-.212l2.086,1.4,4.23-1.752.486-2.465a1.7,1.7,0,0,1,1.686-1.387h5.284A1.7,1.7,0,0,1,31.249,6.85l.486,2.465,4.23,1.752,2.086-1.4a1.7,1.7,0,0,1,2.174.213l3.736,3.736a1.7,1.7,0,0,1,.212,2.174l-1.4,2.086,1.753,4.23,2.464.486a1.7,1.7,0,0,1,1.387,1.687v5.283a1.7,1.7,0,0,1-1.387,1.687l-2.465.486-1.471,3.552a.736.736,0,1,1-1.36-.563l1.622-3.917a.734.734,0,0,1,.537-.441l2.851-.562a.239.239,0,0,0,.2-.243V24.279a.24.24,0,0,0-.2-.243l-2.851-.562a.734.734,0,0,1-.537-.441l-2.055-4.959a.738.738,0,0,1,.068-.691l1.619-2.414a.239.239,0,0,0-.03-.312l-3.736-3.736a.238.238,0,0,0-.312-.03l-2.415,1.619a.735.735,0,0,1-.691.068l-4.959-2.054a.739.739,0,0,1-.441-.537L29.8,7.134a.239.239,0,0,0-.243-.2H24.279a.24.24,0,0,0-.243.2l-.562,2.852a.738.738,0,0,1-.441.537l-4.959,2.054a.735.735,0,0,1-.691-.068L14.969,10.89a.239.239,0,0,0-.312.03L10.92,14.657a.239.239,0,0,0-.03.312l1.619,2.414a.736.736,0,0,1,.068.691l-2.055,4.959a.733.733,0,0,1-.537.441l-2.851.562a.24.24,0,0,0-.2.243v5.283a.239.239,0,0,0,.2.243l2.851.562a.732.732,0,0,1,.537.441l2.055,4.959a.737.737,0,0,1-.068.692L10.89,38.872a.239.239,0,0,0,.03.312l3.736,3.736a.238.238,0,0,0,.312.03l2.415-1.618a.734.734,0,0,1,.691-.069l4.959,2.054a.738.738,0,0,1,.441.538l.562,2.851a.24.24,0,0,0,.243.2h5.284a.24.24,0,0,0,.243-.2l.562-2.851a.738.738,0,0,1,.441-.538l3.868-1.6a.736.736,0,1,1,.564,1.36l-3.5,1.452-.486,2.464a1.7,1.7,0,0,1-1.686,1.387H24.279a1.7,1.7,0,0,1-1.686-1.387l-.486-2.465-4.23-1.752-2.086,1.4a1.7,1.7,0,0,1-2.174-.212Z" fill-rule="evenodd"/>
      </g>
    </g>
  </g>
</svg>
