<svg xmlns="http://www.w3.org/2000/svg" xmlns:xlink="http://www.w3.org/1999/xlink" width="108" height="108" viewBox="0 0 108 108">
  <defs>
    <filter id="Rectangle_411831" x="0" y="0" width="108" height="108" filterUnits="userSpaceOnUse">
      <feOffset dy="3" input="SourceAlpha"/>
      <feGaussianBlur stdDeviation="3" result="blur"/>
      <feFlood flood-opacity="0.161"/>
      <feComposite operator="in" in2="blur"/>
      <feComposite in="SourceGraphic"/>
    </filter>
    <clipPath id="clip-path">
      <rect id="Rectangle_430334" data-name="Rectangle 430334" width="53" height="60" transform="translate(-3315 -10265)" fill="#fff" stroke="#707070" stroke-width="1" opacity="0"/>
    </clipPath>
  </defs>
  <g id="Group_1260394" data-name="Group 1260394" transform="translate(3342.27 10286)">
    <g id="Group_1242625" data-name="Group 1242625" transform="translate(-3333.27 -10280)">
      <g id="Group_1230590" data-name="Group 1230590">
        <g transform="matrix(1, 0, 0, 1, -9, -6)" filter="url(#Rectangle_411831)">
          <g id="Rectangle_411831-2" data-name="Rectangle 411831" transform="translate(9 6)" fill="#a4e0d4" stroke="#fff" stroke-width="2">
            <path d="M5,0H58A32,32,0,0,1,90,32V85a5,5,0,0,1-5,5H32A32,32,0,0,1,0,58V5A5,5,0,0,1,5,0Z" stroke="none"/>
            <path d="M5,1H58A31,31,0,0,1,89,32V85a4,4,0,0,1-4,4H32A31,31,0,0,1,1,58V5A4,4,0,0,1,5,1Z" fill="none"/>
          </g>
        </g>
      </g>
    </g>
    <g id="Mask_Group_1099561" data-name="Mask Group 1099561" clip-path="url(#clip-path)">
      <g id="cuestionario" transform="translate(-3315 -10261.494)">
        <path id="Path_1245855" data-name="Path 1245855" d="M36.218,20.317V7.95h-5.3a1.772,1.772,0,0,1-1.767-1.767V.883H2.65A1.772,1.772,0,0,0,.883,2.65V48.585A1.772,1.772,0,0,0,2.65,50.351H28.939a15.9,15.9,0,0,1,7.279-30.034ZM10.6,45.051a5.3,5.3,0,1,1,5.3-5.3A5.3,5.3,0,0,1,10.6,45.051Zm0-14.134a5.3,5.3,0,1,1,5.3-5.3A5.3,5.3,0,0,1,10.6,30.917Zm0-14.134a5.3,5.3,0,1,1,5.3-5.3A5.3,5.3,0,0,1,10.6,16.784Z" fill="#f5f5f5"/>
        <path id="Path_1245856" data-name="Path 1245856" d="M28.267,7.95h2.65a1.772,1.772,0,0,1-1.767-1.767V.883H26.5v5.3A1.772,1.772,0,0,0,28.267,7.95Z" fill="#cfd8dc"/>
        <path id="Path_1245857" data-name="Path 1245857" d="M36.218,20.317V7.95h-2.65V20.317a15.9,15.9,0,0,0-7.279,30.034h2.65a15.9,15.9,0,0,1,7.279-30.034Z" fill="#cfd8dc"/>
        <path id="Path_1245858" data-name="Path 1245858" d="M36.218,7.95h-5.3a1.772,1.772,0,0,1-1.767-1.767V.883Z" fill="#9e9e9e"/>
        <circle id="Ellipse_14222" data-name="Ellipse 14222" cx="5.3" cy="5.3" r="5.3" transform="translate(5.3 6.183)" fill="#a4c400"/>
        <path id="Path_1245859" data-name="Path 1245859" d="M10.6,6.183a5.285,5.285,0,0,0-1.325.177,5.293,5.293,0,0,1,0,10.252A5.3,5.3,0,1,0,10.6,6.184Z" fill="#90ac00"/>
        <circle id="Ellipse_14223" data-name="Ellipse 14223" cx="5.3" cy="5.3" r="5.3" transform="translate(5.3 20.317)" fill="#a4c400"/>
        <path id="Path_1245860" data-name="Path 1245860" d="M10.6,20.317a5.285,5.285,0,0,0-1.325.177,5.293,5.293,0,0,1,0,10.252A5.3,5.3,0,1,0,10.6,20.317Z" fill="#90ac00"/>
        <circle id="Ellipse_14224" data-name="Ellipse 14224" cx="5.3" cy="5.3" r="5.3" transform="translate(5.3 34.451)" fill="#a4c400"/>
        <path id="Path_1245861" data-name="Path 1245861" d="M10.6,34.451a5.285,5.285,0,0,0-1.325.177,5.293,5.293,0,0,1,0,10.252A5.3,5.3,0,1,0,10.6,34.451Z" fill="#90ac00"/>
        <path id="Path_1245862" data-name="Path 1245862" d="M36.218,20.317a15.9,15.9,0,1,0,15.9,15.9,15.9,15.9,0,0,0-15.9-15.9Z" fill="#f44335"/>
        <path id="Path_1245863" data-name="Path 1245863" d="M36.218,20.317c-.447,0-.883.031-1.325.067a15.887,15.887,0,0,1-.04,31.669c.451.038.9.064,1.365.064a15.9,15.9,0,1,0,0-31.8Z" fill="#c81e1e"/>
        <path id="Path_1245864" data-name="Path 1245864" d="M44.168,31.8a7.981,7.981,0,0,1-6.183,7.756v.194a1.767,1.767,0,1,1-3.533,0V37.984a1.772,1.772,0,0,1,1.767-1.767A4.417,4.417,0,1,0,31.8,31.8a1.767,1.767,0,0,1-3.533,0,7.95,7.95,0,0,1,15.9,0Z" fill="#ffdc00"/>
        <circle id="Ellipse_14225" data-name="Ellipse 14225" cx="1.767" cy="1.767" r="1.767" transform="translate(34.451 45.051)" fill="#ffdc00"/>
        <path id="Path_1245865" data-name="Path 1245865" d="M10.6,5.3a6.184,6.184,0,1,0,6.183,6.183A6.183,6.183,0,0,0,10.6,5.3Zm0,10.6a4.417,4.417,0,1,1,4.417-4.417A4.417,4.417,0,0,1,10.6,15.9Z"/>
        <path id="Path_1245866" data-name="Path 1245866" d="M10.6,19.434a6.184,6.184,0,1,0,6.183,6.184A6.184,6.184,0,0,0,10.6,19.434Zm0,10.6a4.417,4.417,0,1,1,4.417-4.417A4.417,4.417,0,0,1,10.6,30.034Z"/>
        <path id="Path_1245867" data-name="Path 1245867" d="M10.6,33.568a6.184,6.184,0,1,0,6.183,6.183A6.183,6.183,0,0,0,10.6,33.568Zm0,10.6a4.417,4.417,0,1,1,4.417-4.417A4.417,4.417,0,0,1,10.6,44.168Z"/>
        <path id="Path_1245868" data-name="Path 1245868" d="M11.66,9.187,9.622,11.906l-.163-.163a.883.883,0,1,0-1.249,1.249l.883.883a.883.883,0,0,0,.625.259H9.78a.883.883,0,0,0,.644-.353l2.65-3.533a.883.883,0,0,0-1.413-1.06Z"/>
        <path id="Path_1245869" data-name="Path 1245869" d="M11.66,23.321,9.622,26.04l-.163-.163a.883.883,0,1,0-1.249,1.249l.883.883a.883.883,0,0,0,.625.259H9.78a.883.883,0,0,0,.644-.353l2.65-3.533a.883.883,0,0,0-1.413-1.06Z"/>
        <path id="Path_1245870" data-name="Path 1245870" d="M11.66,37.454,9.622,40.173l-.163-.163a.883.883,0,1,0-1.249,1.249l.883.883a.883.883,0,0,0,.625.259H9.78a.883.883,0,0,0,.644-.353l2.65-3.533a.883.883,0,0,0-1.413-1.06Z"/>
        <path id="Path_1245871" data-name="Path 1245871" d="M19.434,8.834h5.3a.883.883,0,0,0,0-1.767h-5.3a.883.883,0,1,0,0,1.767Z"/>
        <path id="Path_1245872" data-name="Path 1245872" d="M19.434,12.367H30.917a.883.883,0,0,0,0-1.767H19.434a.883.883,0,1,0,0,1.767Z"/>
        <path id="Path_1245873" data-name="Path 1245873" d="M19.434,15.9h8.834a.883.883,0,1,0,0-1.767H19.434a.883.883,0,1,0,0,1.767Z"/>
        <path id="Path_1245874" data-name="Path 1245874" d="M19.434,22.967h3.533a.883.883,0,0,0,0-1.767H19.434a.883.883,0,1,0,0,1.767Z"/>
        <path id="Path_1245875" data-name="Path 1245875" d="M37.1,19.479V7.95a.883.883,0,0,0-.259-.624L29.775.259A.883.883,0,0,0,29.151,0H2.65A2.65,2.65,0,0,0,0,2.65V48.585a2.65,2.65,0,0,0,2.65,2.65H28.767A16.766,16.766,0,1,0,37.1,19.479ZM30.034,3.016l4.051,4.051H30.917a.883.883,0,0,1-.883-.883ZM2.65,49.468a.883.883,0,0,1-.883-.883V2.65a.883.883,0,0,1,.883-.883H28.267V6.183a2.65,2.65,0,0,0,2.65,2.65h4.417V19.479a16.716,16.716,0,0,0-11.323,5.255H19.434a.883.883,0,1,0,0,1.767h3.124a16.626,16.626,0,0,0-1.117,1.767H19.434a.883.883,0,1,0,0,1.767h1.2a16.636,16.636,0,0,0-1.148,5.3h-.047a.883.883,0,1,0,0,1.767h.045a16.594,16.594,0,0,0,.186,1.767h-.231a.883.883,0,1,0,0,1.767h.61a16.485,16.485,0,0,0,.586,1.767h-1.2a.883.883,0,1,0,0,1.767h2.008a16.872,16.872,0,0,0,4.512,5.3Zm33.568,1.767A15.017,15.017,0,1,1,51.235,36.218,15.017,15.017,0,0,1,36.218,51.235Z"/>
        <path id="Path_1245876" data-name="Path 1245876" d="M36.218,22.967A8.843,8.843,0,0,0,27.384,31.8a2.65,2.65,0,1,0,5.3,0,3.533,3.533,0,1,1,3.533,3.533,2.65,2.65,0,0,0-2.65,2.65v1.767a2.65,2.65,0,0,0,5.254.494,8.834,8.834,0,0,0-2.6-17.278ZM37.786,38.7a.883.883,0,0,0-.685.86v.194a.883.883,0,1,1-1.767,0V37.984a.883.883,0,0,1,.883-.883,5.3,5.3,0,1,0-5.3-5.3.883.883,0,0,1-1.767,0,7.067,7.067,0,1,1,8.636,6.9Z"/>
        <path id="Path_1245877" data-name="Path 1245877" d="M36.218,44.168a2.65,2.65,0,1,0,2.65,2.65,2.65,2.65,0,0,0-2.65-2.65Zm0,3.533a.883.883,0,1,1,.883-.883A.883.883,0,0,1,36.218,47.7Z"/>
      </g>
    </g>
  </g>
</svg>
