<svg xmlns="http://www.w3.org/2000/svg" xmlns:xlink="http://www.w3.org/1999/xlink" width="108" height="108" viewBox="0 0 108 108">
  <defs>
    <filter id="Rectangle_411831" x="0" y="0" width="108" height="108" filterUnits="userSpaceOnUse">
      <feOffset dy="3" input="SourceAlpha"/>
      <feGaussianBlur stdDeviation="3" result="blur"/>
      <feFlood flood-opacity="0.161"/>
      <feComposite operator="in" in2="blur"/>
      <feComposite in="SourceGraphic"/>
    </filter>
    <clipPath id="clip-path">
      <rect id="Rectangle_430334" data-name="Rectangle 430334" width="53" height="60" transform="translate(-3315 -10265)" fill="#fff" stroke="#707070" stroke-width="1" opacity="0"/>
    </clipPath>
  </defs>
  <g id="Group_1260398" data-name="Group 1260398" transform="translate(3342.27 10286)">
    <g id="Group_1242625" data-name="Group 1242625" transform="translate(-3333.27 -10280)">
      <g id="Group_1230590" data-name="Group 1230590">
        <g transform="matrix(1, 0, 0, 1, -9, -6)" filter="url(#Rectangle_411831)">
          <g id="Rectangle_411831-2" data-name="Rectangle 411831" transform="translate(9 6)" fill="#a4e0d4" stroke="#fff" stroke-width="2">
            <path d="M5,0H58A32,32,0,0,1,90,32V85a5,5,0,0,1-5,5H32A32,32,0,0,1,0,58V5A5,5,0,0,1,5,0Z" stroke="none"/>
            <path d="M5,1H58A31,31,0,0,1,89,32V85a4,4,0,0,1-4,4H32A31,31,0,0,1,1,58V5A4,4,0,0,1,5,1Z" fill="none"/>
          </g>
        </g>
      </g>
    </g>
    <g id="Mask_Group_1099567" data-name="Mask Group 1099567" clip-path="url(#clip-path)">
      <g id="cumplimiento" transform="translate(-3317.363 -10264.506)">
        <path id="Path_1245981" data-name="Path 1245981" d="M24.162,34.049c-.017-.016-.034-.031-.05-.048l-.517-.571h14.14a.341.341,0,1,0,0-.682H20.77l-5.582-5.583.1-.216a1.921,1.921,0,0,0-3.1-2.16L9.152,27.822V6.207a3.074,3.074,0,0,1,3.07-3.07H41.255a3.074,3.074,0,0,1,3.07,3.07V45.4a3.074,3.074,0,0,1-3.07,3.07H34.543v-1.32a.341.341,0,0,0-.341-.341H31.628V44.783h6.107a.341.341,0,1,0,0-.682h-6.4l-.1-.149a2.259,2.259,0,0,0-1.867-.989H17.709a2.267,2.267,0,0,0-2.263,2.263v1.581H12.873a.341.341,0,0,0-.341.341v1.322l-.378-.042c-1.758-.194-3-1.138-3-3.03V42.76l6.012-6.014L17,38.572l-.1.216a1.919,1.919,0,0,0,3.1,2.16l3.455-3.455H37.735a.341.341,0,1,0,0-.682H24.253l.259-.5a1.946,1.946,0,0,0,.217-.9,1.9,1.9,0,0,0-.559-1.358Z" fill="#f1f1f2" fill-rule="evenodd"/>
        <path id="Path_1245982" data-name="Path 1245982" d="M45.01,10.026l6.661.889a3.075,3.075,0,0,1,2.637,3.448L49.132,53.211a3.079,3.079,0,0,1-3.451,2.637L21.236,52.592l.042-.637H34.2a.342.342,0,0,0,.341-.341V49.151h6.713A3.758,3.758,0,0,0,45.008,45.4V10.026Z" fill="#60b7ff" fill-rule="evenodd"/>
        <path id="Path_1245983" data-name="Path 1245983" d="M5.8,45.15a1.416,1.416,0,0,1-1.883.1L3.867,45.2l-.033-.061c-.023-.043-.056-.086-.083-.128-.441-.679-.563-1.235.059-1.857l8.883-8.884,2,1.992Z" fill="#968996" fill-rule="evenodd"/>
        <path id="Path_1245984" data-name="Path 1245984" d="M36.591,9.447a31.648,31.648,0,0,1-.381,8.179,17.732,17.732,0,0,1-2.119,5.738A16.813,16.813,0,0,1,26.9,29.711l-.156.08-.156-.08a16.813,16.813,0,0,1-7.195-6.347,17.723,17.723,0,0,1-2.119-5.738,31.6,31.6,0,0,1-.381-8.179l.02-.3.3-.018a17.242,17.242,0,0,0,9.328-3.237l.2-.148.2.148A17.252,17.252,0,0,0,36.269,9.13l.3.018Z" fill="#f1f1f2" fill-rule="evenodd"/>
        <path id="Path_1245985" data-name="Path 1245985" d="M37.224,8.791a.34.34,0,0,0-.33-.313,16.674,16.674,0,0,1-9.945-3.433.34.34,0,0,0-.419,0,16.654,16.654,0,0,1-9.945,3.433.34.34,0,0,0-.325.314c-.4,4.887-.109,10.192,2.356,14.553a17.7,17.7,0,0,0,7.972,7.132.332.332,0,0,0,.155.035.359.359,0,0,0,.15-.035,17.71,17.71,0,0,0,7.972-7.132c2.466-4.361,2.76-9.668,2.36-14.554Z" fill="#60b7ff" fill-rule="evenodd"/>
        <path id="Path_1245986" data-name="Path 1245986" d="M20.487,33.431l.8.8L17.45,38.064,10.9,31.511l3.838-3.836,5.752,5.755Z" fill="#968996" fill-rule="evenodd"/>
        <path id="Path_1245987" data-name="Path 1245987" d="M21.938,34.539a1.235,1.235,0,0,1,1.748,0,1.244,1.244,0,0,1,0,1.752l-4.174,4.177a1.239,1.239,0,0,1-1.752-1.754Z" fill="#968996" fill-rule="evenodd"/>
        <path id="Path_1245988" data-name="Path 1245988" d="M9.154,36.848V32.255l.322-.018a1.9,1.9,0,0,0,.693-.172l.215-.1,1.83,1.824Z" fill="#f1f1f2" fill-rule="evenodd"/>
        <path id="Path_1245989" data-name="Path 1245989" d="M10.246,31.2a1.239,1.239,0,1,1-1.754-1.75l4.177-4.176a1.235,1.235,0,0,1,2.11.876,1.213,1.213,0,0,1-.361.876Z" fill="#968996" fill-rule="evenodd"/>
        <path id="Path_1245990" data-name="Path 1245990" d="M26.584,26.2a11.908,11.908,0,0,1-5.044-4.5,12.613,12.613,0,0,1-1.492-4.035,22.3,22.3,0,0,1-.292-5.709l.019-.3.3-.022a12.46,12.46,0,0,0,6.472-2.252l.2-.142.2.142a12.443,12.443,0,0,0,6.472,2.252l.3.022.019.3a22.292,22.292,0,0,1-.292,5.709,12.667,12.667,0,0,1-1.492,4.035A11.914,11.914,0,0,1,26.9,26.2l-.157.081Z" fill="#f1f1f2" fill-rule="evenodd"/>
        <path id="Path_1245991" data-name="Path 1245991" d="M34.365,11.306a.342.342,0,0,0-.331-.313A11.736,11.736,0,0,1,26.949,8.55a.34.34,0,0,0-.419,0,11.732,11.732,0,0,1-7.082,2.445.342.342,0,0,0-.331.313,23.648,23.648,0,0,0,.266,6.5,13.282,13.282,0,0,0,1.687,4.432,12.862,12.862,0,0,0,5.516,4.732.346.346,0,0,0,.155.035.363.363,0,0,0,.15-.035,12.885,12.885,0,0,0,5.518-4.733A13.277,13.277,0,0,0,34.1,17.807a23.6,23.6,0,0,0,.268-6.5Z" fill="#ffd064" fill-rule="evenodd"/>
        <path id="Path_1245992" data-name="Path 1245992" d="M13.215,47.491H33.863v3.783H13.215Z" fill="#87d4ed" fill-rule="evenodd"/>
        <path id="Path_1245993" data-name="Path 1245993" d="M16.13,46.809V45.228a1.583,1.583,0,0,1,1.58-1.581H29.368a1.583,1.583,0,0,1,1.58,1.581v1.581Z" fill="#87d4ed" fill-rule="evenodd"/>
        <path id="Path_1245994" data-name="Path 1245994" d="M29.34,41.216a.683.683,0,0,1,.682-.682h7.713a.682.682,0,1,1,0,1.364H30.022A.682.682,0,0,1,29.34,41.216Zm1.295-26.129a.676.676,0,0,1,0,.964L26.286,20.4a.678.678,0,0,1-.962,0L22.842,17.92a.682.682,0,1,1,.965-.964l2,2,3.866-3.866a.678.678,0,0,1,.962,0ZM26.741,25.9c3.667-1.9,7.207-5.115,6.646-13.918A12.77,12.77,0,0,1,26.741,9.67,12.774,12.774,0,0,1,20.1,11.984c-.561,8.8,2.979,12.02,6.646,13.918Zm7.3-15.249a11.381,11.381,0,0,1-6.887-2.372.681.681,0,0,0-.84,0,11.373,11.373,0,0,1-6.883,2.372.682.682,0,0,0-.659.625c-.854,10.376,3.643,14,7.657,16a.69.69,0,0,0,.306.072.664.664,0,0,0,.3-.072c4.014-2,8.517-5.624,7.662-16A.677.677,0,0,0,34.046,10.653Zm-7.3,18.754C32,26.717,37.127,22.162,36.25,9.471a17.547,17.547,0,0,1-9.509-3.3,17.547,17.547,0,0,1-9.509,3.3C16.355,22.162,21.478,26.717,26.741,29.407ZM36.9,8.136a16.307,16.307,0,0,1-9.746-3.36.681.681,0,0,0-.84,0,16.284,16.284,0,0,1-9.746,3.36.682.682,0,0,0-.655.626c-.51,6.171.278,10.994,2.4,14.75a17.941,17.941,0,0,0,8.116,7.27.69.69,0,0,0,.306.072.664.664,0,0,0,.3-.072,17.93,17.93,0,0,0,8.116-7.27c2.125-3.754,2.91-8.579,2.4-14.75a.677.677,0,0,0-.656-.626Zm17.065,6.182a2.731,2.731,0,0,0-2.344-3.065l-6.275-.837V45.4a4.1,4.1,0,0,1-4.093,4.093H34.886v2.122a.683.683,0,0,1-.682.682H21.6l24.128,3.214a2.735,2.735,0,0,0,3.068-2.344ZM13.556,47.832H33.522v3.1H13.556Zm17.05-2.605v1.24H16.471v-1.24a1.242,1.242,0,0,1,1.239-1.24H29.368A1.242,1.242,0,0,1,30.607,45.227ZM12.191,47.15a.682.682,0,0,1,.682-.682h2.232v-1.24a2.608,2.608,0,0,1,2.6-2.6H29.368a2.6,2.6,0,0,1,2.149,1.138h6.218a.682.682,0,1,1,0,1.364H31.972v1.342H34.2a.682.682,0,0,1,.682.682v.979h6.372A2.733,2.733,0,0,0,43.987,45.4V6.207a2.733,2.733,0,0,0-2.729-2.729H12.224A2.733,2.733,0,0,0,9.5,6.207V27l2.451-2.449A2.263,2.263,0,0,1,15.6,27.093l5.314,5.315H37.735a.682.682,0,1,1,0,1.364H24.364c.014.016.033.028.047.044a2.238,2.238,0,0,1,.659,1.6,2.281,2.281,0,0,1-.256,1.056H37.735a.682.682,0,1,1,0,1.364H23.59l-3.355,3.355a2.258,2.258,0,0,1-3.649-2.544l-1.42-1.416L9.5,42.9v2.5c0,1.982,1.475,2.556,2.7,2.691ZM5.565,44.907a1.069,1.069,0,0,1-.757.31,1.058,1.058,0,0,1-.673-.236c-.027-.052-.065-.1-.1-.153-.372-.569-.468-.947.014-1.43l8.642-8.643,1.513,1.511ZM9.5,32.577a2.252,2.252,0,0,0,.817-.2l1.42,1.416L9.5,36.026Zm4.683-5.8-4.172,4.176a.9.9,0,0,1-1.272-1.268l4.177-4.176a.9.9,0,0,1,1.266,0,.9.9,0,0,1,0,1.268Zm5.968,6.789h0l.655.655L17.45,37.581,11.38,31.511l3.355-3.354Zm3.3,2.479-4.172,4.176A.9.9,0,0,1,18,38.956L22.18,34.78a.895.895,0,0,1,1.266,0,.9.9,0,0,1,0,1.27ZM51.806,9.9l-6.456-.859V6.207a4.1,4.1,0,0,0-4.093-4.093H12.224A4.1,4.1,0,0,0,8.131,6.207V28.362l-.363.361a2.269,2.269,0,0,0,0,3.2,2.469,2.469,0,0,0,.363.293v5.174L3.087,42.433a2.273,2.273,0,0,0-.19,3.138.4.4,0,0,0,.038.053.629.629,0,0,0,.158.247,2.434,2.434,0,0,0,3.435,0l1.606-1.6V45.4c0,2.322,1.541,3.834,4.061,4.062v2.153a.683.683,0,0,0,.682.682h2.056a4.066,4.066,0,0,0,1.842.732l28.774,3.835a4.262,4.262,0,0,0,.543.036,4.1,4.1,0,0,0,4.057-3.553L55.329,14.5a4.108,4.108,0,0,0-3.522-4.6Z" fill-rule="evenodd"/>
      </g>
    </g>
  </g>
</svg>
